%TF.GenerationSoftware,KiCad,Pcbnew,(5.1.6-0-10_14)*%
%TF.CreationDate,2020-08-18T03:30:43-05:00*%
%TF.ProjectId,Main,4d61696e-2e6b-4696-9361-645f70636258,rev?*%
%TF.SameCoordinates,Original*%
%TF.FileFunction,Soldermask,Bot*%
%TF.FilePolarity,Negative*%
%FSLAX46Y46*%
G04 Gerber Fmt 4.6, Leading zero omitted, Abs format (unit mm)*
G04 Created by KiCad (PCBNEW (5.1.6-0-10_14)) date 2020-08-18 03:30:43*
%MOMM*%
%LPD*%
G01*
G04 APERTURE LIST*
%ADD10C,0.100000*%
G04 APERTURE END LIST*
D10*
G36*
X117618122Y-90993761D02*
G01*
X117716267Y-91013283D01*
X117854942Y-91070724D01*
X117854944Y-91070725D01*
X117917345Y-91112420D01*
X117979747Y-91154116D01*
X118085884Y-91260253D01*
X118169276Y-91385058D01*
X118226717Y-91523733D01*
X118256000Y-91670950D01*
X118256000Y-91821050D01*
X118226717Y-91968267D01*
X118169276Y-92106942D01*
X118085884Y-92231747D01*
X117979747Y-92337884D01*
X117917344Y-92379580D01*
X117854944Y-92421275D01*
X117854943Y-92421276D01*
X117854942Y-92421276D01*
X117716267Y-92478717D01*
X117618122Y-92498239D01*
X117569051Y-92508000D01*
X117418949Y-92508000D01*
X117369878Y-92498239D01*
X117271733Y-92478717D01*
X117133058Y-92421276D01*
X117133057Y-92421276D01*
X117133056Y-92421275D01*
X117070656Y-92379580D01*
X117008253Y-92337884D01*
X116902116Y-92231747D01*
X116818724Y-92106942D01*
X116761283Y-91968267D01*
X116732000Y-91821050D01*
X116732000Y-91670950D01*
X116761283Y-91523733D01*
X116818724Y-91385058D01*
X116902116Y-91260253D01*
X117008253Y-91154116D01*
X117070655Y-91112420D01*
X117133056Y-91070725D01*
X117133058Y-91070724D01*
X117271733Y-91013283D01*
X117369878Y-90993761D01*
X117418949Y-90984000D01*
X117569051Y-90984000D01*
X117618122Y-90993761D01*
G37*
G36*
X102378122Y-90993761D02*
G01*
X102476267Y-91013283D01*
X102614942Y-91070724D01*
X102614944Y-91070725D01*
X102677345Y-91112420D01*
X102739747Y-91154116D01*
X102845884Y-91260253D01*
X102929276Y-91385058D01*
X102986717Y-91523733D01*
X103016000Y-91670950D01*
X103016000Y-91821050D01*
X102986717Y-91968267D01*
X102929276Y-92106942D01*
X102845884Y-92231747D01*
X102739747Y-92337884D01*
X102677344Y-92379580D01*
X102614944Y-92421275D01*
X102614943Y-92421276D01*
X102614942Y-92421276D01*
X102476267Y-92478717D01*
X102378122Y-92498239D01*
X102329051Y-92508000D01*
X102178949Y-92508000D01*
X102129878Y-92498239D01*
X102031733Y-92478717D01*
X101893058Y-92421276D01*
X101893057Y-92421276D01*
X101893056Y-92421275D01*
X101830656Y-92379580D01*
X101768253Y-92337884D01*
X101662116Y-92231747D01*
X101578724Y-92106942D01*
X101521283Y-91968267D01*
X101492000Y-91821050D01*
X101492000Y-91670950D01*
X101521283Y-91523733D01*
X101578724Y-91385058D01*
X101662116Y-91260253D01*
X101768253Y-91154116D01*
X101830655Y-91112420D01*
X101893056Y-91070725D01*
X101893058Y-91070724D01*
X102031733Y-91013283D01*
X102129878Y-90993761D01*
X102178949Y-90984000D01*
X102329051Y-90984000D01*
X102378122Y-90993761D01*
G37*
G36*
X122641716Y-87884545D02*
G01*
X123042091Y-88050385D01*
X123042093Y-88050386D01*
X123222254Y-88170766D01*
X123402418Y-88291148D01*
X123708852Y-88597582D01*
X123949615Y-88957909D01*
X124115455Y-89358284D01*
X124200000Y-89783319D01*
X124200000Y-90216681D01*
X124115455Y-90641716D01*
X123949615Y-91042091D01*
X123949614Y-91042093D01*
X123874763Y-91154115D01*
X123708852Y-91402418D01*
X123402418Y-91708852D01*
X123234502Y-91821050D01*
X123042093Y-91949614D01*
X123042092Y-91949615D01*
X123042091Y-91949615D01*
X122641716Y-92115455D01*
X122216681Y-92200000D01*
X121783319Y-92200000D01*
X121358284Y-92115455D01*
X120957909Y-91949615D01*
X120957908Y-91949615D01*
X120957907Y-91949614D01*
X120765498Y-91821050D01*
X120597582Y-91708852D01*
X120291148Y-91402418D01*
X120125237Y-91154115D01*
X120050386Y-91042093D01*
X120050385Y-91042091D01*
X119884545Y-90641716D01*
X119800000Y-90216681D01*
X119800000Y-89783319D01*
X119884545Y-89358284D01*
X120050385Y-88957909D01*
X120291148Y-88597582D01*
X120597582Y-88291148D01*
X120777746Y-88170766D01*
X120957907Y-88050386D01*
X120957909Y-88050385D01*
X121358284Y-87884545D01*
X121783319Y-87800000D01*
X122216681Y-87800000D01*
X122641716Y-87884545D01*
G37*
G36*
X40641716Y-87884545D02*
G01*
X41042091Y-88050385D01*
X41042093Y-88050386D01*
X41222254Y-88170766D01*
X41402418Y-88291148D01*
X41708852Y-88597582D01*
X41949615Y-88957909D01*
X42115455Y-89358284D01*
X42200000Y-89783319D01*
X42200000Y-90216681D01*
X42115455Y-90641716D01*
X41949615Y-91042091D01*
X41949614Y-91042093D01*
X41874763Y-91154115D01*
X41708852Y-91402418D01*
X41402418Y-91708852D01*
X41234502Y-91821050D01*
X41042093Y-91949614D01*
X41042092Y-91949615D01*
X41042091Y-91949615D01*
X40641716Y-92115455D01*
X40216681Y-92200000D01*
X39783319Y-92200000D01*
X39358284Y-92115455D01*
X38957909Y-91949615D01*
X38957908Y-91949615D01*
X38957907Y-91949614D01*
X38765498Y-91821050D01*
X38597582Y-91708852D01*
X38291148Y-91402418D01*
X38125237Y-91154115D01*
X38050386Y-91042093D01*
X38050385Y-91042091D01*
X37884545Y-90641716D01*
X37800000Y-90216681D01*
X37800000Y-89783319D01*
X37884545Y-89358284D01*
X38050385Y-88957909D01*
X38291148Y-88597582D01*
X38597582Y-88291148D01*
X38777746Y-88170766D01*
X38957907Y-88050386D01*
X38957909Y-88050385D01*
X39358284Y-87884545D01*
X39783319Y-87800000D01*
X40216681Y-87800000D01*
X40641716Y-87884545D01*
G37*
G36*
X102378122Y-88453761D02*
G01*
X102476267Y-88473283D01*
X102614942Y-88530724D01*
X102614944Y-88530725D01*
X102677344Y-88572420D01*
X102739747Y-88614116D01*
X102845884Y-88720253D01*
X102929276Y-88845058D01*
X102986717Y-88983733D01*
X103016000Y-89130950D01*
X103016000Y-89281050D01*
X102986717Y-89428267D01*
X102929276Y-89566942D01*
X102845884Y-89691747D01*
X102739747Y-89797884D01*
X102677344Y-89839580D01*
X102614944Y-89881275D01*
X102614943Y-89881276D01*
X102614942Y-89881276D01*
X102476267Y-89938717D01*
X102378122Y-89958239D01*
X102329051Y-89968000D01*
X102178949Y-89968000D01*
X102129878Y-89958239D01*
X102031733Y-89938717D01*
X101893058Y-89881276D01*
X101893057Y-89881276D01*
X101893056Y-89881275D01*
X101830656Y-89839580D01*
X101768253Y-89797884D01*
X101662116Y-89691747D01*
X101578724Y-89566942D01*
X101521283Y-89428267D01*
X101492000Y-89281050D01*
X101492000Y-89130950D01*
X101521283Y-88983733D01*
X101578724Y-88845058D01*
X101662116Y-88720253D01*
X101768253Y-88614116D01*
X101830655Y-88572420D01*
X101893056Y-88530725D01*
X101893058Y-88530724D01*
X102031733Y-88473283D01*
X102129878Y-88453761D01*
X102178949Y-88444000D01*
X102329051Y-88444000D01*
X102378122Y-88453761D01*
G37*
G36*
X117618122Y-88453761D02*
G01*
X117716267Y-88473283D01*
X117854942Y-88530724D01*
X117854944Y-88530725D01*
X117917344Y-88572420D01*
X117979747Y-88614116D01*
X118085884Y-88720253D01*
X118169276Y-88845058D01*
X118226717Y-88983733D01*
X118256000Y-89130950D01*
X118256000Y-89281050D01*
X118226717Y-89428267D01*
X118169276Y-89566942D01*
X118085884Y-89691747D01*
X117979747Y-89797884D01*
X117917344Y-89839580D01*
X117854944Y-89881275D01*
X117854943Y-89881276D01*
X117854942Y-89881276D01*
X117716267Y-89938717D01*
X117618122Y-89958239D01*
X117569051Y-89968000D01*
X117418949Y-89968000D01*
X117369878Y-89958239D01*
X117271733Y-89938717D01*
X117133058Y-89881276D01*
X117133057Y-89881276D01*
X117133056Y-89881275D01*
X117070656Y-89839580D01*
X117008253Y-89797884D01*
X116902116Y-89691747D01*
X116818724Y-89566942D01*
X116761283Y-89428267D01*
X116732000Y-89281050D01*
X116732000Y-89130950D01*
X116761283Y-88983733D01*
X116818724Y-88845058D01*
X116902116Y-88720253D01*
X117008253Y-88614116D01*
X117070655Y-88572420D01*
X117133056Y-88530725D01*
X117133058Y-88530724D01*
X117271733Y-88473283D01*
X117369878Y-88453761D01*
X117418949Y-88444000D01*
X117569051Y-88444000D01*
X117618122Y-88453761D01*
G37*
G36*
X49500000Y-87500000D02*
G01*
X47500000Y-87500000D01*
X47500000Y-85500000D01*
X49500000Y-85500000D01*
X49500000Y-87500000D01*
G37*
G36*
X117618122Y-85913761D02*
G01*
X117716267Y-85933283D01*
X117854942Y-85990724D01*
X117854944Y-85990725D01*
X117917345Y-86032420D01*
X117979747Y-86074116D01*
X118085884Y-86180253D01*
X118085885Y-86180255D01*
X118155470Y-86284395D01*
X118169276Y-86305058D01*
X118226717Y-86443733D01*
X118256000Y-86590950D01*
X118256000Y-86741050D01*
X118226717Y-86888267D01*
X118169276Y-87026942D01*
X118085884Y-87151747D01*
X117979747Y-87257884D01*
X117917345Y-87299580D01*
X117854944Y-87341275D01*
X117854943Y-87341276D01*
X117854942Y-87341276D01*
X117716267Y-87398717D01*
X117618122Y-87418239D01*
X117569051Y-87428000D01*
X117418949Y-87428000D01*
X117369878Y-87418239D01*
X117271733Y-87398717D01*
X117133058Y-87341276D01*
X117133057Y-87341276D01*
X117133056Y-87341275D01*
X117070656Y-87299580D01*
X117008253Y-87257884D01*
X116902116Y-87151747D01*
X116818724Y-87026942D01*
X116761283Y-86888267D01*
X116732000Y-86741050D01*
X116732000Y-86590950D01*
X116761283Y-86443733D01*
X116818724Y-86305058D01*
X116832531Y-86284395D01*
X116902115Y-86180255D01*
X116902116Y-86180253D01*
X117008253Y-86074116D01*
X117070655Y-86032420D01*
X117133056Y-85990725D01*
X117133058Y-85990724D01*
X117271733Y-85933283D01*
X117369878Y-85913761D01*
X117418949Y-85904000D01*
X117569051Y-85904000D01*
X117618122Y-85913761D01*
G37*
G36*
X102378122Y-85913761D02*
G01*
X102476267Y-85933283D01*
X102614942Y-85990724D01*
X102614944Y-85990725D01*
X102677345Y-86032420D01*
X102739747Y-86074116D01*
X102845884Y-86180253D01*
X102845885Y-86180255D01*
X102915470Y-86284395D01*
X102929276Y-86305058D01*
X102986717Y-86443733D01*
X103016000Y-86590950D01*
X103016000Y-86741050D01*
X102986717Y-86888267D01*
X102929276Y-87026942D01*
X102845884Y-87151747D01*
X102739747Y-87257884D01*
X102677345Y-87299580D01*
X102614944Y-87341275D01*
X102614943Y-87341276D01*
X102614942Y-87341276D01*
X102476267Y-87398717D01*
X102378122Y-87418239D01*
X102329051Y-87428000D01*
X102178949Y-87428000D01*
X102129878Y-87418239D01*
X102031733Y-87398717D01*
X101893058Y-87341276D01*
X101893057Y-87341276D01*
X101893056Y-87341275D01*
X101830656Y-87299580D01*
X101768253Y-87257884D01*
X101662116Y-87151747D01*
X101578724Y-87026942D01*
X101521283Y-86888267D01*
X101492000Y-86741050D01*
X101492000Y-86590950D01*
X101521283Y-86443733D01*
X101578724Y-86305058D01*
X101592531Y-86284395D01*
X101662115Y-86180255D01*
X101662116Y-86180253D01*
X101768253Y-86074116D01*
X101830655Y-86032420D01*
X101893056Y-85990725D01*
X101893058Y-85990724D01*
X102031733Y-85933283D01*
X102129878Y-85913761D01*
X102178949Y-85904000D01*
X102329051Y-85904000D01*
X102378122Y-85913761D01*
G37*
G36*
X93690213Y-85043734D02*
G01*
X93784397Y-85062468D01*
X93961836Y-85135966D01*
X94121527Y-85242668D01*
X94257332Y-85378473D01*
X94364034Y-85538164D01*
X94437532Y-85715603D01*
X94475000Y-85903971D01*
X94475000Y-86096029D01*
X94437532Y-86284397D01*
X94364034Y-86461836D01*
X94257332Y-86621527D01*
X94121527Y-86757332D01*
X93961836Y-86864034D01*
X93784397Y-86937532D01*
X93690213Y-86956266D01*
X93596031Y-86975000D01*
X93403969Y-86975000D01*
X93309787Y-86956266D01*
X93215603Y-86937532D01*
X93038164Y-86864034D01*
X92878473Y-86757332D01*
X92742668Y-86621527D01*
X92635966Y-86461836D01*
X92562468Y-86284397D01*
X92525000Y-86096029D01*
X92525000Y-85903971D01*
X92562468Y-85715603D01*
X92635966Y-85538164D01*
X92742668Y-85378473D01*
X92878473Y-85242668D01*
X93038164Y-85135966D01*
X93215603Y-85062468D01*
X93309787Y-85043734D01*
X93403969Y-85025000D01*
X93596031Y-85025000D01*
X93690213Y-85043734D01*
G37*
G36*
X88690213Y-85043734D02*
G01*
X88784397Y-85062468D01*
X88961836Y-85135966D01*
X89121527Y-85242668D01*
X89257332Y-85378473D01*
X89364034Y-85538164D01*
X89437532Y-85715603D01*
X89475000Y-85903971D01*
X89475000Y-86096029D01*
X89437532Y-86284397D01*
X89364034Y-86461836D01*
X89257332Y-86621527D01*
X89121527Y-86757332D01*
X88961836Y-86864034D01*
X88784397Y-86937532D01*
X88690213Y-86956266D01*
X88596031Y-86975000D01*
X88403969Y-86975000D01*
X88309787Y-86956266D01*
X88215603Y-86937532D01*
X88038164Y-86864034D01*
X87878473Y-86757332D01*
X87742668Y-86621527D01*
X87635966Y-86461836D01*
X87562468Y-86284397D01*
X87525000Y-86096029D01*
X87525000Y-85903971D01*
X87562468Y-85715603D01*
X87635966Y-85538164D01*
X87742668Y-85378473D01*
X87878473Y-85242668D01*
X88038164Y-85135966D01*
X88215603Y-85062468D01*
X88309787Y-85043734D01*
X88403969Y-85025000D01*
X88596031Y-85025000D01*
X88690213Y-85043734D01*
G37*
G36*
X83690213Y-85043734D02*
G01*
X83784397Y-85062468D01*
X83961836Y-85135966D01*
X84121527Y-85242668D01*
X84257332Y-85378473D01*
X84364034Y-85538164D01*
X84437532Y-85715603D01*
X84475000Y-85903971D01*
X84475000Y-86096029D01*
X84437532Y-86284397D01*
X84364034Y-86461836D01*
X84257332Y-86621527D01*
X84121527Y-86757332D01*
X83961836Y-86864034D01*
X83784397Y-86937532D01*
X83690213Y-86956266D01*
X83596031Y-86975000D01*
X83403969Y-86975000D01*
X83309787Y-86956266D01*
X83215603Y-86937532D01*
X83038164Y-86864034D01*
X82878473Y-86757332D01*
X82742668Y-86621527D01*
X82635966Y-86461836D01*
X82562468Y-86284397D01*
X82525000Y-86096029D01*
X82525000Y-85903971D01*
X82562468Y-85715603D01*
X82635966Y-85538164D01*
X82742668Y-85378473D01*
X82878473Y-85242668D01*
X83038164Y-85135966D01*
X83215603Y-85062468D01*
X83309787Y-85043734D01*
X83403969Y-85025000D01*
X83596031Y-85025000D01*
X83690213Y-85043734D01*
G37*
G36*
X78690213Y-85043734D02*
G01*
X78784397Y-85062468D01*
X78961836Y-85135966D01*
X79121527Y-85242668D01*
X79257332Y-85378473D01*
X79364034Y-85538164D01*
X79437532Y-85715603D01*
X79475000Y-85903971D01*
X79475000Y-86096029D01*
X79437532Y-86284397D01*
X79364034Y-86461836D01*
X79257332Y-86621527D01*
X79121527Y-86757332D01*
X78961836Y-86864034D01*
X78784397Y-86937532D01*
X78690213Y-86956266D01*
X78596031Y-86975000D01*
X78403969Y-86975000D01*
X78309787Y-86956266D01*
X78215603Y-86937532D01*
X78038164Y-86864034D01*
X77878473Y-86757332D01*
X77742668Y-86621527D01*
X77635966Y-86461836D01*
X77562468Y-86284397D01*
X77525000Y-86096029D01*
X77525000Y-85903971D01*
X77562468Y-85715603D01*
X77635966Y-85538164D01*
X77742668Y-85378473D01*
X77878473Y-85242668D01*
X78038164Y-85135966D01*
X78215603Y-85062468D01*
X78309787Y-85043734D01*
X78403969Y-85025000D01*
X78596031Y-85025000D01*
X78690213Y-85043734D01*
G37*
G36*
X73690213Y-85043734D02*
G01*
X73784397Y-85062468D01*
X73961836Y-85135966D01*
X74121527Y-85242668D01*
X74257332Y-85378473D01*
X74364034Y-85538164D01*
X74437532Y-85715603D01*
X74475000Y-85903971D01*
X74475000Y-86096029D01*
X74437532Y-86284397D01*
X74364034Y-86461836D01*
X74257332Y-86621527D01*
X74121527Y-86757332D01*
X73961836Y-86864034D01*
X73784397Y-86937532D01*
X73690213Y-86956266D01*
X73596031Y-86975000D01*
X73403969Y-86975000D01*
X73309787Y-86956266D01*
X73215603Y-86937532D01*
X73038164Y-86864034D01*
X72878473Y-86757332D01*
X72742668Y-86621527D01*
X72635966Y-86461836D01*
X72562468Y-86284397D01*
X72525000Y-86096029D01*
X72525000Y-85903971D01*
X72562468Y-85715603D01*
X72635966Y-85538164D01*
X72742668Y-85378473D01*
X72878473Y-85242668D01*
X73038164Y-85135966D01*
X73215603Y-85062468D01*
X73309787Y-85043734D01*
X73403969Y-85025000D01*
X73596031Y-85025000D01*
X73690213Y-85043734D01*
G37*
G36*
X68690213Y-85043734D02*
G01*
X68784397Y-85062468D01*
X68961836Y-85135966D01*
X69121527Y-85242668D01*
X69257332Y-85378473D01*
X69364034Y-85538164D01*
X69437532Y-85715603D01*
X69475000Y-85903971D01*
X69475000Y-86096029D01*
X69437532Y-86284397D01*
X69364034Y-86461836D01*
X69257332Y-86621527D01*
X69121527Y-86757332D01*
X68961836Y-86864034D01*
X68784397Y-86937532D01*
X68690213Y-86956266D01*
X68596031Y-86975000D01*
X68403969Y-86975000D01*
X68309787Y-86956266D01*
X68215603Y-86937532D01*
X68038164Y-86864034D01*
X67878473Y-86757332D01*
X67742668Y-86621527D01*
X67635966Y-86461836D01*
X67562468Y-86284397D01*
X67525000Y-86096029D01*
X67525000Y-85903971D01*
X67562468Y-85715603D01*
X67635966Y-85538164D01*
X67742668Y-85378473D01*
X67878473Y-85242668D01*
X68038164Y-85135966D01*
X68215603Y-85062468D01*
X68309787Y-85043734D01*
X68403969Y-85025000D01*
X68596031Y-85025000D01*
X68690213Y-85043734D01*
G37*
G36*
X63690213Y-85043734D02*
G01*
X63784397Y-85062468D01*
X63961836Y-85135966D01*
X64121527Y-85242668D01*
X64257332Y-85378473D01*
X64364034Y-85538164D01*
X64437532Y-85715603D01*
X64475000Y-85903971D01*
X64475000Y-86096029D01*
X64437532Y-86284397D01*
X64364034Y-86461836D01*
X64257332Y-86621527D01*
X64121527Y-86757332D01*
X63961836Y-86864034D01*
X63784397Y-86937532D01*
X63690213Y-86956266D01*
X63596031Y-86975000D01*
X63403969Y-86975000D01*
X63309787Y-86956266D01*
X63215603Y-86937532D01*
X63038164Y-86864034D01*
X62878473Y-86757332D01*
X62742668Y-86621527D01*
X62635966Y-86461836D01*
X62562468Y-86284397D01*
X62525000Y-86096029D01*
X62525000Y-85903971D01*
X62562468Y-85715603D01*
X62635966Y-85538164D01*
X62742668Y-85378473D01*
X62878473Y-85242668D01*
X63038164Y-85135966D01*
X63215603Y-85062468D01*
X63309787Y-85043734D01*
X63403969Y-85025000D01*
X63596031Y-85025000D01*
X63690213Y-85043734D01*
G37*
G36*
X59475000Y-86975000D02*
G01*
X57525000Y-86975000D01*
X57525000Y-85025000D01*
X59475000Y-85025000D01*
X59475000Y-86975000D01*
G37*
G36*
X102378122Y-83373761D02*
G01*
X102476267Y-83393283D01*
X102614942Y-83450724D01*
X102614944Y-83450725D01*
X102677344Y-83492420D01*
X102739747Y-83534116D01*
X102845884Y-83640253D01*
X102929276Y-83765058D01*
X102986717Y-83903733D01*
X103016000Y-84050950D01*
X103016000Y-84201050D01*
X102986717Y-84348267D01*
X102929276Y-84486942D01*
X102845884Y-84611747D01*
X102739747Y-84717884D01*
X102677344Y-84759580D01*
X102614944Y-84801275D01*
X102614943Y-84801276D01*
X102614942Y-84801276D01*
X102476267Y-84858717D01*
X102378122Y-84878239D01*
X102329051Y-84888000D01*
X102178949Y-84888000D01*
X102129878Y-84878239D01*
X102031733Y-84858717D01*
X101893058Y-84801276D01*
X101893057Y-84801276D01*
X101893056Y-84801275D01*
X101830656Y-84759580D01*
X101768253Y-84717884D01*
X101662116Y-84611747D01*
X101578724Y-84486942D01*
X101521283Y-84348267D01*
X101492000Y-84201050D01*
X101492000Y-84050950D01*
X101521283Y-83903733D01*
X101578724Y-83765058D01*
X101662116Y-83640253D01*
X101768253Y-83534116D01*
X101830656Y-83492420D01*
X101893056Y-83450725D01*
X101893058Y-83450724D01*
X102031733Y-83393283D01*
X102129878Y-83373761D01*
X102178949Y-83364000D01*
X102329051Y-83364000D01*
X102378122Y-83373761D01*
G37*
G36*
X117618122Y-83373761D02*
G01*
X117716267Y-83393283D01*
X117854942Y-83450724D01*
X117854944Y-83450725D01*
X117917344Y-83492420D01*
X117979747Y-83534116D01*
X118085884Y-83640253D01*
X118169276Y-83765058D01*
X118226717Y-83903733D01*
X118256000Y-84050950D01*
X118256000Y-84201050D01*
X118226717Y-84348267D01*
X118169276Y-84486942D01*
X118085884Y-84611747D01*
X117979747Y-84717884D01*
X117917344Y-84759580D01*
X117854944Y-84801275D01*
X117854943Y-84801276D01*
X117854942Y-84801276D01*
X117716267Y-84858717D01*
X117618122Y-84878239D01*
X117569051Y-84888000D01*
X117418949Y-84888000D01*
X117369878Y-84878239D01*
X117271733Y-84858717D01*
X117133058Y-84801276D01*
X117133057Y-84801276D01*
X117133056Y-84801275D01*
X117070656Y-84759580D01*
X117008253Y-84717884D01*
X116902116Y-84611747D01*
X116818724Y-84486942D01*
X116761283Y-84348267D01*
X116732000Y-84201050D01*
X116732000Y-84050950D01*
X116761283Y-83903733D01*
X116818724Y-83765058D01*
X116902116Y-83640253D01*
X117008253Y-83534116D01*
X117070656Y-83492420D01*
X117133056Y-83450725D01*
X117133058Y-83450724D01*
X117271733Y-83393283D01*
X117369878Y-83373761D01*
X117418949Y-83364000D01*
X117569051Y-83364000D01*
X117618122Y-83373761D01*
G37*
G36*
X39800000Y-83300000D02*
G01*
X38200000Y-83300000D01*
X38200000Y-81700000D01*
X39800000Y-81700000D01*
X39800000Y-83300000D01*
G37*
G36*
X48695090Y-80519215D02*
G01*
X48791689Y-80538429D01*
X48973678Y-80613811D01*
X49137463Y-80723249D01*
X49276751Y-80862537D01*
X49386189Y-81026322D01*
X49461571Y-81208311D01*
X49464902Y-81225058D01*
X49500000Y-81401507D01*
X49500000Y-81598493D01*
X49487556Y-81661051D01*
X49461571Y-81791689D01*
X49386189Y-81973678D01*
X49276751Y-82137463D01*
X49137463Y-82276751D01*
X48973678Y-82386189D01*
X48791689Y-82461571D01*
X48695090Y-82480786D01*
X48598493Y-82500000D01*
X48401507Y-82500000D01*
X48304910Y-82480786D01*
X48208311Y-82461571D01*
X48026322Y-82386189D01*
X47862537Y-82276751D01*
X47723249Y-82137463D01*
X47613811Y-81973678D01*
X47538429Y-81791689D01*
X47512444Y-81661051D01*
X47500000Y-81598493D01*
X47500000Y-81401507D01*
X47535098Y-81225058D01*
X47538429Y-81208311D01*
X47613811Y-81026322D01*
X47723249Y-80862537D01*
X47862537Y-80723249D01*
X48026322Y-80613811D01*
X48208311Y-80538429D01*
X48304910Y-80519215D01*
X48401507Y-80500000D01*
X48598493Y-80500000D01*
X48695090Y-80519215D01*
G37*
G36*
X117618122Y-80833761D02*
G01*
X117716267Y-80853283D01*
X117854942Y-80910724D01*
X117854944Y-80910725D01*
X117917344Y-80952420D01*
X117979747Y-80994116D01*
X118085884Y-81100253D01*
X118085885Y-81100255D01*
X118158088Y-81208313D01*
X118169276Y-81225058D01*
X118226717Y-81363733D01*
X118256000Y-81510950D01*
X118256000Y-81661050D01*
X118226717Y-81808267D01*
X118169276Y-81946942D01*
X118085884Y-82071747D01*
X117979747Y-82177884D01*
X117917344Y-82219580D01*
X117854944Y-82261275D01*
X117854943Y-82261276D01*
X117854942Y-82261276D01*
X117716267Y-82318717D01*
X117618122Y-82338239D01*
X117569051Y-82348000D01*
X117418949Y-82348000D01*
X117369878Y-82338239D01*
X117271733Y-82318717D01*
X117133058Y-82261276D01*
X117133057Y-82261276D01*
X117133056Y-82261275D01*
X117070655Y-82219580D01*
X117008253Y-82177884D01*
X116902116Y-82071747D01*
X116818724Y-81946942D01*
X116761283Y-81808267D01*
X116732000Y-81661050D01*
X116732000Y-81510950D01*
X116761283Y-81363733D01*
X116818724Y-81225058D01*
X116829913Y-81208313D01*
X116902115Y-81100255D01*
X116902116Y-81100253D01*
X117008253Y-80994116D01*
X117070656Y-80952420D01*
X117133056Y-80910725D01*
X117133058Y-80910724D01*
X117271733Y-80853283D01*
X117369878Y-80833761D01*
X117418949Y-80824000D01*
X117569051Y-80824000D01*
X117618122Y-80833761D01*
G37*
G36*
X102378122Y-80833761D02*
G01*
X102476267Y-80853283D01*
X102614942Y-80910724D01*
X102614944Y-80910725D01*
X102677344Y-80952420D01*
X102739747Y-80994116D01*
X102845884Y-81100253D01*
X102845885Y-81100255D01*
X102918088Y-81208313D01*
X102929276Y-81225058D01*
X102986717Y-81363733D01*
X103016000Y-81510950D01*
X103016000Y-81661050D01*
X102986717Y-81808267D01*
X102929276Y-81946942D01*
X102845884Y-82071747D01*
X102739747Y-82177884D01*
X102677344Y-82219580D01*
X102614944Y-82261275D01*
X102614943Y-82261276D01*
X102614942Y-82261276D01*
X102476267Y-82318717D01*
X102378122Y-82338239D01*
X102329051Y-82348000D01*
X102178949Y-82348000D01*
X102129878Y-82338239D01*
X102031733Y-82318717D01*
X101893058Y-82261276D01*
X101893057Y-82261276D01*
X101893056Y-82261275D01*
X101830655Y-82219580D01*
X101768253Y-82177884D01*
X101662116Y-82071747D01*
X101578724Y-81946942D01*
X101521283Y-81808267D01*
X101492000Y-81661050D01*
X101492000Y-81510950D01*
X101521283Y-81363733D01*
X101578724Y-81225058D01*
X101589913Y-81208313D01*
X101662115Y-81100255D01*
X101662116Y-81100253D01*
X101768253Y-80994116D01*
X101830656Y-80952420D01*
X101893056Y-80910725D01*
X101893058Y-80910724D01*
X102031733Y-80853283D01*
X102129878Y-80833761D01*
X102178949Y-80824000D01*
X102329051Y-80824000D01*
X102378122Y-80833761D01*
G37*
G36*
X73690213Y-80043734D02*
G01*
X73784397Y-80062468D01*
X73961836Y-80135966D01*
X74121527Y-80242668D01*
X74257332Y-80378473D01*
X74364034Y-80538164D01*
X74437532Y-80715603D01*
X74456266Y-80809787D01*
X74475000Y-80903969D01*
X74475000Y-81096031D01*
X74456266Y-81190213D01*
X74437532Y-81284397D01*
X74364034Y-81461836D01*
X74257332Y-81621527D01*
X74121527Y-81757332D01*
X73961836Y-81864034D01*
X73784397Y-81937532D01*
X73690213Y-81956266D01*
X73596031Y-81975000D01*
X73403969Y-81975000D01*
X73309787Y-81956266D01*
X73215603Y-81937532D01*
X73038164Y-81864034D01*
X72878473Y-81757332D01*
X72742668Y-81621527D01*
X72635966Y-81461836D01*
X72562468Y-81284397D01*
X72543734Y-81190213D01*
X72525000Y-81096031D01*
X72525000Y-80903969D01*
X72543734Y-80809787D01*
X72562468Y-80715603D01*
X72635966Y-80538164D01*
X72742668Y-80378473D01*
X72878473Y-80242668D01*
X73038164Y-80135966D01*
X73215603Y-80062468D01*
X73309787Y-80043734D01*
X73403969Y-80025000D01*
X73596031Y-80025000D01*
X73690213Y-80043734D01*
G37*
G36*
X59475000Y-81975000D02*
G01*
X57525000Y-81975000D01*
X57525000Y-80025000D01*
X59475000Y-80025000D01*
X59475000Y-81975000D01*
G37*
G36*
X63690213Y-80043734D02*
G01*
X63784397Y-80062468D01*
X63961836Y-80135966D01*
X64121527Y-80242668D01*
X64257332Y-80378473D01*
X64364034Y-80538164D01*
X64437532Y-80715603D01*
X64456266Y-80809787D01*
X64475000Y-80903969D01*
X64475000Y-81096031D01*
X64456266Y-81190213D01*
X64437532Y-81284397D01*
X64364034Y-81461836D01*
X64257332Y-81621527D01*
X64121527Y-81757332D01*
X63961836Y-81864034D01*
X63784397Y-81937532D01*
X63690213Y-81956266D01*
X63596031Y-81975000D01*
X63403969Y-81975000D01*
X63309787Y-81956266D01*
X63215603Y-81937532D01*
X63038164Y-81864034D01*
X62878473Y-81757332D01*
X62742668Y-81621527D01*
X62635966Y-81461836D01*
X62562468Y-81284397D01*
X62543734Y-81190213D01*
X62525000Y-81096031D01*
X62525000Y-80903969D01*
X62543734Y-80809787D01*
X62562468Y-80715603D01*
X62635966Y-80538164D01*
X62742668Y-80378473D01*
X62878473Y-80242668D01*
X63038164Y-80135966D01*
X63215603Y-80062468D01*
X63309787Y-80043734D01*
X63403969Y-80025000D01*
X63596031Y-80025000D01*
X63690213Y-80043734D01*
G37*
G36*
X68690213Y-80043734D02*
G01*
X68784397Y-80062468D01*
X68961836Y-80135966D01*
X69121527Y-80242668D01*
X69257332Y-80378473D01*
X69364034Y-80538164D01*
X69437532Y-80715603D01*
X69456266Y-80809787D01*
X69475000Y-80903969D01*
X69475000Y-81096031D01*
X69456266Y-81190213D01*
X69437532Y-81284397D01*
X69364034Y-81461836D01*
X69257332Y-81621527D01*
X69121527Y-81757332D01*
X68961836Y-81864034D01*
X68784397Y-81937532D01*
X68690213Y-81956266D01*
X68596031Y-81975000D01*
X68403969Y-81975000D01*
X68309787Y-81956266D01*
X68215603Y-81937532D01*
X68038164Y-81864034D01*
X67878473Y-81757332D01*
X67742668Y-81621527D01*
X67635966Y-81461836D01*
X67562468Y-81284397D01*
X67543734Y-81190213D01*
X67525000Y-81096031D01*
X67525000Y-80903969D01*
X67543734Y-80809787D01*
X67562468Y-80715603D01*
X67635966Y-80538164D01*
X67742668Y-80378473D01*
X67878473Y-80242668D01*
X68038164Y-80135966D01*
X68215603Y-80062468D01*
X68309787Y-80043734D01*
X68403969Y-80025000D01*
X68596031Y-80025000D01*
X68690213Y-80043734D01*
G37*
G36*
X78690213Y-80043734D02*
G01*
X78784397Y-80062468D01*
X78961836Y-80135966D01*
X79121527Y-80242668D01*
X79257332Y-80378473D01*
X79364034Y-80538164D01*
X79437532Y-80715603D01*
X79456266Y-80809787D01*
X79475000Y-80903969D01*
X79475000Y-81096031D01*
X79456266Y-81190213D01*
X79437532Y-81284397D01*
X79364034Y-81461836D01*
X79257332Y-81621527D01*
X79121527Y-81757332D01*
X78961836Y-81864034D01*
X78784397Y-81937532D01*
X78690213Y-81956266D01*
X78596031Y-81975000D01*
X78403969Y-81975000D01*
X78309787Y-81956266D01*
X78215603Y-81937532D01*
X78038164Y-81864034D01*
X77878473Y-81757332D01*
X77742668Y-81621527D01*
X77635966Y-81461836D01*
X77562468Y-81284397D01*
X77543734Y-81190213D01*
X77525000Y-81096031D01*
X77525000Y-80903969D01*
X77543734Y-80809787D01*
X77562468Y-80715603D01*
X77635966Y-80538164D01*
X77742668Y-80378473D01*
X77878473Y-80242668D01*
X78038164Y-80135966D01*
X78215603Y-80062468D01*
X78309787Y-80043734D01*
X78403969Y-80025000D01*
X78596031Y-80025000D01*
X78690213Y-80043734D01*
G37*
G36*
X83690213Y-80043734D02*
G01*
X83784397Y-80062468D01*
X83961836Y-80135966D01*
X84121527Y-80242668D01*
X84257332Y-80378473D01*
X84364034Y-80538164D01*
X84437532Y-80715603D01*
X84456266Y-80809787D01*
X84475000Y-80903969D01*
X84475000Y-81096031D01*
X84456266Y-81190213D01*
X84437532Y-81284397D01*
X84364034Y-81461836D01*
X84257332Y-81621527D01*
X84121527Y-81757332D01*
X83961836Y-81864034D01*
X83784397Y-81937532D01*
X83690213Y-81956266D01*
X83596031Y-81975000D01*
X83403969Y-81975000D01*
X83309787Y-81956266D01*
X83215603Y-81937532D01*
X83038164Y-81864034D01*
X82878473Y-81757332D01*
X82742668Y-81621527D01*
X82635966Y-81461836D01*
X82562468Y-81284397D01*
X82543734Y-81190213D01*
X82525000Y-81096031D01*
X82525000Y-80903969D01*
X82543734Y-80809787D01*
X82562468Y-80715603D01*
X82635966Y-80538164D01*
X82742668Y-80378473D01*
X82878473Y-80242668D01*
X83038164Y-80135966D01*
X83215603Y-80062468D01*
X83309787Y-80043734D01*
X83403969Y-80025000D01*
X83596031Y-80025000D01*
X83690213Y-80043734D01*
G37*
G36*
X88690213Y-80043734D02*
G01*
X88784397Y-80062468D01*
X88961836Y-80135966D01*
X89121527Y-80242668D01*
X89257332Y-80378473D01*
X89364034Y-80538164D01*
X89437532Y-80715603D01*
X89456266Y-80809787D01*
X89475000Y-80903969D01*
X89475000Y-81096031D01*
X89456266Y-81190213D01*
X89437532Y-81284397D01*
X89364034Y-81461836D01*
X89257332Y-81621527D01*
X89121527Y-81757332D01*
X88961836Y-81864034D01*
X88784397Y-81937532D01*
X88690213Y-81956266D01*
X88596031Y-81975000D01*
X88403969Y-81975000D01*
X88309787Y-81956266D01*
X88215603Y-81937532D01*
X88038164Y-81864034D01*
X87878473Y-81757332D01*
X87742668Y-81621527D01*
X87635966Y-81461836D01*
X87562468Y-81284397D01*
X87543734Y-81190213D01*
X87525000Y-81096031D01*
X87525000Y-80903969D01*
X87543734Y-80809787D01*
X87562468Y-80715603D01*
X87635966Y-80538164D01*
X87742668Y-80378473D01*
X87878473Y-80242668D01*
X88038164Y-80135966D01*
X88215603Y-80062468D01*
X88309787Y-80043734D01*
X88403969Y-80025000D01*
X88596031Y-80025000D01*
X88690213Y-80043734D01*
G37*
G36*
X93690213Y-80043734D02*
G01*
X93784397Y-80062468D01*
X93961836Y-80135966D01*
X94121527Y-80242668D01*
X94257332Y-80378473D01*
X94364034Y-80538164D01*
X94437532Y-80715603D01*
X94456266Y-80809787D01*
X94475000Y-80903969D01*
X94475000Y-81096031D01*
X94456266Y-81190213D01*
X94437532Y-81284397D01*
X94364034Y-81461836D01*
X94257332Y-81621527D01*
X94121527Y-81757332D01*
X93961836Y-81864034D01*
X93784397Y-81937532D01*
X93690213Y-81956266D01*
X93596031Y-81975000D01*
X93403969Y-81975000D01*
X93309787Y-81956266D01*
X93215603Y-81937532D01*
X93038164Y-81864034D01*
X92878473Y-81757332D01*
X92742668Y-81621527D01*
X92635966Y-81461836D01*
X92562468Y-81284397D01*
X92543734Y-81190213D01*
X92525000Y-81096031D01*
X92525000Y-80903969D01*
X92543734Y-80809787D01*
X92562468Y-80715603D01*
X92635966Y-80538164D01*
X92742668Y-80378473D01*
X92878473Y-80242668D01*
X93038164Y-80135966D01*
X93215603Y-80062468D01*
X93309787Y-80043734D01*
X93403969Y-80025000D01*
X93596031Y-80025000D01*
X93690213Y-80043734D01*
G37*
G36*
X102378122Y-78293761D02*
G01*
X102476267Y-78313283D01*
X102614942Y-78370724D01*
X102614944Y-78370725D01*
X102677345Y-78412420D01*
X102739747Y-78454116D01*
X102845884Y-78560253D01*
X102929276Y-78685058D01*
X102986717Y-78823733D01*
X103016000Y-78970950D01*
X103016000Y-79121050D01*
X102986717Y-79268267D01*
X102929276Y-79406942D01*
X102845884Y-79531747D01*
X102739747Y-79637884D01*
X102677344Y-79679580D01*
X102614944Y-79721275D01*
X102614943Y-79721276D01*
X102614942Y-79721276D01*
X102476267Y-79778717D01*
X102378122Y-79798239D01*
X102329051Y-79808000D01*
X102178949Y-79808000D01*
X102129878Y-79798239D01*
X102031733Y-79778717D01*
X101893058Y-79721276D01*
X101893057Y-79721276D01*
X101893056Y-79721275D01*
X101830656Y-79679580D01*
X101768253Y-79637884D01*
X101662116Y-79531747D01*
X101578724Y-79406942D01*
X101521283Y-79268267D01*
X101492000Y-79121050D01*
X101492000Y-78970950D01*
X101521283Y-78823733D01*
X101578724Y-78685058D01*
X101662116Y-78560253D01*
X101768253Y-78454116D01*
X101830655Y-78412420D01*
X101893056Y-78370725D01*
X101893058Y-78370724D01*
X102031733Y-78313283D01*
X102129878Y-78293761D01*
X102178949Y-78284000D01*
X102329051Y-78284000D01*
X102378122Y-78293761D01*
G37*
G36*
X117618122Y-78293761D02*
G01*
X117716267Y-78313283D01*
X117854942Y-78370724D01*
X117854944Y-78370725D01*
X117917345Y-78412420D01*
X117979747Y-78454116D01*
X118085884Y-78560253D01*
X118169276Y-78685058D01*
X118226717Y-78823733D01*
X118256000Y-78970950D01*
X118256000Y-79121050D01*
X118226717Y-79268267D01*
X118169276Y-79406942D01*
X118085884Y-79531747D01*
X117979747Y-79637884D01*
X117917344Y-79679580D01*
X117854944Y-79721275D01*
X117854943Y-79721276D01*
X117854942Y-79721276D01*
X117716267Y-79778717D01*
X117618122Y-79798239D01*
X117569051Y-79808000D01*
X117418949Y-79808000D01*
X117369878Y-79798239D01*
X117271733Y-79778717D01*
X117133058Y-79721276D01*
X117133057Y-79721276D01*
X117133056Y-79721275D01*
X117070656Y-79679580D01*
X117008253Y-79637884D01*
X116902116Y-79531747D01*
X116818724Y-79406942D01*
X116761283Y-79268267D01*
X116732000Y-79121050D01*
X116732000Y-78970950D01*
X116761283Y-78823733D01*
X116818724Y-78685058D01*
X116902116Y-78560253D01*
X117008253Y-78454116D01*
X117070655Y-78412420D01*
X117133056Y-78370725D01*
X117133058Y-78370724D01*
X117271733Y-78313283D01*
X117369878Y-78293761D01*
X117418949Y-78284000D01*
X117569051Y-78284000D01*
X117618122Y-78293761D01*
G37*
G36*
X117618122Y-75753761D02*
G01*
X117716267Y-75773283D01*
X117854942Y-75830724D01*
X117854944Y-75830725D01*
X117905045Y-75864202D01*
X117979747Y-75914116D01*
X118085884Y-76020253D01*
X118169276Y-76145058D01*
X118226717Y-76283733D01*
X118256000Y-76430950D01*
X118256000Y-76581050D01*
X118226717Y-76728267D01*
X118169276Y-76866942D01*
X118085884Y-76991747D01*
X117979747Y-77097884D01*
X117917344Y-77139580D01*
X117854944Y-77181275D01*
X117854943Y-77181276D01*
X117854942Y-77181276D01*
X117716267Y-77238717D01*
X117618122Y-77258239D01*
X117569051Y-77268000D01*
X117418949Y-77268000D01*
X117369878Y-77258239D01*
X117271733Y-77238717D01*
X117133058Y-77181276D01*
X117133057Y-77181276D01*
X117133056Y-77181275D01*
X117070655Y-77139580D01*
X117008253Y-77097884D01*
X116902116Y-76991747D01*
X116818724Y-76866942D01*
X116761283Y-76728267D01*
X116732000Y-76581050D01*
X116732000Y-76430950D01*
X116761283Y-76283733D01*
X116818724Y-76145058D01*
X116902116Y-76020253D01*
X117008253Y-75914116D01*
X117082955Y-75864202D01*
X117133056Y-75830725D01*
X117133058Y-75830724D01*
X117271733Y-75773283D01*
X117369878Y-75753761D01*
X117418949Y-75744000D01*
X117569051Y-75744000D01*
X117618122Y-75753761D01*
G37*
G36*
X102378122Y-75753761D02*
G01*
X102476267Y-75773283D01*
X102614942Y-75830724D01*
X102614944Y-75830725D01*
X102665045Y-75864202D01*
X102739747Y-75914116D01*
X102845884Y-76020253D01*
X102929276Y-76145058D01*
X102986717Y-76283733D01*
X103016000Y-76430950D01*
X103016000Y-76581050D01*
X102986717Y-76728267D01*
X102929276Y-76866942D01*
X102845884Y-76991747D01*
X102739747Y-77097884D01*
X102677344Y-77139580D01*
X102614944Y-77181275D01*
X102614943Y-77181276D01*
X102614942Y-77181276D01*
X102476267Y-77238717D01*
X102378122Y-77258239D01*
X102329051Y-77268000D01*
X102178949Y-77268000D01*
X102129878Y-77258239D01*
X102031733Y-77238717D01*
X101893058Y-77181276D01*
X101893057Y-77181276D01*
X101893056Y-77181275D01*
X101830655Y-77139580D01*
X101768253Y-77097884D01*
X101662116Y-76991747D01*
X101578724Y-76866942D01*
X101521283Y-76728267D01*
X101492000Y-76581050D01*
X101492000Y-76430950D01*
X101521283Y-76283733D01*
X101578724Y-76145058D01*
X101662116Y-76020253D01*
X101768253Y-75914116D01*
X101842955Y-75864202D01*
X101893056Y-75830725D01*
X101893058Y-75830724D01*
X102031733Y-75773283D01*
X102129878Y-75753761D01*
X102178949Y-75744000D01*
X102329051Y-75744000D01*
X102378122Y-75753761D01*
G37*
G36*
X48068217Y-71646115D02*
G01*
X48300054Y-71692230D01*
X48679150Y-71849257D01*
X48736828Y-71873148D01*
X48785569Y-71905716D01*
X49129911Y-72135798D01*
X49464202Y-72470089D01*
X49464203Y-72470091D01*
X49638366Y-72730743D01*
X49726853Y-72863174D01*
X49907770Y-73299946D01*
X49931890Y-73421206D01*
X50000000Y-73763619D01*
X50000000Y-74236381D01*
X49973415Y-74370032D01*
X49907770Y-74700054D01*
X49726853Y-75136826D01*
X49464202Y-75529911D01*
X49129911Y-75864202D01*
X49055211Y-75914115D01*
X48736828Y-76126852D01*
X48736827Y-76126853D01*
X48736826Y-76126853D01*
X48300054Y-76307770D01*
X48068217Y-76353885D01*
X47836381Y-76400000D01*
X47363619Y-76400000D01*
X47131783Y-76353885D01*
X46899946Y-76307770D01*
X46463174Y-76126853D01*
X46463173Y-76126853D01*
X46463172Y-76126852D01*
X46144789Y-75914115D01*
X46070089Y-75864202D01*
X45735798Y-75529911D01*
X45473147Y-75136826D01*
X45292230Y-74700054D01*
X45226585Y-74370032D01*
X45200000Y-74236381D01*
X45200000Y-73763619D01*
X45268110Y-73421206D01*
X45292230Y-73299946D01*
X45473147Y-72863174D01*
X45561635Y-72730743D01*
X45735797Y-72470091D01*
X45735798Y-72470089D01*
X46070089Y-72135798D01*
X46414431Y-71905716D01*
X46463172Y-71873148D01*
X46520850Y-71849257D01*
X46899946Y-71692230D01*
X47131783Y-71646115D01*
X47363619Y-71600000D01*
X47836381Y-71600000D01*
X48068217Y-71646115D01*
G37*
G36*
X39130312Y-74090248D02*
G01*
X39233351Y-74110743D01*
X39378942Y-74171049D01*
X39509970Y-74258599D01*
X39621401Y-74370030D01*
X39708951Y-74501058D01*
X39769257Y-74646649D01*
X39800000Y-74801207D01*
X39800000Y-74958793D01*
X39769257Y-75113351D01*
X39708951Y-75258942D01*
X39621401Y-75389970D01*
X39509970Y-75501401D01*
X39378942Y-75588951D01*
X39233351Y-75649257D01*
X39130312Y-75669752D01*
X39078794Y-75680000D01*
X38921206Y-75680000D01*
X38869688Y-75669752D01*
X38766649Y-75649257D01*
X38621058Y-75588951D01*
X38490030Y-75501401D01*
X38378599Y-75389970D01*
X38291049Y-75258942D01*
X38230743Y-75113351D01*
X38200000Y-74958793D01*
X38200000Y-74801207D01*
X38230743Y-74646649D01*
X38291049Y-74501058D01*
X38378599Y-74370030D01*
X38490030Y-74258599D01*
X38621058Y-74171049D01*
X38766649Y-74110743D01*
X38869688Y-74090248D01*
X38921206Y-74080000D01*
X39078794Y-74080000D01*
X39130312Y-74090248D01*
G37*
G36*
X117618122Y-73213761D02*
G01*
X117716267Y-73233283D01*
X117854942Y-73290724D01*
X117854944Y-73290725D01*
X117868744Y-73299946D01*
X117979747Y-73374116D01*
X118085884Y-73480253D01*
X118169276Y-73605058D01*
X118226717Y-73743733D01*
X118230673Y-73763621D01*
X118253612Y-73878942D01*
X118256000Y-73890950D01*
X118256000Y-74041050D01*
X118226717Y-74188267D01*
X118169276Y-74326942D01*
X118169275Y-74326944D01*
X118167934Y-74328951D01*
X118085884Y-74451747D01*
X117979747Y-74557884D01*
X117917345Y-74599580D01*
X117854944Y-74641275D01*
X117854943Y-74641276D01*
X117854942Y-74641276D01*
X117716267Y-74698717D01*
X117618122Y-74718239D01*
X117569051Y-74728000D01*
X117418949Y-74728000D01*
X117369878Y-74718239D01*
X117271733Y-74698717D01*
X117133058Y-74641276D01*
X117133057Y-74641276D01*
X117133056Y-74641275D01*
X117070655Y-74599580D01*
X117008253Y-74557884D01*
X116902116Y-74451747D01*
X116820066Y-74328951D01*
X116818725Y-74326944D01*
X116818724Y-74326942D01*
X116761283Y-74188267D01*
X116732000Y-74041050D01*
X116732000Y-73890950D01*
X116734389Y-73878942D01*
X116757327Y-73763621D01*
X116761283Y-73743733D01*
X116818724Y-73605058D01*
X116902116Y-73480253D01*
X117008253Y-73374116D01*
X117119256Y-73299946D01*
X117133056Y-73290725D01*
X117133058Y-73290724D01*
X117271733Y-73233283D01*
X117369878Y-73213761D01*
X117418949Y-73204000D01*
X117569051Y-73204000D01*
X117618122Y-73213761D01*
G37*
G36*
X102378122Y-73213761D02*
G01*
X102476267Y-73233283D01*
X102614942Y-73290724D01*
X102614944Y-73290725D01*
X102628744Y-73299946D01*
X102739747Y-73374116D01*
X102845884Y-73480253D01*
X102929276Y-73605058D01*
X102986717Y-73743733D01*
X102990673Y-73763621D01*
X103013612Y-73878942D01*
X103016000Y-73890950D01*
X103016000Y-74041050D01*
X102986717Y-74188267D01*
X102929276Y-74326942D01*
X102929275Y-74326944D01*
X102927934Y-74328951D01*
X102845884Y-74451747D01*
X102739747Y-74557884D01*
X102677345Y-74599580D01*
X102614944Y-74641275D01*
X102614943Y-74641276D01*
X102614942Y-74641276D01*
X102476267Y-74698717D01*
X102378122Y-74718239D01*
X102329051Y-74728000D01*
X102178949Y-74728000D01*
X102129878Y-74718239D01*
X102031733Y-74698717D01*
X101893058Y-74641276D01*
X101893057Y-74641276D01*
X101893056Y-74641275D01*
X101830655Y-74599580D01*
X101768253Y-74557884D01*
X101662116Y-74451747D01*
X101580066Y-74328951D01*
X101578725Y-74326944D01*
X101578724Y-74326942D01*
X101521283Y-74188267D01*
X101492000Y-74041050D01*
X101492000Y-73890950D01*
X101494389Y-73878942D01*
X101517327Y-73763621D01*
X101521283Y-73743733D01*
X101578724Y-73605058D01*
X101662116Y-73480253D01*
X101768253Y-73374116D01*
X101879256Y-73299946D01*
X101893056Y-73290725D01*
X101893058Y-73290724D01*
X102031733Y-73233283D01*
X102129878Y-73213761D01*
X102178949Y-73204000D01*
X102329051Y-73204000D01*
X102378122Y-73213761D01*
G37*
G36*
X98920000Y-74420000D02*
G01*
X97320000Y-74420000D01*
X97320000Y-72820000D01*
X98920000Y-72820000D01*
X98920000Y-74420000D01*
G37*
G36*
X90630312Y-72830248D02*
G01*
X90733351Y-72850743D01*
X90878942Y-72911049D01*
X91009970Y-72998599D01*
X91121401Y-73110030D01*
X91208951Y-73241058D01*
X91269257Y-73386649D01*
X91276131Y-73421207D01*
X91300000Y-73541206D01*
X91300000Y-73698794D01*
X91293126Y-73733351D01*
X91269257Y-73853351D01*
X91208951Y-73998942D01*
X91121401Y-74129970D01*
X91009970Y-74241401D01*
X90878942Y-74328951D01*
X90733351Y-74389257D01*
X90630312Y-74409752D01*
X90578794Y-74420000D01*
X90421206Y-74420000D01*
X90369688Y-74409752D01*
X90266649Y-74389257D01*
X90121058Y-74328951D01*
X89990030Y-74241401D01*
X89878599Y-74129970D01*
X89791049Y-73998942D01*
X89730743Y-73853351D01*
X89706874Y-73733351D01*
X89700000Y-73698794D01*
X89700000Y-73541206D01*
X89723869Y-73421207D01*
X89730743Y-73386649D01*
X89791049Y-73241058D01*
X89878599Y-73110030D01*
X89990030Y-72998599D01*
X90121058Y-72911049D01*
X90266649Y-72850743D01*
X90369688Y-72830248D01*
X90421206Y-72820000D01*
X90578794Y-72820000D01*
X90630312Y-72830248D01*
G37*
G36*
X75130312Y-72710248D02*
G01*
X75233351Y-72730743D01*
X75378942Y-72791049D01*
X75509970Y-72878599D01*
X75621401Y-72990030D01*
X75708951Y-73121058D01*
X75769257Y-73266649D01*
X75774046Y-73290725D01*
X75793127Y-73386651D01*
X75800000Y-73421207D01*
X75800000Y-73578793D01*
X75769257Y-73733351D01*
X75708951Y-73878942D01*
X75621401Y-74009970D01*
X75509970Y-74121401D01*
X75378942Y-74208951D01*
X75233351Y-74269257D01*
X75130312Y-74289752D01*
X75078794Y-74300000D01*
X74921206Y-74300000D01*
X74869688Y-74289752D01*
X74766649Y-74269257D01*
X74621058Y-74208951D01*
X74490030Y-74121401D01*
X74378599Y-74009970D01*
X74291049Y-73878942D01*
X74230743Y-73733351D01*
X74200000Y-73578793D01*
X74200000Y-73421207D01*
X74206874Y-73386651D01*
X74225954Y-73290725D01*
X74230743Y-73266649D01*
X74291049Y-73121058D01*
X74378599Y-72990030D01*
X74490030Y-72878599D01*
X74621058Y-72791049D01*
X74766649Y-72730743D01*
X74869688Y-72710248D01*
X74921206Y-72700000D01*
X75078794Y-72700000D01*
X75130312Y-72710248D01*
G37*
G36*
X67510312Y-72710248D02*
G01*
X67613351Y-72730743D01*
X67758942Y-72791049D01*
X67889970Y-72878599D01*
X68001401Y-72990030D01*
X68088951Y-73121058D01*
X68149257Y-73266649D01*
X68154046Y-73290725D01*
X68173127Y-73386651D01*
X68180000Y-73421207D01*
X68180000Y-73578793D01*
X68149257Y-73733351D01*
X68088951Y-73878942D01*
X68001401Y-74009970D01*
X67889970Y-74121401D01*
X67758942Y-74208951D01*
X67613351Y-74269257D01*
X67510312Y-74289752D01*
X67458794Y-74300000D01*
X67301206Y-74300000D01*
X67249688Y-74289752D01*
X67146649Y-74269257D01*
X67001058Y-74208951D01*
X66870030Y-74121401D01*
X66758599Y-74009970D01*
X66671049Y-73878942D01*
X66610743Y-73733351D01*
X66580000Y-73578793D01*
X66580000Y-73421207D01*
X66586874Y-73386651D01*
X66605954Y-73290725D01*
X66610743Y-73266649D01*
X66671049Y-73121058D01*
X66758599Y-72990030D01*
X66870030Y-72878599D01*
X67001058Y-72791049D01*
X67146649Y-72730743D01*
X67249688Y-72710248D01*
X67301206Y-72700000D01*
X67458794Y-72700000D01*
X67510312Y-72710248D01*
G37*
G36*
X83130312Y-72710248D02*
G01*
X83233351Y-72730743D01*
X83378942Y-72791049D01*
X83509970Y-72878599D01*
X83621401Y-72990030D01*
X83708951Y-73121058D01*
X83769257Y-73266649D01*
X83774046Y-73290725D01*
X83793127Y-73386651D01*
X83800000Y-73421207D01*
X83800000Y-73578793D01*
X83769257Y-73733351D01*
X83708951Y-73878942D01*
X83621401Y-74009970D01*
X83509970Y-74121401D01*
X83378942Y-74208951D01*
X83233351Y-74269257D01*
X83130312Y-74289752D01*
X83078794Y-74300000D01*
X82921206Y-74300000D01*
X82869688Y-74289752D01*
X82766649Y-74269257D01*
X82621058Y-74208951D01*
X82490030Y-74121401D01*
X82378599Y-74009970D01*
X82291049Y-73878942D01*
X82230743Y-73733351D01*
X82200000Y-73578793D01*
X82200000Y-73421207D01*
X82206874Y-73386651D01*
X82225954Y-73290725D01*
X82230743Y-73266649D01*
X82291049Y-73121058D01*
X82378599Y-72990030D01*
X82490030Y-72878599D01*
X82621058Y-72791049D01*
X82766649Y-72730743D01*
X82869688Y-72710248D01*
X82921206Y-72700000D01*
X83078794Y-72700000D01*
X83130312Y-72710248D01*
G37*
G36*
X78130312Y-72710248D02*
G01*
X78233351Y-72730743D01*
X78378942Y-72791049D01*
X78509970Y-72878599D01*
X78621401Y-72990030D01*
X78708951Y-73121058D01*
X78769257Y-73266649D01*
X78774046Y-73290725D01*
X78793127Y-73386651D01*
X78800000Y-73421207D01*
X78800000Y-73578793D01*
X78769257Y-73733351D01*
X78708951Y-73878942D01*
X78621401Y-74009970D01*
X78509970Y-74121401D01*
X78378942Y-74208951D01*
X78233351Y-74269257D01*
X78130312Y-74289752D01*
X78078794Y-74300000D01*
X77921206Y-74300000D01*
X77869688Y-74289752D01*
X77766649Y-74269257D01*
X77621058Y-74208951D01*
X77490030Y-74121401D01*
X77378599Y-74009970D01*
X77291049Y-73878942D01*
X77230743Y-73733351D01*
X77200000Y-73578793D01*
X77200000Y-73421207D01*
X77206874Y-73386651D01*
X77225954Y-73290725D01*
X77230743Y-73266649D01*
X77291049Y-73121058D01*
X77378599Y-72990030D01*
X77490030Y-72878599D01*
X77621058Y-72791049D01*
X77766649Y-72730743D01*
X77869688Y-72710248D01*
X77921206Y-72700000D01*
X78078794Y-72700000D01*
X78130312Y-72710248D01*
G37*
G36*
X60726725Y-71013782D02*
G01*
X60906270Y-71068247D01*
X61071738Y-71156691D01*
X61216778Y-71275722D01*
X61335806Y-71420758D01*
X61424254Y-71586235D01*
X61478718Y-71765776D01*
X61492500Y-71905707D01*
X61492500Y-72094294D01*
X61478718Y-72234225D01*
X61424253Y-72413770D01*
X61335809Y-72579238D01*
X61216778Y-72724278D01*
X61071742Y-72843306D01*
X60906265Y-72931754D01*
X60726724Y-72986218D01*
X60540000Y-73004609D01*
X60353275Y-72986218D01*
X60173730Y-72931753D01*
X60008262Y-72843309D01*
X59863222Y-72724278D01*
X59744194Y-72579242D01*
X59655746Y-72413765D01*
X59601282Y-72234224D01*
X59587500Y-72094293D01*
X59587500Y-71905706D01*
X59601282Y-71765775D01*
X59655747Y-71586230D01*
X59744191Y-71420762D01*
X59863222Y-71275722D01*
X60008258Y-71156694D01*
X60173735Y-71068246D01*
X60353276Y-71013782D01*
X60540000Y-70995391D01*
X60726725Y-71013782D01*
G37*
G36*
X58186725Y-71013782D02*
G01*
X58366270Y-71068247D01*
X58531738Y-71156691D01*
X58676778Y-71275722D01*
X58795806Y-71420758D01*
X58884254Y-71586235D01*
X58938718Y-71765776D01*
X58952500Y-71905707D01*
X58952500Y-72094294D01*
X58938718Y-72234225D01*
X58884253Y-72413770D01*
X58795809Y-72579238D01*
X58676778Y-72724278D01*
X58531742Y-72843306D01*
X58366265Y-72931754D01*
X58186724Y-72986218D01*
X58000000Y-73004609D01*
X57813275Y-72986218D01*
X57633730Y-72931753D01*
X57468262Y-72843309D01*
X57323222Y-72724278D01*
X57204194Y-72579242D01*
X57115746Y-72413765D01*
X57061282Y-72234224D01*
X57047500Y-72094293D01*
X57047500Y-71905706D01*
X57061282Y-71765775D01*
X57115747Y-71586230D01*
X57204191Y-71420762D01*
X57323222Y-71275722D01*
X57468258Y-71156694D01*
X57633735Y-71068246D01*
X57813276Y-71013782D01*
X58000000Y-70995391D01*
X58186725Y-71013782D01*
G37*
G36*
X64032500Y-73000000D02*
G01*
X62127500Y-73000000D01*
X62127500Y-71000000D01*
X64032500Y-71000000D01*
X64032500Y-73000000D01*
G37*
G36*
X117618122Y-70673761D02*
G01*
X117716267Y-70693283D01*
X117854942Y-70750724D01*
X117854944Y-70750725D01*
X117917344Y-70792420D01*
X117979747Y-70834116D01*
X118085884Y-70940253D01*
X118085885Y-70940255D01*
X118135015Y-71013782D01*
X118169276Y-71065058D01*
X118226717Y-71203733D01*
X118256000Y-71350950D01*
X118256000Y-71501050D01*
X118226717Y-71648267D01*
X118178043Y-71765776D01*
X118169275Y-71786944D01*
X118167934Y-71788951D01*
X118085884Y-71911747D01*
X117979747Y-72017884D01*
X117917344Y-72059580D01*
X117854944Y-72101275D01*
X117854943Y-72101276D01*
X117854942Y-72101276D01*
X117716267Y-72158717D01*
X117618122Y-72178239D01*
X117569051Y-72188000D01*
X117418949Y-72188000D01*
X117369878Y-72178239D01*
X117271733Y-72158717D01*
X117133058Y-72101276D01*
X117133057Y-72101276D01*
X117133056Y-72101275D01*
X117070656Y-72059580D01*
X117008253Y-72017884D01*
X116902116Y-71911747D01*
X116820066Y-71788951D01*
X116818725Y-71786944D01*
X116809957Y-71765776D01*
X116761283Y-71648267D01*
X116732000Y-71501050D01*
X116732000Y-71350950D01*
X116761283Y-71203733D01*
X116818724Y-71065058D01*
X116852986Y-71013782D01*
X116902115Y-70940255D01*
X116902116Y-70940253D01*
X117008253Y-70834116D01*
X117070656Y-70792420D01*
X117133056Y-70750725D01*
X117133058Y-70750724D01*
X117271733Y-70693283D01*
X117369878Y-70673761D01*
X117418949Y-70664000D01*
X117569051Y-70664000D01*
X117618122Y-70673761D01*
G37*
G36*
X102378122Y-70673761D02*
G01*
X102476267Y-70693283D01*
X102614942Y-70750724D01*
X102614944Y-70750725D01*
X102677344Y-70792420D01*
X102739747Y-70834116D01*
X102845884Y-70940253D01*
X102845885Y-70940255D01*
X102895015Y-71013782D01*
X102929276Y-71065058D01*
X102986717Y-71203733D01*
X103016000Y-71350950D01*
X103016000Y-71501050D01*
X102986717Y-71648267D01*
X102938043Y-71765776D01*
X102929275Y-71786944D01*
X102927934Y-71788951D01*
X102845884Y-71911747D01*
X102739747Y-72017884D01*
X102677344Y-72059580D01*
X102614944Y-72101275D01*
X102614943Y-72101276D01*
X102614942Y-72101276D01*
X102476267Y-72158717D01*
X102378122Y-72178239D01*
X102329051Y-72188000D01*
X102178949Y-72188000D01*
X102129878Y-72178239D01*
X102031733Y-72158717D01*
X101893058Y-72101276D01*
X101893057Y-72101276D01*
X101893056Y-72101275D01*
X101830656Y-72059580D01*
X101768253Y-72017884D01*
X101662116Y-71911747D01*
X101580066Y-71788951D01*
X101578725Y-71786944D01*
X101569957Y-71765776D01*
X101521283Y-71648267D01*
X101492000Y-71501050D01*
X101492000Y-71350950D01*
X101521283Y-71203733D01*
X101578724Y-71065058D01*
X101612986Y-71013782D01*
X101662115Y-70940255D01*
X101662116Y-70940253D01*
X101768253Y-70834116D01*
X101830656Y-70792420D01*
X101893056Y-70750725D01*
X101893058Y-70750724D01*
X102031733Y-70693283D01*
X102129878Y-70673761D01*
X102178949Y-70664000D01*
X102329051Y-70664000D01*
X102378122Y-70673761D01*
G37*
G36*
X90630312Y-70290248D02*
G01*
X90733351Y-70310743D01*
X90878942Y-70371049D01*
X91009970Y-70458599D01*
X91121401Y-70570030D01*
X91208951Y-70701058D01*
X91269257Y-70846649D01*
X91269257Y-70846651D01*
X91298844Y-70995392D01*
X91300000Y-71001207D01*
X91300000Y-71158793D01*
X91269257Y-71313351D01*
X91208951Y-71458942D01*
X91121401Y-71589970D01*
X91009970Y-71701401D01*
X90878942Y-71788951D01*
X90733351Y-71849257D01*
X90630312Y-71869752D01*
X90578794Y-71880000D01*
X90421206Y-71880000D01*
X90369688Y-71869752D01*
X90266649Y-71849257D01*
X90121058Y-71788951D01*
X89990030Y-71701401D01*
X89878599Y-71589970D01*
X89791049Y-71458942D01*
X89730743Y-71313351D01*
X89700000Y-71158793D01*
X89700000Y-71001207D01*
X89701157Y-70995392D01*
X89730743Y-70846651D01*
X89730743Y-70846649D01*
X89791049Y-70701058D01*
X89878599Y-70570030D01*
X89990030Y-70458599D01*
X90121058Y-70371049D01*
X90266649Y-70310743D01*
X90369688Y-70290248D01*
X90421206Y-70280000D01*
X90578794Y-70280000D01*
X90630312Y-70290248D01*
G37*
G36*
X98250312Y-70290248D02*
G01*
X98353351Y-70310743D01*
X98498942Y-70371049D01*
X98629970Y-70458599D01*
X98741401Y-70570030D01*
X98828951Y-70701058D01*
X98889257Y-70846649D01*
X98889257Y-70846651D01*
X98918844Y-70995392D01*
X98920000Y-71001207D01*
X98920000Y-71158793D01*
X98889257Y-71313351D01*
X98828951Y-71458942D01*
X98741401Y-71589970D01*
X98629970Y-71701401D01*
X98498942Y-71788951D01*
X98353351Y-71849257D01*
X98250312Y-71869752D01*
X98198794Y-71880000D01*
X98041206Y-71880000D01*
X97989688Y-71869752D01*
X97886649Y-71849257D01*
X97741058Y-71788951D01*
X97610030Y-71701401D01*
X97498599Y-71589970D01*
X97411049Y-71458942D01*
X97350743Y-71313351D01*
X97320000Y-71158793D01*
X97320000Y-71001207D01*
X97321157Y-70995392D01*
X97350743Y-70846651D01*
X97350743Y-70846649D01*
X97411049Y-70701058D01*
X97498599Y-70570030D01*
X97610030Y-70458599D01*
X97741058Y-70371049D01*
X97886649Y-70310743D01*
X97989688Y-70290248D01*
X98041206Y-70280000D01*
X98198794Y-70280000D01*
X98250312Y-70290248D01*
G37*
G36*
X51068217Y-66846115D02*
G01*
X51300054Y-66892230D01*
X51736826Y-67073147D01*
X51736828Y-67073148D01*
X51933369Y-67204473D01*
X52129911Y-67335798D01*
X52464202Y-67670089D01*
X52464203Y-67670091D01*
X52704709Y-68030032D01*
X52726853Y-68063174D01*
X52907770Y-68499946D01*
X52912765Y-68525058D01*
X53000000Y-68963619D01*
X53000000Y-69436381D01*
X52991744Y-69477885D01*
X52907770Y-69900054D01*
X52754841Y-70269257D01*
X52726852Y-70336828D01*
X52645488Y-70458598D01*
X52464202Y-70729911D01*
X52129911Y-71064202D01*
X51988344Y-71158794D01*
X51736828Y-71326852D01*
X51736827Y-71326853D01*
X51736826Y-71326853D01*
X51300054Y-71507770D01*
X51068216Y-71553885D01*
X50836381Y-71600000D01*
X50363619Y-71600000D01*
X50131784Y-71553885D01*
X49899946Y-71507770D01*
X49463174Y-71326853D01*
X49463173Y-71326853D01*
X49463172Y-71326852D01*
X49211656Y-71158794D01*
X49070089Y-71064202D01*
X48735798Y-70729911D01*
X48554512Y-70458598D01*
X48473148Y-70336828D01*
X48445159Y-70269257D01*
X48292230Y-69900054D01*
X48208256Y-69477885D01*
X48200000Y-69436381D01*
X48200000Y-68963619D01*
X48287235Y-68525058D01*
X48292230Y-68499946D01*
X48473147Y-68063174D01*
X48495292Y-68030032D01*
X48735797Y-67670091D01*
X48735798Y-67670089D01*
X49070089Y-67335798D01*
X49266631Y-67204473D01*
X49463172Y-67073148D01*
X49463174Y-67073147D01*
X49899946Y-66892230D01*
X50131783Y-66846115D01*
X50363619Y-66800000D01*
X50836381Y-66800000D01*
X51068217Y-66846115D01*
G37*
G36*
X45268217Y-66846115D02*
G01*
X45500054Y-66892230D01*
X45936826Y-67073147D01*
X45936828Y-67073148D01*
X46133369Y-67204473D01*
X46329911Y-67335798D01*
X46664202Y-67670089D01*
X46664203Y-67670091D01*
X46904709Y-68030032D01*
X46926853Y-68063174D01*
X47107770Y-68499946D01*
X47112765Y-68525058D01*
X47200000Y-68963619D01*
X47200000Y-69436381D01*
X47191744Y-69477885D01*
X47107770Y-69900054D01*
X46954841Y-70269257D01*
X46926852Y-70336828D01*
X46845488Y-70458598D01*
X46664202Y-70729911D01*
X46329911Y-71064202D01*
X46188344Y-71158794D01*
X45936828Y-71326852D01*
X45936827Y-71326853D01*
X45936826Y-71326853D01*
X45500054Y-71507770D01*
X45268216Y-71553885D01*
X45036381Y-71600000D01*
X44563619Y-71600000D01*
X44331784Y-71553885D01*
X44099946Y-71507770D01*
X43663174Y-71326853D01*
X43663173Y-71326853D01*
X43663172Y-71326852D01*
X43411656Y-71158794D01*
X43270089Y-71064202D01*
X42935798Y-70729911D01*
X42754512Y-70458598D01*
X42673148Y-70336828D01*
X42645159Y-70269257D01*
X42492230Y-69900054D01*
X42408256Y-69477885D01*
X42400000Y-69436381D01*
X42400000Y-68963619D01*
X42487235Y-68525058D01*
X42492230Y-68499946D01*
X42673147Y-68063174D01*
X42695292Y-68030032D01*
X42935797Y-67670091D01*
X42935798Y-67670089D01*
X43270089Y-67335798D01*
X43466631Y-67204473D01*
X43663172Y-67073148D01*
X43663174Y-67073147D01*
X44099946Y-66892230D01*
X44331783Y-66846115D01*
X44563619Y-66800000D01*
X45036381Y-66800000D01*
X45268217Y-66846115D01*
G37*
G36*
X85630312Y-68710248D02*
G01*
X85733351Y-68730743D01*
X85878942Y-68791049D01*
X86009970Y-68878599D01*
X86121401Y-68990030D01*
X86208951Y-69121058D01*
X86269257Y-69266649D01*
X86300000Y-69421207D01*
X86300000Y-69578793D01*
X86269257Y-69733351D01*
X86208951Y-69878942D01*
X86121401Y-70009970D01*
X86009970Y-70121401D01*
X85878942Y-70208951D01*
X85733351Y-70269257D01*
X85630312Y-70289752D01*
X85578794Y-70300000D01*
X85421206Y-70300000D01*
X85369688Y-70289752D01*
X85266649Y-70269257D01*
X85121058Y-70208951D01*
X84990030Y-70121401D01*
X84878599Y-70009970D01*
X84791049Y-69878942D01*
X84730743Y-69733351D01*
X84700000Y-69578793D01*
X84700000Y-69421207D01*
X84730743Y-69266649D01*
X84791049Y-69121058D01*
X84878599Y-68990030D01*
X84990030Y-68878599D01*
X85121058Y-68791049D01*
X85266649Y-68730743D01*
X85369688Y-68710248D01*
X85421206Y-68700000D01*
X85578794Y-68700000D01*
X85630312Y-68710248D01*
G37*
G36*
X117618122Y-68133761D02*
G01*
X117716267Y-68153283D01*
X117854942Y-68210724D01*
X117854944Y-68210725D01*
X117917345Y-68252420D01*
X117979747Y-68294116D01*
X118085884Y-68400253D01*
X118169276Y-68525058D01*
X118226717Y-68663733D01*
X118226717Y-68663735D01*
X118252042Y-68791049D01*
X118256000Y-68810950D01*
X118256000Y-68961050D01*
X118226717Y-69108267D01*
X118169276Y-69246942D01*
X118169275Y-69246944D01*
X118167934Y-69248951D01*
X118085884Y-69371747D01*
X117979747Y-69477884D01*
X117917345Y-69519580D01*
X117854944Y-69561275D01*
X117854943Y-69561276D01*
X117854942Y-69561276D01*
X117716267Y-69618717D01*
X117618122Y-69638239D01*
X117569051Y-69648000D01*
X117418949Y-69648000D01*
X117369878Y-69638239D01*
X117271733Y-69618717D01*
X117133058Y-69561276D01*
X117133057Y-69561276D01*
X117133056Y-69561275D01*
X117070655Y-69519580D01*
X117008253Y-69477884D01*
X116902116Y-69371747D01*
X116820066Y-69248951D01*
X116818725Y-69246944D01*
X116818724Y-69246942D01*
X116761283Y-69108267D01*
X116732000Y-68961050D01*
X116732000Y-68810950D01*
X116735959Y-68791049D01*
X116761283Y-68663735D01*
X116761283Y-68663733D01*
X116818724Y-68525058D01*
X116902116Y-68400253D01*
X117008253Y-68294116D01*
X117070656Y-68252420D01*
X117133056Y-68210725D01*
X117133058Y-68210724D01*
X117271733Y-68153283D01*
X117369878Y-68133761D01*
X117418949Y-68124000D01*
X117569051Y-68124000D01*
X117618122Y-68133761D01*
G37*
G36*
X102378122Y-68133761D02*
G01*
X102476267Y-68153283D01*
X102614942Y-68210724D01*
X102614944Y-68210725D01*
X102677345Y-68252420D01*
X102739747Y-68294116D01*
X102845884Y-68400253D01*
X102929276Y-68525058D01*
X102986717Y-68663733D01*
X102986717Y-68663735D01*
X103012042Y-68791049D01*
X103016000Y-68810950D01*
X103016000Y-68961050D01*
X102986717Y-69108267D01*
X102929276Y-69246942D01*
X102929275Y-69246944D01*
X102927934Y-69248951D01*
X102845884Y-69371747D01*
X102739747Y-69477884D01*
X102677345Y-69519580D01*
X102614944Y-69561275D01*
X102614943Y-69561276D01*
X102614942Y-69561276D01*
X102476267Y-69618717D01*
X102378122Y-69638239D01*
X102329051Y-69648000D01*
X102178949Y-69648000D01*
X102129878Y-69638239D01*
X102031733Y-69618717D01*
X101893058Y-69561276D01*
X101893057Y-69561276D01*
X101893056Y-69561275D01*
X101830655Y-69519580D01*
X101768253Y-69477884D01*
X101662116Y-69371747D01*
X101580066Y-69248951D01*
X101578725Y-69246944D01*
X101578724Y-69246942D01*
X101521283Y-69108267D01*
X101492000Y-68961050D01*
X101492000Y-68810950D01*
X101495959Y-68791049D01*
X101521283Y-68663735D01*
X101521283Y-68663733D01*
X101578724Y-68525058D01*
X101662116Y-68400253D01*
X101768253Y-68294116D01*
X101830656Y-68252420D01*
X101893056Y-68210725D01*
X101893058Y-68210724D01*
X102031733Y-68153283D01*
X102129878Y-68133761D01*
X102178949Y-68124000D01*
X102329051Y-68124000D01*
X102378122Y-68133761D01*
G37*
G36*
X98250312Y-67750248D02*
G01*
X98353351Y-67770743D01*
X98498942Y-67831049D01*
X98629970Y-67918599D01*
X98741401Y-68030030D01*
X98828951Y-68161058D01*
X98889257Y-68306649D01*
X98920000Y-68461207D01*
X98920000Y-68618793D01*
X98889257Y-68773351D01*
X98828951Y-68918942D01*
X98741401Y-69049970D01*
X98629970Y-69161401D01*
X98498942Y-69248951D01*
X98353351Y-69309257D01*
X98250312Y-69329752D01*
X98198794Y-69340000D01*
X98041206Y-69340000D01*
X97989688Y-69329752D01*
X97886649Y-69309257D01*
X97741058Y-69248951D01*
X97610030Y-69161401D01*
X97498599Y-69049970D01*
X97411049Y-68918942D01*
X97350743Y-68773351D01*
X97320000Y-68618793D01*
X97320000Y-68461207D01*
X97350743Y-68306649D01*
X97411049Y-68161058D01*
X97498599Y-68030030D01*
X97610030Y-67918599D01*
X97741058Y-67831049D01*
X97886649Y-67770743D01*
X97989688Y-67750248D01*
X98041206Y-67740000D01*
X98198794Y-67740000D01*
X98250312Y-67750248D01*
G37*
G36*
X90630312Y-67750248D02*
G01*
X90733351Y-67770743D01*
X90878942Y-67831049D01*
X91009970Y-67918599D01*
X91121401Y-68030030D01*
X91208951Y-68161058D01*
X91269257Y-68306649D01*
X91300000Y-68461207D01*
X91300000Y-68618793D01*
X91269257Y-68773351D01*
X91208951Y-68918942D01*
X91121401Y-69049970D01*
X91009970Y-69161401D01*
X90878942Y-69248951D01*
X90733351Y-69309257D01*
X90630312Y-69329752D01*
X90578794Y-69340000D01*
X90421206Y-69340000D01*
X90369688Y-69329752D01*
X90266649Y-69309257D01*
X90121058Y-69248951D01*
X89990030Y-69161401D01*
X89878599Y-69049970D01*
X89791049Y-68918942D01*
X89730743Y-68773351D01*
X89700000Y-68618793D01*
X89700000Y-68461207D01*
X89730743Y-68306649D01*
X89791049Y-68161058D01*
X89878599Y-68030030D01*
X89990030Y-67918599D01*
X90121058Y-67831049D01*
X90266649Y-67770743D01*
X90369688Y-67750248D01*
X90421206Y-67740000D01*
X90578794Y-67740000D01*
X90630312Y-67750248D01*
G37*
G36*
X86300000Y-68300000D02*
G01*
X84700000Y-68300000D01*
X84700000Y-66700000D01*
X86300000Y-66700000D01*
X86300000Y-68300000D01*
G37*
G36*
X98250312Y-65210248D02*
G01*
X98353351Y-65230743D01*
X98498942Y-65291049D01*
X98629970Y-65378599D01*
X98741401Y-65490030D01*
X98828951Y-65621058D01*
X98889257Y-65766649D01*
X98920000Y-65921207D01*
X98920000Y-66078793D01*
X98889257Y-66233351D01*
X98828951Y-66378942D01*
X98741401Y-66509970D01*
X98629970Y-66621401D01*
X98498942Y-66708951D01*
X98353351Y-66769257D01*
X98250312Y-66789752D01*
X98198794Y-66800000D01*
X98041206Y-66800000D01*
X97989688Y-66789752D01*
X97886649Y-66769257D01*
X97741058Y-66708951D01*
X97610030Y-66621401D01*
X97498599Y-66509970D01*
X97411049Y-66378942D01*
X97350743Y-66233351D01*
X97320000Y-66078793D01*
X97320000Y-65921207D01*
X97350743Y-65766649D01*
X97411049Y-65621058D01*
X97498599Y-65490030D01*
X97610030Y-65378599D01*
X97741058Y-65291049D01*
X97886649Y-65230743D01*
X97989688Y-65210248D01*
X98041206Y-65200000D01*
X98198794Y-65200000D01*
X98250312Y-65210248D01*
G37*
G36*
X90630312Y-65210248D02*
G01*
X90733351Y-65230743D01*
X90878942Y-65291049D01*
X91009970Y-65378599D01*
X91121401Y-65490030D01*
X91208951Y-65621058D01*
X91269257Y-65766649D01*
X91300000Y-65921207D01*
X91300000Y-66078793D01*
X91269257Y-66233351D01*
X91208951Y-66378942D01*
X91121401Y-66509970D01*
X91009970Y-66621401D01*
X90878942Y-66708951D01*
X90733351Y-66769257D01*
X90630312Y-66789752D01*
X90578794Y-66800000D01*
X90421206Y-66800000D01*
X90369688Y-66789752D01*
X90266649Y-66769257D01*
X90121058Y-66708951D01*
X89990030Y-66621401D01*
X89878599Y-66509970D01*
X89791049Y-66378942D01*
X89730743Y-66233351D01*
X89700000Y-66078793D01*
X89700000Y-65921207D01*
X89730743Y-65766649D01*
X89791049Y-65621058D01*
X89878599Y-65490030D01*
X89990030Y-65378599D01*
X90121058Y-65291049D01*
X90266649Y-65230743D01*
X90369688Y-65210248D01*
X90421206Y-65200000D01*
X90578794Y-65200000D01*
X90630312Y-65210248D01*
G37*
G36*
X80127314Y-63552853D02*
G01*
X80306572Y-63627104D01*
X80306574Y-63627105D01*
X80387236Y-63681002D01*
X80467901Y-63734901D01*
X80605099Y-63872099D01*
X80712896Y-64033428D01*
X80787147Y-64212686D01*
X80825000Y-64402986D01*
X80825000Y-64597014D01*
X80787147Y-64787314D01*
X80712896Y-64966572D01*
X80605099Y-65127901D01*
X80467901Y-65265099D01*
X80387237Y-65318997D01*
X80306574Y-65372895D01*
X80306573Y-65372896D01*
X80306572Y-65372896D01*
X80127314Y-65447147D01*
X79937014Y-65485000D01*
X79742986Y-65485000D01*
X79552686Y-65447147D01*
X79373428Y-65372896D01*
X79373427Y-65372896D01*
X79373426Y-65372895D01*
X79292763Y-65318997D01*
X79212099Y-65265099D01*
X79074901Y-65127901D01*
X78967104Y-64966572D01*
X78892853Y-64787314D01*
X78855000Y-64597014D01*
X78855000Y-64402986D01*
X78892853Y-64212686D01*
X78967104Y-64033428D01*
X79074901Y-63872099D01*
X79212099Y-63734901D01*
X79292763Y-63681003D01*
X79373426Y-63627105D01*
X79373428Y-63627104D01*
X79552686Y-63552853D01*
X79742986Y-63515000D01*
X79937014Y-63515000D01*
X80127314Y-63552853D01*
G37*
G36*
X58287314Y-63552853D02*
G01*
X58466572Y-63627104D01*
X58466574Y-63627105D01*
X58547236Y-63681002D01*
X58627901Y-63734901D01*
X58765099Y-63872099D01*
X58872896Y-64033428D01*
X58947147Y-64212686D01*
X58985000Y-64402986D01*
X58985000Y-64597014D01*
X58947147Y-64787314D01*
X58872896Y-64966572D01*
X58765099Y-65127901D01*
X58627901Y-65265099D01*
X58547237Y-65318997D01*
X58466574Y-65372895D01*
X58466573Y-65372896D01*
X58466572Y-65372896D01*
X58287314Y-65447147D01*
X58097014Y-65485000D01*
X57902986Y-65485000D01*
X57712686Y-65447147D01*
X57533428Y-65372896D01*
X57533427Y-65372896D01*
X57533426Y-65372895D01*
X57452763Y-65318997D01*
X57372099Y-65265099D01*
X57234901Y-65127901D01*
X57127104Y-64966572D01*
X57052853Y-64787314D01*
X57015000Y-64597014D01*
X57015000Y-64402986D01*
X57052853Y-64212686D01*
X57127104Y-64033428D01*
X57234901Y-63872099D01*
X57372099Y-63734901D01*
X57452763Y-63681003D01*
X57533426Y-63627105D01*
X57533428Y-63627104D01*
X57712686Y-63552853D01*
X57902986Y-63515000D01*
X58097014Y-63515000D01*
X58287314Y-63552853D01*
G37*
G36*
X85630312Y-63210248D02*
G01*
X85733351Y-63230743D01*
X85878942Y-63291049D01*
X86009970Y-63378599D01*
X86121401Y-63490030D01*
X86208951Y-63621058D01*
X86269257Y-63766649D01*
X86300000Y-63921207D01*
X86300000Y-64078793D01*
X86269257Y-64233351D01*
X86208951Y-64378942D01*
X86121401Y-64509970D01*
X86009970Y-64621401D01*
X85878942Y-64708951D01*
X85733351Y-64769257D01*
X85642581Y-64787312D01*
X85578794Y-64800000D01*
X85421206Y-64800000D01*
X85357419Y-64787312D01*
X85266649Y-64769257D01*
X85121058Y-64708951D01*
X84990030Y-64621401D01*
X84878599Y-64509970D01*
X84791049Y-64378942D01*
X84730743Y-64233351D01*
X84700000Y-64078793D01*
X84700000Y-63921207D01*
X84730743Y-63766649D01*
X84791049Y-63621058D01*
X84878599Y-63490030D01*
X84990030Y-63378599D01*
X85121058Y-63291049D01*
X85266649Y-63230743D01*
X85369688Y-63210248D01*
X85421206Y-63200000D01*
X85578794Y-63200000D01*
X85630312Y-63210248D01*
G37*
G36*
X47975000Y-60975000D02*
G01*
X46025000Y-60975000D01*
X46025000Y-59025000D01*
X47975000Y-59025000D01*
X47975000Y-60975000D01*
G37*
G36*
X42975000Y-60975000D02*
G01*
X41025000Y-60975000D01*
X41025000Y-59025000D01*
X42975000Y-59025000D01*
X42975000Y-60975000D01*
G37*
G36*
X85630312Y-58210248D02*
G01*
X85733351Y-58230743D01*
X85878942Y-58291049D01*
X86009970Y-58378599D01*
X86121401Y-58490030D01*
X86208951Y-58621058D01*
X86269257Y-58766649D01*
X86300000Y-58921207D01*
X86300000Y-59078793D01*
X86269257Y-59233351D01*
X86208951Y-59378942D01*
X86121401Y-59509970D01*
X86009970Y-59621401D01*
X85878942Y-59708951D01*
X85733351Y-59769257D01*
X85630312Y-59789752D01*
X85578794Y-59800000D01*
X85421206Y-59800000D01*
X85369688Y-59789752D01*
X85266649Y-59769257D01*
X85121058Y-59708951D01*
X84990030Y-59621401D01*
X84878599Y-59509970D01*
X84791049Y-59378942D01*
X84730743Y-59233351D01*
X84700000Y-59078793D01*
X84700000Y-58921207D01*
X84730743Y-58766649D01*
X84791049Y-58621058D01*
X84878599Y-58490030D01*
X84990030Y-58378599D01*
X85121058Y-58291049D01*
X85266649Y-58230743D01*
X85369688Y-58210248D01*
X85421206Y-58200000D01*
X85578794Y-58200000D01*
X85630312Y-58210248D01*
G37*
G36*
X95931411Y-58376036D02*
G01*
X96057074Y-58428087D01*
X96057076Y-58428088D01*
X96113621Y-58465871D01*
X96170168Y-58503654D01*
X96266346Y-58599832D01*
X96274418Y-58611913D01*
X96326929Y-58690500D01*
X96341913Y-58712926D01*
X96393964Y-58838589D01*
X96420500Y-58971992D01*
X96420500Y-59108008D01*
X96393964Y-59241411D01*
X96379879Y-59275415D01*
X96341912Y-59367076D01*
X96304130Y-59423621D01*
X96266346Y-59480168D01*
X96170168Y-59576346D01*
X96113621Y-59614130D01*
X96057076Y-59651912D01*
X96057075Y-59651913D01*
X96057074Y-59651913D01*
X95931411Y-59703964D01*
X95798008Y-59730500D01*
X95661992Y-59730500D01*
X95528589Y-59703964D01*
X95402926Y-59651913D01*
X95402925Y-59651913D01*
X95402924Y-59651912D01*
X95346379Y-59614129D01*
X95289832Y-59576346D01*
X95193654Y-59480168D01*
X95155870Y-59423621D01*
X95118088Y-59367076D01*
X95080121Y-59275415D01*
X95066036Y-59241411D01*
X95039500Y-59108008D01*
X95039500Y-58971992D01*
X95066036Y-58838589D01*
X95118087Y-58712926D01*
X95133072Y-58690500D01*
X95185582Y-58611913D01*
X95193654Y-58599832D01*
X95289832Y-58503654D01*
X95346379Y-58465870D01*
X95402924Y-58428088D01*
X95402926Y-58428087D01*
X95528589Y-58376036D01*
X95661992Y-58349500D01*
X95798008Y-58349500D01*
X95931411Y-58376036D01*
G37*
G36*
X93391411Y-58376036D02*
G01*
X93517074Y-58428087D01*
X93517076Y-58428088D01*
X93573621Y-58465871D01*
X93630168Y-58503654D01*
X93726346Y-58599832D01*
X93734418Y-58611913D01*
X93786929Y-58690500D01*
X93801913Y-58712926D01*
X93853964Y-58838589D01*
X93880500Y-58971992D01*
X93880500Y-59108008D01*
X93853964Y-59241411D01*
X93839879Y-59275415D01*
X93801912Y-59367076D01*
X93764130Y-59423621D01*
X93726346Y-59480168D01*
X93630168Y-59576346D01*
X93573621Y-59614130D01*
X93517076Y-59651912D01*
X93517075Y-59651913D01*
X93517074Y-59651913D01*
X93391411Y-59703964D01*
X93258008Y-59730500D01*
X93121992Y-59730500D01*
X92988589Y-59703964D01*
X92862926Y-59651913D01*
X92862925Y-59651913D01*
X92862924Y-59651912D01*
X92806379Y-59614129D01*
X92749832Y-59576346D01*
X92653654Y-59480168D01*
X92615870Y-59423621D01*
X92578088Y-59367076D01*
X92540121Y-59275415D01*
X92526036Y-59241411D01*
X92499500Y-59108008D01*
X92499500Y-58971992D01*
X92526036Y-58838589D01*
X92578087Y-58712926D01*
X92593072Y-58690500D01*
X92645582Y-58611913D01*
X92653654Y-58599832D01*
X92749832Y-58503654D01*
X92806379Y-58465870D01*
X92862924Y-58428088D01*
X92862926Y-58428087D01*
X92988589Y-58376036D01*
X93121992Y-58349500D01*
X93258008Y-58349500D01*
X93391411Y-58376036D01*
G37*
G36*
X90851411Y-58376036D02*
G01*
X90977074Y-58428087D01*
X90977076Y-58428088D01*
X91033621Y-58465871D01*
X91090168Y-58503654D01*
X91186346Y-58599832D01*
X91194418Y-58611913D01*
X91246929Y-58690500D01*
X91261913Y-58712926D01*
X91313964Y-58838589D01*
X91340500Y-58971992D01*
X91340500Y-59108008D01*
X91313964Y-59241411D01*
X91299879Y-59275415D01*
X91261912Y-59367076D01*
X91224130Y-59423621D01*
X91186346Y-59480168D01*
X91090168Y-59576346D01*
X91033621Y-59614130D01*
X90977076Y-59651912D01*
X90977075Y-59651913D01*
X90977074Y-59651913D01*
X90851411Y-59703964D01*
X90718008Y-59730500D01*
X90581992Y-59730500D01*
X90448589Y-59703964D01*
X90322926Y-59651913D01*
X90322925Y-59651913D01*
X90322924Y-59651912D01*
X90266379Y-59614129D01*
X90209832Y-59576346D01*
X90113654Y-59480168D01*
X90075870Y-59423621D01*
X90038088Y-59367076D01*
X90000121Y-59275415D01*
X89986036Y-59241411D01*
X89959500Y-59108008D01*
X89959500Y-58971992D01*
X89986036Y-58838589D01*
X90038087Y-58712926D01*
X90053072Y-58690500D01*
X90105582Y-58611913D01*
X90113654Y-58599832D01*
X90209832Y-58503654D01*
X90266379Y-58465870D01*
X90322924Y-58428088D01*
X90322926Y-58428087D01*
X90448589Y-58376036D01*
X90581992Y-58349500D01*
X90718008Y-58349500D01*
X90851411Y-58376036D01*
G37*
G36*
X110255228Y-57658626D02*
G01*
X110414468Y-57724585D01*
X110414470Y-57724586D01*
X110486124Y-57772464D01*
X110557780Y-57820343D01*
X110679657Y-57942220D01*
X110775415Y-58085532D01*
X110841374Y-58244772D01*
X110875000Y-58413820D01*
X110875000Y-58586180D01*
X110841374Y-58755228D01*
X110775415Y-58914468D01*
X110679657Y-59057780D01*
X110557780Y-59179657D01*
X110486124Y-59227536D01*
X110414470Y-59275414D01*
X110414469Y-59275415D01*
X110414468Y-59275415D01*
X110255228Y-59341374D01*
X110086180Y-59375000D01*
X109913820Y-59375000D01*
X109744772Y-59341374D01*
X109585532Y-59275415D01*
X109585531Y-59275415D01*
X109585530Y-59275414D01*
X109513876Y-59227536D01*
X109442220Y-59179657D01*
X109320343Y-59057780D01*
X109224585Y-58914468D01*
X109158626Y-58755228D01*
X109125000Y-58586180D01*
X109125000Y-58413820D01*
X109158626Y-58244772D01*
X109224585Y-58085532D01*
X109320343Y-57942220D01*
X109442220Y-57820343D01*
X109513876Y-57772464D01*
X109585530Y-57724586D01*
X109585532Y-57724585D01*
X109744772Y-57658626D01*
X109913820Y-57625000D01*
X110086180Y-57625000D01*
X110255228Y-57658626D01*
G37*
G36*
X112795228Y-57658626D02*
G01*
X112954468Y-57724585D01*
X112954470Y-57724586D01*
X113026124Y-57772464D01*
X113097780Y-57820343D01*
X113219657Y-57942220D01*
X113315415Y-58085532D01*
X113381374Y-58244772D01*
X113415000Y-58413820D01*
X113415000Y-58586180D01*
X113381374Y-58755228D01*
X113315415Y-58914468D01*
X113219657Y-59057780D01*
X113097780Y-59179657D01*
X113026124Y-59227536D01*
X112954470Y-59275414D01*
X112954469Y-59275415D01*
X112954468Y-59275415D01*
X112795228Y-59341374D01*
X112626180Y-59375000D01*
X112453820Y-59375000D01*
X112284772Y-59341374D01*
X112125532Y-59275415D01*
X112125531Y-59275415D01*
X112125530Y-59275414D01*
X112053876Y-59227536D01*
X111982220Y-59179657D01*
X111860343Y-59057780D01*
X111764585Y-58914468D01*
X111698626Y-58755228D01*
X111665000Y-58586180D01*
X111665000Y-58413820D01*
X111698626Y-58244772D01*
X111764585Y-58085532D01*
X111860343Y-57942220D01*
X111982220Y-57820343D01*
X112053876Y-57772464D01*
X112125530Y-57724586D01*
X112125532Y-57724585D01*
X112284772Y-57658626D01*
X112453820Y-57625000D01*
X112626180Y-57625000D01*
X112795228Y-57658626D01*
G37*
G36*
X107715228Y-57658626D02*
G01*
X107874468Y-57724585D01*
X107874470Y-57724586D01*
X107946124Y-57772464D01*
X108017780Y-57820343D01*
X108139657Y-57942220D01*
X108235415Y-58085532D01*
X108301374Y-58244772D01*
X108335000Y-58413820D01*
X108335000Y-58586180D01*
X108301374Y-58755228D01*
X108235415Y-58914468D01*
X108139657Y-59057780D01*
X108017780Y-59179657D01*
X107946124Y-59227536D01*
X107874470Y-59275414D01*
X107874469Y-59275415D01*
X107874468Y-59275415D01*
X107715228Y-59341374D01*
X107546180Y-59375000D01*
X107373820Y-59375000D01*
X107204772Y-59341374D01*
X107045532Y-59275415D01*
X107045531Y-59275415D01*
X107045530Y-59275414D01*
X106973876Y-59227536D01*
X106902220Y-59179657D01*
X106780343Y-59057780D01*
X106684585Y-58914468D01*
X106618626Y-58755228D01*
X106585000Y-58586180D01*
X106585000Y-58413820D01*
X106618626Y-58244772D01*
X106684585Y-58085532D01*
X106780343Y-57942220D01*
X106902220Y-57820343D01*
X106973876Y-57772464D01*
X107045530Y-57724586D01*
X107045532Y-57724585D01*
X107204772Y-57658626D01*
X107373820Y-57625000D01*
X107546180Y-57625000D01*
X107715228Y-57658626D01*
G37*
G36*
X123201411Y-57336036D02*
G01*
X123327074Y-57388087D01*
X123327076Y-57388088D01*
X123383621Y-57425871D01*
X123440168Y-57463654D01*
X123536346Y-57559832D01*
X123611913Y-57672926D01*
X123663964Y-57798589D01*
X123690500Y-57931992D01*
X123690500Y-58068008D01*
X123663964Y-58201411D01*
X123611913Y-58327074D01*
X123611912Y-58327076D01*
X123579198Y-58376036D01*
X123536346Y-58440168D01*
X123440168Y-58536346D01*
X123383621Y-58574129D01*
X123327076Y-58611912D01*
X123327075Y-58611913D01*
X123327074Y-58611913D01*
X123201411Y-58663964D01*
X123068008Y-58690500D01*
X122931992Y-58690500D01*
X122798589Y-58663964D01*
X122672926Y-58611913D01*
X122672925Y-58611913D01*
X122672924Y-58611912D01*
X122616379Y-58574129D01*
X122559832Y-58536346D01*
X122463654Y-58440168D01*
X122420802Y-58376036D01*
X122388088Y-58327076D01*
X122388087Y-58327074D01*
X122336036Y-58201411D01*
X122309500Y-58068008D01*
X122309500Y-57931992D01*
X122336036Y-57798589D01*
X122388087Y-57672926D01*
X122463654Y-57559832D01*
X122559832Y-57463654D01*
X122616379Y-57425871D01*
X122672924Y-57388088D01*
X122672926Y-57388087D01*
X122798589Y-57336036D01*
X122931992Y-57309500D01*
X123068008Y-57309500D01*
X123201411Y-57336036D01*
G37*
G36*
X89476059Y-56494783D02*
G01*
X89617100Y-56553204D01*
X89744034Y-56638018D01*
X89851982Y-56745966D01*
X89936796Y-56872900D01*
X89995217Y-57013941D01*
X90025000Y-57163669D01*
X90025000Y-57316331D01*
X89995217Y-57466059D01*
X89936796Y-57607100D01*
X89851982Y-57734034D01*
X89744034Y-57841982D01*
X89617100Y-57926796D01*
X89476059Y-57985217D01*
X89326331Y-58015000D01*
X89173669Y-58015000D01*
X89023941Y-57985217D01*
X88882900Y-57926796D01*
X88755966Y-57841982D01*
X88648018Y-57734034D01*
X88563204Y-57607100D01*
X88504783Y-57466059D01*
X88475000Y-57316331D01*
X88475000Y-57163669D01*
X88504783Y-57013941D01*
X88563204Y-56872900D01*
X88648018Y-56745966D01*
X88755966Y-56638018D01*
X88882900Y-56553204D01*
X89023941Y-56494783D01*
X89173669Y-56465000D01*
X89326331Y-56465000D01*
X89476059Y-56494783D01*
G37*
G36*
X120661411Y-56066036D02*
G01*
X120787074Y-56118087D01*
X120787076Y-56118088D01*
X120843621Y-56155871D01*
X120900168Y-56193654D01*
X120996346Y-56289832D01*
X121071913Y-56402926D01*
X121123964Y-56528589D01*
X121150500Y-56661992D01*
X121150500Y-56798008D01*
X121123964Y-56931411D01*
X121071913Y-57057074D01*
X120996346Y-57170168D01*
X120900168Y-57266346D01*
X120843621Y-57304129D01*
X120787076Y-57341912D01*
X120787075Y-57341913D01*
X120787074Y-57341913D01*
X120661411Y-57393964D01*
X120528008Y-57420500D01*
X120391992Y-57420500D01*
X120258589Y-57393964D01*
X120132926Y-57341913D01*
X120132925Y-57341913D01*
X120132924Y-57341912D01*
X120076379Y-57304129D01*
X120019832Y-57266346D01*
X119923654Y-57170168D01*
X119848087Y-57057074D01*
X119796036Y-56931411D01*
X119769500Y-56798008D01*
X119769500Y-56661992D01*
X119796036Y-56528589D01*
X119848087Y-56402926D01*
X119923654Y-56289832D01*
X120019832Y-56193654D01*
X120076379Y-56155871D01*
X120132924Y-56118088D01*
X120132926Y-56118087D01*
X120258589Y-56066036D01*
X120391992Y-56039500D01*
X120528008Y-56039500D01*
X120661411Y-56066036D01*
G37*
G36*
X94661411Y-55836036D02*
G01*
X94787074Y-55888087D01*
X94787076Y-55888088D01*
X94843621Y-55925871D01*
X94900168Y-55963654D01*
X94996346Y-56059832D01*
X95004418Y-56071913D01*
X95056929Y-56150500D01*
X95071913Y-56172926D01*
X95123964Y-56298589D01*
X95150500Y-56431992D01*
X95150500Y-56568008D01*
X95123964Y-56701411D01*
X95071913Y-56827074D01*
X94996346Y-56940168D01*
X94900168Y-57036346D01*
X94869146Y-57057074D01*
X94787076Y-57111912D01*
X94787075Y-57111913D01*
X94787074Y-57111913D01*
X94661411Y-57163964D01*
X94528008Y-57190500D01*
X94391992Y-57190500D01*
X94258589Y-57163964D01*
X94132926Y-57111913D01*
X94132925Y-57111913D01*
X94132924Y-57111912D01*
X94050854Y-57057074D01*
X94019832Y-57036346D01*
X93923654Y-56940168D01*
X93848087Y-56827074D01*
X93796036Y-56701411D01*
X93769500Y-56568008D01*
X93769500Y-56431992D01*
X93796036Y-56298589D01*
X93848087Y-56172926D01*
X93863072Y-56150500D01*
X93915582Y-56071913D01*
X93923654Y-56059832D01*
X94019832Y-55963654D01*
X94076379Y-55925871D01*
X94132924Y-55888088D01*
X94132926Y-55888087D01*
X94258589Y-55836036D01*
X94391992Y-55809500D01*
X94528008Y-55809500D01*
X94661411Y-55836036D01*
G37*
G36*
X97201411Y-55836036D02*
G01*
X97327074Y-55888087D01*
X97327076Y-55888088D01*
X97383621Y-55925871D01*
X97440168Y-55963654D01*
X97536346Y-56059832D01*
X97544418Y-56071913D01*
X97596929Y-56150500D01*
X97611913Y-56172926D01*
X97663964Y-56298589D01*
X97690500Y-56431992D01*
X97690500Y-56568008D01*
X97663964Y-56701411D01*
X97611913Y-56827074D01*
X97536346Y-56940168D01*
X97440168Y-57036346D01*
X97409146Y-57057074D01*
X97327076Y-57111912D01*
X97327075Y-57111913D01*
X97327074Y-57111913D01*
X97201411Y-57163964D01*
X97068008Y-57190500D01*
X96931992Y-57190500D01*
X96798589Y-57163964D01*
X96672926Y-57111913D01*
X96672925Y-57111913D01*
X96672924Y-57111912D01*
X96590854Y-57057074D01*
X96559832Y-57036346D01*
X96463654Y-56940168D01*
X96388087Y-56827074D01*
X96336036Y-56701411D01*
X96309500Y-56568008D01*
X96309500Y-56431992D01*
X96336036Y-56298589D01*
X96388087Y-56172926D01*
X96403072Y-56150500D01*
X96455582Y-56071913D01*
X96463654Y-56059832D01*
X96559832Y-55963654D01*
X96616379Y-55925871D01*
X96672924Y-55888088D01*
X96672926Y-55888087D01*
X96798589Y-55836036D01*
X96931992Y-55809500D01*
X97068008Y-55809500D01*
X97201411Y-55836036D01*
G37*
G36*
X92121411Y-55836036D02*
G01*
X92247074Y-55888087D01*
X92247076Y-55888088D01*
X92303621Y-55925871D01*
X92360168Y-55963654D01*
X92456346Y-56059832D01*
X92464418Y-56071913D01*
X92516929Y-56150500D01*
X92531913Y-56172926D01*
X92583964Y-56298589D01*
X92610500Y-56431992D01*
X92610500Y-56568008D01*
X92583964Y-56701411D01*
X92531913Y-56827074D01*
X92456346Y-56940168D01*
X92360168Y-57036346D01*
X92329146Y-57057074D01*
X92247076Y-57111912D01*
X92247075Y-57111913D01*
X92247074Y-57111913D01*
X92121411Y-57163964D01*
X91988008Y-57190500D01*
X91851992Y-57190500D01*
X91718589Y-57163964D01*
X91592926Y-57111913D01*
X91592925Y-57111913D01*
X91592924Y-57111912D01*
X91510854Y-57057074D01*
X91479832Y-57036346D01*
X91383654Y-56940168D01*
X91308087Y-56827074D01*
X91256036Y-56701411D01*
X91229500Y-56568008D01*
X91229500Y-56431992D01*
X91256036Y-56298589D01*
X91308087Y-56172926D01*
X91323072Y-56150500D01*
X91375582Y-56071913D01*
X91383654Y-56059832D01*
X91479832Y-55963654D01*
X91536379Y-55925871D01*
X91592924Y-55888088D01*
X91592926Y-55888087D01*
X91718589Y-55836036D01*
X91851992Y-55809500D01*
X91988008Y-55809500D01*
X92121411Y-55836036D01*
G37*
G36*
X123201411Y-54796036D02*
G01*
X123327074Y-54848087D01*
X123327076Y-54848088D01*
X123383621Y-54885870D01*
X123440168Y-54923654D01*
X123536346Y-55019832D01*
X123536347Y-55019834D01*
X123576043Y-55079242D01*
X123611913Y-55132926D01*
X123663964Y-55258589D01*
X123690500Y-55391992D01*
X123690500Y-55528008D01*
X123663964Y-55661411D01*
X123644272Y-55708951D01*
X123611912Y-55787076D01*
X123579198Y-55836036D01*
X123536346Y-55900168D01*
X123440168Y-55996346D01*
X123383621Y-56034130D01*
X123327076Y-56071912D01*
X123327075Y-56071913D01*
X123327074Y-56071913D01*
X123201411Y-56123964D01*
X123068008Y-56150500D01*
X122931992Y-56150500D01*
X122798589Y-56123964D01*
X122672926Y-56071913D01*
X122672925Y-56071913D01*
X122672924Y-56071912D01*
X122616379Y-56034130D01*
X122559832Y-55996346D01*
X122463654Y-55900168D01*
X122420802Y-55836036D01*
X122388088Y-55787076D01*
X122355728Y-55708951D01*
X122336036Y-55661411D01*
X122309500Y-55528008D01*
X122309500Y-55391992D01*
X122336036Y-55258589D01*
X122388087Y-55132926D01*
X122423958Y-55079242D01*
X122463653Y-55019834D01*
X122463654Y-55019832D01*
X122559832Y-54923654D01*
X122616379Y-54885870D01*
X122672924Y-54848088D01*
X122672926Y-54848087D01*
X122798589Y-54796036D01*
X122931992Y-54769500D01*
X123068008Y-54769500D01*
X123201411Y-54796036D01*
G37*
G36*
X47190213Y-54043734D02*
G01*
X47284397Y-54062468D01*
X47461836Y-54135966D01*
X47621527Y-54242668D01*
X47757332Y-54378473D01*
X47864034Y-54538164D01*
X47937532Y-54715603D01*
X47953531Y-54796036D01*
X47975000Y-54903969D01*
X47975000Y-55096031D01*
X47967661Y-55132926D01*
X47937532Y-55284397D01*
X47864034Y-55461836D01*
X47757332Y-55621527D01*
X47621527Y-55757332D01*
X47461836Y-55864034D01*
X47284397Y-55937532D01*
X47190213Y-55956266D01*
X47096031Y-55975000D01*
X46903969Y-55975000D01*
X46809787Y-55956266D01*
X46715603Y-55937532D01*
X46538164Y-55864034D01*
X46378473Y-55757332D01*
X46242668Y-55621527D01*
X46135966Y-55461836D01*
X46062468Y-55284397D01*
X46032339Y-55132926D01*
X46025000Y-55096031D01*
X46025000Y-54903969D01*
X46046469Y-54796036D01*
X46062468Y-54715603D01*
X46135966Y-54538164D01*
X46242668Y-54378473D01*
X46378473Y-54242668D01*
X46538164Y-54135966D01*
X46715603Y-54062468D01*
X46809787Y-54043734D01*
X46903969Y-54025000D01*
X47096031Y-54025000D01*
X47190213Y-54043734D01*
G37*
G36*
X42190213Y-54043734D02*
G01*
X42284397Y-54062468D01*
X42461836Y-54135966D01*
X42621527Y-54242668D01*
X42757332Y-54378473D01*
X42864034Y-54538164D01*
X42937532Y-54715603D01*
X42953531Y-54796036D01*
X42975000Y-54903969D01*
X42975000Y-55096031D01*
X42967661Y-55132926D01*
X42937532Y-55284397D01*
X42864034Y-55461836D01*
X42757332Y-55621527D01*
X42621527Y-55757332D01*
X42461836Y-55864034D01*
X42284397Y-55937532D01*
X42190213Y-55956266D01*
X42096031Y-55975000D01*
X41903969Y-55975000D01*
X41809787Y-55956266D01*
X41715603Y-55937532D01*
X41538164Y-55864034D01*
X41378473Y-55757332D01*
X41242668Y-55621527D01*
X41135966Y-55461836D01*
X41062468Y-55284397D01*
X41032339Y-55132926D01*
X41025000Y-55096031D01*
X41025000Y-54903969D01*
X41046469Y-54796036D01*
X41062468Y-54715603D01*
X41135966Y-54538164D01*
X41242668Y-54378473D01*
X41378473Y-54242668D01*
X41538164Y-54135966D01*
X41715603Y-54062468D01*
X41809787Y-54043734D01*
X41903969Y-54025000D01*
X42096031Y-54025000D01*
X42190213Y-54043734D01*
G37*
G36*
X75130312Y-54210248D02*
G01*
X75233351Y-54230743D01*
X75378942Y-54291049D01*
X75509970Y-54378599D01*
X75621401Y-54490030D01*
X75708951Y-54621058D01*
X75769257Y-54766649D01*
X75769257Y-54766651D01*
X75800000Y-54921206D01*
X75800000Y-55078794D01*
X75799911Y-55079241D01*
X75769257Y-55233351D01*
X75708951Y-55378942D01*
X75621401Y-55509970D01*
X75509970Y-55621401D01*
X75378942Y-55708951D01*
X75233351Y-55769257D01*
X75143777Y-55787074D01*
X75078794Y-55800000D01*
X74921206Y-55800000D01*
X74856223Y-55787074D01*
X74766649Y-55769257D01*
X74621058Y-55708951D01*
X74490030Y-55621401D01*
X74378599Y-55509970D01*
X74291049Y-55378942D01*
X74230743Y-55233351D01*
X74200089Y-55079241D01*
X74200000Y-55078794D01*
X74200000Y-54921206D01*
X74230743Y-54766651D01*
X74230743Y-54766649D01*
X74291049Y-54621058D01*
X74378599Y-54490030D01*
X74490030Y-54378599D01*
X74621058Y-54291049D01*
X74766649Y-54230743D01*
X74869688Y-54210248D01*
X74921206Y-54200000D01*
X75078794Y-54200000D01*
X75130312Y-54210248D01*
G37*
G36*
X67510312Y-54210248D02*
G01*
X67613351Y-54230743D01*
X67758942Y-54291049D01*
X67889970Y-54378599D01*
X68001401Y-54490030D01*
X68088951Y-54621058D01*
X68149257Y-54766649D01*
X68149257Y-54766651D01*
X68180000Y-54921206D01*
X68180000Y-55078794D01*
X68179911Y-55079241D01*
X68149257Y-55233351D01*
X68088951Y-55378942D01*
X68001401Y-55509970D01*
X67889970Y-55621401D01*
X67758942Y-55708951D01*
X67613351Y-55769257D01*
X67523777Y-55787074D01*
X67458794Y-55800000D01*
X67301206Y-55800000D01*
X67236223Y-55787074D01*
X67146649Y-55769257D01*
X67001058Y-55708951D01*
X66870030Y-55621401D01*
X66758599Y-55509970D01*
X66671049Y-55378942D01*
X66610743Y-55233351D01*
X66580089Y-55079241D01*
X66580000Y-55078794D01*
X66580000Y-54921206D01*
X66610743Y-54766651D01*
X66610743Y-54766649D01*
X66671049Y-54621058D01*
X66758599Y-54490030D01*
X66870030Y-54378599D01*
X67001058Y-54291049D01*
X67146649Y-54230743D01*
X67249688Y-54210248D01*
X67301206Y-54200000D01*
X67458794Y-54200000D01*
X67510312Y-54210248D01*
G37*
G36*
X83130312Y-54210248D02*
G01*
X83233351Y-54230743D01*
X83378942Y-54291049D01*
X83509970Y-54378599D01*
X83621401Y-54490030D01*
X83708951Y-54621058D01*
X83769257Y-54766649D01*
X83769257Y-54766651D01*
X83800000Y-54921206D01*
X83800000Y-55078794D01*
X83799911Y-55079241D01*
X83769257Y-55233351D01*
X83708951Y-55378942D01*
X83621401Y-55509970D01*
X83509970Y-55621401D01*
X83378942Y-55708951D01*
X83233351Y-55769257D01*
X83143777Y-55787074D01*
X83078794Y-55800000D01*
X82921206Y-55800000D01*
X82856223Y-55787074D01*
X82766649Y-55769257D01*
X82621058Y-55708951D01*
X82490030Y-55621401D01*
X82378599Y-55509970D01*
X82291049Y-55378942D01*
X82230743Y-55233351D01*
X82200089Y-55079241D01*
X82200000Y-55078794D01*
X82200000Y-54921206D01*
X82230743Y-54766651D01*
X82230743Y-54766649D01*
X82291049Y-54621058D01*
X82378599Y-54490030D01*
X82490030Y-54378599D01*
X82621058Y-54291049D01*
X82766649Y-54230743D01*
X82869688Y-54210248D01*
X82921206Y-54200000D01*
X83078794Y-54200000D01*
X83130312Y-54210248D01*
G37*
G36*
X78130312Y-54210248D02*
G01*
X78233351Y-54230743D01*
X78378942Y-54291049D01*
X78509970Y-54378599D01*
X78621401Y-54490030D01*
X78708951Y-54621058D01*
X78769257Y-54766649D01*
X78769257Y-54766651D01*
X78800000Y-54921206D01*
X78800000Y-55078794D01*
X78799911Y-55079241D01*
X78769257Y-55233351D01*
X78708951Y-55378942D01*
X78621401Y-55509970D01*
X78509970Y-55621401D01*
X78378942Y-55708951D01*
X78233351Y-55769257D01*
X78143777Y-55787074D01*
X78078794Y-55800000D01*
X77921206Y-55800000D01*
X77856223Y-55787074D01*
X77766649Y-55769257D01*
X77621058Y-55708951D01*
X77490030Y-55621401D01*
X77378599Y-55509970D01*
X77291049Y-55378942D01*
X77230743Y-55233351D01*
X77200089Y-55079241D01*
X77200000Y-55078794D01*
X77200000Y-54921206D01*
X77230743Y-54766651D01*
X77230743Y-54766649D01*
X77291049Y-54621058D01*
X77378599Y-54490030D01*
X77490030Y-54378599D01*
X77621058Y-54291049D01*
X77766649Y-54230743D01*
X77869688Y-54210248D01*
X77921206Y-54200000D01*
X78078794Y-54200000D01*
X78130312Y-54210248D01*
G37*
G36*
X60646725Y-53513782D02*
G01*
X60826270Y-53568247D01*
X60991738Y-53656691D01*
X61136778Y-53775722D01*
X61255806Y-53920758D01*
X61344254Y-54086235D01*
X61398718Y-54265776D01*
X61412500Y-54405707D01*
X61412500Y-54594294D01*
X61398718Y-54734225D01*
X61344253Y-54913770D01*
X61255809Y-55079238D01*
X61136778Y-55224278D01*
X60991742Y-55343306D01*
X60826265Y-55431754D01*
X60646724Y-55486218D01*
X60460000Y-55504609D01*
X60273275Y-55486218D01*
X60093730Y-55431753D01*
X59928262Y-55343309D01*
X59783222Y-55224278D01*
X59664194Y-55079242D01*
X59575746Y-54913765D01*
X59521282Y-54734224D01*
X59507500Y-54594293D01*
X59507500Y-54405706D01*
X59521282Y-54265775D01*
X59575747Y-54086230D01*
X59664191Y-53920762D01*
X59783222Y-53775722D01*
X59928258Y-53656694D01*
X60093735Y-53568246D01*
X60273276Y-53513782D01*
X60460000Y-53495391D01*
X60646725Y-53513782D01*
G37*
G36*
X58106725Y-53513782D02*
G01*
X58286270Y-53568247D01*
X58451738Y-53656691D01*
X58596778Y-53775722D01*
X58715806Y-53920758D01*
X58804254Y-54086235D01*
X58858718Y-54265776D01*
X58872500Y-54405707D01*
X58872500Y-54594294D01*
X58858718Y-54734225D01*
X58804253Y-54913770D01*
X58715809Y-55079238D01*
X58596778Y-55224278D01*
X58451742Y-55343306D01*
X58286265Y-55431754D01*
X58106724Y-55486218D01*
X57920000Y-55504609D01*
X57733275Y-55486218D01*
X57553730Y-55431753D01*
X57388262Y-55343309D01*
X57243222Y-55224278D01*
X57124194Y-55079242D01*
X57035746Y-54913765D01*
X56981282Y-54734224D01*
X56967500Y-54594293D01*
X56967500Y-54405706D01*
X56981282Y-54265775D01*
X57035747Y-54086230D01*
X57124191Y-53920762D01*
X57243222Y-53775722D01*
X57388258Y-53656694D01*
X57553735Y-53568246D01*
X57733276Y-53513782D01*
X57920000Y-53495391D01*
X58106725Y-53513782D01*
G37*
G36*
X63952500Y-55500000D02*
G01*
X62047500Y-55500000D01*
X62047500Y-53500000D01*
X63952500Y-53500000D01*
X63952500Y-55500000D01*
G37*
G36*
X120661411Y-53526036D02*
G01*
X120763320Y-53568248D01*
X120787076Y-53578088D01*
X120843621Y-53615871D01*
X120900168Y-53653654D01*
X120996346Y-53749832D01*
X121071913Y-53862926D01*
X121123964Y-53988589D01*
X121150500Y-54121992D01*
X121150500Y-54258008D01*
X121123964Y-54391411D01*
X121071913Y-54517074D01*
X120996346Y-54630168D01*
X120900168Y-54726346D01*
X120888376Y-54734225D01*
X120787076Y-54801912D01*
X120787075Y-54801913D01*
X120787074Y-54801913D01*
X120661411Y-54853964D01*
X120528008Y-54880500D01*
X120391992Y-54880500D01*
X120258589Y-54853964D01*
X120132926Y-54801913D01*
X120132925Y-54801913D01*
X120132924Y-54801912D01*
X120031624Y-54734225D01*
X120019832Y-54726346D01*
X119923654Y-54630168D01*
X119848087Y-54517074D01*
X119796036Y-54391411D01*
X119769500Y-54258008D01*
X119769500Y-54121992D01*
X119796036Y-53988589D01*
X119848087Y-53862926D01*
X119923654Y-53749832D01*
X120019832Y-53653654D01*
X120076379Y-53615870D01*
X120132924Y-53578088D01*
X120156680Y-53568248D01*
X120258589Y-53526036D01*
X120391992Y-53499500D01*
X120528008Y-53499500D01*
X120661411Y-53526036D01*
G37*
G36*
X123201411Y-52256036D02*
G01*
X123327074Y-52308087D01*
X123327076Y-52308088D01*
X123383621Y-52345870D01*
X123440168Y-52383654D01*
X123536346Y-52479832D01*
X123611913Y-52592926D01*
X123663964Y-52718589D01*
X123690500Y-52851992D01*
X123690500Y-52988008D01*
X123663964Y-53121411D01*
X123611913Y-53247074D01*
X123536346Y-53360168D01*
X123440168Y-53456346D01*
X123383621Y-53494129D01*
X123327076Y-53531912D01*
X123327075Y-53531913D01*
X123327074Y-53531913D01*
X123201411Y-53583964D01*
X123068008Y-53610500D01*
X122931992Y-53610500D01*
X122798589Y-53583964D01*
X122672926Y-53531913D01*
X122672925Y-53531913D01*
X122672924Y-53531912D01*
X122616379Y-53494130D01*
X122559832Y-53456346D01*
X122463654Y-53360168D01*
X122388087Y-53247074D01*
X122336036Y-53121411D01*
X122309500Y-52988008D01*
X122309500Y-52851992D01*
X122336036Y-52718589D01*
X122388087Y-52592926D01*
X122463654Y-52479832D01*
X122559832Y-52383654D01*
X122616379Y-52345871D01*
X122672924Y-52308088D01*
X122672926Y-52308087D01*
X122798589Y-52256036D01*
X122931992Y-52229500D01*
X123068008Y-52229500D01*
X123201411Y-52256036D01*
G37*
G36*
X120661411Y-50986036D02*
G01*
X120787074Y-51038087D01*
X120787076Y-51038088D01*
X120843621Y-51075870D01*
X120900168Y-51113654D01*
X120996346Y-51209832D01*
X121071913Y-51322926D01*
X121123964Y-51448589D01*
X121150500Y-51581992D01*
X121150500Y-51718008D01*
X121123964Y-51851411D01*
X121071913Y-51977074D01*
X120996346Y-52090168D01*
X120900168Y-52186346D01*
X120843621Y-52224130D01*
X120787076Y-52261912D01*
X120787075Y-52261913D01*
X120787074Y-52261913D01*
X120661411Y-52313964D01*
X120528008Y-52340500D01*
X120391992Y-52340500D01*
X120258589Y-52313964D01*
X120132926Y-52261913D01*
X120132925Y-52261913D01*
X120132924Y-52261912D01*
X120076379Y-52224130D01*
X120019832Y-52186346D01*
X119923654Y-52090168D01*
X119848087Y-51977074D01*
X119796036Y-51851411D01*
X119769500Y-51718008D01*
X119769500Y-51581992D01*
X119796036Y-51448589D01*
X119848087Y-51322926D01*
X119923654Y-51209832D01*
X120019832Y-51113654D01*
X120076379Y-51075870D01*
X120132924Y-51038088D01*
X120132926Y-51038087D01*
X120258589Y-50986036D01*
X120391992Y-50959500D01*
X120528008Y-50959500D01*
X120661411Y-50986036D01*
G37*
G36*
X122486059Y-49504783D02*
G01*
X122627100Y-49563204D01*
X122754034Y-49648018D01*
X122861982Y-49755966D01*
X122946796Y-49882900D01*
X123005217Y-50023941D01*
X123035000Y-50173669D01*
X123035000Y-50326331D01*
X123005217Y-50476059D01*
X122946796Y-50617100D01*
X122861982Y-50744034D01*
X122754034Y-50851982D01*
X122627100Y-50936796D01*
X122486059Y-50995217D01*
X122336331Y-51025000D01*
X122183669Y-51025000D01*
X122033941Y-50995217D01*
X121892900Y-50936796D01*
X121765966Y-50851982D01*
X121658018Y-50744034D01*
X121573204Y-50617100D01*
X121514783Y-50476059D01*
X121485000Y-50326331D01*
X121485000Y-50173669D01*
X121514783Y-50023941D01*
X121573204Y-49882900D01*
X121658018Y-49755966D01*
X121765966Y-49648018D01*
X121892900Y-49563204D01*
X122033941Y-49504783D01*
X122183669Y-49475000D01*
X122336331Y-49475000D01*
X122486059Y-49504783D01*
G37*
G36*
X38204182Y-48406901D02*
G01*
X38331574Y-48459668D01*
X38446224Y-48536274D01*
X38543726Y-48633776D01*
X38620332Y-48748426D01*
X38673099Y-48875818D01*
X38700000Y-49011056D01*
X38700000Y-49148944D01*
X38673099Y-49284182D01*
X38620332Y-49411574D01*
X38543726Y-49526224D01*
X38446224Y-49623726D01*
X38331574Y-49700332D01*
X38204182Y-49753099D01*
X38068944Y-49780000D01*
X37931056Y-49780000D01*
X37795818Y-49753099D01*
X37668426Y-49700332D01*
X37553776Y-49623726D01*
X37456274Y-49526224D01*
X37379668Y-49411574D01*
X37326901Y-49284182D01*
X37300000Y-49148944D01*
X37300000Y-49011056D01*
X37326901Y-48875818D01*
X37379668Y-48748426D01*
X37456274Y-48633776D01*
X37553776Y-48536274D01*
X37668426Y-48459668D01*
X37795818Y-48406901D01*
X37931056Y-48380000D01*
X38068944Y-48380000D01*
X38204182Y-48406901D01*
G37*
G36*
X48195090Y-46519215D02*
G01*
X48291689Y-46538429D01*
X48473678Y-46613811D01*
X48637463Y-46723249D01*
X48776751Y-46862537D01*
X48886189Y-47026322D01*
X48961571Y-47208311D01*
X48969550Y-47248426D01*
X49000000Y-47401507D01*
X49000000Y-47598493D01*
X48980785Y-47695090D01*
X48961571Y-47791689D01*
X48886189Y-47973678D01*
X48776751Y-48137463D01*
X48637463Y-48276751D01*
X48473678Y-48386189D01*
X48291689Y-48461571D01*
X48195090Y-48480785D01*
X48098493Y-48500000D01*
X47901507Y-48500000D01*
X47804910Y-48480785D01*
X47708311Y-48461571D01*
X47526322Y-48386189D01*
X47362537Y-48276751D01*
X47223249Y-48137463D01*
X47113811Y-47973678D01*
X47038429Y-47791689D01*
X47019215Y-47695090D01*
X47000000Y-47598493D01*
X47000000Y-47401507D01*
X47030450Y-47248426D01*
X47038429Y-47208311D01*
X47113811Y-47026322D01*
X47223249Y-46862537D01*
X47362537Y-46723249D01*
X47526322Y-46613811D01*
X47708311Y-46538429D01*
X47804910Y-46519215D01*
X47901507Y-46500000D01*
X48098493Y-46500000D01*
X48195090Y-46519215D01*
G37*
G36*
X105000000Y-48492500D02*
G01*
X103000000Y-48492500D01*
X103000000Y-46587500D01*
X105000000Y-46587500D01*
X105000000Y-48492500D01*
G37*
G36*
X93690213Y-46543734D02*
G01*
X93784397Y-46562468D01*
X93961836Y-46635966D01*
X94121527Y-46742668D01*
X94257332Y-46878473D01*
X94364034Y-47038164D01*
X94437532Y-47215603D01*
X94437532Y-47215605D01*
X94475000Y-47403969D01*
X94475000Y-47596031D01*
X94474510Y-47598493D01*
X94437532Y-47784397D01*
X94364034Y-47961836D01*
X94257332Y-48121527D01*
X94121527Y-48257332D01*
X93961836Y-48364034D01*
X93784397Y-48437532D01*
X93690213Y-48456266D01*
X93596031Y-48475000D01*
X93403969Y-48475000D01*
X93309787Y-48456266D01*
X93215603Y-48437532D01*
X93038164Y-48364034D01*
X92878473Y-48257332D01*
X92742668Y-48121527D01*
X92635966Y-47961836D01*
X92562468Y-47784397D01*
X92525490Y-47598493D01*
X92525000Y-47596031D01*
X92525000Y-47403969D01*
X92562468Y-47215605D01*
X92562468Y-47215603D01*
X92635966Y-47038164D01*
X92742668Y-46878473D01*
X92878473Y-46742668D01*
X93038164Y-46635966D01*
X93215603Y-46562468D01*
X93309787Y-46543734D01*
X93403969Y-46525000D01*
X93596031Y-46525000D01*
X93690213Y-46543734D01*
G37*
G36*
X88690213Y-46543734D02*
G01*
X88784397Y-46562468D01*
X88961836Y-46635966D01*
X89121527Y-46742668D01*
X89257332Y-46878473D01*
X89364034Y-47038164D01*
X89437532Y-47215603D01*
X89437532Y-47215605D01*
X89475000Y-47403969D01*
X89475000Y-47596031D01*
X89474510Y-47598493D01*
X89437532Y-47784397D01*
X89364034Y-47961836D01*
X89257332Y-48121527D01*
X89121527Y-48257332D01*
X88961836Y-48364034D01*
X88784397Y-48437532D01*
X88690213Y-48456266D01*
X88596031Y-48475000D01*
X88403969Y-48475000D01*
X88309787Y-48456266D01*
X88215603Y-48437532D01*
X88038164Y-48364034D01*
X87878473Y-48257332D01*
X87742668Y-48121527D01*
X87635966Y-47961836D01*
X87562468Y-47784397D01*
X87525490Y-47598493D01*
X87525000Y-47596031D01*
X87525000Y-47403969D01*
X87562468Y-47215605D01*
X87562468Y-47215603D01*
X87635966Y-47038164D01*
X87742668Y-46878473D01*
X87878473Y-46742668D01*
X88038164Y-46635966D01*
X88215603Y-46562468D01*
X88309787Y-46543734D01*
X88403969Y-46525000D01*
X88596031Y-46525000D01*
X88690213Y-46543734D01*
G37*
G36*
X83690213Y-46543734D02*
G01*
X83784397Y-46562468D01*
X83961836Y-46635966D01*
X84121527Y-46742668D01*
X84257332Y-46878473D01*
X84364034Y-47038164D01*
X84437532Y-47215603D01*
X84437532Y-47215605D01*
X84475000Y-47403969D01*
X84475000Y-47596031D01*
X84474510Y-47598493D01*
X84437532Y-47784397D01*
X84364034Y-47961836D01*
X84257332Y-48121527D01*
X84121527Y-48257332D01*
X83961836Y-48364034D01*
X83784397Y-48437532D01*
X83690213Y-48456266D01*
X83596031Y-48475000D01*
X83403969Y-48475000D01*
X83309787Y-48456266D01*
X83215603Y-48437532D01*
X83038164Y-48364034D01*
X82878473Y-48257332D01*
X82742668Y-48121527D01*
X82635966Y-47961836D01*
X82562468Y-47784397D01*
X82525490Y-47598493D01*
X82525000Y-47596031D01*
X82525000Y-47403969D01*
X82562468Y-47215605D01*
X82562468Y-47215603D01*
X82635966Y-47038164D01*
X82742668Y-46878473D01*
X82878473Y-46742668D01*
X83038164Y-46635966D01*
X83215603Y-46562468D01*
X83309787Y-46543734D01*
X83403969Y-46525000D01*
X83596031Y-46525000D01*
X83690213Y-46543734D01*
G37*
G36*
X78690213Y-46543734D02*
G01*
X78784397Y-46562468D01*
X78961836Y-46635966D01*
X79121527Y-46742668D01*
X79257332Y-46878473D01*
X79364034Y-47038164D01*
X79437532Y-47215603D01*
X79437532Y-47215605D01*
X79475000Y-47403969D01*
X79475000Y-47596031D01*
X79474510Y-47598493D01*
X79437532Y-47784397D01*
X79364034Y-47961836D01*
X79257332Y-48121527D01*
X79121527Y-48257332D01*
X78961836Y-48364034D01*
X78784397Y-48437532D01*
X78690213Y-48456266D01*
X78596031Y-48475000D01*
X78403969Y-48475000D01*
X78309787Y-48456266D01*
X78215603Y-48437532D01*
X78038164Y-48364034D01*
X77878473Y-48257332D01*
X77742668Y-48121527D01*
X77635966Y-47961836D01*
X77562468Y-47784397D01*
X77525490Y-47598493D01*
X77525000Y-47596031D01*
X77525000Y-47403969D01*
X77562468Y-47215605D01*
X77562468Y-47215603D01*
X77635966Y-47038164D01*
X77742668Y-46878473D01*
X77878473Y-46742668D01*
X78038164Y-46635966D01*
X78215603Y-46562468D01*
X78309787Y-46543734D01*
X78403969Y-46525000D01*
X78596031Y-46525000D01*
X78690213Y-46543734D01*
G37*
G36*
X73690213Y-46543734D02*
G01*
X73784397Y-46562468D01*
X73961836Y-46635966D01*
X74121527Y-46742668D01*
X74257332Y-46878473D01*
X74364034Y-47038164D01*
X74437532Y-47215603D01*
X74437532Y-47215605D01*
X74475000Y-47403969D01*
X74475000Y-47596031D01*
X74474510Y-47598493D01*
X74437532Y-47784397D01*
X74364034Y-47961836D01*
X74257332Y-48121527D01*
X74121527Y-48257332D01*
X73961836Y-48364034D01*
X73784397Y-48437532D01*
X73690213Y-48456266D01*
X73596031Y-48475000D01*
X73403969Y-48475000D01*
X73309787Y-48456266D01*
X73215603Y-48437532D01*
X73038164Y-48364034D01*
X72878473Y-48257332D01*
X72742668Y-48121527D01*
X72635966Y-47961836D01*
X72562468Y-47784397D01*
X72525490Y-47598493D01*
X72525000Y-47596031D01*
X72525000Y-47403969D01*
X72562468Y-47215605D01*
X72562468Y-47215603D01*
X72635966Y-47038164D01*
X72742668Y-46878473D01*
X72878473Y-46742668D01*
X73038164Y-46635966D01*
X73215603Y-46562468D01*
X73309787Y-46543734D01*
X73403969Y-46525000D01*
X73596031Y-46525000D01*
X73690213Y-46543734D01*
G37*
G36*
X68690213Y-46543734D02*
G01*
X68784397Y-46562468D01*
X68961836Y-46635966D01*
X69121527Y-46742668D01*
X69257332Y-46878473D01*
X69364034Y-47038164D01*
X69437532Y-47215603D01*
X69437532Y-47215605D01*
X69475000Y-47403969D01*
X69475000Y-47596031D01*
X69474510Y-47598493D01*
X69437532Y-47784397D01*
X69364034Y-47961836D01*
X69257332Y-48121527D01*
X69121527Y-48257332D01*
X68961836Y-48364034D01*
X68784397Y-48437532D01*
X68690213Y-48456266D01*
X68596031Y-48475000D01*
X68403969Y-48475000D01*
X68309787Y-48456266D01*
X68215603Y-48437532D01*
X68038164Y-48364034D01*
X67878473Y-48257332D01*
X67742668Y-48121527D01*
X67635966Y-47961836D01*
X67562468Y-47784397D01*
X67525490Y-47598493D01*
X67525000Y-47596031D01*
X67525000Y-47403969D01*
X67562468Y-47215605D01*
X67562468Y-47215603D01*
X67635966Y-47038164D01*
X67742668Y-46878473D01*
X67878473Y-46742668D01*
X68038164Y-46635966D01*
X68215603Y-46562468D01*
X68309787Y-46543734D01*
X68403969Y-46525000D01*
X68596031Y-46525000D01*
X68690213Y-46543734D01*
G37*
G36*
X63690213Y-46543734D02*
G01*
X63784397Y-46562468D01*
X63961836Y-46635966D01*
X64121527Y-46742668D01*
X64257332Y-46878473D01*
X64364034Y-47038164D01*
X64437532Y-47215603D01*
X64437532Y-47215605D01*
X64475000Y-47403969D01*
X64475000Y-47596031D01*
X64474510Y-47598493D01*
X64437532Y-47784397D01*
X64364034Y-47961836D01*
X64257332Y-48121527D01*
X64121527Y-48257332D01*
X63961836Y-48364034D01*
X63784397Y-48437532D01*
X63690213Y-48456266D01*
X63596031Y-48475000D01*
X63403969Y-48475000D01*
X63309787Y-48456266D01*
X63215603Y-48437532D01*
X63038164Y-48364034D01*
X62878473Y-48257332D01*
X62742668Y-48121527D01*
X62635966Y-47961836D01*
X62562468Y-47784397D01*
X62525490Y-47598493D01*
X62525000Y-47596031D01*
X62525000Y-47403969D01*
X62562468Y-47215605D01*
X62562468Y-47215603D01*
X62635966Y-47038164D01*
X62742668Y-46878473D01*
X62878473Y-46742668D01*
X63038164Y-46635966D01*
X63215603Y-46562468D01*
X63309787Y-46543734D01*
X63403969Y-46525000D01*
X63596031Y-46525000D01*
X63690213Y-46543734D01*
G37*
G36*
X59475000Y-48475000D02*
G01*
X57525000Y-48475000D01*
X57525000Y-46525000D01*
X59475000Y-46525000D01*
X59475000Y-48475000D01*
G37*
G36*
X108204182Y-46906901D02*
G01*
X108331574Y-46959668D01*
X108446224Y-47036274D01*
X108543726Y-47133776D01*
X108620332Y-47248426D01*
X108673099Y-47375818D01*
X108700000Y-47511056D01*
X108700000Y-47648944D01*
X108673099Y-47784182D01*
X108620332Y-47911574D01*
X108543726Y-48026224D01*
X108446224Y-48123726D01*
X108331574Y-48200332D01*
X108204182Y-48253099D01*
X108068944Y-48280000D01*
X107931056Y-48280000D01*
X107795818Y-48253099D01*
X107668426Y-48200332D01*
X107553776Y-48123726D01*
X107456274Y-48026224D01*
X107379668Y-47911574D01*
X107326901Y-47784182D01*
X107300000Y-47648944D01*
X107300000Y-47511056D01*
X107326901Y-47375818D01*
X107379668Y-47248426D01*
X107456274Y-47133776D01*
X107553776Y-47036274D01*
X107668426Y-46959668D01*
X107795818Y-46906901D01*
X107931056Y-46880000D01*
X108068944Y-46880000D01*
X108204182Y-46906901D01*
G37*
G36*
X104234225Y-44061282D02*
G01*
X104413770Y-44115747D01*
X104579238Y-44204191D01*
X104724278Y-44323222D01*
X104843309Y-44468262D01*
X104931753Y-44633730D01*
X104986218Y-44813275D01*
X105004609Y-45000000D01*
X104986218Y-45186725D01*
X104931753Y-45366270D01*
X104843309Y-45531738D01*
X104724278Y-45676778D01*
X104579238Y-45795809D01*
X104413770Y-45884253D01*
X104234225Y-45938718D01*
X104094294Y-45952500D01*
X103905706Y-45952500D01*
X103765775Y-45938718D01*
X103586230Y-45884253D01*
X103420762Y-45795809D01*
X103275722Y-45676778D01*
X103156691Y-45531738D01*
X103068247Y-45366270D01*
X103013782Y-45186725D01*
X102995391Y-45000000D01*
X103013782Y-44813275D01*
X103068247Y-44633730D01*
X103156691Y-44468262D01*
X103275722Y-44323222D01*
X103420762Y-44204191D01*
X103586230Y-44115747D01*
X103765775Y-44061282D01*
X103905706Y-44047500D01*
X104094294Y-44047500D01*
X104234225Y-44061282D01*
G37*
G36*
X38204182Y-43326901D02*
G01*
X38331574Y-43379668D01*
X38446224Y-43456274D01*
X38543726Y-43553776D01*
X38620332Y-43668426D01*
X38673099Y-43795818D01*
X38700000Y-43931056D01*
X38700000Y-44068944D01*
X38673099Y-44204182D01*
X38620332Y-44331574D01*
X38543726Y-44446224D01*
X38446224Y-44543726D01*
X38331574Y-44620332D01*
X38204182Y-44673099D01*
X38068944Y-44700000D01*
X37931056Y-44700000D01*
X37795818Y-44673099D01*
X37668426Y-44620332D01*
X37553776Y-44543726D01*
X37456274Y-44446224D01*
X37379668Y-44331574D01*
X37326901Y-44204182D01*
X37300000Y-44068944D01*
X37300000Y-43931056D01*
X37326901Y-43795818D01*
X37379668Y-43668426D01*
X37456274Y-43553776D01*
X37553776Y-43456274D01*
X37668426Y-43379668D01*
X37795818Y-43326901D01*
X37931056Y-43300000D01*
X38068944Y-43300000D01*
X38204182Y-43326901D01*
G37*
G36*
X113500000Y-44000000D02*
G01*
X111500000Y-44000000D01*
X111500000Y-42000000D01*
X113500000Y-42000000D01*
X113500000Y-44000000D01*
G37*
G36*
X117695090Y-42019215D02*
G01*
X117791689Y-42038429D01*
X117973678Y-42113811D01*
X118137463Y-42223249D01*
X118276751Y-42362537D01*
X118386189Y-42526322D01*
X118461571Y-42708311D01*
X118461571Y-42708313D01*
X118500000Y-42901507D01*
X118500000Y-43098493D01*
X118485160Y-43173099D01*
X118461571Y-43291689D01*
X118386189Y-43473678D01*
X118276751Y-43637463D01*
X118137463Y-43776751D01*
X117973678Y-43886189D01*
X117791689Y-43961571D01*
X117695090Y-43980786D01*
X117598493Y-44000000D01*
X117401507Y-44000000D01*
X117304910Y-43980785D01*
X117208311Y-43961571D01*
X117026322Y-43886189D01*
X116862537Y-43776751D01*
X116723249Y-43637463D01*
X116613811Y-43473678D01*
X116538429Y-43291689D01*
X116514840Y-43173099D01*
X116500000Y-43098493D01*
X116500000Y-42901507D01*
X116538429Y-42708313D01*
X116538429Y-42708311D01*
X116613811Y-42526322D01*
X116723249Y-42362537D01*
X116862537Y-42223249D01*
X117026322Y-42113811D01*
X117208311Y-42038429D01*
X117304910Y-42019215D01*
X117401507Y-42000000D01*
X117598493Y-42000000D01*
X117695090Y-42019215D01*
G37*
G36*
X49000000Y-43500000D02*
G01*
X47000000Y-43500000D01*
X47000000Y-41500000D01*
X49000000Y-41500000D01*
X49000000Y-43500000D01*
G37*
G36*
X88690213Y-41543734D02*
G01*
X88784397Y-41562468D01*
X88961836Y-41635966D01*
X89121527Y-41742668D01*
X89257332Y-41878473D01*
X89364034Y-42038164D01*
X89437532Y-42215603D01*
X89449003Y-42273275D01*
X89466759Y-42362537D01*
X89475000Y-42403971D01*
X89475000Y-42596029D01*
X89437532Y-42784397D01*
X89364034Y-42961836D01*
X89257332Y-43121527D01*
X89121527Y-43257332D01*
X88961836Y-43364034D01*
X88784397Y-43437532D01*
X88690213Y-43456266D01*
X88596031Y-43475000D01*
X88403969Y-43475000D01*
X88309787Y-43456266D01*
X88215603Y-43437532D01*
X88038164Y-43364034D01*
X87878473Y-43257332D01*
X87742668Y-43121527D01*
X87635966Y-42961836D01*
X87562468Y-42784397D01*
X87525000Y-42596029D01*
X87525000Y-42403971D01*
X87533242Y-42362537D01*
X87550997Y-42273275D01*
X87562468Y-42215603D01*
X87635966Y-42038164D01*
X87742668Y-41878473D01*
X87878473Y-41742668D01*
X88038164Y-41635966D01*
X88215603Y-41562468D01*
X88309787Y-41543734D01*
X88403969Y-41525000D01*
X88596031Y-41525000D01*
X88690213Y-41543734D01*
G37*
G36*
X93690213Y-41543734D02*
G01*
X93784397Y-41562468D01*
X93961836Y-41635966D01*
X94121527Y-41742668D01*
X94257332Y-41878473D01*
X94364034Y-42038164D01*
X94437532Y-42215603D01*
X94449003Y-42273275D01*
X94466759Y-42362537D01*
X94475000Y-42403971D01*
X94475000Y-42596029D01*
X94437532Y-42784397D01*
X94364034Y-42961836D01*
X94257332Y-43121527D01*
X94121527Y-43257332D01*
X93961836Y-43364034D01*
X93784397Y-43437532D01*
X93690213Y-43456266D01*
X93596031Y-43475000D01*
X93403969Y-43475000D01*
X93309787Y-43456266D01*
X93215603Y-43437532D01*
X93038164Y-43364034D01*
X92878473Y-43257332D01*
X92742668Y-43121527D01*
X92635966Y-42961836D01*
X92562468Y-42784397D01*
X92525000Y-42596029D01*
X92525000Y-42403971D01*
X92533242Y-42362537D01*
X92550997Y-42273275D01*
X92562468Y-42215603D01*
X92635966Y-42038164D01*
X92742668Y-41878473D01*
X92878473Y-41742668D01*
X93038164Y-41635966D01*
X93215603Y-41562468D01*
X93309787Y-41543734D01*
X93403969Y-41525000D01*
X93596031Y-41525000D01*
X93690213Y-41543734D01*
G37*
G36*
X59475000Y-43475000D02*
G01*
X57525000Y-43475000D01*
X57525000Y-41525000D01*
X59475000Y-41525000D01*
X59475000Y-43475000D01*
G37*
G36*
X78690213Y-41543734D02*
G01*
X78784397Y-41562468D01*
X78961836Y-41635966D01*
X79121527Y-41742668D01*
X79257332Y-41878473D01*
X79364034Y-42038164D01*
X79437532Y-42215603D01*
X79449003Y-42273275D01*
X79466759Y-42362537D01*
X79475000Y-42403971D01*
X79475000Y-42596029D01*
X79437532Y-42784397D01*
X79364034Y-42961836D01*
X79257332Y-43121527D01*
X79121527Y-43257332D01*
X78961836Y-43364034D01*
X78784397Y-43437532D01*
X78690213Y-43456266D01*
X78596031Y-43475000D01*
X78403969Y-43475000D01*
X78309787Y-43456266D01*
X78215603Y-43437532D01*
X78038164Y-43364034D01*
X77878473Y-43257332D01*
X77742668Y-43121527D01*
X77635966Y-42961836D01*
X77562468Y-42784397D01*
X77525000Y-42596029D01*
X77525000Y-42403971D01*
X77533242Y-42362537D01*
X77550997Y-42273275D01*
X77562468Y-42215603D01*
X77635966Y-42038164D01*
X77742668Y-41878473D01*
X77878473Y-41742668D01*
X78038164Y-41635966D01*
X78215603Y-41562468D01*
X78309787Y-41543734D01*
X78403969Y-41525000D01*
X78596031Y-41525000D01*
X78690213Y-41543734D01*
G37*
G36*
X73690213Y-41543734D02*
G01*
X73784397Y-41562468D01*
X73961836Y-41635966D01*
X74121527Y-41742668D01*
X74257332Y-41878473D01*
X74364034Y-42038164D01*
X74437532Y-42215603D01*
X74449003Y-42273275D01*
X74466759Y-42362537D01*
X74475000Y-42403971D01*
X74475000Y-42596029D01*
X74437532Y-42784397D01*
X74364034Y-42961836D01*
X74257332Y-43121527D01*
X74121527Y-43257332D01*
X73961836Y-43364034D01*
X73784397Y-43437532D01*
X73690213Y-43456266D01*
X73596031Y-43475000D01*
X73403969Y-43475000D01*
X73309787Y-43456266D01*
X73215603Y-43437532D01*
X73038164Y-43364034D01*
X72878473Y-43257332D01*
X72742668Y-43121527D01*
X72635966Y-42961836D01*
X72562468Y-42784397D01*
X72525000Y-42596029D01*
X72525000Y-42403971D01*
X72533242Y-42362537D01*
X72550997Y-42273275D01*
X72562468Y-42215603D01*
X72635966Y-42038164D01*
X72742668Y-41878473D01*
X72878473Y-41742668D01*
X73038164Y-41635966D01*
X73215603Y-41562468D01*
X73309787Y-41543734D01*
X73403969Y-41525000D01*
X73596031Y-41525000D01*
X73690213Y-41543734D01*
G37*
G36*
X68690213Y-41543734D02*
G01*
X68784397Y-41562468D01*
X68961836Y-41635966D01*
X69121527Y-41742668D01*
X69257332Y-41878473D01*
X69364034Y-42038164D01*
X69437532Y-42215603D01*
X69449003Y-42273275D01*
X69466759Y-42362537D01*
X69475000Y-42403971D01*
X69475000Y-42596029D01*
X69437532Y-42784397D01*
X69364034Y-42961836D01*
X69257332Y-43121527D01*
X69121527Y-43257332D01*
X68961836Y-43364034D01*
X68784397Y-43437532D01*
X68690213Y-43456266D01*
X68596031Y-43475000D01*
X68403969Y-43475000D01*
X68309787Y-43456266D01*
X68215603Y-43437532D01*
X68038164Y-43364034D01*
X67878473Y-43257332D01*
X67742668Y-43121527D01*
X67635966Y-42961836D01*
X67562468Y-42784397D01*
X67525000Y-42596029D01*
X67525000Y-42403971D01*
X67533242Y-42362537D01*
X67550997Y-42273275D01*
X67562468Y-42215603D01*
X67635966Y-42038164D01*
X67742668Y-41878473D01*
X67878473Y-41742668D01*
X68038164Y-41635966D01*
X68215603Y-41562468D01*
X68309787Y-41543734D01*
X68403969Y-41525000D01*
X68596031Y-41525000D01*
X68690213Y-41543734D01*
G37*
G36*
X83690213Y-41543734D02*
G01*
X83784397Y-41562468D01*
X83961836Y-41635966D01*
X84121527Y-41742668D01*
X84257332Y-41878473D01*
X84364034Y-42038164D01*
X84437532Y-42215603D01*
X84449003Y-42273275D01*
X84466759Y-42362537D01*
X84475000Y-42403971D01*
X84475000Y-42596029D01*
X84437532Y-42784397D01*
X84364034Y-42961836D01*
X84257332Y-43121527D01*
X84121527Y-43257332D01*
X83961836Y-43364034D01*
X83784397Y-43437532D01*
X83690213Y-43456266D01*
X83596031Y-43475000D01*
X83403969Y-43475000D01*
X83309787Y-43456266D01*
X83215603Y-43437532D01*
X83038164Y-43364034D01*
X82878473Y-43257332D01*
X82742668Y-43121527D01*
X82635966Y-42961836D01*
X82562468Y-42784397D01*
X82525000Y-42596029D01*
X82525000Y-42403971D01*
X82533242Y-42362537D01*
X82550997Y-42273275D01*
X82562468Y-42215603D01*
X82635966Y-42038164D01*
X82742668Y-41878473D01*
X82878473Y-41742668D01*
X83038164Y-41635966D01*
X83215603Y-41562468D01*
X83309787Y-41543734D01*
X83403969Y-41525000D01*
X83596031Y-41525000D01*
X83690213Y-41543734D01*
G37*
G36*
X63690213Y-41543734D02*
G01*
X63784397Y-41562468D01*
X63961836Y-41635966D01*
X64121527Y-41742668D01*
X64257332Y-41878473D01*
X64364034Y-42038164D01*
X64437532Y-42215603D01*
X64449003Y-42273275D01*
X64466759Y-42362537D01*
X64475000Y-42403971D01*
X64475000Y-42596029D01*
X64437532Y-42784397D01*
X64364034Y-42961836D01*
X64257332Y-43121527D01*
X64121527Y-43257332D01*
X63961836Y-43364034D01*
X63784397Y-43437532D01*
X63690213Y-43456266D01*
X63596031Y-43475000D01*
X63403969Y-43475000D01*
X63309787Y-43456266D01*
X63215603Y-43437532D01*
X63038164Y-43364034D01*
X62878473Y-43257332D01*
X62742668Y-43121527D01*
X62635966Y-42961836D01*
X62562468Y-42784397D01*
X62525000Y-42596029D01*
X62525000Y-42403971D01*
X62533242Y-42362537D01*
X62550997Y-42273275D01*
X62562468Y-42215603D01*
X62635966Y-42038164D01*
X62742668Y-41878473D01*
X62878473Y-41742668D01*
X63038164Y-41635966D01*
X63215603Y-41562468D01*
X63309787Y-41543734D01*
X63403969Y-41525000D01*
X63596031Y-41525000D01*
X63690213Y-41543734D01*
G37*
G36*
X104234225Y-41521282D02*
G01*
X104413770Y-41575747D01*
X104579238Y-41664191D01*
X104724278Y-41783222D01*
X104843309Y-41928262D01*
X104931753Y-42093730D01*
X104986218Y-42273275D01*
X105004609Y-42460000D01*
X104986218Y-42646725D01*
X104931753Y-42826270D01*
X104843309Y-42991738D01*
X104724278Y-43136778D01*
X104579238Y-43255809D01*
X104413770Y-43344253D01*
X104234225Y-43398718D01*
X104094294Y-43412500D01*
X103905706Y-43412500D01*
X103765775Y-43398718D01*
X103586230Y-43344253D01*
X103420762Y-43255809D01*
X103275722Y-43136778D01*
X103156691Y-42991738D01*
X103068247Y-42826270D01*
X103013782Y-42646725D01*
X102995391Y-42460000D01*
X103013782Y-42273275D01*
X103068247Y-42093730D01*
X103156691Y-41928262D01*
X103275722Y-41783222D01*
X103420762Y-41664191D01*
X103586230Y-41575747D01*
X103765775Y-41521282D01*
X103905706Y-41507500D01*
X104094294Y-41507500D01*
X104234225Y-41521282D01*
G37*
G36*
X108204182Y-41826901D02*
G01*
X108331574Y-41879668D01*
X108446224Y-41956274D01*
X108543726Y-42053776D01*
X108620332Y-42168426D01*
X108673099Y-42295818D01*
X108700000Y-42431056D01*
X108700000Y-42568944D01*
X108673099Y-42704182D01*
X108620332Y-42831574D01*
X108543726Y-42946224D01*
X108446224Y-43043726D01*
X108331574Y-43120332D01*
X108204182Y-43173099D01*
X108068944Y-43200000D01*
X107931056Y-43200000D01*
X107795818Y-43173099D01*
X107668426Y-43120332D01*
X107553776Y-43043726D01*
X107456274Y-42946224D01*
X107379668Y-42831574D01*
X107326901Y-42704182D01*
X107300000Y-42568944D01*
X107300000Y-42431056D01*
X107326901Y-42295818D01*
X107379668Y-42168426D01*
X107456274Y-42053776D01*
X107553776Y-41956274D01*
X107668426Y-41879668D01*
X107795818Y-41826901D01*
X107931056Y-41800000D01*
X108068944Y-41800000D01*
X108204182Y-41826901D01*
G37*
G36*
X122641716Y-35884545D02*
G01*
X123042091Y-36050385D01*
X123042093Y-36050386D01*
X123222254Y-36170766D01*
X123402418Y-36291148D01*
X123708852Y-36597582D01*
X123949615Y-36957909D01*
X124115455Y-37358284D01*
X124200000Y-37783319D01*
X124200000Y-38216681D01*
X124115455Y-38641716D01*
X123949615Y-39042091D01*
X123708852Y-39402418D01*
X123402418Y-39708852D01*
X123222254Y-39829234D01*
X123042093Y-39949614D01*
X123042092Y-39949615D01*
X123042091Y-39949615D01*
X122641716Y-40115455D01*
X122216681Y-40200000D01*
X121783319Y-40200000D01*
X121358284Y-40115455D01*
X120957909Y-39949615D01*
X120957908Y-39949615D01*
X120957907Y-39949614D01*
X120777745Y-39829233D01*
X120597582Y-39708852D01*
X120291148Y-39402418D01*
X120050385Y-39042091D01*
X119884545Y-38641716D01*
X119800000Y-38216681D01*
X119800000Y-37783319D01*
X119884545Y-37358284D01*
X120050385Y-36957909D01*
X120291148Y-36597582D01*
X120597582Y-36291148D01*
X120777746Y-36170766D01*
X120957907Y-36050386D01*
X120957909Y-36050385D01*
X121358284Y-35884545D01*
X121783319Y-35800000D01*
X122216681Y-35800000D01*
X122641716Y-35884545D01*
G37*
G36*
X40641716Y-35884545D02*
G01*
X41042091Y-36050385D01*
X41042093Y-36050386D01*
X41222254Y-36170766D01*
X41402418Y-36291148D01*
X41708852Y-36597582D01*
X41949615Y-36957909D01*
X42115455Y-37358284D01*
X42200000Y-37783319D01*
X42200000Y-38216681D01*
X42115455Y-38641716D01*
X41949615Y-39042091D01*
X41708852Y-39402418D01*
X41402418Y-39708852D01*
X41222254Y-39829234D01*
X41042093Y-39949614D01*
X41042092Y-39949615D01*
X41042091Y-39949615D01*
X40641716Y-40115455D01*
X40216681Y-40200000D01*
X39783319Y-40200000D01*
X39358284Y-40115455D01*
X38957909Y-39949615D01*
X38957908Y-39949615D01*
X38957907Y-39949614D01*
X38777745Y-39829233D01*
X38597582Y-39708852D01*
X38291148Y-39402418D01*
X38050385Y-39042091D01*
X37884545Y-38641716D01*
X37800000Y-38216681D01*
X37800000Y-37783319D01*
X37884545Y-37358284D01*
X38050385Y-36957909D01*
X38291148Y-36597582D01*
X38597582Y-36291148D01*
X38777746Y-36170766D01*
X38957907Y-36050386D01*
X38957909Y-36050385D01*
X39358284Y-35884545D01*
X39783319Y-35800000D01*
X40216681Y-35800000D01*
X40641716Y-35884545D01*
G37*
M02*
