M48
; DRILL file {KiCad (5.1.6-0-10_14)} date Tuesday, August 18, 2020 at 03:30:59 AM
; FORMAT={-:-/ absolute / metric / decimal}
; #@! TF.CreationDate,2020-08-18T03:30:59-05:00
; #@! TF.GenerationSoftware,Kicad,Pcbnew,(5.1.6-0-10_14)
; #@! TF.FileFunction,Plated,1,2,PTH
FMAT,2
METRIC
T1C0.700
T2C0.800
T3C0.850
T4C0.914
T5C0.916
T6C1.000
T7C1.100
T8C1.300
T9C1.320
T10C2.200
T11C3.200
%
G90
G05
T1
X108.0Y-42.5
X108.0Y-47.58
X38.0Y-44.0
X38.0Y-49.08
T2
X67.38Y-55.0
X75.0Y-55.0
X90.5Y-66.0
X90.5Y-68.54
X90.5Y-71.08
X90.5Y-73.62
X98.12Y-66.0
X98.12Y-68.54
X98.12Y-71.08
X98.12Y-73.62
X78.0Y-55.0
X83.0Y-55.0
X39.0Y-74.88
X39.0Y-82.5
X85.5Y-67.5
X85.5Y-69.5
X85.5Y-59.0
X85.5Y-64.0
X67.38Y-73.5
X75.0Y-73.5
X78.0Y-73.5
X83.0Y-73.5
T3
X90.65Y-59.04
X91.92Y-56.5
X93.19Y-59.04
X94.46Y-56.5
X95.73Y-59.04
X97.0Y-56.5
X120.46Y-51.65
X120.46Y-54.19
X120.46Y-56.73
X123.0Y-52.92
X123.0Y-55.46
X123.0Y-58.0
T4
X102.254Y-68.886
X102.254Y-71.426
X102.254Y-73.966
X102.254Y-76.506
X102.254Y-79.046
X102.254Y-81.586
X102.254Y-84.126
X102.254Y-86.666
X102.254Y-89.206
X102.254Y-91.746
X117.494Y-68.886
X117.494Y-71.426
X117.494Y-73.966
X117.494Y-76.506
X117.494Y-81.586
X117.494Y-84.126
X117.494Y-86.666
X117.494Y-89.206
X117.494Y-91.746
T5
X117.494Y-79.046
T6
X48.5Y-81.5
X48.5Y-86.5
X107.46Y-58.5
X110.0Y-58.5
X112.54Y-58.5
X112.5Y-43.0
X117.5Y-43.0
X48.0Y-42.5
X48.0Y-47.5
T7
X58.0Y-72.0
X60.54Y-72.0
X63.08Y-72.0
X104.0Y-42.46
X104.0Y-45.0
X104.0Y-47.54
X57.92Y-54.5
X60.46Y-54.5
X63.0Y-54.5
T8
X42.0Y-55.0
X42.0Y-60.0
X47.0Y-55.0
X47.0Y-60.0
X58.5Y-81.0
X58.5Y-86.0
X63.5Y-81.0
X63.5Y-86.0
X68.5Y-81.0
X68.5Y-86.0
X73.5Y-81.0
X73.5Y-86.0
X78.5Y-81.0
X78.5Y-86.0
X83.5Y-81.0
X83.5Y-86.0
X88.5Y-81.0
X88.5Y-86.0
X93.5Y-81.0
X93.5Y-86.0
X58.5Y-42.5
X58.5Y-47.5
X63.5Y-42.5
X63.5Y-47.5
X68.5Y-42.5
X68.5Y-47.5
X73.5Y-42.5
X73.5Y-47.5
X78.5Y-42.5
X78.5Y-47.5
X83.5Y-42.5
X83.5Y-47.5
X88.5Y-42.5
X88.5Y-47.5
X93.5Y-42.5
X93.5Y-47.5
T9
X58.0Y-64.5
X79.84Y-64.5
T10
X122.0Y-90.0
X40.0Y-38.0
X40.0Y-90.0
X122.0Y-38.0
T11
X44.8Y-69.2
X47.6Y-74.0
X50.6Y-69.2
T0
M30
