%TF.GenerationSoftware,KiCad,Pcbnew,(5.1.6-0-10_14)*%
%TF.CreationDate,2020-08-18T03:30:43-05:00*%
%TF.ProjectId,Main,4d61696e-2e6b-4696-9361-645f70636258,rev?*%
%TF.SameCoordinates,Original*%
%TF.FileFunction,Legend,Top*%
%TF.FilePolarity,Positive*%
%FSLAX46Y46*%
G04 Gerber Fmt 4.6, Leading zero omitted, Abs format (unit mm)*
G04 Created by KiCad (PCBNEW (5.1.6-0-10_14)) date 2020-08-18 03:30:43*
%MOMM*%
%LPD*%
G01*
G04 APERTURE LIST*
%ADD10C,0.304800*%
%ADD11C,0.152400*%
%ADD12C,0.200000*%
%ADD13C,0.127000*%
%ADD14C,0.120000*%
%ADD15C,0.100000*%
%ADD16C,0.254000*%
%ADD17C,0.150000*%
G04 APERTURE END LIST*
D10*
X62919428Y-92608857D02*
X64080571Y-92608857D01*
X92919428Y-92608857D02*
X94080571Y-92608857D01*
X77919428Y-92608857D02*
X79080571Y-92608857D01*
X78500000Y-93189428D02*
X78500000Y-92028285D01*
X82919428Y-92608857D02*
X84080571Y-92608857D01*
X67919428Y-92608857D02*
X69080571Y-92608857D01*
X68500000Y-93189428D02*
X68500000Y-92028285D01*
X57919428Y-92608857D02*
X59080571Y-92608857D01*
X58500000Y-93189428D02*
X58500000Y-92028285D01*
X87919428Y-92608857D02*
X89080571Y-92608857D01*
X88500000Y-93189428D02*
X88500000Y-92028285D01*
X62919428Y-35608857D02*
X64080571Y-35608857D01*
X92919428Y-35608857D02*
X94080571Y-35608857D01*
X82919428Y-35608857D02*
X84080571Y-35608857D01*
X87919428Y-35608857D02*
X89080571Y-35608857D01*
X88500000Y-36189428D02*
X88500000Y-35028285D01*
X77919428Y-35608857D02*
X79080571Y-35608857D01*
X78500000Y-36189428D02*
X78500000Y-35028285D01*
X67919428Y-35608857D02*
X69080571Y-35608857D01*
X68500000Y-36189428D02*
X68500000Y-35028285D01*
X57919428Y-35608857D02*
X59080571Y-35608857D01*
X58500000Y-36189428D02*
X58500000Y-35028285D01*
D11*
X100000000Y-93000000D02*
X100000000Y-35000000D01*
D12*
%TO.C,F1*%
X56840000Y-59650000D02*
X81000000Y-59650000D01*
X56840000Y-69350000D02*
X56840000Y-59650000D01*
X81000000Y-69350000D02*
X56840000Y-69350000D01*
X81000000Y-59650000D02*
X81000000Y-69350000D01*
%TO.C,J2*%
X53931000Y-69061000D02*
G75*
G03*
X53931000Y-69061000I-64000J0D01*
G01*
X37000000Y-64000000D02*
X51500000Y-64000000D01*
X37000000Y-73000000D02*
X37000000Y-64000000D01*
X44250000Y-73000000D02*
X37000000Y-73000000D01*
D13*
%TO.C,J1*%
X52000000Y-63150000D02*
X37000000Y-63150000D01*
X37000000Y-52150000D02*
X52000000Y-52150000D01*
X37000000Y-63150000D02*
X37000000Y-52150000D01*
X52000000Y-52150000D02*
X52000000Y-63150000D01*
D12*
X36100000Y-60000000D02*
G75*
G03*
X36100000Y-60000000I-100000J0D01*
G01*
D14*
%TO.C,XA1*%
X105784600Y-93397000D02*
X113963400Y-93397000D01*
X113963400Y-87885200D02*
X113963400Y-93397000D01*
X105784600Y-87885200D02*
X113963400Y-87885200D01*
X105784600Y-93397000D02*
X105784600Y-87885200D01*
X116782800Y-66955600D02*
X116782800Y-61748600D01*
X103016000Y-66955600D02*
X116782800Y-66955600D01*
X103016000Y-61748600D02*
X116782800Y-61748600D01*
X103016000Y-66955600D02*
X103016000Y-61748600D01*
X100984000Y-61266000D02*
X118764000Y-61266000D01*
X118764000Y-93143000D02*
X100984000Y-93143000D01*
X118764000Y-61266000D02*
X118764000Y-93143000D01*
X100984000Y-93143000D02*
X100984000Y-61266000D01*
%TO.C,U1*%
X116000000Y-51500000D02*
X116000000Y-60500000D01*
X104000000Y-51500000D02*
X116000000Y-51500000D01*
X104000000Y-60500000D02*
X104000000Y-51500000D01*
X116000000Y-60500000D02*
X104000000Y-60500000D01*
D12*
%TO.C,J7*%
X58600000Y-75000000D02*
G75*
G03*
X58600000Y-75000000I-100000J0D01*
G01*
D13*
X96350000Y-91000000D02*
X55350000Y-91000000D01*
X55350000Y-76000000D02*
X96350000Y-76000000D01*
X96350000Y-76000000D02*
X96350000Y-91000000D01*
X55350000Y-91000000D02*
X55350000Y-76000000D01*
D12*
%TO.C,J6*%
X58600000Y-36500000D02*
G75*
G03*
X58600000Y-36500000I-100000J0D01*
G01*
D13*
X96350000Y-52500000D02*
X55350000Y-52500000D01*
X55350000Y-37500000D02*
X96350000Y-37500000D01*
X96350000Y-37500000D02*
X96350000Y-52500000D01*
X55350000Y-52500000D02*
X55350000Y-37500000D01*
D15*
%TO.C,J4*%
X88975000Y-60370000D02*
X88975000Y-58270000D01*
X98675000Y-60370000D02*
X88975000Y-60370000D01*
X98675000Y-55170000D02*
X98675000Y-60370000D01*
X88975000Y-55170000D02*
X98675000Y-55170000D01*
X88975000Y-55270000D02*
X88975000Y-55170000D01*
X88975000Y-56270000D02*
X88975000Y-55270000D01*
%TO.C,J3*%
X119130000Y-49975000D02*
X121230000Y-49975000D01*
X119130000Y-59675000D02*
X119130000Y-49975000D01*
X124330000Y-59675000D02*
X119130000Y-59675000D01*
X124330000Y-49975000D02*
X124330000Y-59675000D01*
X124230000Y-49975000D02*
X124330000Y-49975000D01*
X123230000Y-49975000D02*
X124230000Y-49975000D01*
D14*
%TO.C,U2*%
X89170000Y-75010000D02*
X99450000Y-75010000D01*
X89170000Y-64610000D02*
X89170000Y-75010000D01*
X99450000Y-64610000D02*
X89170000Y-64610000D01*
X99450000Y-75010000D02*
X99450000Y-64610000D01*
X91660000Y-74950000D02*
X93310000Y-74950000D01*
X91660000Y-64670000D02*
X91660000Y-74950000D01*
X96960000Y-64670000D02*
X91660000Y-64670000D01*
X96960000Y-74950000D02*
X96960000Y-64670000D01*
X95310000Y-74950000D02*
X96960000Y-74950000D01*
X93310000Y-74950000D02*
G75*
G02*
X95310000Y-74950000I1000000J0D01*
G01*
%TO.C,R-Bleeder1*%
X37080000Y-44620000D02*
X37080000Y-48460000D01*
X38920000Y-44620000D02*
X38920000Y-48460000D01*
%TO.C,R3*%
X67920000Y-72130000D02*
X67920000Y-72460000D01*
X74460000Y-72130000D02*
X67920000Y-72130000D01*
X74460000Y-72460000D02*
X74460000Y-72130000D01*
X67920000Y-74870000D02*
X67920000Y-74540000D01*
X74460000Y-74870000D02*
X67920000Y-74870000D01*
X74460000Y-74540000D02*
X74460000Y-74870000D01*
%TO.C,R2*%
X67920000Y-53630000D02*
X67920000Y-53960000D01*
X74460000Y-53630000D02*
X67920000Y-53630000D01*
X74460000Y-53960000D02*
X74460000Y-53630000D01*
X67920000Y-56370000D02*
X67920000Y-56040000D01*
X74460000Y-56370000D02*
X67920000Y-56370000D01*
X74460000Y-56040000D02*
X74460000Y-56370000D01*
%TO.C,R1*%
X108920000Y-46960000D02*
X108920000Y-43120000D01*
X107080000Y-46960000D02*
X107080000Y-43120000D01*
%TO.C,Q3*%
X58689000Y-75270000D02*
X58689000Y-73760000D01*
X62390000Y-75270000D02*
X62390000Y-73760000D01*
X65660000Y-73760000D02*
X55420000Y-73760000D01*
X55420000Y-75270000D02*
X55420000Y-70629000D01*
X65660000Y-75270000D02*
X65660000Y-70629000D01*
X65660000Y-70629000D02*
X55420000Y-70629000D01*
X65660000Y-75270000D02*
X55420000Y-75270000D01*
%TO.C,Q2*%
X58609000Y-57770000D02*
X58609000Y-56260000D01*
X62310000Y-57770000D02*
X62310000Y-56260000D01*
X65580000Y-56260000D02*
X55340000Y-56260000D01*
X55340000Y-57770000D02*
X55340000Y-53129000D01*
X65580000Y-57770000D02*
X65580000Y-53129000D01*
X65580000Y-53129000D02*
X55340000Y-53129000D01*
X65580000Y-57770000D02*
X55340000Y-57770000D01*
%TO.C,Q1*%
X100730000Y-43149000D02*
X102240000Y-43149000D01*
X100730000Y-46850000D02*
X102240000Y-46850000D01*
X102240000Y-50120000D02*
X102240000Y-39880000D01*
X100730000Y-39880000D02*
X105371000Y-39880000D01*
X100730000Y-50120000D02*
X105371000Y-50120000D01*
X105371000Y-50120000D02*
X105371000Y-39880000D01*
X100730000Y-50120000D02*
X100730000Y-39880000D01*
%TO.C,D1*%
X37880000Y-80210000D02*
X40120000Y-80210000D01*
X37880000Y-79970000D02*
X40120000Y-79970000D01*
X37880000Y-80090000D02*
X40120000Y-80090000D01*
X39000000Y-75920000D02*
X39000000Y-76570000D01*
X39000000Y-81460000D02*
X39000000Y-80810000D01*
X37880000Y-76570000D02*
X37880000Y-80810000D01*
X40120000Y-76570000D02*
X37880000Y-76570000D01*
X40120000Y-80810000D02*
X40120000Y-76570000D01*
X37880000Y-80810000D02*
X40120000Y-80810000D01*
%TO.C,C7*%
X84220000Y-72130000D02*
X84220000Y-74870000D01*
X76780000Y-72130000D02*
X76780000Y-74870000D01*
X76780000Y-74870000D02*
X84220000Y-74870000D01*
X76780000Y-72130000D02*
X84220000Y-72130000D01*
%TO.C,C6*%
X84220000Y-53630000D02*
X84220000Y-56370000D01*
X76780000Y-53630000D02*
X76780000Y-56370000D01*
X76780000Y-56370000D02*
X84220000Y-56370000D01*
X76780000Y-53630000D02*
X84220000Y-53630000D01*
%TO.C,C5*%
X45125000Y-88979646D02*
X46125000Y-88979646D01*
X45625000Y-89479646D02*
X45625000Y-88479646D01*
X47901000Y-78919000D02*
X49099000Y-78919000D01*
X47638000Y-78959000D02*
X49362000Y-78959000D01*
X47438000Y-78999000D02*
X49562000Y-78999000D01*
X47270000Y-79039000D02*
X49730000Y-79039000D01*
X47122000Y-79079000D02*
X49878000Y-79079000D01*
X46990000Y-79119000D02*
X50010000Y-79119000D01*
X46870000Y-79159000D02*
X50130000Y-79159000D01*
X46758000Y-79199000D02*
X50242000Y-79199000D01*
X46654000Y-79239000D02*
X50346000Y-79239000D01*
X46556000Y-79279000D02*
X50444000Y-79279000D01*
X46463000Y-79319000D02*
X50537000Y-79319000D01*
X46375000Y-79359000D02*
X50625000Y-79359000D01*
X46291000Y-79399000D02*
X50709000Y-79399000D01*
X46211000Y-79439000D02*
X50789000Y-79439000D01*
X46135000Y-79479000D02*
X50865000Y-79479000D01*
X46061000Y-79519000D02*
X50939000Y-79519000D01*
X45990000Y-79559000D02*
X51010000Y-79559000D01*
X45921000Y-79599000D02*
X51079000Y-79599000D01*
X45855000Y-79639000D02*
X51145000Y-79639000D01*
X45791000Y-79679000D02*
X51209000Y-79679000D01*
X45730000Y-79719000D02*
X51270000Y-79719000D01*
X45670000Y-79759000D02*
X51330000Y-79759000D01*
X45611000Y-79799000D02*
X51389000Y-79799000D01*
X45555000Y-79839000D02*
X51445000Y-79839000D01*
X45500000Y-79879000D02*
X51500000Y-79879000D01*
X45446000Y-79919000D02*
X51554000Y-79919000D01*
X45394000Y-79959000D02*
X51606000Y-79959000D01*
X45344000Y-79999000D02*
X51656000Y-79999000D01*
X45294000Y-80039000D02*
X51706000Y-80039000D01*
X45246000Y-80079000D02*
X51754000Y-80079000D01*
X45199000Y-80119000D02*
X51801000Y-80119000D01*
X45153000Y-80159000D02*
X51847000Y-80159000D01*
X45108000Y-80199000D02*
X51892000Y-80199000D01*
X45064000Y-80239000D02*
X51936000Y-80239000D01*
X49741000Y-80279000D02*
X51978000Y-80279000D01*
X45022000Y-80279000D02*
X47259000Y-80279000D01*
X49741000Y-80319000D02*
X52020000Y-80319000D01*
X44980000Y-80319000D02*
X47259000Y-80319000D01*
X49741000Y-80359000D02*
X52061000Y-80359000D01*
X44939000Y-80359000D02*
X47259000Y-80359000D01*
X49741000Y-80399000D02*
X52101000Y-80399000D01*
X44899000Y-80399000D02*
X47259000Y-80399000D01*
X49741000Y-80439000D02*
X52140000Y-80439000D01*
X44860000Y-80439000D02*
X47259000Y-80439000D01*
X49741000Y-80479000D02*
X52179000Y-80479000D01*
X44821000Y-80479000D02*
X47259000Y-80479000D01*
X49741000Y-80519000D02*
X52216000Y-80519000D01*
X44784000Y-80519000D02*
X47259000Y-80519000D01*
X49741000Y-80559000D02*
X52253000Y-80559000D01*
X44747000Y-80559000D02*
X47259000Y-80559000D01*
X49741000Y-80599000D02*
X52289000Y-80599000D01*
X44711000Y-80599000D02*
X47259000Y-80599000D01*
X49741000Y-80639000D02*
X52324000Y-80639000D01*
X44676000Y-80639000D02*
X47259000Y-80639000D01*
X49741000Y-80679000D02*
X52358000Y-80679000D01*
X44642000Y-80679000D02*
X47259000Y-80679000D01*
X49741000Y-80719000D02*
X52392000Y-80719000D01*
X44608000Y-80719000D02*
X47259000Y-80719000D01*
X49741000Y-80759000D02*
X52425000Y-80759000D01*
X44575000Y-80759000D02*
X47259000Y-80759000D01*
X49741000Y-80799000D02*
X52457000Y-80799000D01*
X44543000Y-80799000D02*
X47259000Y-80799000D01*
X49741000Y-80839000D02*
X52489000Y-80839000D01*
X44511000Y-80839000D02*
X47259000Y-80839000D01*
X49741000Y-80879000D02*
X52520000Y-80879000D01*
X44480000Y-80879000D02*
X47259000Y-80879000D01*
X49741000Y-80919000D02*
X52550000Y-80919000D01*
X44450000Y-80919000D02*
X47259000Y-80919000D01*
X49741000Y-80959000D02*
X52580000Y-80959000D01*
X44420000Y-80959000D02*
X47259000Y-80959000D01*
X49741000Y-80999000D02*
X52610000Y-80999000D01*
X44390000Y-80999000D02*
X47259000Y-80999000D01*
X49741000Y-81039000D02*
X52638000Y-81039000D01*
X44362000Y-81039000D02*
X47259000Y-81039000D01*
X49741000Y-81079000D02*
X52666000Y-81079000D01*
X44334000Y-81079000D02*
X47259000Y-81079000D01*
X49741000Y-81119000D02*
X52694000Y-81119000D01*
X44306000Y-81119000D02*
X47259000Y-81119000D01*
X49741000Y-81159000D02*
X52721000Y-81159000D01*
X44279000Y-81159000D02*
X47259000Y-81159000D01*
X49741000Y-81199000D02*
X52747000Y-81199000D01*
X44253000Y-81199000D02*
X47259000Y-81199000D01*
X49741000Y-81239000D02*
X52773000Y-81239000D01*
X44227000Y-81239000D02*
X47259000Y-81239000D01*
X49741000Y-81279000D02*
X52798000Y-81279000D01*
X44202000Y-81279000D02*
X47259000Y-81279000D01*
X49741000Y-81319000D02*
X52823000Y-81319000D01*
X44177000Y-81319000D02*
X47259000Y-81319000D01*
X49741000Y-81359000D02*
X52847000Y-81359000D01*
X44153000Y-81359000D02*
X47259000Y-81359000D01*
X49741000Y-81399000D02*
X52871000Y-81399000D01*
X44129000Y-81399000D02*
X47259000Y-81399000D01*
X49741000Y-81439000D02*
X52895000Y-81439000D01*
X44105000Y-81439000D02*
X47259000Y-81439000D01*
X49741000Y-81479000D02*
X52917000Y-81479000D01*
X44083000Y-81479000D02*
X47259000Y-81479000D01*
X49741000Y-81519000D02*
X52940000Y-81519000D01*
X44060000Y-81519000D02*
X47259000Y-81519000D01*
X49741000Y-81559000D02*
X52962000Y-81559000D01*
X44038000Y-81559000D02*
X47259000Y-81559000D01*
X49741000Y-81599000D02*
X52983000Y-81599000D01*
X44017000Y-81599000D02*
X47259000Y-81599000D01*
X49741000Y-81639000D02*
X53004000Y-81639000D01*
X43996000Y-81639000D02*
X47259000Y-81639000D01*
X49741000Y-81679000D02*
X53025000Y-81679000D01*
X43975000Y-81679000D02*
X47259000Y-81679000D01*
X49741000Y-81719000D02*
X53045000Y-81719000D01*
X43955000Y-81719000D02*
X47259000Y-81719000D01*
X49741000Y-81759000D02*
X53064000Y-81759000D01*
X43936000Y-81759000D02*
X47259000Y-81759000D01*
X49741000Y-81799000D02*
X53084000Y-81799000D01*
X43916000Y-81799000D02*
X47259000Y-81799000D01*
X49741000Y-81839000D02*
X53103000Y-81839000D01*
X43897000Y-81839000D02*
X47259000Y-81839000D01*
X49741000Y-81879000D02*
X53121000Y-81879000D01*
X43879000Y-81879000D02*
X47259000Y-81879000D01*
X49741000Y-81919000D02*
X53139000Y-81919000D01*
X43861000Y-81919000D02*
X47259000Y-81919000D01*
X49741000Y-81959000D02*
X53157000Y-81959000D01*
X43843000Y-81959000D02*
X47259000Y-81959000D01*
X49741000Y-81999000D02*
X53174000Y-81999000D01*
X43826000Y-81999000D02*
X47259000Y-81999000D01*
X49741000Y-82039000D02*
X53190000Y-82039000D01*
X43810000Y-82039000D02*
X47259000Y-82039000D01*
X49741000Y-82079000D02*
X53207000Y-82079000D01*
X43793000Y-82079000D02*
X47259000Y-82079000D01*
X49741000Y-82119000D02*
X53223000Y-82119000D01*
X43777000Y-82119000D02*
X47259000Y-82119000D01*
X49741000Y-82159000D02*
X53238000Y-82159000D01*
X43762000Y-82159000D02*
X47259000Y-82159000D01*
X49741000Y-82199000D02*
X53254000Y-82199000D01*
X43746000Y-82199000D02*
X47259000Y-82199000D01*
X49741000Y-82239000D02*
X53268000Y-82239000D01*
X43732000Y-82239000D02*
X47259000Y-82239000D01*
X49741000Y-82279000D02*
X53283000Y-82279000D01*
X43717000Y-82279000D02*
X47259000Y-82279000D01*
X49741000Y-82319000D02*
X53297000Y-82319000D01*
X43703000Y-82319000D02*
X47259000Y-82319000D01*
X49741000Y-82359000D02*
X53311000Y-82359000D01*
X43689000Y-82359000D02*
X47259000Y-82359000D01*
X49741000Y-82399000D02*
X53324000Y-82399000D01*
X43676000Y-82399000D02*
X47259000Y-82399000D01*
X49741000Y-82439000D02*
X53337000Y-82439000D01*
X43663000Y-82439000D02*
X47259000Y-82439000D01*
X49741000Y-82479000D02*
X53350000Y-82479000D01*
X43650000Y-82479000D02*
X47259000Y-82479000D01*
X49741000Y-82519000D02*
X53362000Y-82519000D01*
X43638000Y-82519000D02*
X47259000Y-82519000D01*
X49741000Y-82559000D02*
X53374000Y-82559000D01*
X43626000Y-82559000D02*
X47259000Y-82559000D01*
X49741000Y-82599000D02*
X53385000Y-82599000D01*
X43615000Y-82599000D02*
X47259000Y-82599000D01*
X49741000Y-82639000D02*
X53397000Y-82639000D01*
X43603000Y-82639000D02*
X47259000Y-82639000D01*
X49741000Y-82679000D02*
X53407000Y-82679000D01*
X43593000Y-82679000D02*
X47259000Y-82679000D01*
X49741000Y-82719000D02*
X53418000Y-82719000D01*
X43582000Y-82719000D02*
X47259000Y-82719000D01*
X43572000Y-82759000D02*
X53428000Y-82759000D01*
X43562000Y-82799000D02*
X53438000Y-82799000D01*
X43553000Y-82839000D02*
X53447000Y-82839000D01*
X43544000Y-82879000D02*
X53456000Y-82879000D01*
X43535000Y-82919000D02*
X53465000Y-82919000D01*
X43526000Y-82959000D02*
X53474000Y-82959000D01*
X43518000Y-82999000D02*
X53482000Y-82999000D01*
X43510000Y-83039000D02*
X53490000Y-83039000D01*
X43503000Y-83079000D02*
X53497000Y-83079000D01*
X43496000Y-83119000D02*
X53504000Y-83119000D01*
X43489000Y-83159000D02*
X53511000Y-83159000D01*
X43482000Y-83199000D02*
X53518000Y-83199000D01*
X43476000Y-83239000D02*
X53524000Y-83239000D01*
X43470000Y-83279000D02*
X53530000Y-83279000D01*
X43465000Y-83320000D02*
X53535000Y-83320000D01*
X43460000Y-83360000D02*
X53540000Y-83360000D01*
X43455000Y-83400000D02*
X53545000Y-83400000D01*
X43450000Y-83440000D02*
X53550000Y-83440000D01*
X43446000Y-83480000D02*
X53554000Y-83480000D01*
X43442000Y-83520000D02*
X53558000Y-83520000D01*
X43438000Y-83560000D02*
X53562000Y-83560000D01*
X43435000Y-83600000D02*
X53565000Y-83600000D01*
X43432000Y-83640000D02*
X53568000Y-83640000D01*
X43430000Y-83680000D02*
X53570000Y-83680000D01*
X43427000Y-83720000D02*
X53573000Y-83720000D01*
X43425000Y-83760000D02*
X53575000Y-83760000D01*
X43423000Y-83800000D02*
X53577000Y-83800000D01*
X43422000Y-83840000D02*
X53578000Y-83840000D01*
X43421000Y-83880000D02*
X53579000Y-83880000D01*
X43420000Y-83920000D02*
X53580000Y-83920000D01*
X43420000Y-83960000D02*
X53580000Y-83960000D01*
X43420000Y-84000000D02*
X53580000Y-84000000D01*
X53620000Y-84000000D02*
G75*
G03*
X53620000Y-84000000I-5120000J0D01*
G01*
%TO.C,C4*%
X51375000Y-40020354D02*
X50375000Y-40020354D01*
X50875000Y-39520354D02*
X50875000Y-40520354D01*
X48599000Y-50081000D02*
X47401000Y-50081000D01*
X48862000Y-50041000D02*
X47138000Y-50041000D01*
X49062000Y-50001000D02*
X46938000Y-50001000D01*
X49230000Y-49961000D02*
X46770000Y-49961000D01*
X49378000Y-49921000D02*
X46622000Y-49921000D01*
X49510000Y-49881000D02*
X46490000Y-49881000D01*
X49630000Y-49841000D02*
X46370000Y-49841000D01*
X49742000Y-49801000D02*
X46258000Y-49801000D01*
X49846000Y-49761000D02*
X46154000Y-49761000D01*
X49944000Y-49721000D02*
X46056000Y-49721000D01*
X50037000Y-49681000D02*
X45963000Y-49681000D01*
X50125000Y-49641000D02*
X45875000Y-49641000D01*
X50209000Y-49601000D02*
X45791000Y-49601000D01*
X50289000Y-49561000D02*
X45711000Y-49561000D01*
X50365000Y-49521000D02*
X45635000Y-49521000D01*
X50439000Y-49481000D02*
X45561000Y-49481000D01*
X50510000Y-49441000D02*
X45490000Y-49441000D01*
X50579000Y-49401000D02*
X45421000Y-49401000D01*
X50645000Y-49361000D02*
X45355000Y-49361000D01*
X50709000Y-49321000D02*
X45291000Y-49321000D01*
X50770000Y-49281000D02*
X45230000Y-49281000D01*
X50830000Y-49241000D02*
X45170000Y-49241000D01*
X50889000Y-49201000D02*
X45111000Y-49201000D01*
X50945000Y-49161000D02*
X45055000Y-49161000D01*
X51000000Y-49121000D02*
X45000000Y-49121000D01*
X51054000Y-49081000D02*
X44946000Y-49081000D01*
X51106000Y-49041000D02*
X44894000Y-49041000D01*
X51156000Y-49001000D02*
X44844000Y-49001000D01*
X51206000Y-48961000D02*
X44794000Y-48961000D01*
X51254000Y-48921000D02*
X44746000Y-48921000D01*
X51301000Y-48881000D02*
X44699000Y-48881000D01*
X51347000Y-48841000D02*
X44653000Y-48841000D01*
X51392000Y-48801000D02*
X44608000Y-48801000D01*
X51436000Y-48761000D02*
X44564000Y-48761000D01*
X46759000Y-48721000D02*
X44522000Y-48721000D01*
X51478000Y-48721000D02*
X49241000Y-48721000D01*
X46759000Y-48681000D02*
X44480000Y-48681000D01*
X51520000Y-48681000D02*
X49241000Y-48681000D01*
X46759000Y-48641000D02*
X44439000Y-48641000D01*
X51561000Y-48641000D02*
X49241000Y-48641000D01*
X46759000Y-48601000D02*
X44399000Y-48601000D01*
X51601000Y-48601000D02*
X49241000Y-48601000D01*
X46759000Y-48561000D02*
X44360000Y-48561000D01*
X51640000Y-48561000D02*
X49241000Y-48561000D01*
X46759000Y-48521000D02*
X44321000Y-48521000D01*
X51679000Y-48521000D02*
X49241000Y-48521000D01*
X46759000Y-48481000D02*
X44284000Y-48481000D01*
X51716000Y-48481000D02*
X49241000Y-48481000D01*
X46759000Y-48441000D02*
X44247000Y-48441000D01*
X51753000Y-48441000D02*
X49241000Y-48441000D01*
X46759000Y-48401000D02*
X44211000Y-48401000D01*
X51789000Y-48401000D02*
X49241000Y-48401000D01*
X46759000Y-48361000D02*
X44176000Y-48361000D01*
X51824000Y-48361000D02*
X49241000Y-48361000D01*
X46759000Y-48321000D02*
X44142000Y-48321000D01*
X51858000Y-48321000D02*
X49241000Y-48321000D01*
X46759000Y-48281000D02*
X44108000Y-48281000D01*
X51892000Y-48281000D02*
X49241000Y-48281000D01*
X46759000Y-48241000D02*
X44075000Y-48241000D01*
X51925000Y-48241000D02*
X49241000Y-48241000D01*
X46759000Y-48201000D02*
X44043000Y-48201000D01*
X51957000Y-48201000D02*
X49241000Y-48201000D01*
X46759000Y-48161000D02*
X44011000Y-48161000D01*
X51989000Y-48161000D02*
X49241000Y-48161000D01*
X46759000Y-48121000D02*
X43980000Y-48121000D01*
X52020000Y-48121000D02*
X49241000Y-48121000D01*
X46759000Y-48081000D02*
X43950000Y-48081000D01*
X52050000Y-48081000D02*
X49241000Y-48081000D01*
X46759000Y-48041000D02*
X43920000Y-48041000D01*
X52080000Y-48041000D02*
X49241000Y-48041000D01*
X46759000Y-48001000D02*
X43890000Y-48001000D01*
X52110000Y-48001000D02*
X49241000Y-48001000D01*
X46759000Y-47961000D02*
X43862000Y-47961000D01*
X52138000Y-47961000D02*
X49241000Y-47961000D01*
X46759000Y-47921000D02*
X43834000Y-47921000D01*
X52166000Y-47921000D02*
X49241000Y-47921000D01*
X46759000Y-47881000D02*
X43806000Y-47881000D01*
X52194000Y-47881000D02*
X49241000Y-47881000D01*
X46759000Y-47841000D02*
X43779000Y-47841000D01*
X52221000Y-47841000D02*
X49241000Y-47841000D01*
X46759000Y-47801000D02*
X43753000Y-47801000D01*
X52247000Y-47801000D02*
X49241000Y-47801000D01*
X46759000Y-47761000D02*
X43727000Y-47761000D01*
X52273000Y-47761000D02*
X49241000Y-47761000D01*
X46759000Y-47721000D02*
X43702000Y-47721000D01*
X52298000Y-47721000D02*
X49241000Y-47721000D01*
X46759000Y-47681000D02*
X43677000Y-47681000D01*
X52323000Y-47681000D02*
X49241000Y-47681000D01*
X46759000Y-47641000D02*
X43653000Y-47641000D01*
X52347000Y-47641000D02*
X49241000Y-47641000D01*
X46759000Y-47601000D02*
X43629000Y-47601000D01*
X52371000Y-47601000D02*
X49241000Y-47601000D01*
X46759000Y-47561000D02*
X43605000Y-47561000D01*
X52395000Y-47561000D02*
X49241000Y-47561000D01*
X46759000Y-47521000D02*
X43583000Y-47521000D01*
X52417000Y-47521000D02*
X49241000Y-47521000D01*
X46759000Y-47481000D02*
X43560000Y-47481000D01*
X52440000Y-47481000D02*
X49241000Y-47481000D01*
X46759000Y-47441000D02*
X43538000Y-47441000D01*
X52462000Y-47441000D02*
X49241000Y-47441000D01*
X46759000Y-47401000D02*
X43517000Y-47401000D01*
X52483000Y-47401000D02*
X49241000Y-47401000D01*
X46759000Y-47361000D02*
X43496000Y-47361000D01*
X52504000Y-47361000D02*
X49241000Y-47361000D01*
X46759000Y-47321000D02*
X43475000Y-47321000D01*
X52525000Y-47321000D02*
X49241000Y-47321000D01*
X46759000Y-47281000D02*
X43455000Y-47281000D01*
X52545000Y-47281000D02*
X49241000Y-47281000D01*
X46759000Y-47241000D02*
X43436000Y-47241000D01*
X52564000Y-47241000D02*
X49241000Y-47241000D01*
X46759000Y-47201000D02*
X43416000Y-47201000D01*
X52584000Y-47201000D02*
X49241000Y-47201000D01*
X46759000Y-47161000D02*
X43397000Y-47161000D01*
X52603000Y-47161000D02*
X49241000Y-47161000D01*
X46759000Y-47121000D02*
X43379000Y-47121000D01*
X52621000Y-47121000D02*
X49241000Y-47121000D01*
X46759000Y-47081000D02*
X43361000Y-47081000D01*
X52639000Y-47081000D02*
X49241000Y-47081000D01*
X46759000Y-47041000D02*
X43343000Y-47041000D01*
X52657000Y-47041000D02*
X49241000Y-47041000D01*
X46759000Y-47001000D02*
X43326000Y-47001000D01*
X52674000Y-47001000D02*
X49241000Y-47001000D01*
X46759000Y-46961000D02*
X43310000Y-46961000D01*
X52690000Y-46961000D02*
X49241000Y-46961000D01*
X46759000Y-46921000D02*
X43293000Y-46921000D01*
X52707000Y-46921000D02*
X49241000Y-46921000D01*
X46759000Y-46881000D02*
X43277000Y-46881000D01*
X52723000Y-46881000D02*
X49241000Y-46881000D01*
X46759000Y-46841000D02*
X43262000Y-46841000D01*
X52738000Y-46841000D02*
X49241000Y-46841000D01*
X46759000Y-46801000D02*
X43246000Y-46801000D01*
X52754000Y-46801000D02*
X49241000Y-46801000D01*
X46759000Y-46761000D02*
X43232000Y-46761000D01*
X52768000Y-46761000D02*
X49241000Y-46761000D01*
X46759000Y-46721000D02*
X43217000Y-46721000D01*
X52783000Y-46721000D02*
X49241000Y-46721000D01*
X46759000Y-46681000D02*
X43203000Y-46681000D01*
X52797000Y-46681000D02*
X49241000Y-46681000D01*
X46759000Y-46641000D02*
X43189000Y-46641000D01*
X52811000Y-46641000D02*
X49241000Y-46641000D01*
X46759000Y-46601000D02*
X43176000Y-46601000D01*
X52824000Y-46601000D02*
X49241000Y-46601000D01*
X46759000Y-46561000D02*
X43163000Y-46561000D01*
X52837000Y-46561000D02*
X49241000Y-46561000D01*
X46759000Y-46521000D02*
X43150000Y-46521000D01*
X52850000Y-46521000D02*
X49241000Y-46521000D01*
X46759000Y-46481000D02*
X43138000Y-46481000D01*
X52862000Y-46481000D02*
X49241000Y-46481000D01*
X46759000Y-46441000D02*
X43126000Y-46441000D01*
X52874000Y-46441000D02*
X49241000Y-46441000D01*
X46759000Y-46401000D02*
X43115000Y-46401000D01*
X52885000Y-46401000D02*
X49241000Y-46401000D01*
X46759000Y-46361000D02*
X43103000Y-46361000D01*
X52897000Y-46361000D02*
X49241000Y-46361000D01*
X46759000Y-46321000D02*
X43093000Y-46321000D01*
X52907000Y-46321000D02*
X49241000Y-46321000D01*
X46759000Y-46281000D02*
X43082000Y-46281000D01*
X52918000Y-46281000D02*
X49241000Y-46281000D01*
X52928000Y-46241000D02*
X43072000Y-46241000D01*
X52938000Y-46201000D02*
X43062000Y-46201000D01*
X52947000Y-46161000D02*
X43053000Y-46161000D01*
X52956000Y-46121000D02*
X43044000Y-46121000D01*
X52965000Y-46081000D02*
X43035000Y-46081000D01*
X52974000Y-46041000D02*
X43026000Y-46041000D01*
X52982000Y-46001000D02*
X43018000Y-46001000D01*
X52990000Y-45961000D02*
X43010000Y-45961000D01*
X52997000Y-45921000D02*
X43003000Y-45921000D01*
X53004000Y-45881000D02*
X42996000Y-45881000D01*
X53011000Y-45841000D02*
X42989000Y-45841000D01*
X53018000Y-45801000D02*
X42982000Y-45801000D01*
X53024000Y-45761000D02*
X42976000Y-45761000D01*
X53030000Y-45721000D02*
X42970000Y-45721000D01*
X53035000Y-45680000D02*
X42965000Y-45680000D01*
X53040000Y-45640000D02*
X42960000Y-45640000D01*
X53045000Y-45600000D02*
X42955000Y-45600000D01*
X53050000Y-45560000D02*
X42950000Y-45560000D01*
X53054000Y-45520000D02*
X42946000Y-45520000D01*
X53058000Y-45480000D02*
X42942000Y-45480000D01*
X53062000Y-45440000D02*
X42938000Y-45440000D01*
X53065000Y-45400000D02*
X42935000Y-45400000D01*
X53068000Y-45360000D02*
X42932000Y-45360000D01*
X53070000Y-45320000D02*
X42930000Y-45320000D01*
X53073000Y-45280000D02*
X42927000Y-45280000D01*
X53075000Y-45240000D02*
X42925000Y-45240000D01*
X53077000Y-45200000D02*
X42923000Y-45200000D01*
X53078000Y-45160000D02*
X42922000Y-45160000D01*
X53079000Y-45120000D02*
X42921000Y-45120000D01*
X53080000Y-45080000D02*
X42920000Y-45080000D01*
X53080000Y-45040000D02*
X42920000Y-45040000D01*
X53080000Y-45000000D02*
X42920000Y-45000000D01*
X53120000Y-45000000D02*
G75*
G03*
X53120000Y-45000000I-5120000J0D01*
G01*
%TO.C,C3*%
X87225000Y-65945225D02*
X86725000Y-65945225D01*
X86975000Y-65695225D02*
X86975000Y-66195225D01*
X85784000Y-71101000D02*
X85216000Y-71101000D01*
X86018000Y-71061000D02*
X84982000Y-71061000D01*
X86177000Y-71021000D02*
X84823000Y-71021000D01*
X86305000Y-70981000D02*
X84695000Y-70981000D01*
X86415000Y-70941000D02*
X84585000Y-70941000D01*
X86511000Y-70901000D02*
X84489000Y-70901000D01*
X86598000Y-70861000D02*
X84402000Y-70861000D01*
X86678000Y-70821000D02*
X84322000Y-70821000D01*
X86751000Y-70781000D02*
X84249000Y-70781000D01*
X86819000Y-70741000D02*
X84181000Y-70741000D01*
X86883000Y-70701000D02*
X84117000Y-70701000D01*
X86943000Y-70661000D02*
X84057000Y-70661000D01*
X87000000Y-70621000D02*
X84000000Y-70621000D01*
X87054000Y-70581000D02*
X83946000Y-70581000D01*
X87105000Y-70541000D02*
X83895000Y-70541000D01*
X84460000Y-70501000D02*
X83847000Y-70501000D01*
X87153000Y-70501000D02*
X86540000Y-70501000D01*
X84460000Y-70461000D02*
X83801000Y-70461000D01*
X87199000Y-70461000D02*
X86540000Y-70461000D01*
X84460000Y-70421000D02*
X83757000Y-70421000D01*
X87243000Y-70421000D02*
X86540000Y-70421000D01*
X84460000Y-70381000D02*
X83715000Y-70381000D01*
X87285000Y-70381000D02*
X86540000Y-70381000D01*
X84460000Y-70341000D02*
X83674000Y-70341000D01*
X87326000Y-70341000D02*
X86540000Y-70341000D01*
X84460000Y-70301000D02*
X83636000Y-70301000D01*
X87364000Y-70301000D02*
X86540000Y-70301000D01*
X84460000Y-70261000D02*
X83599000Y-70261000D01*
X87401000Y-70261000D02*
X86540000Y-70261000D01*
X84460000Y-70221000D02*
X83563000Y-70221000D01*
X87437000Y-70221000D02*
X86540000Y-70221000D01*
X84460000Y-70181000D02*
X83529000Y-70181000D01*
X87471000Y-70181000D02*
X86540000Y-70181000D01*
X84460000Y-70141000D02*
X83496000Y-70141000D01*
X87504000Y-70141000D02*
X86540000Y-70141000D01*
X84460000Y-70101000D02*
X83465000Y-70101000D01*
X87535000Y-70101000D02*
X86540000Y-70101000D01*
X84460000Y-70061000D02*
X83435000Y-70061000D01*
X87565000Y-70061000D02*
X86540000Y-70061000D01*
X84460000Y-70021000D02*
X83405000Y-70021000D01*
X87595000Y-70021000D02*
X86540000Y-70021000D01*
X84460000Y-69981000D02*
X83378000Y-69981000D01*
X87622000Y-69981000D02*
X86540000Y-69981000D01*
X84460000Y-69941000D02*
X83351000Y-69941000D01*
X87649000Y-69941000D02*
X86540000Y-69941000D01*
X84460000Y-69901000D02*
X83325000Y-69901000D01*
X87675000Y-69901000D02*
X86540000Y-69901000D01*
X84460000Y-69861000D02*
X83300000Y-69861000D01*
X87700000Y-69861000D02*
X86540000Y-69861000D01*
X84460000Y-69821000D02*
X83276000Y-69821000D01*
X87724000Y-69821000D02*
X86540000Y-69821000D01*
X84460000Y-69781000D02*
X83253000Y-69781000D01*
X87747000Y-69781000D02*
X86540000Y-69781000D01*
X84460000Y-69741000D02*
X83232000Y-69741000D01*
X87768000Y-69741000D02*
X86540000Y-69741000D01*
X84460000Y-69701000D02*
X83210000Y-69701000D01*
X87790000Y-69701000D02*
X86540000Y-69701000D01*
X84460000Y-69661000D02*
X83190000Y-69661000D01*
X87810000Y-69661000D02*
X86540000Y-69661000D01*
X84460000Y-69621000D02*
X83171000Y-69621000D01*
X87829000Y-69621000D02*
X86540000Y-69621000D01*
X84460000Y-69581000D02*
X83152000Y-69581000D01*
X87848000Y-69581000D02*
X86540000Y-69581000D01*
X84460000Y-69541000D02*
X83135000Y-69541000D01*
X87865000Y-69541000D02*
X86540000Y-69541000D01*
X84460000Y-69501000D02*
X83118000Y-69501000D01*
X87882000Y-69501000D02*
X86540000Y-69501000D01*
X84460000Y-69461000D02*
X83102000Y-69461000D01*
X87898000Y-69461000D02*
X86540000Y-69461000D01*
X84460000Y-69421000D02*
X83086000Y-69421000D01*
X87914000Y-69421000D02*
X86540000Y-69421000D01*
X84460000Y-69381000D02*
X83072000Y-69381000D01*
X87928000Y-69381000D02*
X86540000Y-69381000D01*
X84460000Y-69341000D02*
X83058000Y-69341000D01*
X87942000Y-69341000D02*
X86540000Y-69341000D01*
X84460000Y-69301000D02*
X83045000Y-69301000D01*
X87955000Y-69301000D02*
X86540000Y-69301000D01*
X84460000Y-69261000D02*
X83032000Y-69261000D01*
X87968000Y-69261000D02*
X86540000Y-69261000D01*
X84460000Y-69221000D02*
X83020000Y-69221000D01*
X87980000Y-69221000D02*
X86540000Y-69221000D01*
X84460000Y-69180000D02*
X83009000Y-69180000D01*
X87991000Y-69180000D02*
X86540000Y-69180000D01*
X84460000Y-69140000D02*
X82999000Y-69140000D01*
X88001000Y-69140000D02*
X86540000Y-69140000D01*
X84460000Y-69100000D02*
X82989000Y-69100000D01*
X88011000Y-69100000D02*
X86540000Y-69100000D01*
X84460000Y-69060000D02*
X82980000Y-69060000D01*
X88020000Y-69060000D02*
X86540000Y-69060000D01*
X84460000Y-69020000D02*
X82972000Y-69020000D01*
X88028000Y-69020000D02*
X86540000Y-69020000D01*
X84460000Y-68980000D02*
X82964000Y-68980000D01*
X88036000Y-68980000D02*
X86540000Y-68980000D01*
X84460000Y-68940000D02*
X82957000Y-68940000D01*
X88043000Y-68940000D02*
X86540000Y-68940000D01*
X84460000Y-68900000D02*
X82950000Y-68900000D01*
X88050000Y-68900000D02*
X86540000Y-68900000D01*
X84460000Y-68860000D02*
X82944000Y-68860000D01*
X88056000Y-68860000D02*
X86540000Y-68860000D01*
X84460000Y-68820000D02*
X82939000Y-68820000D01*
X88061000Y-68820000D02*
X86540000Y-68820000D01*
X84460000Y-68780000D02*
X82935000Y-68780000D01*
X88065000Y-68780000D02*
X86540000Y-68780000D01*
X84460000Y-68740000D02*
X82931000Y-68740000D01*
X88069000Y-68740000D02*
X86540000Y-68740000D01*
X84460000Y-68700000D02*
X82927000Y-68700000D01*
X88073000Y-68700000D02*
X86540000Y-68700000D01*
X84460000Y-68660000D02*
X82924000Y-68660000D01*
X88076000Y-68660000D02*
X86540000Y-68660000D01*
X84460000Y-68620000D02*
X82922000Y-68620000D01*
X88078000Y-68620000D02*
X86540000Y-68620000D01*
X84460000Y-68580000D02*
X82921000Y-68580000D01*
X88079000Y-68580000D02*
X86540000Y-68580000D01*
X88080000Y-68540000D02*
X86540000Y-68540000D01*
X84460000Y-68540000D02*
X82920000Y-68540000D01*
X88080000Y-68500000D02*
X86540000Y-68500000D01*
X84460000Y-68500000D02*
X82920000Y-68500000D01*
X88120000Y-68500000D02*
G75*
G03*
X88120000Y-68500000I-2620000J0D01*
G01*
%TO.C,C2*%
X84130000Y-57780000D02*
X86870000Y-57780000D01*
X84130000Y-65220000D02*
X86870000Y-65220000D01*
X86870000Y-65220000D02*
X86870000Y-57780000D01*
X84130000Y-65220000D02*
X84130000Y-57780000D01*
%TO.C,C1*%
X110020354Y-39625000D02*
X110020354Y-40625000D01*
X109520354Y-40125000D02*
X110520354Y-40125000D01*
X120081000Y-42401000D02*
X120081000Y-43599000D01*
X120041000Y-42138000D02*
X120041000Y-43862000D01*
X120001000Y-41938000D02*
X120001000Y-44062000D01*
X119961000Y-41770000D02*
X119961000Y-44230000D01*
X119921000Y-41622000D02*
X119921000Y-44378000D01*
X119881000Y-41490000D02*
X119881000Y-44510000D01*
X119841000Y-41370000D02*
X119841000Y-44630000D01*
X119801000Y-41258000D02*
X119801000Y-44742000D01*
X119761000Y-41154000D02*
X119761000Y-44846000D01*
X119721000Y-41056000D02*
X119721000Y-44944000D01*
X119681000Y-40963000D02*
X119681000Y-45037000D01*
X119641000Y-40875000D02*
X119641000Y-45125000D01*
X119601000Y-40791000D02*
X119601000Y-45209000D01*
X119561000Y-40711000D02*
X119561000Y-45289000D01*
X119521000Y-40635000D02*
X119521000Y-45365000D01*
X119481000Y-40561000D02*
X119481000Y-45439000D01*
X119441000Y-40490000D02*
X119441000Y-45510000D01*
X119401000Y-40421000D02*
X119401000Y-45579000D01*
X119361000Y-40355000D02*
X119361000Y-45645000D01*
X119321000Y-40291000D02*
X119321000Y-45709000D01*
X119281000Y-40230000D02*
X119281000Y-45770000D01*
X119241000Y-40170000D02*
X119241000Y-45830000D01*
X119201000Y-40111000D02*
X119201000Y-45889000D01*
X119161000Y-40055000D02*
X119161000Y-45945000D01*
X119121000Y-40000000D02*
X119121000Y-46000000D01*
X119081000Y-39946000D02*
X119081000Y-46054000D01*
X119041000Y-39894000D02*
X119041000Y-46106000D01*
X119001000Y-39844000D02*
X119001000Y-46156000D01*
X118961000Y-39794000D02*
X118961000Y-46206000D01*
X118921000Y-39746000D02*
X118921000Y-46254000D01*
X118881000Y-39699000D02*
X118881000Y-46301000D01*
X118841000Y-39653000D02*
X118841000Y-46347000D01*
X118801000Y-39608000D02*
X118801000Y-46392000D01*
X118761000Y-39564000D02*
X118761000Y-46436000D01*
X118721000Y-44241000D02*
X118721000Y-46478000D01*
X118721000Y-39522000D02*
X118721000Y-41759000D01*
X118681000Y-44241000D02*
X118681000Y-46520000D01*
X118681000Y-39480000D02*
X118681000Y-41759000D01*
X118641000Y-44241000D02*
X118641000Y-46561000D01*
X118641000Y-39439000D02*
X118641000Y-41759000D01*
X118601000Y-44241000D02*
X118601000Y-46601000D01*
X118601000Y-39399000D02*
X118601000Y-41759000D01*
X118561000Y-44241000D02*
X118561000Y-46640000D01*
X118561000Y-39360000D02*
X118561000Y-41759000D01*
X118521000Y-44241000D02*
X118521000Y-46679000D01*
X118521000Y-39321000D02*
X118521000Y-41759000D01*
X118481000Y-44241000D02*
X118481000Y-46716000D01*
X118481000Y-39284000D02*
X118481000Y-41759000D01*
X118441000Y-44241000D02*
X118441000Y-46753000D01*
X118441000Y-39247000D02*
X118441000Y-41759000D01*
X118401000Y-44241000D02*
X118401000Y-46789000D01*
X118401000Y-39211000D02*
X118401000Y-41759000D01*
X118361000Y-44241000D02*
X118361000Y-46824000D01*
X118361000Y-39176000D02*
X118361000Y-41759000D01*
X118321000Y-44241000D02*
X118321000Y-46858000D01*
X118321000Y-39142000D02*
X118321000Y-41759000D01*
X118281000Y-44241000D02*
X118281000Y-46892000D01*
X118281000Y-39108000D02*
X118281000Y-41759000D01*
X118241000Y-44241000D02*
X118241000Y-46925000D01*
X118241000Y-39075000D02*
X118241000Y-41759000D01*
X118201000Y-44241000D02*
X118201000Y-46957000D01*
X118201000Y-39043000D02*
X118201000Y-41759000D01*
X118161000Y-44241000D02*
X118161000Y-46989000D01*
X118161000Y-39011000D02*
X118161000Y-41759000D01*
X118121000Y-44241000D02*
X118121000Y-47020000D01*
X118121000Y-38980000D02*
X118121000Y-41759000D01*
X118081000Y-44241000D02*
X118081000Y-47050000D01*
X118081000Y-38950000D02*
X118081000Y-41759000D01*
X118041000Y-44241000D02*
X118041000Y-47080000D01*
X118041000Y-38920000D02*
X118041000Y-41759000D01*
X118001000Y-44241000D02*
X118001000Y-47110000D01*
X118001000Y-38890000D02*
X118001000Y-41759000D01*
X117961000Y-44241000D02*
X117961000Y-47138000D01*
X117961000Y-38862000D02*
X117961000Y-41759000D01*
X117921000Y-44241000D02*
X117921000Y-47166000D01*
X117921000Y-38834000D02*
X117921000Y-41759000D01*
X117881000Y-44241000D02*
X117881000Y-47194000D01*
X117881000Y-38806000D02*
X117881000Y-41759000D01*
X117841000Y-44241000D02*
X117841000Y-47221000D01*
X117841000Y-38779000D02*
X117841000Y-41759000D01*
X117801000Y-44241000D02*
X117801000Y-47247000D01*
X117801000Y-38753000D02*
X117801000Y-41759000D01*
X117761000Y-44241000D02*
X117761000Y-47273000D01*
X117761000Y-38727000D02*
X117761000Y-41759000D01*
X117721000Y-44241000D02*
X117721000Y-47298000D01*
X117721000Y-38702000D02*
X117721000Y-41759000D01*
X117681000Y-44241000D02*
X117681000Y-47323000D01*
X117681000Y-38677000D02*
X117681000Y-41759000D01*
X117641000Y-44241000D02*
X117641000Y-47347000D01*
X117641000Y-38653000D02*
X117641000Y-41759000D01*
X117601000Y-44241000D02*
X117601000Y-47371000D01*
X117601000Y-38629000D02*
X117601000Y-41759000D01*
X117561000Y-44241000D02*
X117561000Y-47395000D01*
X117561000Y-38605000D02*
X117561000Y-41759000D01*
X117521000Y-44241000D02*
X117521000Y-47417000D01*
X117521000Y-38583000D02*
X117521000Y-41759000D01*
X117481000Y-44241000D02*
X117481000Y-47440000D01*
X117481000Y-38560000D02*
X117481000Y-41759000D01*
X117441000Y-44241000D02*
X117441000Y-47462000D01*
X117441000Y-38538000D02*
X117441000Y-41759000D01*
X117401000Y-44241000D02*
X117401000Y-47483000D01*
X117401000Y-38517000D02*
X117401000Y-41759000D01*
X117361000Y-44241000D02*
X117361000Y-47504000D01*
X117361000Y-38496000D02*
X117361000Y-41759000D01*
X117321000Y-44241000D02*
X117321000Y-47525000D01*
X117321000Y-38475000D02*
X117321000Y-41759000D01*
X117281000Y-44241000D02*
X117281000Y-47545000D01*
X117281000Y-38455000D02*
X117281000Y-41759000D01*
X117241000Y-44241000D02*
X117241000Y-47564000D01*
X117241000Y-38436000D02*
X117241000Y-41759000D01*
X117201000Y-44241000D02*
X117201000Y-47584000D01*
X117201000Y-38416000D02*
X117201000Y-41759000D01*
X117161000Y-44241000D02*
X117161000Y-47603000D01*
X117161000Y-38397000D02*
X117161000Y-41759000D01*
X117121000Y-44241000D02*
X117121000Y-47621000D01*
X117121000Y-38379000D02*
X117121000Y-41759000D01*
X117081000Y-44241000D02*
X117081000Y-47639000D01*
X117081000Y-38361000D02*
X117081000Y-41759000D01*
X117041000Y-44241000D02*
X117041000Y-47657000D01*
X117041000Y-38343000D02*
X117041000Y-41759000D01*
X117001000Y-44241000D02*
X117001000Y-47674000D01*
X117001000Y-38326000D02*
X117001000Y-41759000D01*
X116961000Y-44241000D02*
X116961000Y-47690000D01*
X116961000Y-38310000D02*
X116961000Y-41759000D01*
X116921000Y-44241000D02*
X116921000Y-47707000D01*
X116921000Y-38293000D02*
X116921000Y-41759000D01*
X116881000Y-44241000D02*
X116881000Y-47723000D01*
X116881000Y-38277000D02*
X116881000Y-41759000D01*
X116841000Y-44241000D02*
X116841000Y-47738000D01*
X116841000Y-38262000D02*
X116841000Y-41759000D01*
X116801000Y-44241000D02*
X116801000Y-47754000D01*
X116801000Y-38246000D02*
X116801000Y-41759000D01*
X116761000Y-44241000D02*
X116761000Y-47768000D01*
X116761000Y-38232000D02*
X116761000Y-41759000D01*
X116721000Y-44241000D02*
X116721000Y-47783000D01*
X116721000Y-38217000D02*
X116721000Y-41759000D01*
X116681000Y-44241000D02*
X116681000Y-47797000D01*
X116681000Y-38203000D02*
X116681000Y-41759000D01*
X116641000Y-44241000D02*
X116641000Y-47811000D01*
X116641000Y-38189000D02*
X116641000Y-41759000D01*
X116601000Y-44241000D02*
X116601000Y-47824000D01*
X116601000Y-38176000D02*
X116601000Y-41759000D01*
X116561000Y-44241000D02*
X116561000Y-47837000D01*
X116561000Y-38163000D02*
X116561000Y-41759000D01*
X116521000Y-44241000D02*
X116521000Y-47850000D01*
X116521000Y-38150000D02*
X116521000Y-41759000D01*
X116481000Y-44241000D02*
X116481000Y-47862000D01*
X116481000Y-38138000D02*
X116481000Y-41759000D01*
X116441000Y-44241000D02*
X116441000Y-47874000D01*
X116441000Y-38126000D02*
X116441000Y-41759000D01*
X116401000Y-44241000D02*
X116401000Y-47885000D01*
X116401000Y-38115000D02*
X116401000Y-41759000D01*
X116361000Y-44241000D02*
X116361000Y-47897000D01*
X116361000Y-38103000D02*
X116361000Y-41759000D01*
X116321000Y-44241000D02*
X116321000Y-47907000D01*
X116321000Y-38093000D02*
X116321000Y-41759000D01*
X116281000Y-44241000D02*
X116281000Y-47918000D01*
X116281000Y-38082000D02*
X116281000Y-41759000D01*
X116241000Y-38072000D02*
X116241000Y-47928000D01*
X116201000Y-38062000D02*
X116201000Y-47938000D01*
X116161000Y-38053000D02*
X116161000Y-47947000D01*
X116121000Y-38044000D02*
X116121000Y-47956000D01*
X116081000Y-38035000D02*
X116081000Y-47965000D01*
X116041000Y-38026000D02*
X116041000Y-47974000D01*
X116001000Y-38018000D02*
X116001000Y-47982000D01*
X115961000Y-38010000D02*
X115961000Y-47990000D01*
X115921000Y-38003000D02*
X115921000Y-47997000D01*
X115881000Y-37996000D02*
X115881000Y-48004000D01*
X115841000Y-37989000D02*
X115841000Y-48011000D01*
X115801000Y-37982000D02*
X115801000Y-48018000D01*
X115761000Y-37976000D02*
X115761000Y-48024000D01*
X115721000Y-37970000D02*
X115721000Y-48030000D01*
X115680000Y-37965000D02*
X115680000Y-48035000D01*
X115640000Y-37960000D02*
X115640000Y-48040000D01*
X115600000Y-37955000D02*
X115600000Y-48045000D01*
X115560000Y-37950000D02*
X115560000Y-48050000D01*
X115520000Y-37946000D02*
X115520000Y-48054000D01*
X115480000Y-37942000D02*
X115480000Y-48058000D01*
X115440000Y-37938000D02*
X115440000Y-48062000D01*
X115400000Y-37935000D02*
X115400000Y-48065000D01*
X115360000Y-37932000D02*
X115360000Y-48068000D01*
X115320000Y-37930000D02*
X115320000Y-48070000D01*
X115280000Y-37927000D02*
X115280000Y-48073000D01*
X115240000Y-37925000D02*
X115240000Y-48075000D01*
X115200000Y-37923000D02*
X115200000Y-48077000D01*
X115160000Y-37922000D02*
X115160000Y-48078000D01*
X115120000Y-37921000D02*
X115120000Y-48079000D01*
X115080000Y-37920000D02*
X115080000Y-48080000D01*
X115040000Y-37920000D02*
X115040000Y-48080000D01*
X115000000Y-37920000D02*
X115000000Y-48080000D01*
X120120000Y-43000000D02*
G75*
G03*
X120120000Y-43000000I-5120000J0D01*
G01*
%TO.C,F1*%
D16*
X68814666Y-64482285D02*
X68391333Y-64482285D01*
X68391333Y-65147523D02*
X68391333Y-63877523D01*
X68996095Y-63877523D01*
X70145142Y-65147523D02*
X69419428Y-65147523D01*
X69782285Y-65147523D02*
X69782285Y-63877523D01*
X69661333Y-64058952D01*
X69540380Y-64179904D01*
X69419428Y-64240380D01*
%TO.C,J2*%
X39952666Y-67745523D02*
X39952666Y-68652666D01*
X39892190Y-68834095D01*
X39771238Y-68955047D01*
X39589809Y-69015523D01*
X39468857Y-69015523D01*
X40496952Y-67866476D02*
X40557428Y-67806000D01*
X40678380Y-67745523D01*
X40980761Y-67745523D01*
X41101714Y-67806000D01*
X41162190Y-67866476D01*
X41222666Y-67987428D01*
X41222666Y-68108380D01*
X41162190Y-68289809D01*
X40436476Y-69015523D01*
X41222666Y-69015523D01*
X35023857Y-67745523D02*
X35326238Y-69015523D01*
X35568142Y-68108380D01*
X35810047Y-69015523D01*
X36112428Y-67745523D01*
X37140523Y-68168857D02*
X37140523Y-69015523D01*
X36596238Y-68168857D02*
X36596238Y-68834095D01*
X36656714Y-68955047D01*
X36777666Y-69015523D01*
X36959095Y-69015523D01*
X37080047Y-68955047D01*
X37140523Y-68894571D01*
X37745285Y-69015523D02*
X37745285Y-68168857D01*
X37745285Y-68410761D02*
X37805761Y-68289809D01*
X37866238Y-68229333D01*
X37987190Y-68168857D01*
X38108142Y-68168857D01*
X38350047Y-68168857D02*
X38833857Y-68168857D01*
X38531476Y-67745523D02*
X38531476Y-68834095D01*
X38591952Y-68955047D01*
X38712904Y-69015523D01*
X38833857Y-69015523D01*
X39257190Y-69015523D02*
X39257190Y-67745523D01*
X39801476Y-69015523D02*
X39801476Y-68350285D01*
X39741000Y-68229333D01*
X39620047Y-68168857D01*
X39438619Y-68168857D01*
X39317666Y-68229333D01*
X39257190Y-68289809D01*
X40406238Y-68531714D02*
X41373857Y-68531714D01*
X42341476Y-67745523D02*
X42341476Y-68652666D01*
X42281000Y-68834095D01*
X42160047Y-68955047D01*
X41978619Y-69015523D01*
X41857666Y-69015523D01*
X43490523Y-69015523D02*
X43490523Y-68350285D01*
X43430047Y-68229333D01*
X43309095Y-68168857D01*
X43067190Y-68168857D01*
X42946238Y-68229333D01*
X43490523Y-68955047D02*
X43369571Y-69015523D01*
X43067190Y-69015523D01*
X42946238Y-68955047D01*
X42885761Y-68834095D01*
X42885761Y-68713142D01*
X42946238Y-68592190D01*
X43067190Y-68531714D01*
X43369571Y-68531714D01*
X43490523Y-68471238D01*
X44639571Y-68955047D02*
X44518619Y-69015523D01*
X44276714Y-69015523D01*
X44155761Y-68955047D01*
X44095285Y-68894571D01*
X44034809Y-68773619D01*
X44034809Y-68410761D01*
X44095285Y-68289809D01*
X44155761Y-68229333D01*
X44276714Y-68168857D01*
X44518619Y-68168857D01*
X44639571Y-68229333D01*
X45183857Y-69015523D02*
X45183857Y-67745523D01*
X45304809Y-68531714D02*
X45667666Y-69015523D01*
X45667666Y-68168857D02*
X45183857Y-68652666D01*
%TO.C,XA1*%
D17*
X108508904Y-78244380D02*
X109175571Y-79244380D01*
X109175571Y-78244380D02*
X108508904Y-79244380D01*
X109508904Y-78958666D02*
X109985095Y-78958666D01*
X109413666Y-79244380D02*
X109747000Y-78244380D01*
X110080333Y-79244380D01*
X110937476Y-79244380D02*
X110366047Y-79244380D01*
X110651761Y-79244380D02*
X110651761Y-78244380D01*
X110556523Y-78387238D01*
X110461285Y-78482476D01*
X110366047Y-78530095D01*
X106635904Y-74815380D02*
X107207333Y-74815380D01*
X106921619Y-75815380D02*
X106921619Y-74815380D01*
X107540666Y-75815380D02*
X107540666Y-74815380D01*
X108016857Y-75815380D02*
X108016857Y-74815380D01*
X108588285Y-75815380D01*
X108588285Y-74815380D01*
X109254952Y-75339190D02*
X109254952Y-75815380D01*
X108921619Y-74815380D02*
X109254952Y-75339190D01*
X109588285Y-74815380D01*
X109921619Y-75815380D02*
X109921619Y-74815380D01*
X110302571Y-74815380D01*
X110397809Y-74863000D01*
X110445428Y-74910619D01*
X110493047Y-75005857D01*
X110493047Y-75148714D01*
X110445428Y-75243952D01*
X110397809Y-75291571D01*
X110302571Y-75339190D01*
X109921619Y-75339190D01*
X110921619Y-75815380D02*
X110921619Y-74815380D01*
X111969238Y-75720142D02*
X111921619Y-75767761D01*
X111778761Y-75815380D01*
X111683523Y-75815380D01*
X111540666Y-75767761D01*
X111445428Y-75672523D01*
X111397809Y-75577285D01*
X111350190Y-75386809D01*
X111350190Y-75243952D01*
X111397809Y-75053476D01*
X111445428Y-74958238D01*
X111540666Y-74863000D01*
X111683523Y-74815380D01*
X111778761Y-74815380D01*
X111921619Y-74863000D01*
X111969238Y-74910619D01*
X112588285Y-74815380D02*
X112778761Y-74815380D01*
X112874000Y-74863000D01*
X112969238Y-74958238D01*
X113016857Y-75148714D01*
X113016857Y-75482047D01*
X112969238Y-75672523D01*
X112874000Y-75767761D01*
X112778761Y-75815380D01*
X112588285Y-75815380D01*
X112493047Y-75767761D01*
X112397809Y-75672523D01*
X112350190Y-75482047D01*
X112350190Y-75148714D01*
X112397809Y-74958238D01*
X112493047Y-74863000D01*
X112588285Y-74815380D01*
%TO.C,U1*%
X113238095Y-60952380D02*
X113238095Y-61761904D01*
X113285714Y-61857142D01*
X113333333Y-61904761D01*
X113428571Y-61952380D01*
X113619047Y-61952380D01*
X113714285Y-61904761D01*
X113761904Y-61857142D01*
X113809523Y-61761904D01*
X113809523Y-60952380D01*
X114809523Y-61952380D02*
X114238095Y-61952380D01*
X114523809Y-61952380D02*
X114523809Y-60952380D01*
X114428571Y-61095238D01*
X114333333Y-61190476D01*
X114238095Y-61238095D01*
X103452380Y-59309523D02*
X102976190Y-59642857D01*
X103452380Y-59880952D02*
X102452380Y-59880952D01*
X102452380Y-59500000D01*
X102500000Y-59404761D01*
X102547619Y-59357142D01*
X102642857Y-59309523D01*
X102785714Y-59309523D01*
X102880952Y-59357142D01*
X102928571Y-59404761D01*
X102976190Y-59500000D01*
X102976190Y-59880952D01*
X103404761Y-58500000D02*
X103452380Y-58595238D01*
X103452380Y-58785714D01*
X103404761Y-58880952D01*
X103309523Y-58928571D01*
X102928571Y-58928571D01*
X102833333Y-58880952D01*
X102785714Y-58785714D01*
X102785714Y-58595238D01*
X102833333Y-58500000D01*
X102928571Y-58452380D01*
X103023809Y-58452380D01*
X103119047Y-58928571D01*
X102785714Y-57595238D02*
X103595238Y-57595238D01*
X103690476Y-57642857D01*
X103738095Y-57690476D01*
X103785714Y-57785714D01*
X103785714Y-57928571D01*
X103738095Y-58023809D01*
X103404761Y-57595238D02*
X103452380Y-57690476D01*
X103452380Y-57880952D01*
X103404761Y-57976190D01*
X103357142Y-58023809D01*
X103261904Y-58071428D01*
X102976190Y-58071428D01*
X102880952Y-58023809D01*
X102833333Y-57976190D01*
X102785714Y-57880952D01*
X102785714Y-57690476D01*
X102833333Y-57595238D01*
X103071428Y-57119047D02*
X103071428Y-56357142D01*
X102452380Y-55976190D02*
X102452380Y-55357142D01*
X102833333Y-55690476D01*
X102833333Y-55547619D01*
X102880952Y-55452380D01*
X102928571Y-55404761D01*
X103023809Y-55357142D01*
X103261904Y-55357142D01*
X103357142Y-55404761D01*
X103404761Y-55452380D01*
X103452380Y-55547619D01*
X103452380Y-55833333D01*
X103404761Y-55928571D01*
X103357142Y-55976190D01*
X103357142Y-54928571D02*
X103404761Y-54880952D01*
X103452380Y-54928571D01*
X103404761Y-54976190D01*
X103357142Y-54928571D01*
X103452380Y-54928571D01*
X102452380Y-54547619D02*
X102452380Y-53928571D01*
X102833333Y-54261904D01*
X102833333Y-54119047D01*
X102880952Y-54023809D01*
X102928571Y-53976190D01*
X103023809Y-53928571D01*
X103261904Y-53928571D01*
X103357142Y-53976190D01*
X103404761Y-54023809D01*
X103452380Y-54119047D01*
X103452380Y-54404761D01*
X103404761Y-54500000D01*
X103357142Y-54547619D01*
X102452380Y-53642857D02*
X103452380Y-53309523D01*
X102452380Y-52976190D01*
%TO.C,J7*%
D15*
X72300000Y-93000000D02*
X72233333Y-93066666D01*
X72033333Y-93133333D01*
X71900000Y-93133333D01*
X71700000Y-93066666D01*
X71566666Y-92933333D01*
X71500000Y-92800000D01*
X71433333Y-92533333D01*
X71433333Y-92333333D01*
X71500000Y-92066666D01*
X71566666Y-91933333D01*
X71700000Y-91800000D01*
X71900000Y-91733333D01*
X72033333Y-91733333D01*
X72233333Y-91800000D01*
X72300000Y-91866666D01*
X73100000Y-93133333D02*
X72966666Y-93066666D01*
X72900000Y-93000000D01*
X72833333Y-92866666D01*
X72833333Y-92466666D01*
X72900000Y-92333333D01*
X72966666Y-92266666D01*
X73100000Y-92200000D01*
X73300000Y-92200000D01*
X73433333Y-92266666D01*
X73500000Y-92333333D01*
X73566666Y-92466666D01*
X73566666Y-92866666D01*
X73500000Y-93000000D01*
X73433333Y-93066666D01*
X73300000Y-93133333D01*
X73100000Y-93133333D01*
X74366666Y-93133333D02*
X74233333Y-93066666D01*
X74166666Y-93000000D01*
X74100000Y-92866666D01*
X74100000Y-92466666D01*
X74166666Y-92333333D01*
X74233333Y-92266666D01*
X74366666Y-92200000D01*
X74566666Y-92200000D01*
X74700000Y-92266666D01*
X74766666Y-92333333D01*
X74833333Y-92466666D01*
X74833333Y-92866666D01*
X74766666Y-93000000D01*
X74700000Y-93066666D01*
X74566666Y-93133333D01*
X74366666Y-93133333D01*
X75633333Y-93133333D02*
X75500000Y-93066666D01*
X75433333Y-92933333D01*
X75433333Y-91733333D01*
%TO.C,J6*%
X71400000Y-34733333D02*
X71733333Y-36133333D01*
X72000000Y-35133333D01*
X72266666Y-36133333D01*
X72600000Y-34733333D01*
X73733333Y-36133333D02*
X73733333Y-35400000D01*
X73666666Y-35266666D01*
X73533333Y-35200000D01*
X73266666Y-35200000D01*
X73133333Y-35266666D01*
X73733333Y-36066666D02*
X73600000Y-36133333D01*
X73266666Y-36133333D01*
X73133333Y-36066666D01*
X73066666Y-35933333D01*
X73066666Y-35800000D01*
X73133333Y-35666666D01*
X73266666Y-35600000D01*
X73600000Y-35600000D01*
X73733333Y-35533333D01*
X74400000Y-36133333D02*
X74400000Y-35200000D01*
X74400000Y-35466666D02*
X74466666Y-35333333D01*
X74533333Y-35266666D01*
X74666666Y-35200000D01*
X74800000Y-35200000D01*
X75266666Y-36133333D02*
X75266666Y-35200000D01*
X75266666Y-35333333D02*
X75333333Y-35266666D01*
X75466666Y-35200000D01*
X75666666Y-35200000D01*
X75800000Y-35266666D01*
X75866666Y-35400000D01*
X75866666Y-36133333D01*
X75866666Y-35400000D02*
X75933333Y-35266666D01*
X76066666Y-35200000D01*
X76266666Y-35200000D01*
X76400000Y-35266666D01*
X76466666Y-35400000D01*
X76466666Y-36133333D01*
%TO.C,J4*%
D16*
X93151666Y-57074523D02*
X93151666Y-57981666D01*
X93091190Y-58163095D01*
X92970238Y-58284047D01*
X92788809Y-58344523D01*
X92667857Y-58344523D01*
X94300714Y-57497857D02*
X94300714Y-58344523D01*
X93998333Y-57014047D02*
X93695952Y-57921190D01*
X94482142Y-57921190D01*
X89553333Y-54074523D02*
X89553333Y-52804523D01*
X90037142Y-52804523D01*
X90158095Y-52865000D01*
X90218571Y-52925476D01*
X90279047Y-53046428D01*
X90279047Y-53227857D01*
X90218571Y-53348809D01*
X90158095Y-53409285D01*
X90037142Y-53469761D01*
X89553333Y-53469761D01*
X90702380Y-52804523D02*
X91004761Y-54074523D01*
X91246666Y-53167380D01*
X91488571Y-54074523D01*
X91790952Y-52804523D01*
X92274761Y-54074523D02*
X92274761Y-52804523D01*
X92698095Y-53711666D01*
X93121428Y-52804523D01*
X93121428Y-54074523D01*
X93726190Y-53590714D02*
X94693809Y-53590714D01*
X95298571Y-53409285D02*
X95721904Y-53409285D01*
X95903333Y-54074523D02*
X95298571Y-54074523D01*
X95298571Y-52804523D01*
X95903333Y-52804523D01*
X96326666Y-54074523D02*
X96991904Y-53227857D01*
X96326666Y-53227857D02*
X96991904Y-54074523D01*
X97294285Y-53227857D02*
X97778095Y-53227857D01*
X97475714Y-52804523D02*
X97475714Y-53893095D01*
X97536190Y-54014047D01*
X97657142Y-54074523D01*
X97778095Y-54074523D01*
%TO.C,J3*%
X121034523Y-54998333D02*
X121941666Y-54998333D01*
X122123095Y-55058809D01*
X122244047Y-55179761D01*
X122304523Y-55361190D01*
X122304523Y-55482142D01*
X121034523Y-54514523D02*
X121034523Y-53728333D01*
X121518333Y-54151666D01*
X121518333Y-53970238D01*
X121578809Y-53849285D01*
X121639285Y-53788809D01*
X121760238Y-53728333D01*
X122062619Y-53728333D01*
X122183571Y-53788809D01*
X122244047Y-53849285D01*
X122304523Y-53970238D01*
X122304523Y-54333095D01*
X122244047Y-54454047D01*
X122183571Y-54514523D01*
X121804523Y-73715000D02*
X122711666Y-73715000D01*
X122893095Y-73775476D01*
X123014047Y-73896428D01*
X123074523Y-74077857D01*
X123074523Y-74198809D01*
X122227857Y-72565952D02*
X123074523Y-72565952D01*
X122227857Y-73110238D02*
X122893095Y-73110238D01*
X123014047Y-73049761D01*
X123074523Y-72928809D01*
X123074523Y-72747380D01*
X123014047Y-72626428D01*
X122953571Y-72565952D01*
X123074523Y-71961190D02*
X122227857Y-71961190D01*
X122348809Y-71961190D02*
X122288333Y-71900714D01*
X122227857Y-71779761D01*
X122227857Y-71598333D01*
X122288333Y-71477380D01*
X122409285Y-71416904D01*
X123074523Y-71416904D01*
X122409285Y-71416904D02*
X122288333Y-71356428D01*
X122227857Y-71235476D01*
X122227857Y-71054047D01*
X122288333Y-70933095D01*
X122409285Y-70872619D01*
X123074523Y-70872619D01*
X122227857Y-70267857D02*
X123497857Y-70267857D01*
X122288333Y-70267857D02*
X122227857Y-70146904D01*
X122227857Y-69905000D01*
X122288333Y-69784047D01*
X122348809Y-69723571D01*
X122469761Y-69663095D01*
X122832619Y-69663095D01*
X122953571Y-69723571D01*
X123014047Y-69784047D01*
X123074523Y-69905000D01*
X123074523Y-70146904D01*
X123014047Y-70267857D01*
X123014047Y-68635000D02*
X123074523Y-68755952D01*
X123074523Y-68997857D01*
X123014047Y-69118809D01*
X122893095Y-69179285D01*
X122409285Y-69179285D01*
X122288333Y-69118809D01*
X122227857Y-68997857D01*
X122227857Y-68755952D01*
X122288333Y-68635000D01*
X122409285Y-68574523D01*
X122530238Y-68574523D01*
X122651190Y-69179285D01*
X123074523Y-68030238D02*
X122227857Y-68030238D01*
X122469761Y-68030238D02*
X122348809Y-67969761D01*
X122288333Y-67909285D01*
X122227857Y-67788333D01*
X122227857Y-67667380D01*
X122590714Y-67244047D02*
X122590714Y-66276428D01*
X123074523Y-65671666D02*
X121804523Y-65671666D01*
X122711666Y-65248333D01*
X121804523Y-64825000D01*
X123074523Y-64825000D01*
X123074523Y-63675952D02*
X122409285Y-63675952D01*
X122288333Y-63736428D01*
X122227857Y-63857380D01*
X122227857Y-64099285D01*
X122288333Y-64220238D01*
X123014047Y-63675952D02*
X123074523Y-63796904D01*
X123074523Y-64099285D01*
X123014047Y-64220238D01*
X122893095Y-64280714D01*
X122772142Y-64280714D01*
X122651190Y-64220238D01*
X122590714Y-64099285D01*
X122590714Y-63796904D01*
X122530238Y-63675952D01*
X123074523Y-63071190D02*
X122227857Y-63071190D01*
X121804523Y-63071190D02*
X121865000Y-63131666D01*
X121925476Y-63071190D01*
X121865000Y-63010714D01*
X121804523Y-63071190D01*
X121925476Y-63071190D01*
X122227857Y-62466428D02*
X123074523Y-62466428D01*
X122348809Y-62466428D02*
X122288333Y-62405952D01*
X122227857Y-62285000D01*
X122227857Y-62103571D01*
X122288333Y-61982619D01*
X122409285Y-61922142D01*
X123074523Y-61922142D01*
%TO.C,U2*%
D17*
X97738095Y-75452380D02*
X97738095Y-76261904D01*
X97785714Y-76357142D01*
X97833333Y-76404761D01*
X97928571Y-76452380D01*
X98119047Y-76452380D01*
X98214285Y-76404761D01*
X98261904Y-76357142D01*
X98309523Y-76261904D01*
X98309523Y-75452380D01*
X98738095Y-75547619D02*
X98785714Y-75500000D01*
X98880952Y-75452380D01*
X99119047Y-75452380D01*
X99214285Y-75500000D01*
X99261904Y-75547619D01*
X99309523Y-75642857D01*
X99309523Y-75738095D01*
X99261904Y-75880952D01*
X98690476Y-76452380D01*
X99309523Y-76452380D01*
X92928571Y-63170000D02*
X92833333Y-63122380D01*
X92690476Y-63122380D01*
X92547619Y-63170000D01*
X92452380Y-63265238D01*
X92404761Y-63360476D01*
X92357142Y-63550952D01*
X92357142Y-63693809D01*
X92404761Y-63884285D01*
X92452380Y-63979523D01*
X92547619Y-64074761D01*
X92690476Y-64122380D01*
X92785714Y-64122380D01*
X92928571Y-64074761D01*
X92976190Y-64027142D01*
X92976190Y-63693809D01*
X92785714Y-63693809D01*
X93833333Y-64122380D02*
X93833333Y-63598571D01*
X93785714Y-63503333D01*
X93690476Y-63455714D01*
X93500000Y-63455714D01*
X93404761Y-63503333D01*
X93833333Y-64074761D02*
X93738095Y-64122380D01*
X93500000Y-64122380D01*
X93404761Y-64074761D01*
X93357142Y-63979523D01*
X93357142Y-63884285D01*
X93404761Y-63789047D01*
X93500000Y-63741428D01*
X93738095Y-63741428D01*
X93833333Y-63693809D01*
X94166666Y-63455714D02*
X94547619Y-63455714D01*
X94309523Y-63122380D02*
X94309523Y-63979523D01*
X94357142Y-64074761D01*
X94452380Y-64122380D01*
X94547619Y-64122380D01*
X95261904Y-64074761D02*
X95166666Y-64122380D01*
X94976190Y-64122380D01*
X94880952Y-64074761D01*
X94833333Y-63979523D01*
X94833333Y-63598571D01*
X94880952Y-63503333D01*
X94976190Y-63455714D01*
X95166666Y-63455714D01*
X95261904Y-63503333D01*
X95309523Y-63598571D01*
X95309523Y-63693809D01*
X94833333Y-63789047D01*
X95738095Y-64122380D02*
X95738095Y-63122380D01*
X95976190Y-63122380D01*
X96119047Y-63170000D01*
X96214285Y-63265238D01*
X96261904Y-63360476D01*
X96309523Y-63550952D01*
X96309523Y-63693809D01*
X96261904Y-63884285D01*
X96214285Y-63979523D01*
X96119047Y-64074761D01*
X95976190Y-64122380D01*
X95738095Y-64122380D01*
X96738095Y-64122380D02*
X96738095Y-63455714D01*
X96738095Y-63646190D02*
X96785714Y-63550952D01*
X96833333Y-63503333D01*
X96928571Y-63455714D01*
X97023809Y-63455714D01*
X97357142Y-64122380D02*
X97357142Y-63455714D01*
X97357142Y-63122380D02*
X97309523Y-63170000D01*
X97357142Y-63217619D01*
X97404761Y-63170000D01*
X97357142Y-63122380D01*
X97357142Y-63217619D01*
X97738095Y-63455714D02*
X97976190Y-64122380D01*
X98214285Y-63455714D01*
X98976190Y-64074761D02*
X98880952Y-64122380D01*
X98690476Y-64122380D01*
X98595238Y-64074761D01*
X98547619Y-63979523D01*
X98547619Y-63598571D01*
X98595238Y-63503333D01*
X98690476Y-63455714D01*
X98880952Y-63455714D01*
X98976190Y-63503333D01*
X99023809Y-63598571D01*
X99023809Y-63693809D01*
X98547619Y-63789047D01*
X99452380Y-64122380D02*
X99452380Y-63455714D01*
X99452380Y-63646190D02*
X99500000Y-63550952D01*
X99547619Y-63503333D01*
X99642857Y-63455714D01*
X99738095Y-63455714D01*
%TO.C,R-Bleeder1*%
X37904761Y-51452380D02*
X37571428Y-50976190D01*
X37333333Y-51452380D02*
X37333333Y-50452380D01*
X37714285Y-50452380D01*
X37809523Y-50500000D01*
X37857142Y-50547619D01*
X37904761Y-50642857D01*
X37904761Y-50785714D01*
X37857142Y-50880952D01*
X37809523Y-50928571D01*
X37714285Y-50976190D01*
X37333333Y-50976190D01*
X38333333Y-51071428D02*
X39095238Y-51071428D01*
X39904761Y-50928571D02*
X40047619Y-50976190D01*
X40095238Y-51023809D01*
X40142857Y-51119047D01*
X40142857Y-51261904D01*
X40095238Y-51357142D01*
X40047619Y-51404761D01*
X39952380Y-51452380D01*
X39571428Y-51452380D01*
X39571428Y-50452380D01*
X39904761Y-50452380D01*
X40000000Y-50500000D01*
X40047619Y-50547619D01*
X40095238Y-50642857D01*
X40095238Y-50738095D01*
X40047619Y-50833333D01*
X40000000Y-50880952D01*
X39904761Y-50928571D01*
X39571428Y-50928571D01*
X40714285Y-51452380D02*
X40619047Y-51404761D01*
X40571428Y-51309523D01*
X40571428Y-50452380D01*
X41476190Y-51404761D02*
X41380952Y-51452380D01*
X41190476Y-51452380D01*
X41095238Y-51404761D01*
X41047619Y-51309523D01*
X41047619Y-50928571D01*
X41095238Y-50833333D01*
X41190476Y-50785714D01*
X41380952Y-50785714D01*
X41476190Y-50833333D01*
X41523809Y-50928571D01*
X41523809Y-51023809D01*
X41047619Y-51119047D01*
X42333333Y-51404761D02*
X42238095Y-51452380D01*
X42047619Y-51452380D01*
X41952380Y-51404761D01*
X41904761Y-51309523D01*
X41904761Y-50928571D01*
X41952380Y-50833333D01*
X42047619Y-50785714D01*
X42238095Y-50785714D01*
X42333333Y-50833333D01*
X42380952Y-50928571D01*
X42380952Y-51023809D01*
X41904761Y-51119047D01*
X43238095Y-51452380D02*
X43238095Y-50452380D01*
X43238095Y-51404761D02*
X43142857Y-51452380D01*
X42952380Y-51452380D01*
X42857142Y-51404761D01*
X42809523Y-51357142D01*
X42761904Y-51261904D01*
X42761904Y-50976190D01*
X42809523Y-50880952D01*
X42857142Y-50833333D01*
X42952380Y-50785714D01*
X43142857Y-50785714D01*
X43238095Y-50833333D01*
X44095238Y-51404761D02*
X44000000Y-51452380D01*
X43809523Y-51452380D01*
X43714285Y-51404761D01*
X43666666Y-51309523D01*
X43666666Y-50928571D01*
X43714285Y-50833333D01*
X43809523Y-50785714D01*
X44000000Y-50785714D01*
X44095238Y-50833333D01*
X44142857Y-50928571D01*
X44142857Y-51023809D01*
X43666666Y-51119047D01*
X44571428Y-51452380D02*
X44571428Y-50785714D01*
X44571428Y-50976190D02*
X44619047Y-50880952D01*
X44666666Y-50833333D01*
X44761904Y-50785714D01*
X44857142Y-50785714D01*
X45714285Y-51452380D02*
X45142857Y-51452380D01*
X45428571Y-51452380D02*
X45428571Y-50452380D01*
X45333333Y-50595238D01*
X45238095Y-50690476D01*
X45142857Y-50738095D01*
X39880952Y-46992380D02*
X39309523Y-46992380D01*
X39595238Y-46992380D02*
X39595238Y-45992380D01*
X39500000Y-46135238D01*
X39404761Y-46230476D01*
X39309523Y-46278095D01*
X40309523Y-46992380D02*
X40309523Y-45992380D01*
X40404761Y-46611428D02*
X40690476Y-46992380D01*
X40690476Y-46325714D02*
X40309523Y-46706666D01*
%TO.C,R3*%
X71333333Y-71452380D02*
X71000000Y-70976190D01*
X70761904Y-71452380D02*
X70761904Y-70452380D01*
X71142857Y-70452380D01*
X71238095Y-70500000D01*
X71285714Y-70547619D01*
X71333333Y-70642857D01*
X71333333Y-70785714D01*
X71285714Y-70880952D01*
X71238095Y-70928571D01*
X71142857Y-70976190D01*
X70761904Y-70976190D01*
X71666666Y-70452380D02*
X72285714Y-70452380D01*
X71952380Y-70833333D01*
X72095238Y-70833333D01*
X72190476Y-70880952D01*
X72238095Y-70928571D01*
X72285714Y-71023809D01*
X72285714Y-71261904D01*
X72238095Y-71357142D01*
X72190476Y-71404761D01*
X72095238Y-71452380D01*
X71809523Y-71452380D01*
X71714285Y-71404761D01*
X71666666Y-71357142D01*
X66500000Y-70677619D02*
X66547619Y-70630000D01*
X66642857Y-70582380D01*
X66880952Y-70582380D01*
X66976190Y-70630000D01*
X67023809Y-70677619D01*
X67071428Y-70772857D01*
X67071428Y-70868095D01*
X67023809Y-71010952D01*
X66452380Y-71582380D01*
X67071428Y-71582380D01*
X67500000Y-71487142D02*
X67547619Y-71534761D01*
X67500000Y-71582380D01*
X67452380Y-71534761D01*
X67500000Y-71487142D01*
X67500000Y-71582380D01*
X67928571Y-70677619D02*
X67976190Y-70630000D01*
X68071428Y-70582380D01*
X68309523Y-70582380D01*
X68404761Y-70630000D01*
X68452380Y-70677619D01*
X68500000Y-70772857D01*
X68500000Y-70868095D01*
X68452380Y-71010952D01*
X67880952Y-71582380D01*
X68500000Y-71582380D01*
%TO.C,R2*%
X70833333Y-55452380D02*
X70500000Y-54976190D01*
X70261904Y-55452380D02*
X70261904Y-54452380D01*
X70642857Y-54452380D01*
X70738095Y-54500000D01*
X70785714Y-54547619D01*
X70833333Y-54642857D01*
X70833333Y-54785714D01*
X70785714Y-54880952D01*
X70738095Y-54928571D01*
X70642857Y-54976190D01*
X70261904Y-54976190D01*
X71214285Y-54547619D02*
X71261904Y-54500000D01*
X71357142Y-54452380D01*
X71595238Y-54452380D01*
X71690476Y-54500000D01*
X71738095Y-54547619D01*
X71785714Y-54642857D01*
X71785714Y-54738095D01*
X71738095Y-54880952D01*
X71166666Y-55452380D01*
X71785714Y-55452380D01*
X66500000Y-57047619D02*
X66547619Y-57000000D01*
X66642857Y-56952380D01*
X66880952Y-56952380D01*
X66976190Y-57000000D01*
X67023809Y-57047619D01*
X67071428Y-57142857D01*
X67071428Y-57238095D01*
X67023809Y-57380952D01*
X66452380Y-57952380D01*
X67071428Y-57952380D01*
X67500000Y-57857142D02*
X67547619Y-57904761D01*
X67500000Y-57952380D01*
X67452380Y-57904761D01*
X67500000Y-57857142D01*
X67500000Y-57952380D01*
X67928571Y-57047619D02*
X67976190Y-57000000D01*
X68071428Y-56952380D01*
X68309523Y-56952380D01*
X68404761Y-57000000D01*
X68452380Y-57047619D01*
X68500000Y-57142857D01*
X68500000Y-57238095D01*
X68452380Y-57380952D01*
X67880952Y-57952380D01*
X68500000Y-57952380D01*
%TO.C,R1*%
X106833333Y-49952380D02*
X106500000Y-49476190D01*
X106261904Y-49952380D02*
X106261904Y-48952380D01*
X106642857Y-48952380D01*
X106738095Y-49000000D01*
X106785714Y-49047619D01*
X106833333Y-49142857D01*
X106833333Y-49285714D01*
X106785714Y-49380952D01*
X106738095Y-49428571D01*
X106642857Y-49476190D01*
X106261904Y-49476190D01*
X107785714Y-49952380D02*
X107214285Y-49952380D01*
X107500000Y-49952380D02*
X107500000Y-48952380D01*
X107404761Y-49095238D01*
X107309523Y-49190476D01*
X107214285Y-49238095D01*
X109800952Y-49952380D02*
X109229523Y-49952380D01*
X109515238Y-49952380D02*
X109515238Y-48952380D01*
X109420000Y-49095238D01*
X109324761Y-49190476D01*
X109229523Y-49238095D01*
X110229523Y-49952380D02*
X110229523Y-48952380D01*
X110324761Y-49571428D02*
X110610476Y-49952380D01*
X110610476Y-49285714D02*
X110229523Y-49666666D01*
%TO.C,Q3*%
X53904761Y-72047619D02*
X53809523Y-72000000D01*
X53714285Y-71904761D01*
X53571428Y-71761904D01*
X53476190Y-71714285D01*
X53380952Y-71714285D01*
X53428571Y-71952380D02*
X53333333Y-71904761D01*
X53238095Y-71809523D01*
X53190476Y-71619047D01*
X53190476Y-71285714D01*
X53238095Y-71095238D01*
X53333333Y-71000000D01*
X53428571Y-70952380D01*
X53619047Y-70952380D01*
X53714285Y-71000000D01*
X53809523Y-71095238D01*
X53857142Y-71285714D01*
X53857142Y-71619047D01*
X53809523Y-71809523D01*
X53714285Y-71904761D01*
X53619047Y-71952380D01*
X53428571Y-71952380D01*
X54190476Y-70952380D02*
X54809523Y-70952380D01*
X54476190Y-71333333D01*
X54619047Y-71333333D01*
X54714285Y-71380952D01*
X54761904Y-71428571D01*
X54809523Y-71523809D01*
X54809523Y-71761904D01*
X54761904Y-71857142D01*
X54714285Y-71904761D01*
X54619047Y-71952380D01*
X54333333Y-71952380D01*
X54238095Y-71904761D01*
X54190476Y-71857142D01*
X48761904Y-73452380D02*
X48761904Y-72452380D01*
X49809523Y-73452380D02*
X49476190Y-72976190D01*
X49238095Y-73452380D02*
X49238095Y-72452380D01*
X49619047Y-72452380D01*
X49714285Y-72500000D01*
X49761904Y-72547619D01*
X49809523Y-72642857D01*
X49809523Y-72785714D01*
X49761904Y-72880952D01*
X49714285Y-72928571D01*
X49619047Y-72976190D01*
X49238095Y-72976190D01*
X50714285Y-73452380D02*
X50238095Y-73452380D01*
X50238095Y-72452380D01*
X51380952Y-72928571D02*
X51523809Y-72976190D01*
X51571428Y-73023809D01*
X51619047Y-73119047D01*
X51619047Y-73261904D01*
X51571428Y-73357142D01*
X51523809Y-73404761D01*
X51428571Y-73452380D01*
X51047619Y-73452380D01*
X51047619Y-72452380D01*
X51380952Y-72452380D01*
X51476190Y-72500000D01*
X51523809Y-72547619D01*
X51571428Y-72642857D01*
X51571428Y-72738095D01*
X51523809Y-72833333D01*
X51476190Y-72880952D01*
X51380952Y-72928571D01*
X51047619Y-72928571D01*
X52190476Y-72880952D02*
X52095238Y-72833333D01*
X52047619Y-72785714D01*
X52000000Y-72690476D01*
X52000000Y-72642857D01*
X52047619Y-72547619D01*
X52095238Y-72500000D01*
X52190476Y-72452380D01*
X52380952Y-72452380D01*
X52476190Y-72500000D01*
X52523809Y-72547619D01*
X52571428Y-72642857D01*
X52571428Y-72690476D01*
X52523809Y-72785714D01*
X52476190Y-72833333D01*
X52380952Y-72880952D01*
X52190476Y-72880952D01*
X52095238Y-72928571D01*
X52047619Y-72976190D01*
X52000000Y-73071428D01*
X52000000Y-73261904D01*
X52047619Y-73357142D01*
X52095238Y-73404761D01*
X52190476Y-73452380D01*
X52380952Y-73452380D01*
X52476190Y-73404761D01*
X52523809Y-73357142D01*
X52571428Y-73261904D01*
X52571428Y-73071428D01*
X52523809Y-72976190D01*
X52476190Y-72928571D01*
X52380952Y-72880952D01*
X52904761Y-72452380D02*
X53571428Y-72452380D01*
X53142857Y-73452380D01*
X53904761Y-72547619D02*
X53952380Y-72500000D01*
X54047619Y-72452380D01*
X54285714Y-72452380D01*
X54380952Y-72500000D01*
X54428571Y-72547619D01*
X54476190Y-72642857D01*
X54476190Y-72738095D01*
X54428571Y-72880952D01*
X53857142Y-73452380D01*
X54476190Y-73452380D01*
X55428571Y-73452380D02*
X54857142Y-73452380D01*
X55142857Y-73452380D02*
X55142857Y-72452380D01*
X55047619Y-72595238D01*
X54952380Y-72690476D01*
X54857142Y-72738095D01*
X55857142Y-73452380D02*
X55857142Y-72452380D01*
X56238095Y-72452380D01*
X56333333Y-72500000D01*
X56380952Y-72547619D01*
X56428571Y-72642857D01*
X56428571Y-72785714D01*
X56380952Y-72880952D01*
X56333333Y-72928571D01*
X56238095Y-72976190D01*
X55857142Y-72976190D01*
X57190476Y-72928571D02*
X57333333Y-72976190D01*
X57380952Y-73023809D01*
X57428571Y-73119047D01*
X57428571Y-73261904D01*
X57380952Y-73357142D01*
X57333333Y-73404761D01*
X57238095Y-73452380D01*
X56857142Y-73452380D01*
X56857142Y-72452380D01*
X57190476Y-72452380D01*
X57285714Y-72500000D01*
X57333333Y-72547619D01*
X57380952Y-72642857D01*
X57380952Y-72738095D01*
X57333333Y-72833333D01*
X57285714Y-72880952D01*
X57190476Y-72928571D01*
X56857142Y-72928571D01*
X58190476Y-72928571D02*
X57857142Y-72928571D01*
X57857142Y-73452380D02*
X57857142Y-72452380D01*
X58333333Y-72452380D01*
%TO.C,Q2*%
X53904761Y-54547619D02*
X53809523Y-54500000D01*
X53714285Y-54404761D01*
X53571428Y-54261904D01*
X53476190Y-54214285D01*
X53380952Y-54214285D01*
X53428571Y-54452380D02*
X53333333Y-54404761D01*
X53238095Y-54309523D01*
X53190476Y-54119047D01*
X53190476Y-53785714D01*
X53238095Y-53595238D01*
X53333333Y-53500000D01*
X53428571Y-53452380D01*
X53619047Y-53452380D01*
X53714285Y-53500000D01*
X53809523Y-53595238D01*
X53857142Y-53785714D01*
X53857142Y-54119047D01*
X53809523Y-54309523D01*
X53714285Y-54404761D01*
X53619047Y-54452380D01*
X53428571Y-54452380D01*
X54238095Y-53547619D02*
X54285714Y-53500000D01*
X54380952Y-53452380D01*
X54619047Y-53452380D01*
X54714285Y-53500000D01*
X54761904Y-53547619D01*
X54809523Y-53642857D01*
X54809523Y-53738095D01*
X54761904Y-53880952D01*
X54190476Y-54452380D01*
X54809523Y-54452380D01*
X48761904Y-55952380D02*
X48761904Y-54952380D01*
X49809523Y-55952380D02*
X49476190Y-55476190D01*
X49238095Y-55952380D02*
X49238095Y-54952380D01*
X49619047Y-54952380D01*
X49714285Y-55000000D01*
X49761904Y-55047619D01*
X49809523Y-55142857D01*
X49809523Y-55285714D01*
X49761904Y-55380952D01*
X49714285Y-55428571D01*
X49619047Y-55476190D01*
X49238095Y-55476190D01*
X50714285Y-55952380D02*
X50238095Y-55952380D01*
X50238095Y-54952380D01*
X51380952Y-55428571D02*
X51523809Y-55476190D01*
X51571428Y-55523809D01*
X51619047Y-55619047D01*
X51619047Y-55761904D01*
X51571428Y-55857142D01*
X51523809Y-55904761D01*
X51428571Y-55952380D01*
X51047619Y-55952380D01*
X51047619Y-54952380D01*
X51380952Y-54952380D01*
X51476190Y-55000000D01*
X51523809Y-55047619D01*
X51571428Y-55142857D01*
X51571428Y-55238095D01*
X51523809Y-55333333D01*
X51476190Y-55380952D01*
X51380952Y-55428571D01*
X51047619Y-55428571D01*
X52190476Y-55380952D02*
X52095238Y-55333333D01*
X52047619Y-55285714D01*
X52000000Y-55190476D01*
X52000000Y-55142857D01*
X52047619Y-55047619D01*
X52095238Y-55000000D01*
X52190476Y-54952380D01*
X52380952Y-54952380D01*
X52476190Y-55000000D01*
X52523809Y-55047619D01*
X52571428Y-55142857D01*
X52571428Y-55190476D01*
X52523809Y-55285714D01*
X52476190Y-55333333D01*
X52380952Y-55380952D01*
X52190476Y-55380952D01*
X52095238Y-55428571D01*
X52047619Y-55476190D01*
X52000000Y-55571428D01*
X52000000Y-55761904D01*
X52047619Y-55857142D01*
X52095238Y-55904761D01*
X52190476Y-55952380D01*
X52380952Y-55952380D01*
X52476190Y-55904761D01*
X52523809Y-55857142D01*
X52571428Y-55761904D01*
X52571428Y-55571428D01*
X52523809Y-55476190D01*
X52476190Y-55428571D01*
X52380952Y-55380952D01*
X52904761Y-54952380D02*
X53571428Y-54952380D01*
X53142857Y-55952380D01*
X53904761Y-55047619D02*
X53952380Y-55000000D01*
X54047619Y-54952380D01*
X54285714Y-54952380D01*
X54380952Y-55000000D01*
X54428571Y-55047619D01*
X54476190Y-55142857D01*
X54476190Y-55238095D01*
X54428571Y-55380952D01*
X53857142Y-55952380D01*
X54476190Y-55952380D01*
X55428571Y-55952380D02*
X54857142Y-55952380D01*
X55142857Y-55952380D02*
X55142857Y-54952380D01*
X55047619Y-55095238D01*
X54952380Y-55190476D01*
X54857142Y-55238095D01*
X55857142Y-55952380D02*
X55857142Y-54952380D01*
X56238095Y-54952380D01*
X56333333Y-55000000D01*
X56380952Y-55047619D01*
X56428571Y-55142857D01*
X56428571Y-55285714D01*
X56380952Y-55380952D01*
X56333333Y-55428571D01*
X56238095Y-55476190D01*
X55857142Y-55476190D01*
X57190476Y-55428571D02*
X57333333Y-55476190D01*
X57380952Y-55523809D01*
X57428571Y-55619047D01*
X57428571Y-55761904D01*
X57380952Y-55857142D01*
X57333333Y-55904761D01*
X57238095Y-55952380D01*
X56857142Y-55952380D01*
X56857142Y-54952380D01*
X57190476Y-54952380D01*
X57285714Y-55000000D01*
X57333333Y-55047619D01*
X57380952Y-55142857D01*
X57380952Y-55238095D01*
X57333333Y-55333333D01*
X57285714Y-55380952D01*
X57190476Y-55428571D01*
X56857142Y-55428571D01*
X58190476Y-55428571D02*
X57857142Y-55428571D01*
X57857142Y-55952380D02*
X57857142Y-54952380D01*
X58333333Y-54952380D01*
%TO.C,Q1*%
X101404761Y-37547619D02*
X101309523Y-37500000D01*
X101214285Y-37404761D01*
X101071428Y-37261904D01*
X100976190Y-37214285D01*
X100880952Y-37214285D01*
X100928571Y-37452380D02*
X100833333Y-37404761D01*
X100738095Y-37309523D01*
X100690476Y-37119047D01*
X100690476Y-36785714D01*
X100738095Y-36595238D01*
X100833333Y-36500000D01*
X100928571Y-36452380D01*
X101119047Y-36452380D01*
X101214285Y-36500000D01*
X101309523Y-36595238D01*
X101357142Y-36785714D01*
X101357142Y-37119047D01*
X101309523Y-37309523D01*
X101214285Y-37404761D01*
X101119047Y-37452380D01*
X100928571Y-37452380D01*
X102309523Y-37452380D02*
X101738095Y-37452380D01*
X102023809Y-37452380D02*
X102023809Y-36452380D01*
X101928571Y-36595238D01*
X101833333Y-36690476D01*
X101738095Y-36738095D01*
X101047619Y-38452380D02*
X101619047Y-38452380D01*
X101333333Y-39452380D02*
X101333333Y-38452380D01*
X101952380Y-39452380D02*
X101952380Y-38452380D01*
X102428571Y-39452380D02*
X102428571Y-38452380D01*
X102809523Y-38452380D01*
X102904761Y-38500000D01*
X102952380Y-38547619D01*
X103000000Y-38642857D01*
X103000000Y-38785714D01*
X102952380Y-38880952D01*
X102904761Y-38928571D01*
X102809523Y-38976190D01*
X102428571Y-38976190D01*
X103952380Y-39452380D02*
X103380952Y-39452380D01*
X103666666Y-39452380D02*
X103666666Y-38452380D01*
X103571428Y-38595238D01*
X103476190Y-38690476D01*
X103380952Y-38738095D01*
X104809523Y-38785714D02*
X104809523Y-39452380D01*
X104571428Y-38404761D02*
X104333333Y-39119047D01*
X104952380Y-39119047D01*
X105238095Y-38452380D02*
X105904761Y-38452380D01*
X105476190Y-39452380D01*
%TO.C,D1*%
X40761904Y-77952380D02*
X40761904Y-76952380D01*
X41000000Y-76952380D01*
X41142857Y-77000000D01*
X41238095Y-77095238D01*
X41285714Y-77190476D01*
X41333333Y-77380952D01*
X41333333Y-77523809D01*
X41285714Y-77714285D01*
X41238095Y-77809523D01*
X41142857Y-77904761D01*
X41000000Y-77952380D01*
X40761904Y-77952380D01*
X42285714Y-77952380D02*
X41714285Y-77952380D01*
X42000000Y-77952380D02*
X42000000Y-76952380D01*
X41904761Y-77095238D01*
X41809523Y-77190476D01*
X41714285Y-77238095D01*
X41380952Y-79952380D02*
X40809523Y-79952380D01*
X41095238Y-79952380D02*
X41095238Y-78952380D01*
X41000000Y-79095238D01*
X40904761Y-79190476D01*
X40809523Y-79238095D01*
X42238095Y-79285714D02*
X42238095Y-79952380D01*
X42000000Y-78904761D02*
X41761904Y-79619047D01*
X42380952Y-79619047D01*
X42619047Y-78952380D02*
X42952380Y-79952380D01*
X43285714Y-78952380D01*
%TO.C,C7*%
X80333333Y-73857142D02*
X80285714Y-73904761D01*
X80142857Y-73952380D01*
X80047619Y-73952380D01*
X79904761Y-73904761D01*
X79809523Y-73809523D01*
X79761904Y-73714285D01*
X79714285Y-73523809D01*
X79714285Y-73380952D01*
X79761904Y-73190476D01*
X79809523Y-73095238D01*
X79904761Y-73000000D01*
X80047619Y-72952380D01*
X80142857Y-72952380D01*
X80285714Y-73000000D01*
X80333333Y-73047619D01*
X80666666Y-72952380D02*
X81333333Y-72952380D01*
X80904761Y-73952380D01*
X77476190Y-71452380D02*
X76904761Y-71452380D01*
X77190476Y-71452380D02*
X77190476Y-70452380D01*
X77095238Y-70595238D01*
X77000000Y-70690476D01*
X76904761Y-70738095D01*
X78095238Y-70452380D02*
X78190476Y-70452380D01*
X78285714Y-70500000D01*
X78333333Y-70547619D01*
X78380952Y-70642857D01*
X78428571Y-70833333D01*
X78428571Y-71071428D01*
X78380952Y-71261904D01*
X78333333Y-71357142D01*
X78285714Y-71404761D01*
X78190476Y-71452380D01*
X78095238Y-71452380D01*
X78000000Y-71404761D01*
X77952380Y-71357142D01*
X77904761Y-71261904D01*
X77857142Y-71071428D01*
X77857142Y-70833333D01*
X77904761Y-70642857D01*
X77952380Y-70547619D01*
X78000000Y-70500000D01*
X78095238Y-70452380D01*
X79047619Y-70452380D02*
X79142857Y-70452380D01*
X79238095Y-70500000D01*
X79285714Y-70547619D01*
X79333333Y-70642857D01*
X79380952Y-70833333D01*
X79380952Y-71071428D01*
X79333333Y-71261904D01*
X79285714Y-71357142D01*
X79238095Y-71404761D01*
X79142857Y-71452380D01*
X79047619Y-71452380D01*
X78952380Y-71404761D01*
X78904761Y-71357142D01*
X78857142Y-71261904D01*
X78809523Y-71071428D01*
X78809523Y-70833333D01*
X78857142Y-70642857D01*
X78904761Y-70547619D01*
X78952380Y-70500000D01*
X79047619Y-70452380D01*
X80000000Y-70452380D02*
X80095238Y-70452380D01*
X80190476Y-70500000D01*
X80238095Y-70547619D01*
X80285714Y-70642857D01*
X80333333Y-70833333D01*
X80333333Y-71071428D01*
X80285714Y-71261904D01*
X80238095Y-71357142D01*
X80190476Y-71404761D01*
X80095238Y-71452380D01*
X80000000Y-71452380D01*
X79904761Y-71404761D01*
X79857142Y-71357142D01*
X79809523Y-71261904D01*
X79761904Y-71071428D01*
X79761904Y-70833333D01*
X79809523Y-70642857D01*
X79857142Y-70547619D01*
X79904761Y-70500000D01*
X80000000Y-70452380D01*
X80761904Y-70785714D02*
X80761904Y-71785714D01*
X80761904Y-70833333D02*
X80857142Y-70785714D01*
X81047619Y-70785714D01*
X81142857Y-70833333D01*
X81190476Y-70880952D01*
X81238095Y-70976190D01*
X81238095Y-71261904D01*
X81190476Y-71357142D01*
X81142857Y-71404761D01*
X81047619Y-71452380D01*
X80857142Y-71452380D01*
X80761904Y-71404761D01*
X82000000Y-70928571D02*
X81666666Y-70928571D01*
X81666666Y-71452380D02*
X81666666Y-70452380D01*
X82142857Y-70452380D01*
%TO.C,C6*%
X77333333Y-57857142D02*
X77285714Y-57904761D01*
X77142857Y-57952380D01*
X77047619Y-57952380D01*
X76904761Y-57904761D01*
X76809523Y-57809523D01*
X76761904Y-57714285D01*
X76714285Y-57523809D01*
X76714285Y-57380952D01*
X76761904Y-57190476D01*
X76809523Y-57095238D01*
X76904761Y-57000000D01*
X77047619Y-56952380D01*
X77142857Y-56952380D01*
X77285714Y-57000000D01*
X77333333Y-57047619D01*
X78190476Y-56952380D02*
X78000000Y-56952380D01*
X77904761Y-57000000D01*
X77857142Y-57047619D01*
X77761904Y-57190476D01*
X77714285Y-57380952D01*
X77714285Y-57761904D01*
X77761904Y-57857142D01*
X77809523Y-57904761D01*
X77904761Y-57952380D01*
X78095238Y-57952380D01*
X78190476Y-57904761D01*
X78238095Y-57857142D01*
X78285714Y-57761904D01*
X78285714Y-57523809D01*
X78238095Y-57428571D01*
X78190476Y-57380952D01*
X78095238Y-57333333D01*
X77904761Y-57333333D01*
X77809523Y-57380952D01*
X77761904Y-57428571D01*
X77714285Y-57523809D01*
X79476190Y-57952380D02*
X78904761Y-57952380D01*
X79190476Y-57952380D02*
X79190476Y-56952380D01*
X79095238Y-57095238D01*
X79000000Y-57190476D01*
X78904761Y-57238095D01*
X80095238Y-56952380D02*
X80190476Y-56952380D01*
X80285714Y-57000000D01*
X80333333Y-57047619D01*
X80380952Y-57142857D01*
X80428571Y-57333333D01*
X80428571Y-57571428D01*
X80380952Y-57761904D01*
X80333333Y-57857142D01*
X80285714Y-57904761D01*
X80190476Y-57952380D01*
X80095238Y-57952380D01*
X80000000Y-57904761D01*
X79952380Y-57857142D01*
X79904761Y-57761904D01*
X79857142Y-57571428D01*
X79857142Y-57333333D01*
X79904761Y-57142857D01*
X79952380Y-57047619D01*
X80000000Y-57000000D01*
X80095238Y-56952380D01*
X81047619Y-56952380D02*
X81142857Y-56952380D01*
X81238095Y-57000000D01*
X81285714Y-57047619D01*
X81333333Y-57142857D01*
X81380952Y-57333333D01*
X81380952Y-57571428D01*
X81333333Y-57761904D01*
X81285714Y-57857142D01*
X81238095Y-57904761D01*
X81142857Y-57952380D01*
X81047619Y-57952380D01*
X80952380Y-57904761D01*
X80904761Y-57857142D01*
X80857142Y-57761904D01*
X80809523Y-57571428D01*
X80809523Y-57333333D01*
X80857142Y-57142857D01*
X80904761Y-57047619D01*
X80952380Y-57000000D01*
X81047619Y-56952380D01*
X82000000Y-56952380D02*
X82095238Y-56952380D01*
X82190476Y-57000000D01*
X82238095Y-57047619D01*
X82285714Y-57142857D01*
X82333333Y-57333333D01*
X82333333Y-57571428D01*
X82285714Y-57761904D01*
X82238095Y-57857142D01*
X82190476Y-57904761D01*
X82095238Y-57952380D01*
X82000000Y-57952380D01*
X81904761Y-57904761D01*
X81857142Y-57857142D01*
X81809523Y-57761904D01*
X81761904Y-57571428D01*
X81761904Y-57333333D01*
X81809523Y-57142857D01*
X81857142Y-57047619D01*
X81904761Y-57000000D01*
X82000000Y-56952380D01*
X82761904Y-57285714D02*
X82761904Y-58285714D01*
X82761904Y-57333333D02*
X82857142Y-57285714D01*
X83047619Y-57285714D01*
X83142857Y-57333333D01*
X83190476Y-57380952D01*
X83238095Y-57476190D01*
X83238095Y-57761904D01*
X83190476Y-57857142D01*
X83142857Y-57904761D01*
X83047619Y-57952380D01*
X82857142Y-57952380D01*
X82761904Y-57904761D01*
X84000000Y-57428571D02*
X83666666Y-57428571D01*
X83666666Y-57952380D02*
X83666666Y-56952380D01*
X84142857Y-56952380D01*
%TO.C,C5*%
X48333333Y-90857142D02*
X48285714Y-90904761D01*
X48142857Y-90952380D01*
X48047619Y-90952380D01*
X47904761Y-90904761D01*
X47809523Y-90809523D01*
X47761904Y-90714285D01*
X47714285Y-90523809D01*
X47714285Y-90380952D01*
X47761904Y-90190476D01*
X47809523Y-90095238D01*
X47904761Y-90000000D01*
X48047619Y-89952380D01*
X48142857Y-89952380D01*
X48285714Y-90000000D01*
X48333333Y-90047619D01*
X49238095Y-89952380D02*
X48761904Y-89952380D01*
X48714285Y-90428571D01*
X48761904Y-90380952D01*
X48857142Y-90333333D01*
X49095238Y-90333333D01*
X49190476Y-90380952D01*
X49238095Y-90428571D01*
X49285714Y-90523809D01*
X49285714Y-90761904D01*
X49238095Y-90857142D01*
X49190476Y-90904761D01*
X49095238Y-90952380D01*
X48857142Y-90952380D01*
X48761904Y-90904761D01*
X48714285Y-90857142D01*
X46476190Y-92452380D02*
X45904761Y-92452380D01*
X46190476Y-92452380D02*
X46190476Y-91452380D01*
X46095238Y-91595238D01*
X46000000Y-91690476D01*
X45904761Y-91738095D01*
X47095238Y-91452380D02*
X47190476Y-91452380D01*
X47285714Y-91500000D01*
X47333333Y-91547619D01*
X47380952Y-91642857D01*
X47428571Y-91833333D01*
X47428571Y-92071428D01*
X47380952Y-92261904D01*
X47333333Y-92357142D01*
X47285714Y-92404761D01*
X47190476Y-92452380D01*
X47095238Y-92452380D01*
X47000000Y-92404761D01*
X46952380Y-92357142D01*
X46904761Y-92261904D01*
X46857142Y-92071428D01*
X46857142Y-91833333D01*
X46904761Y-91642857D01*
X46952380Y-91547619D01*
X47000000Y-91500000D01*
X47095238Y-91452380D01*
X48047619Y-91452380D02*
X48142857Y-91452380D01*
X48238095Y-91500000D01*
X48285714Y-91547619D01*
X48333333Y-91642857D01*
X48380952Y-91833333D01*
X48380952Y-92071428D01*
X48333333Y-92261904D01*
X48285714Y-92357142D01*
X48238095Y-92404761D01*
X48142857Y-92452380D01*
X48047619Y-92452380D01*
X47952380Y-92404761D01*
X47904761Y-92357142D01*
X47857142Y-92261904D01*
X47809523Y-92071428D01*
X47809523Y-91833333D01*
X47857142Y-91642857D01*
X47904761Y-91547619D01*
X47952380Y-91500000D01*
X48047619Y-91452380D01*
X49000000Y-91452380D02*
X49095238Y-91452380D01*
X49190476Y-91500000D01*
X49238095Y-91547619D01*
X49285714Y-91642857D01*
X49333333Y-91833333D01*
X49333333Y-92071428D01*
X49285714Y-92261904D01*
X49238095Y-92357142D01*
X49190476Y-92404761D01*
X49095238Y-92452380D01*
X49000000Y-92452380D01*
X48904761Y-92404761D01*
X48857142Y-92357142D01*
X48809523Y-92261904D01*
X48761904Y-92071428D01*
X48761904Y-91833333D01*
X48809523Y-91642857D01*
X48857142Y-91547619D01*
X48904761Y-91500000D01*
X49000000Y-91452380D01*
X50190476Y-91785714D02*
X50190476Y-92452380D01*
X49761904Y-91785714D02*
X49761904Y-92309523D01*
X49809523Y-92404761D01*
X49904761Y-92452380D01*
X50047619Y-92452380D01*
X50142857Y-92404761D01*
X50190476Y-92357142D01*
X51000000Y-91928571D02*
X50666666Y-91928571D01*
X50666666Y-92452380D02*
X50666666Y-91452380D01*
X51142857Y-91452380D01*
%TO.C,C4*%
X44833333Y-37857142D02*
X44785714Y-37904761D01*
X44642857Y-37952380D01*
X44547619Y-37952380D01*
X44404761Y-37904761D01*
X44309523Y-37809523D01*
X44261904Y-37714285D01*
X44214285Y-37523809D01*
X44214285Y-37380952D01*
X44261904Y-37190476D01*
X44309523Y-37095238D01*
X44404761Y-37000000D01*
X44547619Y-36952380D01*
X44642857Y-36952380D01*
X44785714Y-37000000D01*
X44833333Y-37047619D01*
X45690476Y-37285714D02*
X45690476Y-37952380D01*
X45452380Y-36904761D02*
X45214285Y-37619047D01*
X45833333Y-37619047D01*
X44976190Y-39452380D02*
X44404761Y-39452380D01*
X44690476Y-39452380D02*
X44690476Y-38452380D01*
X44595238Y-38595238D01*
X44500000Y-38690476D01*
X44404761Y-38738095D01*
X45595238Y-38452380D02*
X45690476Y-38452380D01*
X45785714Y-38500000D01*
X45833333Y-38547619D01*
X45880952Y-38642857D01*
X45928571Y-38833333D01*
X45928571Y-39071428D01*
X45880952Y-39261904D01*
X45833333Y-39357142D01*
X45785714Y-39404761D01*
X45690476Y-39452380D01*
X45595238Y-39452380D01*
X45500000Y-39404761D01*
X45452380Y-39357142D01*
X45404761Y-39261904D01*
X45357142Y-39071428D01*
X45357142Y-38833333D01*
X45404761Y-38642857D01*
X45452380Y-38547619D01*
X45500000Y-38500000D01*
X45595238Y-38452380D01*
X46547619Y-38452380D02*
X46642857Y-38452380D01*
X46738095Y-38500000D01*
X46785714Y-38547619D01*
X46833333Y-38642857D01*
X46880952Y-38833333D01*
X46880952Y-39071428D01*
X46833333Y-39261904D01*
X46785714Y-39357142D01*
X46738095Y-39404761D01*
X46642857Y-39452380D01*
X46547619Y-39452380D01*
X46452380Y-39404761D01*
X46404761Y-39357142D01*
X46357142Y-39261904D01*
X46309523Y-39071428D01*
X46309523Y-38833333D01*
X46357142Y-38642857D01*
X46404761Y-38547619D01*
X46452380Y-38500000D01*
X46547619Y-38452380D01*
X47500000Y-38452380D02*
X47595238Y-38452380D01*
X47690476Y-38500000D01*
X47738095Y-38547619D01*
X47785714Y-38642857D01*
X47833333Y-38833333D01*
X47833333Y-39071428D01*
X47785714Y-39261904D01*
X47738095Y-39357142D01*
X47690476Y-39404761D01*
X47595238Y-39452380D01*
X47500000Y-39452380D01*
X47404761Y-39404761D01*
X47357142Y-39357142D01*
X47309523Y-39261904D01*
X47261904Y-39071428D01*
X47261904Y-38833333D01*
X47309523Y-38642857D01*
X47357142Y-38547619D01*
X47404761Y-38500000D01*
X47500000Y-38452380D01*
X48690476Y-38785714D02*
X48690476Y-39452380D01*
X48261904Y-38785714D02*
X48261904Y-39309523D01*
X48309523Y-39404761D01*
X48404761Y-39452380D01*
X48547619Y-39452380D01*
X48642857Y-39404761D01*
X48690476Y-39357142D01*
X49500000Y-38928571D02*
X49166666Y-38928571D01*
X49166666Y-39452380D02*
X49166666Y-38452380D01*
X49642857Y-38452380D01*
%TO.C,C3*%
X87833333Y-71857142D02*
X87785714Y-71904761D01*
X87642857Y-71952380D01*
X87547619Y-71952380D01*
X87404761Y-71904761D01*
X87309523Y-71809523D01*
X87261904Y-71714285D01*
X87214285Y-71523809D01*
X87214285Y-71380952D01*
X87261904Y-71190476D01*
X87309523Y-71095238D01*
X87404761Y-71000000D01*
X87547619Y-70952380D01*
X87642857Y-70952380D01*
X87785714Y-71000000D01*
X87833333Y-71047619D01*
X88166666Y-70952380D02*
X88785714Y-70952380D01*
X88452380Y-71333333D01*
X88595238Y-71333333D01*
X88690476Y-71380952D01*
X88738095Y-71428571D01*
X88785714Y-71523809D01*
X88785714Y-71761904D01*
X88738095Y-71857142D01*
X88690476Y-71904761D01*
X88595238Y-71952380D01*
X88309523Y-71952380D01*
X88214285Y-71904761D01*
X88166666Y-71857142D01*
X85595238Y-72785714D02*
X85595238Y-73452380D01*
X85357142Y-72404761D02*
X85119047Y-73119047D01*
X85738095Y-73119047D01*
X86119047Y-73357142D02*
X86166666Y-73404761D01*
X86119047Y-73452380D01*
X86071428Y-73404761D01*
X86119047Y-73357142D01*
X86119047Y-73452380D01*
X86500000Y-72452380D02*
X87166666Y-72452380D01*
X86738095Y-73452380D01*
X87976190Y-72785714D02*
X87976190Y-73452380D01*
X87547619Y-72785714D02*
X87547619Y-73309523D01*
X87595238Y-73404761D01*
X87690476Y-73452380D01*
X87833333Y-73452380D01*
X87928571Y-73404761D01*
X87976190Y-73357142D01*
X88785714Y-72928571D02*
X88452380Y-72928571D01*
X88452380Y-73452380D02*
X88452380Y-72452380D01*
X88928571Y-72452380D01*
%TO.C,C2*%
X87833333Y-62357142D02*
X87785714Y-62404761D01*
X87642857Y-62452380D01*
X87547619Y-62452380D01*
X87404761Y-62404761D01*
X87309523Y-62309523D01*
X87261904Y-62214285D01*
X87214285Y-62023809D01*
X87214285Y-61880952D01*
X87261904Y-61690476D01*
X87309523Y-61595238D01*
X87404761Y-61500000D01*
X87547619Y-61452380D01*
X87642857Y-61452380D01*
X87785714Y-61500000D01*
X87833333Y-61547619D01*
X88214285Y-61547619D02*
X88261904Y-61500000D01*
X88357142Y-61452380D01*
X88595238Y-61452380D01*
X88690476Y-61500000D01*
X88738095Y-61547619D01*
X88785714Y-61642857D01*
X88785714Y-61738095D01*
X88738095Y-61880952D01*
X88166666Y-62452380D01*
X88785714Y-62452380D01*
X87357142Y-62952380D02*
X87452380Y-62952380D01*
X87547619Y-63000000D01*
X87595238Y-63047619D01*
X87642857Y-63142857D01*
X87690476Y-63333333D01*
X87690476Y-63571428D01*
X87642857Y-63761904D01*
X87595238Y-63857142D01*
X87547619Y-63904761D01*
X87452380Y-63952380D01*
X87357142Y-63952380D01*
X87261904Y-63904761D01*
X87214285Y-63857142D01*
X87166666Y-63761904D01*
X87119047Y-63571428D01*
X87119047Y-63333333D01*
X87166666Y-63142857D01*
X87214285Y-63047619D01*
X87261904Y-63000000D01*
X87357142Y-62952380D01*
X88119047Y-63857142D02*
X88166666Y-63904761D01*
X88119047Y-63952380D01*
X88071428Y-63904761D01*
X88119047Y-63857142D01*
X88119047Y-63952380D01*
X89119047Y-63952380D02*
X88547619Y-63952380D01*
X88833333Y-63952380D02*
X88833333Y-62952380D01*
X88738095Y-63095238D01*
X88642857Y-63190476D01*
X88547619Y-63238095D01*
X89976190Y-63285714D02*
X89976190Y-63952380D01*
X89547619Y-63285714D02*
X89547619Y-63809523D01*
X89595238Y-63904761D01*
X89690476Y-63952380D01*
X89833333Y-63952380D01*
X89928571Y-63904761D01*
X89976190Y-63857142D01*
X90785714Y-63428571D02*
X90452380Y-63428571D01*
X90452380Y-63952380D02*
X90452380Y-62952380D01*
X90928571Y-62952380D01*
%TO.C,C1*%
X114833333Y-37107142D02*
X114785714Y-37154761D01*
X114642857Y-37202380D01*
X114547619Y-37202380D01*
X114404761Y-37154761D01*
X114309523Y-37059523D01*
X114261904Y-36964285D01*
X114214285Y-36773809D01*
X114214285Y-36630952D01*
X114261904Y-36440476D01*
X114309523Y-36345238D01*
X114404761Y-36250000D01*
X114547619Y-36202380D01*
X114642857Y-36202380D01*
X114785714Y-36250000D01*
X114833333Y-36297619D01*
X115785714Y-37202380D02*
X115214285Y-37202380D01*
X115500000Y-37202380D02*
X115500000Y-36202380D01*
X115404761Y-36345238D01*
X115309523Y-36440476D01*
X115214285Y-36488095D01*
X112976190Y-49702380D02*
X112404761Y-49702380D01*
X112690476Y-49702380D02*
X112690476Y-48702380D01*
X112595238Y-48845238D01*
X112500000Y-48940476D01*
X112404761Y-48988095D01*
X113595238Y-48702380D02*
X113690476Y-48702380D01*
X113785714Y-48750000D01*
X113833333Y-48797619D01*
X113880952Y-48892857D01*
X113928571Y-49083333D01*
X113928571Y-49321428D01*
X113880952Y-49511904D01*
X113833333Y-49607142D01*
X113785714Y-49654761D01*
X113690476Y-49702380D01*
X113595238Y-49702380D01*
X113500000Y-49654761D01*
X113452380Y-49607142D01*
X113404761Y-49511904D01*
X113357142Y-49321428D01*
X113357142Y-49083333D01*
X113404761Y-48892857D01*
X113452380Y-48797619D01*
X113500000Y-48750000D01*
X113595238Y-48702380D01*
X114547619Y-48702380D02*
X114642857Y-48702380D01*
X114738095Y-48750000D01*
X114785714Y-48797619D01*
X114833333Y-48892857D01*
X114880952Y-49083333D01*
X114880952Y-49321428D01*
X114833333Y-49511904D01*
X114785714Y-49607142D01*
X114738095Y-49654761D01*
X114642857Y-49702380D01*
X114547619Y-49702380D01*
X114452380Y-49654761D01*
X114404761Y-49607142D01*
X114357142Y-49511904D01*
X114309523Y-49321428D01*
X114309523Y-49083333D01*
X114357142Y-48892857D01*
X114404761Y-48797619D01*
X114452380Y-48750000D01*
X114547619Y-48702380D01*
X115500000Y-48702380D02*
X115595238Y-48702380D01*
X115690476Y-48750000D01*
X115738095Y-48797619D01*
X115785714Y-48892857D01*
X115833333Y-49083333D01*
X115833333Y-49321428D01*
X115785714Y-49511904D01*
X115738095Y-49607142D01*
X115690476Y-49654761D01*
X115595238Y-49702380D01*
X115500000Y-49702380D01*
X115404761Y-49654761D01*
X115357142Y-49607142D01*
X115309523Y-49511904D01*
X115261904Y-49321428D01*
X115261904Y-49083333D01*
X115309523Y-48892857D01*
X115357142Y-48797619D01*
X115404761Y-48750000D01*
X115500000Y-48702380D01*
X116690476Y-49035714D02*
X116690476Y-49702380D01*
X116261904Y-49035714D02*
X116261904Y-49559523D01*
X116309523Y-49654761D01*
X116404761Y-49702380D01*
X116547619Y-49702380D01*
X116642857Y-49654761D01*
X116690476Y-49607142D01*
X117500000Y-49178571D02*
X117166666Y-49178571D01*
X117166666Y-49702380D02*
X117166666Y-48702380D01*
X117642857Y-48702380D01*
%TD*%
M02*
