%TF.GenerationSoftware,KiCad,Pcbnew,(5.1.6-0-10_14)*%
%TF.CreationDate,2020-08-18T03:30:43-05:00*%
%TF.ProjectId,Main,4d61696e-2e6b-4696-9361-645f70636258,rev?*%
%TF.SameCoordinates,Original*%
%TF.FileFunction,Copper,L1,Top*%
%TF.FilePolarity,Positive*%
%FSLAX46Y46*%
G04 Gerber Fmt 4.6, Leading zero omitted, Abs format (unit mm)*
G04 Created by KiCad (PCBNEW (5.1.6-0-10_14)) date 2020-08-18 03:30:43*
%MOMM*%
%LPD*%
G01*
G04 APERTURE LIST*
%TA.AperFunction,ComponentPad*%
%ADD10C,1.970000*%
%TD*%
%TA.AperFunction,ComponentPad*%
%ADD11C,4.800000*%
%TD*%
%TA.AperFunction,ComponentPad*%
%ADD12C,1.950000*%
%TD*%
%TA.AperFunction,ComponentPad*%
%ADD13R,1.950000X1.950000*%
%TD*%
%TA.AperFunction,ComponentPad*%
%ADD14C,4.400000*%
%TD*%
%TA.AperFunction,ComponentPad*%
%ADD15C,1.524000*%
%TD*%
%TA.AperFunction,ComponentPad*%
%ADD16C,1.750000*%
%TD*%
%TA.AperFunction,ComponentPad*%
%ADD17C,1.381000*%
%TD*%
%TA.AperFunction,ComponentPad*%
%ADD18O,1.600000X1.600000*%
%TD*%
%TA.AperFunction,ComponentPad*%
%ADD19R,1.600000X1.600000*%
%TD*%
%TA.AperFunction,ComponentPad*%
%ADD20O,1.400000X1.400000*%
%TD*%
%TA.AperFunction,ComponentPad*%
%ADD21C,1.400000*%
%TD*%
%TA.AperFunction,ComponentPad*%
%ADD22C,1.600000*%
%TD*%
%TA.AperFunction,ComponentPad*%
%ADD23O,1.905000X2.000000*%
%TD*%
%TA.AperFunction,ComponentPad*%
%ADD24R,1.905000X2.000000*%
%TD*%
%TA.AperFunction,ComponentPad*%
%ADD25O,2.000000X1.905000*%
%TD*%
%TA.AperFunction,ComponentPad*%
%ADD26R,2.000000X1.905000*%
%TD*%
%TA.AperFunction,ComponentPad*%
%ADD27C,2.000000*%
%TD*%
%TA.AperFunction,ComponentPad*%
%ADD28R,2.000000X2.000000*%
%TD*%
%TA.AperFunction,Conductor*%
%ADD29C,2.000000*%
%TD*%
%TA.AperFunction,Conductor*%
%ADD30C,1.000000*%
%TD*%
%TA.AperFunction,Conductor*%
%ADD31C,0.600000*%
%TD*%
G04 APERTURE END LIST*
D10*
%TO.P,F1,2*%
%TO.N,Net-(F1-Pad2)*%
X58000000Y-64500000D03*
%TO.P,F1,1*%
%TO.N,12V*%
X79840000Y-64500000D03*
%TD*%
D11*
%TO.P,J2,3*%
%TO.N,Com*%
X47600000Y-74000000D03*
%TO.P,J2,2*%
X44800000Y-69200000D03*
%TO.P,J2,1*%
%TO.N,Net-(F1-Pad2)*%
X50600000Y-69200000D03*
%TD*%
D12*
%TO.P,J1,2*%
%TO.N,Net-(F1-Pad2)*%
X47000000Y-55000000D03*
D13*
%TO.P,J1,1*%
%TO.N,Com*%
X47000000Y-60000000D03*
D12*
%TO.P,J1,2*%
%TO.N,Net-(F1-Pad2)*%
X42000000Y-55000000D03*
D13*
%TO.P,J1,1*%
%TO.N,Com*%
X42000000Y-60000000D03*
%TD*%
D14*
%TO.P,H4,1*%
%TO.N,N/C*%
X40000000Y-38000000D03*
%TD*%
%TO.P,H3,1*%
%TO.N,N/C*%
X122000000Y-38000000D03*
%TD*%
%TO.P,H2,1*%
%TO.N,N/C*%
X122000000Y-90000000D03*
%TD*%
%TO.P,H1,1*%
%TO.N,N/C*%
X40000000Y-90000000D03*
%TD*%
D15*
%TO.P,XA1,11*%
%TO.N,Net-(XA1-Pad11)*%
X117494000Y-91746000D03*
%TO.P,XA1,12*%
%TO.N,Net-(XA1-Pad12)*%
X117494000Y-89206000D03*
%TO.P,XA1,13*%
%TO.N,Net-(XA1-Pad13)*%
X117494000Y-86666000D03*
%TO.P,XA1,14*%
%TO.N,Net-(XA1-Pad14)*%
X117494000Y-84126000D03*
%TO.P,XA1,15*%
%TO.N,On_Off*%
X117494000Y-81586000D03*
%TO.P,XA1,16*%
%TO.N,Auto_Man*%
X117494000Y-79046000D03*
%TO.P,XA1,17*%
%TO.N,Color*%
X117494000Y-76506000D03*
%TO.P,XA1,18*%
%TO.N,Brightness*%
X117494000Y-73966000D03*
%TO.P,XA1,19*%
%TO.N,Net-(XA1-Pad19)*%
X117494000Y-71426000D03*
%TO.P,XA1,20*%
%TO.N,Net-(XA1-Pad20)*%
X117494000Y-68886000D03*
%TO.P,XA1,1*%
%TO.N,PWM-Warm*%
X102254000Y-68886000D03*
%TO.P,XA1,2*%
%TO.N,PWM-Cool*%
X102254000Y-71426000D03*
%TO.P,XA1,3*%
%TO.N,Net-(XA1-Pad3)*%
X102254000Y-73966000D03*
%TO.P,XA1,4*%
%TO.N,Net-(XA1-Pad4)*%
X102254000Y-76506000D03*
%TO.P,XA1,5*%
%TO.N,Net-(XA1-Pad5)*%
X102254000Y-79046000D03*
%TO.P,XA1,6*%
%TO.N,Net-(XA1-Pad6)*%
X102254000Y-81586000D03*
%TO.P,XA1,7*%
%TO.N,3.3V*%
X102254000Y-84126000D03*
%TO.P,XA1,8*%
%TO.N,Net-(XA1-Pad8)*%
X102254000Y-86666000D03*
%TO.P,XA1,9*%
%TO.N,Com*%
X102254000Y-89206000D03*
%TO.P,XA1,10*%
%TO.N,Net-(XA1-Pad10)*%
X102254000Y-91746000D03*
%TD*%
D16*
%TO.P,U1,3*%
%TO.N,3.3V*%
X107460000Y-58500000D03*
%TO.P,U1,1*%
%TO.N,12ish*%
X112540000Y-58500000D03*
%TO.P,U1,2*%
%TO.N,Com*%
X110000000Y-58500000D03*
%TD*%
D13*
%TO.P,J7,1*%
%TO.N,12V*%
X58500000Y-81000000D03*
D12*
%TO.P,J7,2*%
%TO.N,Net-(J7-Pad2)*%
X63500000Y-81000000D03*
%TO.P,J7,3*%
%TO.N,12V*%
X68500000Y-81000000D03*
%TO.P,J7,4*%
%TO.N,Net-(J7-Pad2)*%
X73500000Y-81000000D03*
%TO.P,J7,5*%
%TO.N,12V*%
X78500000Y-81000000D03*
%TO.P,J7,6*%
%TO.N,Net-(J7-Pad2)*%
X83500000Y-81000000D03*
%TO.P,J7,7*%
%TO.N,12V*%
X88500000Y-81000000D03*
%TO.P,J7,8*%
%TO.N,Net-(J7-Pad2)*%
X93500000Y-81000000D03*
D13*
%TO.P,J7,1*%
%TO.N,12V*%
X58500000Y-86000000D03*
D12*
%TO.P,J7,2*%
%TO.N,Net-(J7-Pad2)*%
X63500000Y-86000000D03*
%TO.P,J7,3*%
%TO.N,12V*%
X68500000Y-86000000D03*
%TO.P,J7,4*%
%TO.N,Net-(J7-Pad2)*%
X73500000Y-86000000D03*
%TO.P,J7,5*%
%TO.N,12V*%
X78500000Y-86000000D03*
%TO.P,J7,6*%
%TO.N,Net-(J7-Pad2)*%
X83500000Y-86000000D03*
%TO.P,J7,7*%
%TO.N,12V*%
X88500000Y-86000000D03*
%TO.P,J7,8*%
%TO.N,Net-(J7-Pad2)*%
X93500000Y-86000000D03*
%TD*%
D13*
%TO.P,J6,1*%
%TO.N,12V*%
X58500000Y-42500000D03*
D12*
%TO.P,J6,2*%
%TO.N,Net-(J6-Pad2)*%
X63500000Y-42500000D03*
%TO.P,J6,3*%
%TO.N,12V*%
X68500000Y-42500000D03*
%TO.P,J6,4*%
%TO.N,Net-(J6-Pad2)*%
X73500000Y-42500000D03*
%TO.P,J6,5*%
%TO.N,12V*%
X78500000Y-42500000D03*
%TO.P,J6,6*%
%TO.N,Net-(J6-Pad2)*%
X83500000Y-42500000D03*
%TO.P,J6,7*%
%TO.N,12V*%
X88500000Y-42500000D03*
%TO.P,J6,8*%
%TO.N,Net-(J6-Pad2)*%
X93500000Y-42500000D03*
D13*
%TO.P,J6,1*%
%TO.N,12V*%
X58500000Y-47500000D03*
D12*
%TO.P,J6,2*%
%TO.N,Net-(J6-Pad2)*%
X63500000Y-47500000D03*
%TO.P,J6,3*%
%TO.N,12V*%
X68500000Y-47500000D03*
%TO.P,J6,4*%
%TO.N,Net-(J6-Pad2)*%
X73500000Y-47500000D03*
%TO.P,J6,5*%
%TO.N,12V*%
X78500000Y-47500000D03*
%TO.P,J6,6*%
%TO.N,Net-(J6-Pad2)*%
X83500000Y-47500000D03*
%TO.P,J6,7*%
%TO.N,12V*%
X88500000Y-47500000D03*
%TO.P,J6,8*%
%TO.N,Net-(J6-Pad2)*%
X93500000Y-47500000D03*
%TD*%
D17*
%TO.P,J4,1*%
%TO.N,Com*%
X97000000Y-56500000D03*
%TO.P,J4,2*%
%TO.N,PWM-Warm*%
X95730000Y-59040000D03*
%TO.P,J4,3*%
%TO.N,Com*%
X94460000Y-56500000D03*
%TO.P,J4,4*%
%TO.N,PWM-Cool*%
X93190000Y-59040000D03*
%TO.P,J4,5*%
%TO.N,12V*%
X91920000Y-56500000D03*
%TO.P,J4,6*%
X90650000Y-59040000D03*
%TD*%
%TO.P,J3,1*%
%TO.N,Brightness*%
X123000000Y-58000000D03*
%TO.P,J3,2*%
%TO.N,Auto_Man*%
X120460000Y-56730000D03*
%TO.P,J3,3*%
%TO.N,Color*%
X123000000Y-55460000D03*
%TO.P,J3,4*%
%TO.N,On_Off*%
X120460000Y-54190000D03*
%TO.P,J3,5*%
%TO.N,12ish*%
X123000000Y-52920000D03*
%TO.P,J3,6*%
%TO.N,Com*%
X120460000Y-51650000D03*
%TD*%
D18*
%TO.P,U2,8*%
%TO.N,N/C*%
X90500000Y-73620000D03*
%TO.P,U2,4*%
%TO.N,PWM-Warm*%
X98120000Y-66000000D03*
%TO.P,U2,7*%
%TO.N,GD-Cool*%
X90500000Y-71080000D03*
%TO.P,U2,3*%
%TO.N,Com*%
X98120000Y-68540000D03*
%TO.P,U2,6*%
%TO.N,12V*%
X90500000Y-68540000D03*
%TO.P,U2,2*%
%TO.N,PWM-Cool*%
X98120000Y-71080000D03*
%TO.P,U2,5*%
%TO.N,GD-Warm*%
X90500000Y-66000000D03*
D19*
%TO.P,U2,1*%
%TO.N,N/C*%
X98120000Y-73620000D03*
%TD*%
D20*
%TO.P,R-Bleeder1,2*%
%TO.N,Com*%
X38000000Y-49080000D03*
D21*
%TO.P,R-Bleeder1,1*%
%TO.N,12V*%
X38000000Y-44000000D03*
%TD*%
D18*
%TO.P,R3,2*%
%TO.N,Net-(Q3-Pad1)*%
X67380000Y-73500000D03*
D22*
%TO.P,R3,1*%
%TO.N,GD-Cool*%
X75000000Y-73500000D03*
%TD*%
D18*
%TO.P,R2,2*%
%TO.N,Net-(Q2-Pad1)*%
X67380000Y-55000000D03*
D22*
%TO.P,R2,1*%
%TO.N,GD-Warm*%
X75000000Y-55000000D03*
%TD*%
D20*
%TO.P,R1,2*%
%TO.N,12V*%
X108000000Y-42500000D03*
D21*
%TO.P,R1,1*%
%TO.N,Net-(C1-Pad1)*%
X108000000Y-47580000D03*
%TD*%
D23*
%TO.P,Q3,3*%
%TO.N,Com*%
X58000000Y-72000000D03*
%TO.P,Q3,2*%
%TO.N,Net-(J7-Pad2)*%
X60540000Y-72000000D03*
D24*
%TO.P,Q3,1*%
%TO.N,Net-(Q3-Pad1)*%
X63080000Y-72000000D03*
%TD*%
D23*
%TO.P,Q2,3*%
%TO.N,Com*%
X57920000Y-54500000D03*
%TO.P,Q2,2*%
%TO.N,Net-(J6-Pad2)*%
X60460000Y-54500000D03*
D24*
%TO.P,Q2,1*%
%TO.N,Net-(Q2-Pad1)*%
X63000000Y-54500000D03*
%TD*%
D25*
%TO.P,Q1,3*%
%TO.N,12V*%
X104000000Y-42460000D03*
%TO.P,Q1,2*%
%TO.N,12ish*%
X104000000Y-45000000D03*
D26*
%TO.P,Q1,1*%
%TO.N,Net-(C1-Pad1)*%
X104000000Y-47540000D03*
%TD*%
D18*
%TO.P,D1,2*%
%TO.N,Com*%
X39000000Y-74880000D03*
D19*
%TO.P,D1,1*%
%TO.N,12V*%
X39000000Y-82500000D03*
%TD*%
D22*
%TO.P,C7,2*%
%TO.N,Com*%
X83000000Y-73500000D03*
%TO.P,C7,1*%
%TO.N,GD-Cool*%
X78000000Y-73500000D03*
%TD*%
%TO.P,C6,2*%
%TO.N,Com*%
X83000000Y-55000000D03*
%TO.P,C6,1*%
%TO.N,GD-Warm*%
X78000000Y-55000000D03*
%TD*%
D27*
%TO.P,C5,2*%
%TO.N,Com*%
X48500000Y-81500000D03*
D28*
%TO.P,C5,1*%
%TO.N,12V*%
X48500000Y-86500000D03*
%TD*%
D27*
%TO.P,C4,2*%
%TO.N,Com*%
X48000000Y-47500000D03*
D28*
%TO.P,C4,1*%
%TO.N,12V*%
X48000000Y-42500000D03*
%TD*%
D22*
%TO.P,C3,2*%
%TO.N,Com*%
X85500000Y-69500000D03*
D19*
%TO.P,C3,1*%
%TO.N,12V*%
X85500000Y-67500000D03*
%TD*%
D22*
%TO.P,C2,2*%
%TO.N,Com*%
X85500000Y-59000000D03*
%TO.P,C2,1*%
%TO.N,12V*%
X85500000Y-64000000D03*
%TD*%
D27*
%TO.P,C1,2*%
%TO.N,Com*%
X117500000Y-43000000D03*
D28*
%TO.P,C1,1*%
%TO.N,Net-(C1-Pad1)*%
X112500000Y-43000000D03*
%TD*%
D29*
%TO.N,12V*%
X68500000Y-81000000D02*
X71500000Y-78000000D01*
X71500000Y-78000000D02*
X71500000Y-70000000D01*
X74500000Y-70000000D02*
X80000000Y-64500000D01*
X71500000Y-70000000D02*
X74500000Y-70000000D01*
X68500000Y-47500000D02*
X71500000Y-50500000D01*
X71500000Y-50500000D02*
X71500000Y-59500000D01*
X75000000Y-59500000D02*
X80000000Y-64500000D01*
X71500000Y-59500000D02*
X75000000Y-59500000D01*
X68500000Y-81000000D02*
X68500000Y-86000000D01*
X78500000Y-81000000D02*
X78500000Y-86000000D01*
X88500000Y-81000000D02*
X88500000Y-86000000D01*
X75500000Y-78000000D02*
X78500000Y-81000000D01*
X71500000Y-78000000D02*
X75500000Y-78000000D01*
X85500000Y-78000000D02*
X88500000Y-81000000D01*
X75500000Y-78000000D02*
X85500000Y-78000000D01*
X61500000Y-78000000D02*
X58500000Y-81000000D01*
X71500000Y-78000000D02*
X61500000Y-78000000D01*
X58500000Y-81000000D02*
X58500000Y-86000000D01*
X49000000Y-86000000D02*
X48500000Y-86500000D01*
X58500000Y-86000000D02*
X49000000Y-86000000D01*
X43000000Y-86500000D02*
X39000000Y-82500000D01*
X48500000Y-86500000D02*
X43000000Y-86500000D01*
X68500000Y-47500000D02*
X68500000Y-42500000D01*
X58500000Y-47500000D02*
X58500000Y-42500000D01*
X78500000Y-47500000D02*
X78500000Y-42500000D01*
X88500000Y-47500000D02*
X88500000Y-42500000D01*
X75500000Y-50500000D02*
X78500000Y-47500000D01*
X71500000Y-50500000D02*
X75500000Y-50500000D01*
X85500000Y-50500000D02*
X88500000Y-47500000D01*
X75500000Y-50500000D02*
X85500000Y-50500000D01*
X61500000Y-50500000D02*
X58500000Y-47500000D01*
X71500000Y-50500000D02*
X61500000Y-50500000D01*
X58500000Y-42500000D02*
X48000000Y-42500000D01*
X39500000Y-42500000D02*
X38000000Y-44000000D01*
X48000000Y-42500000D02*
X39500000Y-42500000D01*
X85500000Y-50500000D02*
X96000000Y-50500000D01*
X96000000Y-50500000D02*
X99500000Y-47000000D01*
X101000000Y-42460000D02*
X104000000Y-42460000D01*
X99500000Y-43960000D02*
X101000000Y-42460000D01*
X99500000Y-47000000D02*
X99500000Y-43960000D01*
X107960000Y-42460000D02*
X108000000Y-42500000D01*
X104000000Y-42460000D02*
X107960000Y-42460000D01*
D30*
X85000000Y-64500000D02*
X85500000Y-64000000D01*
X80000000Y-64500000D02*
X85000000Y-64500000D01*
X85500000Y-64000000D02*
X85500000Y-67500000D01*
X85500000Y-67500000D02*
X87500000Y-67500000D01*
X88540000Y-68540000D02*
X90500000Y-68540000D01*
X87500000Y-67500000D02*
X88540000Y-68540000D01*
X90650000Y-57770000D02*
X91920000Y-56500000D01*
X90650000Y-59040000D02*
X90650000Y-57770000D01*
D31*
%TO.N,GD-Warm*%
X90500000Y-66000000D02*
X90500000Y-64500000D01*
X90500000Y-64500000D02*
X87500000Y-61500000D01*
X84500000Y-61500000D02*
X78000000Y-55000000D01*
X87500000Y-61500000D02*
X84500000Y-61500000D01*
X78000000Y-55000000D02*
X75000000Y-55000000D01*
%TO.N,GD-Cool*%
X90500000Y-71080000D02*
X85580000Y-76000000D01*
X80500000Y-76000000D02*
X78000000Y-73500000D01*
X85580000Y-76000000D02*
X80500000Y-76000000D01*
X78000000Y-73500000D02*
X75000000Y-73500000D01*
D29*
%TO.N,Net-(F1-Pad2)*%
X42000000Y-55000000D02*
X47000000Y-55000000D01*
X48000000Y-55000000D02*
X57500000Y-64500000D01*
X47000000Y-55000000D02*
X48000000Y-55000000D01*
X55300000Y-64500000D02*
X50600000Y-69200000D01*
X57500000Y-64500000D02*
X55300000Y-64500000D01*
%TO.N,12ish*%
X104000000Y-45000000D02*
X109000000Y-45000000D01*
X112540000Y-51960000D02*
X112540000Y-58500000D01*
X112540000Y-48540000D02*
X112540000Y-51960000D01*
D30*
X122750000Y-46750000D02*
X110750000Y-46750000D01*
X124500000Y-51420000D02*
X124500000Y-48500000D01*
X124500000Y-48500000D02*
X122750000Y-46750000D01*
D29*
X110750000Y-46750000D02*
X112540000Y-48540000D01*
D30*
X123000000Y-52920000D02*
X124500000Y-51420000D01*
D29*
X109000000Y-45000000D02*
X110750000Y-46750000D01*
D31*
%TO.N,Brightness*%
X123000000Y-68460000D02*
X123000000Y-58000000D01*
X117494000Y-73966000D02*
X123000000Y-68460000D01*
%TO.N,Color*%
X123000000Y-55460000D02*
X124500000Y-56960000D01*
X124500000Y-69500000D02*
X117494000Y-76506000D01*
X124500000Y-56960000D02*
X124500000Y-69500000D01*
%TO.N,On_Off*%
X114000000Y-78092000D02*
X117494000Y-81586000D01*
X114000000Y-60650000D02*
X114000000Y-78092000D01*
X120460000Y-54190000D02*
X114000000Y-60650000D01*
%TO.N,Auto_Man*%
X120460000Y-56730000D02*
X120460000Y-61540000D01*
X120460000Y-61540000D02*
X115500000Y-66500000D01*
X115500000Y-77052000D02*
X117494000Y-79046000D01*
X115500000Y-66500000D02*
X115500000Y-77052000D01*
%TO.N,PWM-Warm*%
X99368000Y-66000000D02*
X102254000Y-68886000D01*
X98120000Y-66000000D02*
X99368000Y-66000000D01*
X95730000Y-59040000D02*
X98000000Y-61310000D01*
X98000000Y-65880000D02*
X98120000Y-66000000D01*
X98000000Y-61310000D02*
X98000000Y-65880000D01*
%TO.N,PWM-Cool*%
X101908000Y-71080000D02*
X102254000Y-71426000D01*
X98120000Y-71080000D02*
X101908000Y-71080000D01*
X93190000Y-66150000D02*
X98120000Y-71080000D01*
X93190000Y-59040000D02*
X93190000Y-66150000D01*
D29*
%TO.N,Net-(J6-Pad2)*%
X60500000Y-54460000D02*
X60460000Y-54500000D01*
D31*
%TO.N,Net-(Q2-Pad1)*%
X63500000Y-55000000D02*
X63000000Y-54500000D01*
X67380000Y-55000000D02*
X63500000Y-55000000D01*
D29*
%TO.N,Net-(J7-Pad2)*%
X60500000Y-72040000D02*
X60540000Y-72000000D01*
D31*
%TO.N,Net-(Q3-Pad1)*%
X64580000Y-73500000D02*
X63080000Y-72000000D01*
X67380000Y-73500000D02*
X64580000Y-73500000D01*
D30*
%TO.N,3.3V*%
X107460000Y-78920000D02*
X107460000Y-58500000D01*
X102254000Y-84126000D02*
X107460000Y-78920000D01*
%TD*%
M02*
