%TF.GenerationSoftware,KiCad,Pcbnew,(5.1.6-0-10_14)*%
%TF.CreationDate,2020-08-18T03:30:43-05:00*%
%TF.ProjectId,Main,4d61696e-2e6b-4696-9361-645f70636258,rev?*%
%TF.SameCoordinates,Original*%
%TF.FileFunction,Copper,L2,Bot*%
%TF.FilePolarity,Positive*%
%FSLAX46Y46*%
G04 Gerber Fmt 4.6, Leading zero omitted, Abs format (unit mm)*
G04 Created by KiCad (PCBNEW (5.1.6-0-10_14)) date 2020-08-18 03:30:43*
%MOMM*%
%LPD*%
G01*
G04 APERTURE LIST*
%TA.AperFunction,ComponentPad*%
%ADD10C,1.970000*%
%TD*%
%TA.AperFunction,ComponentPad*%
%ADD11C,4.800000*%
%TD*%
%TA.AperFunction,ComponentPad*%
%ADD12C,1.950000*%
%TD*%
%TA.AperFunction,ComponentPad*%
%ADD13R,1.950000X1.950000*%
%TD*%
%TA.AperFunction,ComponentPad*%
%ADD14C,4.400000*%
%TD*%
%TA.AperFunction,ComponentPad*%
%ADD15C,1.524000*%
%TD*%
%TA.AperFunction,ComponentPad*%
%ADD16C,1.750000*%
%TD*%
%TA.AperFunction,ComponentPad*%
%ADD17C,1.381000*%
%TD*%
%TA.AperFunction,ComponentPad*%
%ADD18O,1.600000X1.600000*%
%TD*%
%TA.AperFunction,ComponentPad*%
%ADD19R,1.600000X1.600000*%
%TD*%
%TA.AperFunction,ComponentPad*%
%ADD20O,1.400000X1.400000*%
%TD*%
%TA.AperFunction,ComponentPad*%
%ADD21C,1.400000*%
%TD*%
%TA.AperFunction,ComponentPad*%
%ADD22C,1.600000*%
%TD*%
%TA.AperFunction,ComponentPad*%
%ADD23O,1.905000X2.000000*%
%TD*%
%TA.AperFunction,ComponentPad*%
%ADD24R,1.905000X2.000000*%
%TD*%
%TA.AperFunction,ComponentPad*%
%ADD25O,2.000000X1.905000*%
%TD*%
%TA.AperFunction,ComponentPad*%
%ADD26R,2.000000X1.905000*%
%TD*%
%TA.AperFunction,ComponentPad*%
%ADD27C,2.000000*%
%TD*%
%TA.AperFunction,ComponentPad*%
%ADD28R,2.000000X2.000000*%
%TD*%
%TA.AperFunction,Conductor*%
%ADD29C,1.000000*%
%TD*%
%TA.AperFunction,Conductor*%
%ADD30C,2.000000*%
%TD*%
%TA.AperFunction,Conductor*%
%ADD31C,0.254000*%
%TD*%
G04 APERTURE END LIST*
D10*
%TO.P,F1,2*%
%TO.N,Net-(F1-Pad2)*%
X58000000Y-64500000D03*
%TO.P,F1,1*%
%TO.N,12V*%
X79840000Y-64500000D03*
%TD*%
D11*
%TO.P,J2,3*%
%TO.N,Com*%
X47600000Y-74000000D03*
%TO.P,J2,2*%
X44800000Y-69200000D03*
%TO.P,J2,1*%
%TO.N,Net-(F1-Pad2)*%
X50600000Y-69200000D03*
%TD*%
D12*
%TO.P,J1,2*%
%TO.N,Net-(F1-Pad2)*%
X47000000Y-55000000D03*
D13*
%TO.P,J1,1*%
%TO.N,Com*%
X47000000Y-60000000D03*
D12*
%TO.P,J1,2*%
%TO.N,Net-(F1-Pad2)*%
X42000000Y-55000000D03*
D13*
%TO.P,J1,1*%
%TO.N,Com*%
X42000000Y-60000000D03*
%TD*%
D14*
%TO.P,H4,1*%
%TO.N,N/C*%
X40000000Y-38000000D03*
%TD*%
%TO.P,H3,1*%
%TO.N,N/C*%
X122000000Y-38000000D03*
%TD*%
%TO.P,H2,1*%
%TO.N,N/C*%
X122000000Y-90000000D03*
%TD*%
%TO.P,H1,1*%
%TO.N,N/C*%
X40000000Y-90000000D03*
%TD*%
D15*
%TO.P,XA1,11*%
%TO.N,Net-(XA1-Pad11)*%
X117494000Y-91746000D03*
%TO.P,XA1,12*%
%TO.N,Net-(XA1-Pad12)*%
X117494000Y-89206000D03*
%TO.P,XA1,13*%
%TO.N,Net-(XA1-Pad13)*%
X117494000Y-86666000D03*
%TO.P,XA1,14*%
%TO.N,Net-(XA1-Pad14)*%
X117494000Y-84126000D03*
%TO.P,XA1,15*%
%TO.N,On_Off*%
X117494000Y-81586000D03*
%TO.P,XA1,16*%
%TO.N,Auto_Man*%
X117494000Y-79046000D03*
%TO.P,XA1,17*%
%TO.N,Color*%
X117494000Y-76506000D03*
%TO.P,XA1,18*%
%TO.N,Brightness*%
X117494000Y-73966000D03*
%TO.P,XA1,19*%
%TO.N,Net-(XA1-Pad19)*%
X117494000Y-71426000D03*
%TO.P,XA1,20*%
%TO.N,Net-(XA1-Pad20)*%
X117494000Y-68886000D03*
%TO.P,XA1,1*%
%TO.N,PWM-Warm*%
X102254000Y-68886000D03*
%TO.P,XA1,2*%
%TO.N,PWM-Cool*%
X102254000Y-71426000D03*
%TO.P,XA1,3*%
%TO.N,Net-(XA1-Pad3)*%
X102254000Y-73966000D03*
%TO.P,XA1,4*%
%TO.N,Net-(XA1-Pad4)*%
X102254000Y-76506000D03*
%TO.P,XA1,5*%
%TO.N,Net-(XA1-Pad5)*%
X102254000Y-79046000D03*
%TO.P,XA1,6*%
%TO.N,Net-(XA1-Pad6)*%
X102254000Y-81586000D03*
%TO.P,XA1,7*%
%TO.N,3.3V*%
X102254000Y-84126000D03*
%TO.P,XA1,8*%
%TO.N,Net-(XA1-Pad8)*%
X102254000Y-86666000D03*
%TO.P,XA1,9*%
%TO.N,Com*%
X102254000Y-89206000D03*
%TO.P,XA1,10*%
%TO.N,Net-(XA1-Pad10)*%
X102254000Y-91746000D03*
%TD*%
D16*
%TO.P,U1,3*%
%TO.N,3.3V*%
X107460000Y-58500000D03*
%TO.P,U1,1*%
%TO.N,12ish*%
X112540000Y-58500000D03*
%TO.P,U1,2*%
%TO.N,Com*%
X110000000Y-58500000D03*
%TD*%
D13*
%TO.P,J7,1*%
%TO.N,12V*%
X58500000Y-81000000D03*
D12*
%TO.P,J7,2*%
%TO.N,Net-(J7-Pad2)*%
X63500000Y-81000000D03*
%TO.P,J7,3*%
%TO.N,12V*%
X68500000Y-81000000D03*
%TO.P,J7,4*%
%TO.N,Net-(J7-Pad2)*%
X73500000Y-81000000D03*
%TO.P,J7,5*%
%TO.N,12V*%
X78500000Y-81000000D03*
%TO.P,J7,6*%
%TO.N,Net-(J7-Pad2)*%
X83500000Y-81000000D03*
%TO.P,J7,7*%
%TO.N,12V*%
X88500000Y-81000000D03*
%TO.P,J7,8*%
%TO.N,Net-(J7-Pad2)*%
X93500000Y-81000000D03*
D13*
%TO.P,J7,1*%
%TO.N,12V*%
X58500000Y-86000000D03*
D12*
%TO.P,J7,2*%
%TO.N,Net-(J7-Pad2)*%
X63500000Y-86000000D03*
%TO.P,J7,3*%
%TO.N,12V*%
X68500000Y-86000000D03*
%TO.P,J7,4*%
%TO.N,Net-(J7-Pad2)*%
X73500000Y-86000000D03*
%TO.P,J7,5*%
%TO.N,12V*%
X78500000Y-86000000D03*
%TO.P,J7,6*%
%TO.N,Net-(J7-Pad2)*%
X83500000Y-86000000D03*
%TO.P,J7,7*%
%TO.N,12V*%
X88500000Y-86000000D03*
%TO.P,J7,8*%
%TO.N,Net-(J7-Pad2)*%
X93500000Y-86000000D03*
%TD*%
D13*
%TO.P,J6,1*%
%TO.N,12V*%
X58500000Y-42500000D03*
D12*
%TO.P,J6,2*%
%TO.N,Net-(J6-Pad2)*%
X63500000Y-42500000D03*
%TO.P,J6,3*%
%TO.N,12V*%
X68500000Y-42500000D03*
%TO.P,J6,4*%
%TO.N,Net-(J6-Pad2)*%
X73500000Y-42500000D03*
%TO.P,J6,5*%
%TO.N,12V*%
X78500000Y-42500000D03*
%TO.P,J6,6*%
%TO.N,Net-(J6-Pad2)*%
X83500000Y-42500000D03*
%TO.P,J6,7*%
%TO.N,12V*%
X88500000Y-42500000D03*
%TO.P,J6,8*%
%TO.N,Net-(J6-Pad2)*%
X93500000Y-42500000D03*
D13*
%TO.P,J6,1*%
%TO.N,12V*%
X58500000Y-47500000D03*
D12*
%TO.P,J6,2*%
%TO.N,Net-(J6-Pad2)*%
X63500000Y-47500000D03*
%TO.P,J6,3*%
%TO.N,12V*%
X68500000Y-47500000D03*
%TO.P,J6,4*%
%TO.N,Net-(J6-Pad2)*%
X73500000Y-47500000D03*
%TO.P,J6,5*%
%TO.N,12V*%
X78500000Y-47500000D03*
%TO.P,J6,6*%
%TO.N,Net-(J6-Pad2)*%
X83500000Y-47500000D03*
%TO.P,J6,7*%
%TO.N,12V*%
X88500000Y-47500000D03*
%TO.P,J6,8*%
%TO.N,Net-(J6-Pad2)*%
X93500000Y-47500000D03*
%TD*%
D17*
%TO.P,J4,1*%
%TO.N,Com*%
X97000000Y-56500000D03*
%TO.P,J4,2*%
%TO.N,PWM-Warm*%
X95730000Y-59040000D03*
%TO.P,J4,3*%
%TO.N,Com*%
X94460000Y-56500000D03*
%TO.P,J4,4*%
%TO.N,PWM-Cool*%
X93190000Y-59040000D03*
%TO.P,J4,5*%
%TO.N,12V*%
X91920000Y-56500000D03*
%TO.P,J4,6*%
X90650000Y-59040000D03*
%TD*%
%TO.P,J3,1*%
%TO.N,Brightness*%
X123000000Y-58000000D03*
%TO.P,J3,2*%
%TO.N,Auto_Man*%
X120460000Y-56730000D03*
%TO.P,J3,3*%
%TO.N,Color*%
X123000000Y-55460000D03*
%TO.P,J3,4*%
%TO.N,On_Off*%
X120460000Y-54190000D03*
%TO.P,J3,5*%
%TO.N,12ish*%
X123000000Y-52920000D03*
%TO.P,J3,6*%
%TO.N,Com*%
X120460000Y-51650000D03*
%TD*%
D18*
%TO.P,U2,8*%
%TO.N,N/C*%
X90500000Y-73620000D03*
%TO.P,U2,4*%
%TO.N,PWM-Warm*%
X98120000Y-66000000D03*
%TO.P,U2,7*%
%TO.N,GD-Cool*%
X90500000Y-71080000D03*
%TO.P,U2,3*%
%TO.N,Com*%
X98120000Y-68540000D03*
%TO.P,U2,6*%
%TO.N,12V*%
X90500000Y-68540000D03*
%TO.P,U2,2*%
%TO.N,PWM-Cool*%
X98120000Y-71080000D03*
%TO.P,U2,5*%
%TO.N,GD-Warm*%
X90500000Y-66000000D03*
D19*
%TO.P,U2,1*%
%TO.N,N/C*%
X98120000Y-73620000D03*
%TD*%
D20*
%TO.P,R-Bleeder1,2*%
%TO.N,Com*%
X38000000Y-49080000D03*
D21*
%TO.P,R-Bleeder1,1*%
%TO.N,12V*%
X38000000Y-44000000D03*
%TD*%
D18*
%TO.P,R3,2*%
%TO.N,Net-(Q3-Pad1)*%
X67380000Y-73500000D03*
D22*
%TO.P,R3,1*%
%TO.N,GD-Cool*%
X75000000Y-73500000D03*
%TD*%
D18*
%TO.P,R2,2*%
%TO.N,Net-(Q2-Pad1)*%
X67380000Y-55000000D03*
D22*
%TO.P,R2,1*%
%TO.N,GD-Warm*%
X75000000Y-55000000D03*
%TD*%
D20*
%TO.P,R1,2*%
%TO.N,12V*%
X108000000Y-42500000D03*
D21*
%TO.P,R1,1*%
%TO.N,Net-(C1-Pad1)*%
X108000000Y-47580000D03*
%TD*%
D23*
%TO.P,Q3,3*%
%TO.N,Com*%
X58000000Y-72000000D03*
%TO.P,Q3,2*%
%TO.N,Net-(J7-Pad2)*%
X60540000Y-72000000D03*
D24*
%TO.P,Q3,1*%
%TO.N,Net-(Q3-Pad1)*%
X63080000Y-72000000D03*
%TD*%
D23*
%TO.P,Q2,3*%
%TO.N,Com*%
X57920000Y-54500000D03*
%TO.P,Q2,2*%
%TO.N,Net-(J6-Pad2)*%
X60460000Y-54500000D03*
D24*
%TO.P,Q2,1*%
%TO.N,Net-(Q2-Pad1)*%
X63000000Y-54500000D03*
%TD*%
D25*
%TO.P,Q1,3*%
%TO.N,12V*%
X104000000Y-42460000D03*
%TO.P,Q1,2*%
%TO.N,12ish*%
X104000000Y-45000000D03*
D26*
%TO.P,Q1,1*%
%TO.N,Net-(C1-Pad1)*%
X104000000Y-47540000D03*
%TD*%
D18*
%TO.P,D1,2*%
%TO.N,Com*%
X39000000Y-74880000D03*
D19*
%TO.P,D1,1*%
%TO.N,12V*%
X39000000Y-82500000D03*
%TD*%
D22*
%TO.P,C7,2*%
%TO.N,Com*%
X83000000Y-73500000D03*
%TO.P,C7,1*%
%TO.N,GD-Cool*%
X78000000Y-73500000D03*
%TD*%
%TO.P,C6,2*%
%TO.N,Com*%
X83000000Y-55000000D03*
%TO.P,C6,1*%
%TO.N,GD-Warm*%
X78000000Y-55000000D03*
%TD*%
D27*
%TO.P,C5,2*%
%TO.N,Com*%
X48500000Y-81500000D03*
D28*
%TO.P,C5,1*%
%TO.N,12V*%
X48500000Y-86500000D03*
%TD*%
D27*
%TO.P,C4,2*%
%TO.N,Com*%
X48000000Y-47500000D03*
D28*
%TO.P,C4,1*%
%TO.N,12V*%
X48000000Y-42500000D03*
%TD*%
D22*
%TO.P,C3,2*%
%TO.N,Com*%
X85500000Y-69500000D03*
D19*
%TO.P,C3,1*%
%TO.N,12V*%
X85500000Y-67500000D03*
%TD*%
D22*
%TO.P,C2,2*%
%TO.N,Com*%
X85500000Y-59000000D03*
%TO.P,C2,1*%
%TO.N,12V*%
X85500000Y-64000000D03*
%TD*%
D27*
%TO.P,C1,2*%
%TO.N,Com*%
X117500000Y-43000000D03*
D28*
%TO.P,C1,1*%
%TO.N,Net-(C1-Pad1)*%
X112500000Y-43000000D03*
%TD*%
D29*
%TO.N,Net-(C1-Pad1)*%
X107960000Y-47540000D02*
X108000000Y-47580000D01*
X104000000Y-47540000D02*
X107960000Y-47540000D01*
X108000000Y-47500000D02*
X112500000Y-43000000D01*
X108000000Y-47580000D02*
X108000000Y-47500000D01*
%TO.N,12V*%
X85690000Y-64000000D02*
X90650000Y-59040000D01*
X85500000Y-64000000D02*
X85690000Y-64000000D01*
D30*
%TO.N,Net-(J6-Pad2)*%
X63500000Y-42500000D02*
X68500000Y-37500000D01*
X88500000Y-37500000D02*
X93500000Y-42500000D01*
X93500000Y-42500000D02*
X93500000Y-47500000D01*
X83500000Y-47500000D02*
X83500000Y-42500000D01*
X83500000Y-38000000D02*
X83000000Y-37500000D01*
X83500000Y-42500000D02*
X83500000Y-38000000D01*
X83000000Y-37500000D02*
X88500000Y-37500000D01*
X73500000Y-47500000D02*
X73500000Y-42500000D01*
X73500000Y-38000000D02*
X74000000Y-37500000D01*
X73500000Y-42500000D02*
X73500000Y-38000000D01*
X74000000Y-37500000D02*
X83000000Y-37500000D01*
X68500000Y-37500000D02*
X74000000Y-37500000D01*
X63500000Y-47500000D02*
X63500000Y-42500000D01*
X63500000Y-47500000D02*
X60500000Y-50500000D01*
X60500000Y-54460000D02*
X60460000Y-54500000D01*
X60500000Y-50500000D02*
X60500000Y-54460000D01*
%TO.N,Net-(J7-Pad2)*%
X63500000Y-81000000D02*
X63500000Y-86000000D01*
X73500000Y-81000000D02*
X73500000Y-86000000D01*
X83500000Y-81000000D02*
X83500000Y-86000000D01*
X93500000Y-81000000D02*
X93500000Y-86000000D01*
X93500000Y-86000000D02*
X88500000Y-91000000D01*
X68500000Y-91000000D02*
X63500000Y-86000000D01*
X73500000Y-86000000D02*
X73500000Y-91000000D01*
X73500000Y-91000000D02*
X68500000Y-91000000D01*
X83500000Y-90500000D02*
X84000000Y-91000000D01*
X83500000Y-86000000D02*
X83500000Y-90500000D01*
X84000000Y-91000000D02*
X73500000Y-91000000D01*
X88500000Y-91000000D02*
X84000000Y-91000000D01*
X63500000Y-81000000D02*
X63500000Y-79000000D01*
X60540000Y-76040000D02*
X60540000Y-72000000D01*
X63500000Y-79000000D02*
X60540000Y-76040000D01*
%TD*%
D31*
%TO.N,Com*%
G36*
X122649291Y-34720850D02*
G01*
X123273848Y-34909416D01*
X123849883Y-35215699D01*
X124355461Y-35628038D01*
X124771318Y-36130721D01*
X125081616Y-36704606D01*
X125274537Y-37327834D01*
X125345950Y-38007276D01*
X125345951Y-89968006D01*
X125279150Y-90649290D01*
X125090585Y-91273847D01*
X124784300Y-91849885D01*
X124371960Y-92355464D01*
X123869279Y-92771318D01*
X123295394Y-93081616D01*
X122672165Y-93274538D01*
X121992725Y-93345950D01*
X40031984Y-93345950D01*
X39350710Y-93279150D01*
X38726153Y-93090585D01*
X38150115Y-92784300D01*
X37644536Y-92371960D01*
X37228682Y-91869279D01*
X36918384Y-91295394D01*
X36725462Y-90672165D01*
X36654050Y-89992725D01*
X36654050Y-89720777D01*
X37165000Y-89720777D01*
X37165000Y-90279223D01*
X37273948Y-90826939D01*
X37487656Y-91342876D01*
X37797912Y-91807207D01*
X38192793Y-92202088D01*
X38657124Y-92512344D01*
X39173061Y-92726052D01*
X39720777Y-92835000D01*
X40279223Y-92835000D01*
X40826939Y-92726052D01*
X41342876Y-92512344D01*
X41807207Y-92202088D01*
X42202088Y-91807207D01*
X42512344Y-91342876D01*
X42726052Y-90826939D01*
X42835000Y-90279223D01*
X42835000Y-89720777D01*
X42726052Y-89173061D01*
X42512344Y-88657124D01*
X42202088Y-88192793D01*
X41807207Y-87797912D01*
X41342876Y-87487656D01*
X40826939Y-87273948D01*
X40279223Y-87165000D01*
X39720777Y-87165000D01*
X39173061Y-87273948D01*
X38657124Y-87487656D01*
X38192793Y-87797912D01*
X37797912Y-88192793D01*
X37487656Y-88657124D01*
X37273948Y-89173061D01*
X37165000Y-89720777D01*
X36654050Y-89720777D01*
X36654050Y-85500000D01*
X46861928Y-85500000D01*
X46861928Y-87500000D01*
X46874188Y-87624482D01*
X46910498Y-87744180D01*
X46969463Y-87854494D01*
X47048815Y-87951185D01*
X47145506Y-88030537D01*
X47255820Y-88089502D01*
X47375518Y-88125812D01*
X47500000Y-88138072D01*
X49500000Y-88138072D01*
X49624482Y-88125812D01*
X49744180Y-88089502D01*
X49854494Y-88030537D01*
X49951185Y-87951185D01*
X50030537Y-87854494D01*
X50089502Y-87744180D01*
X50125812Y-87624482D01*
X50138072Y-87500000D01*
X50138072Y-85500000D01*
X50125812Y-85375518D01*
X50089502Y-85255820D01*
X50030537Y-85145506D01*
X49951185Y-85048815D01*
X49922167Y-85025000D01*
X56886928Y-85025000D01*
X56886928Y-86975000D01*
X56899188Y-87099482D01*
X56935498Y-87219180D01*
X56994463Y-87329494D01*
X57073815Y-87426185D01*
X57170506Y-87505537D01*
X57280820Y-87564502D01*
X57400518Y-87600812D01*
X57525000Y-87613072D01*
X59475000Y-87613072D01*
X59599482Y-87600812D01*
X59719180Y-87564502D01*
X59829494Y-87505537D01*
X59926185Y-87426185D01*
X60005537Y-87329494D01*
X60064502Y-87219180D01*
X60100812Y-87099482D01*
X60113072Y-86975000D01*
X60113072Y-85025000D01*
X60100812Y-84900518D01*
X60064502Y-84780820D01*
X60005537Y-84670506D01*
X59926185Y-84573815D01*
X59829494Y-84494463D01*
X59719180Y-84435498D01*
X59599482Y-84399188D01*
X59475000Y-84386928D01*
X57525000Y-84386928D01*
X57400518Y-84399188D01*
X57280820Y-84435498D01*
X57170506Y-84494463D01*
X57073815Y-84573815D01*
X56994463Y-84670506D01*
X56935498Y-84780820D01*
X56899188Y-84900518D01*
X56886928Y-85025000D01*
X49922167Y-85025000D01*
X49854494Y-84969463D01*
X49744180Y-84910498D01*
X49624482Y-84874188D01*
X49500000Y-84861928D01*
X47500000Y-84861928D01*
X47375518Y-84874188D01*
X47255820Y-84910498D01*
X47145506Y-84969463D01*
X47048815Y-85048815D01*
X46969463Y-85145506D01*
X46910498Y-85255820D01*
X46874188Y-85375518D01*
X46861928Y-85500000D01*
X36654050Y-85500000D01*
X36654050Y-81700000D01*
X37561928Y-81700000D01*
X37561928Y-83300000D01*
X37574188Y-83424482D01*
X37610498Y-83544180D01*
X37669463Y-83654494D01*
X37748815Y-83751185D01*
X37845506Y-83830537D01*
X37955820Y-83889502D01*
X38075518Y-83925812D01*
X38200000Y-83938072D01*
X39800000Y-83938072D01*
X39924482Y-83925812D01*
X40044180Y-83889502D01*
X40154494Y-83830537D01*
X40251185Y-83751185D01*
X40330537Y-83654494D01*
X40389502Y-83544180D01*
X40425812Y-83424482D01*
X40438072Y-83300000D01*
X40438072Y-82635413D01*
X47544192Y-82635413D01*
X47639956Y-82899814D01*
X47929571Y-83040704D01*
X48241108Y-83122384D01*
X48562595Y-83141718D01*
X48881675Y-83097961D01*
X49186088Y-82992795D01*
X49360044Y-82899814D01*
X49455808Y-82635413D01*
X48500000Y-81679605D01*
X47544192Y-82635413D01*
X40438072Y-82635413D01*
X40438072Y-81700000D01*
X40425812Y-81575518D01*
X40421892Y-81562595D01*
X46858282Y-81562595D01*
X46902039Y-81881675D01*
X47007205Y-82186088D01*
X47100186Y-82360044D01*
X47364587Y-82455808D01*
X48320395Y-81500000D01*
X48679605Y-81500000D01*
X49635413Y-82455808D01*
X49899814Y-82360044D01*
X50040704Y-82070429D01*
X50122384Y-81758892D01*
X50141718Y-81437405D01*
X50097961Y-81118325D01*
X49992795Y-80813912D01*
X49899814Y-80639956D01*
X49635413Y-80544192D01*
X48679605Y-81500000D01*
X48320395Y-81500000D01*
X47364587Y-80544192D01*
X47100186Y-80639956D01*
X46959296Y-80929571D01*
X46877616Y-81241108D01*
X46858282Y-81562595D01*
X40421892Y-81562595D01*
X40389502Y-81455820D01*
X40330537Y-81345506D01*
X40251185Y-81248815D01*
X40154494Y-81169463D01*
X40044180Y-81110498D01*
X39924482Y-81074188D01*
X39800000Y-81061928D01*
X38200000Y-81061928D01*
X38075518Y-81074188D01*
X37955820Y-81110498D01*
X37845506Y-81169463D01*
X37748815Y-81248815D01*
X37669463Y-81345506D01*
X37610498Y-81455820D01*
X37574188Y-81575518D01*
X37561928Y-81700000D01*
X36654050Y-81700000D01*
X36654050Y-80364587D01*
X47544192Y-80364587D01*
X48500000Y-81320395D01*
X49455808Y-80364587D01*
X49360044Y-80100186D01*
X49205491Y-80025000D01*
X56886928Y-80025000D01*
X56886928Y-81975000D01*
X56899188Y-82099482D01*
X56935498Y-82219180D01*
X56994463Y-82329494D01*
X57073815Y-82426185D01*
X57170506Y-82505537D01*
X57280820Y-82564502D01*
X57400518Y-82600812D01*
X57525000Y-82613072D01*
X59475000Y-82613072D01*
X59599482Y-82600812D01*
X59719180Y-82564502D01*
X59829494Y-82505537D01*
X59926185Y-82426185D01*
X60005537Y-82329494D01*
X60064502Y-82219180D01*
X60100812Y-82099482D01*
X60113072Y-81975000D01*
X60113072Y-80025000D01*
X60100812Y-79900518D01*
X60064502Y-79780820D01*
X60005537Y-79670506D01*
X59926185Y-79573815D01*
X59829494Y-79494463D01*
X59719180Y-79435498D01*
X59599482Y-79399188D01*
X59475000Y-79386928D01*
X57525000Y-79386928D01*
X57400518Y-79399188D01*
X57280820Y-79435498D01*
X57170506Y-79494463D01*
X57073815Y-79573815D01*
X56994463Y-79670506D01*
X56935498Y-79780820D01*
X56899188Y-79900518D01*
X56886928Y-80025000D01*
X49205491Y-80025000D01*
X49070429Y-79959296D01*
X48758892Y-79877616D01*
X48437405Y-79858282D01*
X48118325Y-79902039D01*
X47813912Y-80007205D01*
X47639956Y-80100186D01*
X47544192Y-80364587D01*
X36654050Y-80364587D01*
X36654050Y-75229040D01*
X37608091Y-75229040D01*
X37702930Y-75493881D01*
X37847615Y-75735131D01*
X38036586Y-75943519D01*
X38262580Y-76111037D01*
X38516913Y-76231246D01*
X38650961Y-76271904D01*
X38873000Y-76149915D01*
X38873000Y-75007000D01*
X39127000Y-75007000D01*
X39127000Y-76149915D01*
X39349039Y-76271904D01*
X39483087Y-76231246D01*
X39693006Y-76132029D01*
X45647576Y-76132029D01*
X45911740Y-76539755D01*
X46439661Y-76820317D01*
X47012173Y-76992496D01*
X47607275Y-77049676D01*
X48202098Y-76989658D01*
X48773782Y-76814750D01*
X49288260Y-76539755D01*
X49552424Y-76132029D01*
X47600000Y-74179605D01*
X45647576Y-76132029D01*
X39693006Y-76132029D01*
X39737420Y-76111037D01*
X39963414Y-75943519D01*
X40152385Y-75735131D01*
X40297070Y-75493881D01*
X40391909Y-75229040D01*
X40270624Y-75007000D01*
X39127000Y-75007000D01*
X38873000Y-75007000D01*
X37729376Y-75007000D01*
X37608091Y-75229040D01*
X36654050Y-75229040D01*
X36654050Y-74530960D01*
X37608091Y-74530960D01*
X37729376Y-74753000D01*
X38873000Y-74753000D01*
X38873000Y-73610085D01*
X39127000Y-73610085D01*
X39127000Y-74753000D01*
X40270624Y-74753000D01*
X40391909Y-74530960D01*
X40297070Y-74266119D01*
X40152385Y-74024869D01*
X39963414Y-73816481D01*
X39737420Y-73648963D01*
X39483087Y-73528754D01*
X39349039Y-73488096D01*
X39127000Y-73610085D01*
X38873000Y-73610085D01*
X38650961Y-73488096D01*
X38516913Y-73528754D01*
X38262580Y-73648963D01*
X38036586Y-73816481D01*
X37847615Y-74024869D01*
X37702930Y-74266119D01*
X37608091Y-74530960D01*
X36654050Y-74530960D01*
X36654050Y-71332029D01*
X42847576Y-71332029D01*
X43111740Y-71739755D01*
X43639661Y-72020317D01*
X44212173Y-72192496D01*
X44807275Y-72249676D01*
X45220372Y-72207994D01*
X45060245Y-72311740D01*
X44779683Y-72839661D01*
X44607504Y-73412173D01*
X44550324Y-74007275D01*
X44610342Y-74602098D01*
X44785250Y-75173782D01*
X45060245Y-75688260D01*
X45467971Y-75952424D01*
X47420395Y-74000000D01*
X47406253Y-73985858D01*
X47585858Y-73806253D01*
X47600000Y-73820395D01*
X47614143Y-73806253D01*
X47793748Y-73985858D01*
X47779605Y-74000000D01*
X49732029Y-75952424D01*
X50139755Y-75688260D01*
X50420317Y-75160339D01*
X50592496Y-74587827D01*
X50649676Y-73992725D01*
X50589658Y-73397902D01*
X50414750Y-72826218D01*
X50172961Y-72373863D01*
X56447622Y-72373863D01*
X56541121Y-72670446D01*
X56690684Y-72943089D01*
X56890563Y-73181315D01*
X57133077Y-73375969D01*
X57408906Y-73519571D01*
X57627020Y-73590563D01*
X57873000Y-73470594D01*
X57873000Y-72127000D01*
X56574430Y-72127000D01*
X56447622Y-72373863D01*
X50172961Y-72373863D01*
X50139755Y-72311740D01*
X49897365Y-72154697D01*
X50301079Y-72235000D01*
X50898921Y-72235000D01*
X51485277Y-72118367D01*
X52037612Y-71889582D01*
X52431884Y-71626137D01*
X56447622Y-71626137D01*
X56574430Y-71873000D01*
X57873000Y-71873000D01*
X57873000Y-70529406D01*
X58127000Y-70529406D01*
X58127000Y-71873000D01*
X58147000Y-71873000D01*
X58147000Y-72127000D01*
X58127000Y-72127000D01*
X58127000Y-73470594D01*
X58372980Y-73590563D01*
X58591094Y-73519571D01*
X58866923Y-73375969D01*
X58905001Y-73345406D01*
X58905000Y-75959680D01*
X58897089Y-76040000D01*
X58905000Y-76120319D01*
X58905000Y-76120321D01*
X58928657Y-76360515D01*
X59022148Y-76668714D01*
X59173969Y-76952751D01*
X59378286Y-77201714D01*
X59440687Y-77252925D01*
X61865001Y-79677239D01*
X61865000Y-80919678D01*
X61865000Y-80919679D01*
X61865001Y-85919671D01*
X61857089Y-86000000D01*
X61888658Y-86320516D01*
X61982148Y-86628714D01*
X61982149Y-86628715D01*
X62133970Y-86912752D01*
X62338287Y-87161714D01*
X62400682Y-87212920D01*
X67287080Y-92099319D01*
X67338286Y-92161714D01*
X67587248Y-92366031D01*
X67859362Y-92511479D01*
X67871285Y-92517852D01*
X68179483Y-92611343D01*
X68500000Y-92642911D01*
X68580322Y-92635000D01*
X73419678Y-92635000D01*
X73500000Y-92642911D01*
X73580322Y-92635000D01*
X83919678Y-92635000D01*
X84000000Y-92642911D01*
X84080322Y-92635000D01*
X88419681Y-92635000D01*
X88500000Y-92642911D01*
X88580319Y-92635000D01*
X88580322Y-92635000D01*
X88820516Y-92611343D01*
X89128715Y-92517852D01*
X89412752Y-92366031D01*
X89661714Y-92161714D01*
X89712925Y-92099313D01*
X90203830Y-91608408D01*
X100857000Y-91608408D01*
X100857000Y-91883592D01*
X100910686Y-92153490D01*
X101015995Y-92407727D01*
X101168880Y-92636535D01*
X101363465Y-92831120D01*
X101592273Y-92984005D01*
X101846510Y-93089314D01*
X102116408Y-93143000D01*
X102391592Y-93143000D01*
X102661490Y-93089314D01*
X102915727Y-92984005D01*
X103144535Y-92831120D01*
X103339120Y-92636535D01*
X103492005Y-92407727D01*
X103597314Y-92153490D01*
X103651000Y-91883592D01*
X103651000Y-91608408D01*
X103597314Y-91338510D01*
X103492005Y-91084273D01*
X103339120Y-90855465D01*
X103144535Y-90660880D01*
X102915727Y-90507995D01*
X102844057Y-90478308D01*
X102857023Y-90473636D01*
X102972980Y-90411656D01*
X103039960Y-90171565D01*
X102254000Y-89385605D01*
X101468040Y-90171565D01*
X101535020Y-90411656D01*
X101670760Y-90475485D01*
X101592273Y-90507995D01*
X101363465Y-90660880D01*
X101168880Y-90855465D01*
X101015995Y-91084273D01*
X100910686Y-91338510D01*
X100857000Y-91608408D01*
X90203830Y-91608408D01*
X92534221Y-89278017D01*
X100852090Y-89278017D01*
X100893078Y-89550133D01*
X100986364Y-89809023D01*
X101048344Y-89924980D01*
X101288435Y-89991960D01*
X102074395Y-89206000D01*
X102433605Y-89206000D01*
X103219565Y-89991960D01*
X103459656Y-89924980D01*
X103576756Y-89675952D01*
X103643023Y-89408865D01*
X103655910Y-89133983D01*
X103614922Y-88861867D01*
X103521636Y-88602977D01*
X103459656Y-88487020D01*
X103219565Y-88420040D01*
X102433605Y-89206000D01*
X102074395Y-89206000D01*
X101288435Y-88420040D01*
X101048344Y-88487020D01*
X100931244Y-88736048D01*
X100864977Y-89003135D01*
X100852090Y-89278017D01*
X92534221Y-89278017D01*
X94599319Y-87212920D01*
X94661714Y-87161714D01*
X94866031Y-86912752D01*
X95017852Y-86628715D01*
X95111343Y-86320516D01*
X95135000Y-86080322D01*
X95142911Y-86000000D01*
X95135000Y-85919678D01*
X95135000Y-80919678D01*
X95111343Y-80679484D01*
X95017852Y-80371285D01*
X94866031Y-80087248D01*
X94661714Y-79838286D01*
X94412751Y-79633969D01*
X94128714Y-79482148D01*
X93820515Y-79388657D01*
X93500000Y-79357089D01*
X93179484Y-79388657D01*
X92871285Y-79482148D01*
X92587248Y-79633969D01*
X92338286Y-79838286D01*
X92133969Y-80087249D01*
X91982148Y-80371286D01*
X91888657Y-80679485D01*
X91865000Y-80919679D01*
X91865001Y-85322760D01*
X87822762Y-89365000D01*
X85135000Y-89365000D01*
X85135000Y-85841429D01*
X86890000Y-85841429D01*
X86890000Y-86158571D01*
X86951871Y-86469620D01*
X87073237Y-86762621D01*
X87249431Y-87026315D01*
X87473685Y-87250569D01*
X87737379Y-87426763D01*
X88030380Y-87548129D01*
X88341429Y-87610000D01*
X88658571Y-87610000D01*
X88969620Y-87548129D01*
X89262621Y-87426763D01*
X89526315Y-87250569D01*
X89750569Y-87026315D01*
X89926763Y-86762621D01*
X90048129Y-86469620D01*
X90110000Y-86158571D01*
X90110000Y-85841429D01*
X90048129Y-85530380D01*
X89926763Y-85237379D01*
X89750569Y-84973685D01*
X89526315Y-84749431D01*
X89262621Y-84573237D01*
X88969620Y-84451871D01*
X88658571Y-84390000D01*
X88341429Y-84390000D01*
X88030380Y-84451871D01*
X87737379Y-84573237D01*
X87473685Y-84749431D01*
X87249431Y-84973685D01*
X87073237Y-85237379D01*
X86951871Y-85530380D01*
X86890000Y-85841429D01*
X85135000Y-85841429D01*
X85135000Y-80919678D01*
X85127294Y-80841429D01*
X86890000Y-80841429D01*
X86890000Y-81158571D01*
X86951871Y-81469620D01*
X87073237Y-81762621D01*
X87249431Y-82026315D01*
X87473685Y-82250569D01*
X87737379Y-82426763D01*
X88030380Y-82548129D01*
X88341429Y-82610000D01*
X88658571Y-82610000D01*
X88969620Y-82548129D01*
X89262621Y-82426763D01*
X89526315Y-82250569D01*
X89750569Y-82026315D01*
X89926763Y-81762621D01*
X90048129Y-81469620D01*
X90110000Y-81158571D01*
X90110000Y-80841429D01*
X90048129Y-80530380D01*
X89926763Y-80237379D01*
X89750569Y-79973685D01*
X89526315Y-79749431D01*
X89262621Y-79573237D01*
X88969620Y-79451871D01*
X88658571Y-79390000D01*
X88341429Y-79390000D01*
X88030380Y-79451871D01*
X87737379Y-79573237D01*
X87473685Y-79749431D01*
X87249431Y-79973685D01*
X87073237Y-80237379D01*
X86951871Y-80530380D01*
X86890000Y-80841429D01*
X85127294Y-80841429D01*
X85111343Y-80679484D01*
X85017852Y-80371285D01*
X84866031Y-80087248D01*
X84661714Y-79838286D01*
X84412751Y-79633969D01*
X84128714Y-79482148D01*
X83820515Y-79388657D01*
X83500000Y-79357089D01*
X83179484Y-79388657D01*
X82871285Y-79482148D01*
X82587248Y-79633969D01*
X82338286Y-79838286D01*
X82133969Y-80087249D01*
X81982148Y-80371286D01*
X81888657Y-80679485D01*
X81865000Y-80919679D01*
X81865001Y-85919669D01*
X81865000Y-85919679D01*
X81865001Y-89365000D01*
X75135000Y-89365000D01*
X75135000Y-85841429D01*
X76890000Y-85841429D01*
X76890000Y-86158571D01*
X76951871Y-86469620D01*
X77073237Y-86762621D01*
X77249431Y-87026315D01*
X77473685Y-87250569D01*
X77737379Y-87426763D01*
X78030380Y-87548129D01*
X78341429Y-87610000D01*
X78658571Y-87610000D01*
X78969620Y-87548129D01*
X79262621Y-87426763D01*
X79526315Y-87250569D01*
X79750569Y-87026315D01*
X79926763Y-86762621D01*
X80048129Y-86469620D01*
X80110000Y-86158571D01*
X80110000Y-85841429D01*
X80048129Y-85530380D01*
X79926763Y-85237379D01*
X79750569Y-84973685D01*
X79526315Y-84749431D01*
X79262621Y-84573237D01*
X78969620Y-84451871D01*
X78658571Y-84390000D01*
X78341429Y-84390000D01*
X78030380Y-84451871D01*
X77737379Y-84573237D01*
X77473685Y-84749431D01*
X77249431Y-84973685D01*
X77073237Y-85237379D01*
X76951871Y-85530380D01*
X76890000Y-85841429D01*
X75135000Y-85841429D01*
X75135000Y-80919678D01*
X75127294Y-80841429D01*
X76890000Y-80841429D01*
X76890000Y-81158571D01*
X76951871Y-81469620D01*
X77073237Y-81762621D01*
X77249431Y-82026315D01*
X77473685Y-82250569D01*
X77737379Y-82426763D01*
X78030380Y-82548129D01*
X78341429Y-82610000D01*
X78658571Y-82610000D01*
X78969620Y-82548129D01*
X79262621Y-82426763D01*
X79526315Y-82250569D01*
X79750569Y-82026315D01*
X79926763Y-81762621D01*
X80048129Y-81469620D01*
X80110000Y-81158571D01*
X80110000Y-80841429D01*
X80048129Y-80530380D01*
X79926763Y-80237379D01*
X79750569Y-79973685D01*
X79526315Y-79749431D01*
X79262621Y-79573237D01*
X78969620Y-79451871D01*
X78658571Y-79390000D01*
X78341429Y-79390000D01*
X78030380Y-79451871D01*
X77737379Y-79573237D01*
X77473685Y-79749431D01*
X77249431Y-79973685D01*
X77073237Y-80237379D01*
X76951871Y-80530380D01*
X76890000Y-80841429D01*
X75127294Y-80841429D01*
X75111343Y-80679484D01*
X75017852Y-80371285D01*
X74866031Y-80087248D01*
X74661714Y-79838286D01*
X74412751Y-79633969D01*
X74128714Y-79482148D01*
X73820515Y-79388657D01*
X73500000Y-79357089D01*
X73179484Y-79388657D01*
X72871285Y-79482148D01*
X72587248Y-79633969D01*
X72338286Y-79838286D01*
X72133969Y-80087249D01*
X71982148Y-80371286D01*
X71888657Y-80679485D01*
X71865000Y-80919679D01*
X71865001Y-85919669D01*
X71865000Y-85919679D01*
X71865001Y-89365000D01*
X69177239Y-89365000D01*
X65653668Y-85841429D01*
X66890000Y-85841429D01*
X66890000Y-86158571D01*
X66951871Y-86469620D01*
X67073237Y-86762621D01*
X67249431Y-87026315D01*
X67473685Y-87250569D01*
X67737379Y-87426763D01*
X68030380Y-87548129D01*
X68341429Y-87610000D01*
X68658571Y-87610000D01*
X68969620Y-87548129D01*
X69262621Y-87426763D01*
X69526315Y-87250569D01*
X69750569Y-87026315D01*
X69926763Y-86762621D01*
X70048129Y-86469620D01*
X70110000Y-86158571D01*
X70110000Y-85841429D01*
X70048129Y-85530380D01*
X69926763Y-85237379D01*
X69750569Y-84973685D01*
X69526315Y-84749431D01*
X69262621Y-84573237D01*
X68969620Y-84451871D01*
X68658571Y-84390000D01*
X68341429Y-84390000D01*
X68030380Y-84451871D01*
X67737379Y-84573237D01*
X67473685Y-84749431D01*
X67249431Y-84973685D01*
X67073237Y-85237379D01*
X66951871Y-85530380D01*
X66890000Y-85841429D01*
X65653668Y-85841429D01*
X65135000Y-85322762D01*
X65135000Y-80841429D01*
X66890000Y-80841429D01*
X66890000Y-81158571D01*
X66951871Y-81469620D01*
X67073237Y-81762621D01*
X67249431Y-82026315D01*
X67473685Y-82250569D01*
X67737379Y-82426763D01*
X68030380Y-82548129D01*
X68341429Y-82610000D01*
X68658571Y-82610000D01*
X68969620Y-82548129D01*
X69262621Y-82426763D01*
X69526315Y-82250569D01*
X69750569Y-82026315D01*
X69926763Y-81762621D01*
X70048129Y-81469620D01*
X70110000Y-81158571D01*
X70110000Y-80841429D01*
X70048129Y-80530380D01*
X69926763Y-80237379D01*
X69750569Y-79973685D01*
X69526315Y-79749431D01*
X69262621Y-79573237D01*
X68969620Y-79451871D01*
X68658571Y-79390000D01*
X68341429Y-79390000D01*
X68030380Y-79451871D01*
X67737379Y-79573237D01*
X67473685Y-79749431D01*
X67249431Y-79973685D01*
X67073237Y-80237379D01*
X66951871Y-80530380D01*
X66890000Y-80841429D01*
X65135000Y-80841429D01*
X65135000Y-79080319D01*
X65142911Y-78999999D01*
X65133890Y-78908408D01*
X65111343Y-78679484D01*
X65017852Y-78371285D01*
X64866031Y-78087248D01*
X64661714Y-77838286D01*
X64599319Y-77787080D01*
X62175000Y-75362762D01*
X62175000Y-73638072D01*
X64032500Y-73638072D01*
X64156982Y-73625812D01*
X64276680Y-73589502D01*
X64386994Y-73530537D01*
X64483685Y-73451185D01*
X64559613Y-73358665D01*
X65945000Y-73358665D01*
X65945000Y-73641335D01*
X66000147Y-73918574D01*
X66108320Y-74179727D01*
X66265363Y-74414759D01*
X66465241Y-74614637D01*
X66700273Y-74771680D01*
X66961426Y-74879853D01*
X67238665Y-74935000D01*
X67521335Y-74935000D01*
X67798574Y-74879853D01*
X68059727Y-74771680D01*
X68294759Y-74614637D01*
X68494637Y-74414759D01*
X68651680Y-74179727D01*
X68759853Y-73918574D01*
X68815000Y-73641335D01*
X68815000Y-73358665D01*
X73565000Y-73358665D01*
X73565000Y-73641335D01*
X73620147Y-73918574D01*
X73728320Y-74179727D01*
X73885363Y-74414759D01*
X74085241Y-74614637D01*
X74320273Y-74771680D01*
X74581426Y-74879853D01*
X74858665Y-74935000D01*
X75141335Y-74935000D01*
X75418574Y-74879853D01*
X75679727Y-74771680D01*
X75914759Y-74614637D01*
X76114637Y-74414759D01*
X76271680Y-74179727D01*
X76379853Y-73918574D01*
X76435000Y-73641335D01*
X76435000Y-73358665D01*
X76565000Y-73358665D01*
X76565000Y-73641335D01*
X76620147Y-73918574D01*
X76728320Y-74179727D01*
X76885363Y-74414759D01*
X77085241Y-74614637D01*
X77320273Y-74771680D01*
X77581426Y-74879853D01*
X77858665Y-74935000D01*
X78141335Y-74935000D01*
X78418574Y-74879853D01*
X78679727Y-74771680D01*
X78914759Y-74614637D01*
X79036694Y-74492702D01*
X82186903Y-74492702D01*
X82258486Y-74736671D01*
X82513996Y-74857571D01*
X82788184Y-74926300D01*
X83070512Y-74940217D01*
X83350130Y-74898787D01*
X83616292Y-74803603D01*
X83741514Y-74736671D01*
X83813097Y-74492702D01*
X83000000Y-73679605D01*
X82186903Y-74492702D01*
X79036694Y-74492702D01*
X79114637Y-74414759D01*
X79271680Y-74179727D01*
X79379853Y-73918574D01*
X79435000Y-73641335D01*
X79435000Y-73570512D01*
X81559783Y-73570512D01*
X81601213Y-73850130D01*
X81696397Y-74116292D01*
X81763329Y-74241514D01*
X82007298Y-74313097D01*
X82820395Y-73500000D01*
X83179605Y-73500000D01*
X83992702Y-74313097D01*
X84236671Y-74241514D01*
X84357571Y-73986004D01*
X84426300Y-73711816D01*
X84440217Y-73429488D01*
X84398787Y-73149870D01*
X84303603Y-72883708D01*
X84236671Y-72758486D01*
X83992702Y-72686903D01*
X83179605Y-73500000D01*
X82820395Y-73500000D01*
X82007298Y-72686903D01*
X81763329Y-72758486D01*
X81642429Y-73013996D01*
X81573700Y-73288184D01*
X81559783Y-73570512D01*
X79435000Y-73570512D01*
X79435000Y-73358665D01*
X79379853Y-73081426D01*
X79271680Y-72820273D01*
X79114637Y-72585241D01*
X79036694Y-72507298D01*
X82186903Y-72507298D01*
X83000000Y-73320395D01*
X83813097Y-72507298D01*
X83741514Y-72263329D01*
X83486004Y-72142429D01*
X83211816Y-72073700D01*
X82929488Y-72059783D01*
X82649870Y-72101213D01*
X82383708Y-72196397D01*
X82258486Y-72263329D01*
X82186903Y-72507298D01*
X79036694Y-72507298D01*
X78914759Y-72385363D01*
X78679727Y-72228320D01*
X78418574Y-72120147D01*
X78141335Y-72065000D01*
X77858665Y-72065000D01*
X77581426Y-72120147D01*
X77320273Y-72228320D01*
X77085241Y-72385363D01*
X76885363Y-72585241D01*
X76728320Y-72820273D01*
X76620147Y-73081426D01*
X76565000Y-73358665D01*
X76435000Y-73358665D01*
X76379853Y-73081426D01*
X76271680Y-72820273D01*
X76114637Y-72585241D01*
X75914759Y-72385363D01*
X75679727Y-72228320D01*
X75418574Y-72120147D01*
X75141335Y-72065000D01*
X74858665Y-72065000D01*
X74581426Y-72120147D01*
X74320273Y-72228320D01*
X74085241Y-72385363D01*
X73885363Y-72585241D01*
X73728320Y-72820273D01*
X73620147Y-73081426D01*
X73565000Y-73358665D01*
X68815000Y-73358665D01*
X68759853Y-73081426D01*
X68651680Y-72820273D01*
X68494637Y-72585241D01*
X68294759Y-72385363D01*
X68059727Y-72228320D01*
X67798574Y-72120147D01*
X67521335Y-72065000D01*
X67238665Y-72065000D01*
X66961426Y-72120147D01*
X66700273Y-72228320D01*
X66465241Y-72385363D01*
X66265363Y-72585241D01*
X66108320Y-72820273D01*
X66000147Y-73081426D01*
X65945000Y-73358665D01*
X64559613Y-73358665D01*
X64563037Y-73354494D01*
X64622002Y-73244180D01*
X64658312Y-73124482D01*
X64670572Y-73000000D01*
X64670572Y-71000000D01*
X64658312Y-70875518D01*
X64622002Y-70755820D01*
X64563037Y-70645506D01*
X64483685Y-70548815D01*
X64415311Y-70492702D01*
X84686903Y-70492702D01*
X84758486Y-70736671D01*
X85013996Y-70857571D01*
X85288184Y-70926300D01*
X85570512Y-70940217D01*
X85850130Y-70898787D01*
X86116292Y-70803603D01*
X86241514Y-70736671D01*
X86313097Y-70492702D01*
X85500000Y-69679605D01*
X84686903Y-70492702D01*
X64415311Y-70492702D01*
X64386994Y-70469463D01*
X64276680Y-70410498D01*
X64156982Y-70374188D01*
X64032500Y-70361928D01*
X62127500Y-70361928D01*
X62003018Y-70374188D01*
X61883320Y-70410498D01*
X61773006Y-70469463D01*
X61676315Y-70548815D01*
X61596963Y-70645506D01*
X61557278Y-70719751D01*
X61452752Y-70633969D01*
X61168715Y-70482148D01*
X60860516Y-70388657D01*
X60540000Y-70357089D01*
X60219485Y-70388657D01*
X59911286Y-70482148D01*
X59627249Y-70633969D01*
X59378287Y-70838286D01*
X59253481Y-70990364D01*
X59109437Y-70818685D01*
X58866923Y-70624031D01*
X58591094Y-70480429D01*
X58372980Y-70409437D01*
X58127000Y-70529406D01*
X57873000Y-70529406D01*
X57627020Y-70409437D01*
X57408906Y-70480429D01*
X57133077Y-70624031D01*
X56890563Y-70818685D01*
X56690684Y-71056911D01*
X56541121Y-71329554D01*
X56447622Y-71626137D01*
X52431884Y-71626137D01*
X52534700Y-71557438D01*
X52957438Y-71134700D01*
X53289582Y-70637612D01*
X53518367Y-70085277D01*
X53620759Y-69570512D01*
X84059783Y-69570512D01*
X84101213Y-69850130D01*
X84196397Y-70116292D01*
X84263329Y-70241514D01*
X84507298Y-70313097D01*
X85320395Y-69500000D01*
X85306253Y-69485858D01*
X85485858Y-69306253D01*
X85500000Y-69320395D01*
X85514143Y-69306253D01*
X85693748Y-69485858D01*
X85679605Y-69500000D01*
X86492702Y-70313097D01*
X86736671Y-70241514D01*
X86857571Y-69986004D01*
X86926300Y-69711816D01*
X86940217Y-69429488D01*
X86898787Y-69149870D01*
X86803603Y-68883708D01*
X86738384Y-68761691D01*
X86751185Y-68751185D01*
X86830537Y-68654494D01*
X86889502Y-68544180D01*
X86925812Y-68424482D01*
X86938072Y-68300000D01*
X86938072Y-66700000D01*
X86925812Y-66575518D01*
X86889502Y-66455820D01*
X86830537Y-66345506D01*
X86751185Y-66248815D01*
X86654494Y-66169463D01*
X86544180Y-66110498D01*
X86424482Y-66074188D01*
X86300000Y-66061928D01*
X84700000Y-66061928D01*
X84575518Y-66074188D01*
X84455820Y-66110498D01*
X84345506Y-66169463D01*
X84248815Y-66248815D01*
X84169463Y-66345506D01*
X84110498Y-66455820D01*
X84074188Y-66575518D01*
X84061928Y-66700000D01*
X84061928Y-68300000D01*
X84074188Y-68424482D01*
X84110498Y-68544180D01*
X84169463Y-68654494D01*
X84248815Y-68751185D01*
X84261758Y-68761807D01*
X84142429Y-69013996D01*
X84073700Y-69288184D01*
X84059783Y-69570512D01*
X53620759Y-69570512D01*
X53635000Y-69498921D01*
X53635000Y-68901079D01*
X53518367Y-68314723D01*
X53289582Y-67762388D01*
X52957438Y-67265300D01*
X52534700Y-66842562D01*
X52037612Y-66510418D01*
X51485277Y-66281633D01*
X50898921Y-66165000D01*
X50301079Y-66165000D01*
X49714723Y-66281633D01*
X49162388Y-66510418D01*
X48665300Y-66842562D01*
X48242562Y-67265300D01*
X47910418Y-67762388D01*
X47693933Y-68285027D01*
X47614750Y-68026218D01*
X47339755Y-67511740D01*
X46932029Y-67247576D01*
X44979605Y-69200000D01*
X44993748Y-69214143D01*
X44814143Y-69393748D01*
X44800000Y-69379605D01*
X42847576Y-71332029D01*
X36654050Y-71332029D01*
X36654050Y-69207275D01*
X41750324Y-69207275D01*
X41810342Y-69802098D01*
X41985250Y-70373782D01*
X42260245Y-70888260D01*
X42667971Y-71152424D01*
X44620395Y-69200000D01*
X42667971Y-67247576D01*
X42260245Y-67511740D01*
X41979683Y-68039661D01*
X41807504Y-68612173D01*
X41750324Y-69207275D01*
X36654050Y-69207275D01*
X36654050Y-67067971D01*
X42847576Y-67067971D01*
X44800000Y-69020395D01*
X46752424Y-67067971D01*
X46488260Y-66660245D01*
X45960339Y-66379683D01*
X45387827Y-66207504D01*
X44792725Y-66150324D01*
X44197902Y-66210342D01*
X43626218Y-66385250D01*
X43111740Y-66660245D01*
X42847576Y-67067971D01*
X36654050Y-67067971D01*
X36654050Y-64340444D01*
X56380000Y-64340444D01*
X56380000Y-64659556D01*
X56442256Y-64972536D01*
X56564375Y-65267358D01*
X56741664Y-65532689D01*
X56967311Y-65758336D01*
X57232642Y-65935625D01*
X57527464Y-66057744D01*
X57840444Y-66120000D01*
X58159556Y-66120000D01*
X58472536Y-66057744D01*
X58767358Y-65935625D01*
X59032689Y-65758336D01*
X59258336Y-65532689D01*
X59435625Y-65267358D01*
X59557744Y-64972536D01*
X59620000Y-64659556D01*
X59620000Y-64340444D01*
X78220000Y-64340444D01*
X78220000Y-64659556D01*
X78282256Y-64972536D01*
X78404375Y-65267358D01*
X78581664Y-65532689D01*
X78807311Y-65758336D01*
X79072642Y-65935625D01*
X79367464Y-66057744D01*
X79680444Y-66120000D01*
X79999556Y-66120000D01*
X80312536Y-66057744D01*
X80607358Y-65935625D01*
X80722536Y-65858665D01*
X89065000Y-65858665D01*
X89065000Y-66141335D01*
X89120147Y-66418574D01*
X89228320Y-66679727D01*
X89385363Y-66914759D01*
X89585241Y-67114637D01*
X89817759Y-67270000D01*
X89585241Y-67425363D01*
X89385363Y-67625241D01*
X89228320Y-67860273D01*
X89120147Y-68121426D01*
X89065000Y-68398665D01*
X89065000Y-68681335D01*
X89120147Y-68958574D01*
X89228320Y-69219727D01*
X89385363Y-69454759D01*
X89585241Y-69654637D01*
X89817759Y-69810000D01*
X89585241Y-69965363D01*
X89385363Y-70165241D01*
X89228320Y-70400273D01*
X89120147Y-70661426D01*
X89065000Y-70938665D01*
X89065000Y-71221335D01*
X89120147Y-71498574D01*
X89228320Y-71759727D01*
X89385363Y-71994759D01*
X89585241Y-72194637D01*
X89817759Y-72350000D01*
X89585241Y-72505363D01*
X89385363Y-72705241D01*
X89228320Y-72940273D01*
X89120147Y-73201426D01*
X89065000Y-73478665D01*
X89065000Y-73761335D01*
X89120147Y-74038574D01*
X89228320Y-74299727D01*
X89385363Y-74534759D01*
X89585241Y-74734637D01*
X89820273Y-74891680D01*
X90081426Y-74999853D01*
X90358665Y-75055000D01*
X90641335Y-75055000D01*
X90918574Y-74999853D01*
X91179727Y-74891680D01*
X91414759Y-74734637D01*
X91614637Y-74534759D01*
X91771680Y-74299727D01*
X91879853Y-74038574D01*
X91935000Y-73761335D01*
X91935000Y-73478665D01*
X91879853Y-73201426D01*
X91771680Y-72940273D01*
X91691317Y-72820000D01*
X96681928Y-72820000D01*
X96681928Y-74420000D01*
X96694188Y-74544482D01*
X96730498Y-74664180D01*
X96789463Y-74774494D01*
X96868815Y-74871185D01*
X96965506Y-74950537D01*
X97075820Y-75009502D01*
X97195518Y-75045812D01*
X97320000Y-75058072D01*
X98920000Y-75058072D01*
X99044482Y-75045812D01*
X99164180Y-75009502D01*
X99274494Y-74950537D01*
X99371185Y-74871185D01*
X99450537Y-74774494D01*
X99509502Y-74664180D01*
X99545812Y-74544482D01*
X99558072Y-74420000D01*
X99558072Y-72820000D01*
X99545812Y-72695518D01*
X99509502Y-72575820D01*
X99450537Y-72465506D01*
X99371185Y-72368815D01*
X99274494Y-72289463D01*
X99164180Y-72230498D01*
X99044482Y-72194188D01*
X99036039Y-72193357D01*
X99234637Y-71994759D01*
X99391680Y-71759727D01*
X99499853Y-71498574D01*
X99555000Y-71221335D01*
X99555000Y-70938665D01*
X99499853Y-70661426D01*
X99391680Y-70400273D01*
X99234637Y-70165241D01*
X99034759Y-69965363D01*
X98799727Y-69808320D01*
X98789135Y-69803933D01*
X98975131Y-69692385D01*
X99183519Y-69503414D01*
X99351037Y-69277420D01*
X99471246Y-69023087D01*
X99511904Y-68889039D01*
X99434641Y-68748408D01*
X100857000Y-68748408D01*
X100857000Y-69023592D01*
X100910686Y-69293490D01*
X101015995Y-69547727D01*
X101168880Y-69776535D01*
X101363465Y-69971120D01*
X101592273Y-70124005D01*
X101669515Y-70156000D01*
X101592273Y-70187995D01*
X101363465Y-70340880D01*
X101168880Y-70535465D01*
X101015995Y-70764273D01*
X100910686Y-71018510D01*
X100857000Y-71288408D01*
X100857000Y-71563592D01*
X100910686Y-71833490D01*
X101015995Y-72087727D01*
X101168880Y-72316535D01*
X101363465Y-72511120D01*
X101592273Y-72664005D01*
X101669515Y-72696000D01*
X101592273Y-72727995D01*
X101363465Y-72880880D01*
X101168880Y-73075465D01*
X101015995Y-73304273D01*
X100910686Y-73558510D01*
X100857000Y-73828408D01*
X100857000Y-74103592D01*
X100910686Y-74373490D01*
X101015995Y-74627727D01*
X101168880Y-74856535D01*
X101363465Y-75051120D01*
X101592273Y-75204005D01*
X101669515Y-75236000D01*
X101592273Y-75267995D01*
X101363465Y-75420880D01*
X101168880Y-75615465D01*
X101015995Y-75844273D01*
X100910686Y-76098510D01*
X100857000Y-76368408D01*
X100857000Y-76643592D01*
X100910686Y-76913490D01*
X101015995Y-77167727D01*
X101168880Y-77396535D01*
X101363465Y-77591120D01*
X101592273Y-77744005D01*
X101669515Y-77776000D01*
X101592273Y-77807995D01*
X101363465Y-77960880D01*
X101168880Y-78155465D01*
X101015995Y-78384273D01*
X100910686Y-78638510D01*
X100857000Y-78908408D01*
X100857000Y-79183592D01*
X100910686Y-79453490D01*
X101015995Y-79707727D01*
X101168880Y-79936535D01*
X101363465Y-80131120D01*
X101592273Y-80284005D01*
X101669515Y-80316000D01*
X101592273Y-80347995D01*
X101363465Y-80500880D01*
X101168880Y-80695465D01*
X101015995Y-80924273D01*
X100910686Y-81178510D01*
X100857000Y-81448408D01*
X100857000Y-81723592D01*
X100910686Y-81993490D01*
X101015995Y-82247727D01*
X101168880Y-82476535D01*
X101363465Y-82671120D01*
X101592273Y-82824005D01*
X101669515Y-82856000D01*
X101592273Y-82887995D01*
X101363465Y-83040880D01*
X101168880Y-83235465D01*
X101015995Y-83464273D01*
X100910686Y-83718510D01*
X100857000Y-83988408D01*
X100857000Y-84263592D01*
X100910686Y-84533490D01*
X101015995Y-84787727D01*
X101168880Y-85016535D01*
X101363465Y-85211120D01*
X101592273Y-85364005D01*
X101669515Y-85396000D01*
X101592273Y-85427995D01*
X101363465Y-85580880D01*
X101168880Y-85775465D01*
X101015995Y-86004273D01*
X100910686Y-86258510D01*
X100857000Y-86528408D01*
X100857000Y-86803592D01*
X100910686Y-87073490D01*
X101015995Y-87327727D01*
X101168880Y-87556535D01*
X101363465Y-87751120D01*
X101592273Y-87904005D01*
X101663943Y-87933692D01*
X101650977Y-87938364D01*
X101535020Y-88000344D01*
X101468040Y-88240435D01*
X102254000Y-89026395D01*
X103039960Y-88240435D01*
X102972980Y-88000344D01*
X102837240Y-87936515D01*
X102915727Y-87904005D01*
X103144535Y-87751120D01*
X103339120Y-87556535D01*
X103492005Y-87327727D01*
X103597314Y-87073490D01*
X103651000Y-86803592D01*
X103651000Y-86528408D01*
X103597314Y-86258510D01*
X103492005Y-86004273D01*
X103339120Y-85775465D01*
X103144535Y-85580880D01*
X102915727Y-85427995D01*
X102838485Y-85396000D01*
X102915727Y-85364005D01*
X103144535Y-85211120D01*
X103339120Y-85016535D01*
X103492005Y-84787727D01*
X103597314Y-84533490D01*
X103651000Y-84263592D01*
X103651000Y-83988408D01*
X103597314Y-83718510D01*
X103492005Y-83464273D01*
X103339120Y-83235465D01*
X103144535Y-83040880D01*
X102915727Y-82887995D01*
X102838485Y-82856000D01*
X102915727Y-82824005D01*
X103144535Y-82671120D01*
X103339120Y-82476535D01*
X103492005Y-82247727D01*
X103597314Y-81993490D01*
X103651000Y-81723592D01*
X103651000Y-81448408D01*
X103597314Y-81178510D01*
X103492005Y-80924273D01*
X103339120Y-80695465D01*
X103144535Y-80500880D01*
X102915727Y-80347995D01*
X102838485Y-80316000D01*
X102915727Y-80284005D01*
X103144535Y-80131120D01*
X103339120Y-79936535D01*
X103492005Y-79707727D01*
X103597314Y-79453490D01*
X103651000Y-79183592D01*
X103651000Y-78908408D01*
X103597314Y-78638510D01*
X103492005Y-78384273D01*
X103339120Y-78155465D01*
X103144535Y-77960880D01*
X102915727Y-77807995D01*
X102838485Y-77776000D01*
X102915727Y-77744005D01*
X103144535Y-77591120D01*
X103339120Y-77396535D01*
X103492005Y-77167727D01*
X103597314Y-76913490D01*
X103651000Y-76643592D01*
X103651000Y-76368408D01*
X103597314Y-76098510D01*
X103492005Y-75844273D01*
X103339120Y-75615465D01*
X103144535Y-75420880D01*
X102915727Y-75267995D01*
X102838485Y-75236000D01*
X102915727Y-75204005D01*
X103144535Y-75051120D01*
X103339120Y-74856535D01*
X103492005Y-74627727D01*
X103597314Y-74373490D01*
X103651000Y-74103592D01*
X103651000Y-73828408D01*
X103597314Y-73558510D01*
X103492005Y-73304273D01*
X103339120Y-73075465D01*
X103144535Y-72880880D01*
X102915727Y-72727995D01*
X102838485Y-72696000D01*
X102915727Y-72664005D01*
X103144535Y-72511120D01*
X103339120Y-72316535D01*
X103492005Y-72087727D01*
X103597314Y-71833490D01*
X103651000Y-71563592D01*
X103651000Y-71288408D01*
X103597314Y-71018510D01*
X103492005Y-70764273D01*
X103339120Y-70535465D01*
X103144535Y-70340880D01*
X102915727Y-70187995D01*
X102838485Y-70156000D01*
X102915727Y-70124005D01*
X103144535Y-69971120D01*
X103339120Y-69776535D01*
X103492005Y-69547727D01*
X103597314Y-69293490D01*
X103651000Y-69023592D01*
X103651000Y-68748408D01*
X116097000Y-68748408D01*
X116097000Y-69023592D01*
X116150686Y-69293490D01*
X116255995Y-69547727D01*
X116408880Y-69776535D01*
X116603465Y-69971120D01*
X116832273Y-70124005D01*
X116909515Y-70156000D01*
X116832273Y-70187995D01*
X116603465Y-70340880D01*
X116408880Y-70535465D01*
X116255995Y-70764273D01*
X116150686Y-71018510D01*
X116097000Y-71288408D01*
X116097000Y-71563592D01*
X116150686Y-71833490D01*
X116255995Y-72087727D01*
X116408880Y-72316535D01*
X116603465Y-72511120D01*
X116832273Y-72664005D01*
X116909515Y-72696000D01*
X116832273Y-72727995D01*
X116603465Y-72880880D01*
X116408880Y-73075465D01*
X116255995Y-73304273D01*
X116150686Y-73558510D01*
X116097000Y-73828408D01*
X116097000Y-74103592D01*
X116150686Y-74373490D01*
X116255995Y-74627727D01*
X116408880Y-74856535D01*
X116603465Y-75051120D01*
X116832273Y-75204005D01*
X116909515Y-75236000D01*
X116832273Y-75267995D01*
X116603465Y-75420880D01*
X116408880Y-75615465D01*
X116255995Y-75844273D01*
X116150686Y-76098510D01*
X116097000Y-76368408D01*
X116097000Y-76643592D01*
X116150686Y-76913490D01*
X116255995Y-77167727D01*
X116408880Y-77396535D01*
X116603465Y-77591120D01*
X116832273Y-77744005D01*
X116909515Y-77776000D01*
X116832273Y-77807995D01*
X116603465Y-77960880D01*
X116408880Y-78155465D01*
X116255995Y-78384273D01*
X116150686Y-78638510D01*
X116097000Y-78908408D01*
X116097000Y-79183592D01*
X116150686Y-79453490D01*
X116255995Y-79707727D01*
X116408880Y-79936535D01*
X116603465Y-80131120D01*
X116832273Y-80284005D01*
X116909515Y-80316000D01*
X116832273Y-80347995D01*
X116603465Y-80500880D01*
X116408880Y-80695465D01*
X116255995Y-80924273D01*
X116150686Y-81178510D01*
X116097000Y-81448408D01*
X116097000Y-81723592D01*
X116150686Y-81993490D01*
X116255995Y-82247727D01*
X116408880Y-82476535D01*
X116603465Y-82671120D01*
X116832273Y-82824005D01*
X116909515Y-82856000D01*
X116832273Y-82887995D01*
X116603465Y-83040880D01*
X116408880Y-83235465D01*
X116255995Y-83464273D01*
X116150686Y-83718510D01*
X116097000Y-83988408D01*
X116097000Y-84263592D01*
X116150686Y-84533490D01*
X116255995Y-84787727D01*
X116408880Y-85016535D01*
X116603465Y-85211120D01*
X116832273Y-85364005D01*
X116909515Y-85396000D01*
X116832273Y-85427995D01*
X116603465Y-85580880D01*
X116408880Y-85775465D01*
X116255995Y-86004273D01*
X116150686Y-86258510D01*
X116097000Y-86528408D01*
X116097000Y-86803592D01*
X116150686Y-87073490D01*
X116255995Y-87327727D01*
X116408880Y-87556535D01*
X116603465Y-87751120D01*
X116832273Y-87904005D01*
X116909515Y-87936000D01*
X116832273Y-87967995D01*
X116603465Y-88120880D01*
X116408880Y-88315465D01*
X116255995Y-88544273D01*
X116150686Y-88798510D01*
X116097000Y-89068408D01*
X116097000Y-89343592D01*
X116150686Y-89613490D01*
X116255995Y-89867727D01*
X116408880Y-90096535D01*
X116603465Y-90291120D01*
X116832273Y-90444005D01*
X116909515Y-90476000D01*
X116832273Y-90507995D01*
X116603465Y-90660880D01*
X116408880Y-90855465D01*
X116255995Y-91084273D01*
X116150686Y-91338510D01*
X116097000Y-91608408D01*
X116097000Y-91883592D01*
X116150686Y-92153490D01*
X116255995Y-92407727D01*
X116408880Y-92636535D01*
X116603465Y-92831120D01*
X116832273Y-92984005D01*
X117086510Y-93089314D01*
X117356408Y-93143000D01*
X117631592Y-93143000D01*
X117901490Y-93089314D01*
X118155727Y-92984005D01*
X118384535Y-92831120D01*
X118579120Y-92636535D01*
X118732005Y-92407727D01*
X118837314Y-92153490D01*
X118891000Y-91883592D01*
X118891000Y-91608408D01*
X118837314Y-91338510D01*
X118732005Y-91084273D01*
X118579120Y-90855465D01*
X118384535Y-90660880D01*
X118155727Y-90507995D01*
X118078485Y-90476000D01*
X118155727Y-90444005D01*
X118384535Y-90291120D01*
X118579120Y-90096535D01*
X118732005Y-89867727D01*
X118792874Y-89720777D01*
X119165000Y-89720777D01*
X119165000Y-90279223D01*
X119273948Y-90826939D01*
X119487656Y-91342876D01*
X119797912Y-91807207D01*
X120192793Y-92202088D01*
X120657124Y-92512344D01*
X121173061Y-92726052D01*
X121720777Y-92835000D01*
X122279223Y-92835000D01*
X122826939Y-92726052D01*
X123342876Y-92512344D01*
X123807207Y-92202088D01*
X124202088Y-91807207D01*
X124512344Y-91342876D01*
X124726052Y-90826939D01*
X124835000Y-90279223D01*
X124835000Y-89720777D01*
X124726052Y-89173061D01*
X124512344Y-88657124D01*
X124202088Y-88192793D01*
X123807207Y-87797912D01*
X123342876Y-87487656D01*
X122826939Y-87273948D01*
X122279223Y-87165000D01*
X121720777Y-87165000D01*
X121173061Y-87273948D01*
X120657124Y-87487656D01*
X120192793Y-87797912D01*
X119797912Y-88192793D01*
X119487656Y-88657124D01*
X119273948Y-89173061D01*
X119165000Y-89720777D01*
X118792874Y-89720777D01*
X118837314Y-89613490D01*
X118891000Y-89343592D01*
X118891000Y-89068408D01*
X118837314Y-88798510D01*
X118732005Y-88544273D01*
X118579120Y-88315465D01*
X118384535Y-88120880D01*
X118155727Y-87967995D01*
X118078485Y-87936000D01*
X118155727Y-87904005D01*
X118384535Y-87751120D01*
X118579120Y-87556535D01*
X118732005Y-87327727D01*
X118837314Y-87073490D01*
X118891000Y-86803592D01*
X118891000Y-86528408D01*
X118837314Y-86258510D01*
X118732005Y-86004273D01*
X118579120Y-85775465D01*
X118384535Y-85580880D01*
X118155727Y-85427995D01*
X118078485Y-85396000D01*
X118155727Y-85364005D01*
X118384535Y-85211120D01*
X118579120Y-85016535D01*
X118732005Y-84787727D01*
X118837314Y-84533490D01*
X118891000Y-84263592D01*
X118891000Y-83988408D01*
X118837314Y-83718510D01*
X118732005Y-83464273D01*
X118579120Y-83235465D01*
X118384535Y-83040880D01*
X118155727Y-82887995D01*
X118078485Y-82856000D01*
X118155727Y-82824005D01*
X118384535Y-82671120D01*
X118579120Y-82476535D01*
X118732005Y-82247727D01*
X118837314Y-81993490D01*
X118891000Y-81723592D01*
X118891000Y-81448408D01*
X118837314Y-81178510D01*
X118732005Y-80924273D01*
X118579120Y-80695465D01*
X118384535Y-80500880D01*
X118155727Y-80347995D01*
X118078485Y-80316000D01*
X118155727Y-80284005D01*
X118384535Y-80131120D01*
X118579120Y-79936535D01*
X118732005Y-79707727D01*
X118837314Y-79453490D01*
X118891000Y-79183592D01*
X118891000Y-78908408D01*
X118837314Y-78638510D01*
X118732005Y-78384273D01*
X118579120Y-78155465D01*
X118384535Y-77960880D01*
X118155727Y-77807995D01*
X118078485Y-77776000D01*
X118155727Y-77744005D01*
X118384535Y-77591120D01*
X118579120Y-77396535D01*
X118732005Y-77167727D01*
X118837314Y-76913490D01*
X118891000Y-76643592D01*
X118891000Y-76368408D01*
X118837314Y-76098510D01*
X118732005Y-75844273D01*
X118579120Y-75615465D01*
X118384535Y-75420880D01*
X118155727Y-75267995D01*
X118078485Y-75236000D01*
X118155727Y-75204005D01*
X118384535Y-75051120D01*
X118579120Y-74856535D01*
X118732005Y-74627727D01*
X118837314Y-74373490D01*
X118891000Y-74103592D01*
X118891000Y-73828408D01*
X118837314Y-73558510D01*
X118732005Y-73304273D01*
X118579120Y-73075465D01*
X118384535Y-72880880D01*
X118155727Y-72727995D01*
X118078485Y-72696000D01*
X118155727Y-72664005D01*
X118384535Y-72511120D01*
X118579120Y-72316535D01*
X118732005Y-72087727D01*
X118837314Y-71833490D01*
X118891000Y-71563592D01*
X118891000Y-71288408D01*
X118837314Y-71018510D01*
X118732005Y-70764273D01*
X118579120Y-70535465D01*
X118384535Y-70340880D01*
X118155727Y-70187995D01*
X118078485Y-70156000D01*
X118155727Y-70124005D01*
X118384535Y-69971120D01*
X118579120Y-69776535D01*
X118732005Y-69547727D01*
X118837314Y-69293490D01*
X118891000Y-69023592D01*
X118891000Y-68748408D01*
X118837314Y-68478510D01*
X118732005Y-68224273D01*
X118579120Y-67995465D01*
X118384535Y-67800880D01*
X118155727Y-67647995D01*
X117901490Y-67542686D01*
X117631592Y-67489000D01*
X117356408Y-67489000D01*
X117086510Y-67542686D01*
X116832273Y-67647995D01*
X116603465Y-67800880D01*
X116408880Y-67995465D01*
X116255995Y-68224273D01*
X116150686Y-68478510D01*
X116097000Y-68748408D01*
X103651000Y-68748408D01*
X103597314Y-68478510D01*
X103492005Y-68224273D01*
X103339120Y-67995465D01*
X103144535Y-67800880D01*
X102915727Y-67647995D01*
X102661490Y-67542686D01*
X102391592Y-67489000D01*
X102116408Y-67489000D01*
X101846510Y-67542686D01*
X101592273Y-67647995D01*
X101363465Y-67800880D01*
X101168880Y-67995465D01*
X101015995Y-68224273D01*
X100910686Y-68478510D01*
X100857000Y-68748408D01*
X99434641Y-68748408D01*
X99389915Y-68667000D01*
X98247000Y-68667000D01*
X98247000Y-68687000D01*
X97993000Y-68687000D01*
X97993000Y-68667000D01*
X96850085Y-68667000D01*
X96728096Y-68889039D01*
X96768754Y-69023087D01*
X96888963Y-69277420D01*
X97056481Y-69503414D01*
X97264869Y-69692385D01*
X97450865Y-69803933D01*
X97440273Y-69808320D01*
X97205241Y-69965363D01*
X97005363Y-70165241D01*
X96848320Y-70400273D01*
X96740147Y-70661426D01*
X96685000Y-70938665D01*
X96685000Y-71221335D01*
X96740147Y-71498574D01*
X96848320Y-71759727D01*
X97005363Y-71994759D01*
X97203961Y-72193357D01*
X97195518Y-72194188D01*
X97075820Y-72230498D01*
X96965506Y-72289463D01*
X96868815Y-72368815D01*
X96789463Y-72465506D01*
X96730498Y-72575820D01*
X96694188Y-72695518D01*
X96681928Y-72820000D01*
X91691317Y-72820000D01*
X91614637Y-72705241D01*
X91414759Y-72505363D01*
X91182241Y-72350000D01*
X91414759Y-72194637D01*
X91614637Y-71994759D01*
X91771680Y-71759727D01*
X91879853Y-71498574D01*
X91935000Y-71221335D01*
X91935000Y-70938665D01*
X91879853Y-70661426D01*
X91771680Y-70400273D01*
X91614637Y-70165241D01*
X91414759Y-69965363D01*
X91182241Y-69810000D01*
X91414759Y-69654637D01*
X91614637Y-69454759D01*
X91771680Y-69219727D01*
X91879853Y-68958574D01*
X91935000Y-68681335D01*
X91935000Y-68398665D01*
X91879853Y-68121426D01*
X91771680Y-67860273D01*
X91614637Y-67625241D01*
X91414759Y-67425363D01*
X91182241Y-67270000D01*
X91414759Y-67114637D01*
X91614637Y-66914759D01*
X91771680Y-66679727D01*
X91879853Y-66418574D01*
X91935000Y-66141335D01*
X91935000Y-65858665D01*
X96685000Y-65858665D01*
X96685000Y-66141335D01*
X96740147Y-66418574D01*
X96848320Y-66679727D01*
X97005363Y-66914759D01*
X97205241Y-67114637D01*
X97440273Y-67271680D01*
X97450865Y-67276067D01*
X97264869Y-67387615D01*
X97056481Y-67576586D01*
X96888963Y-67802580D01*
X96768754Y-68056913D01*
X96728096Y-68190961D01*
X96850085Y-68413000D01*
X97993000Y-68413000D01*
X97993000Y-68393000D01*
X98247000Y-68393000D01*
X98247000Y-68413000D01*
X99389915Y-68413000D01*
X99511904Y-68190961D01*
X99471246Y-68056913D01*
X99351037Y-67802580D01*
X99183519Y-67576586D01*
X98975131Y-67387615D01*
X98789135Y-67276067D01*
X98799727Y-67271680D01*
X99034759Y-67114637D01*
X99234637Y-66914759D01*
X99391680Y-66679727D01*
X99499853Y-66418574D01*
X99555000Y-66141335D01*
X99555000Y-65858665D01*
X99499853Y-65581426D01*
X99391680Y-65320273D01*
X99234637Y-65085241D01*
X99034759Y-64885363D01*
X98799727Y-64728320D01*
X98538574Y-64620147D01*
X98261335Y-64565000D01*
X97978665Y-64565000D01*
X97701426Y-64620147D01*
X97440273Y-64728320D01*
X97205241Y-64885363D01*
X97005363Y-65085241D01*
X96848320Y-65320273D01*
X96740147Y-65581426D01*
X96685000Y-65858665D01*
X91935000Y-65858665D01*
X91879853Y-65581426D01*
X91771680Y-65320273D01*
X91614637Y-65085241D01*
X91414759Y-64885363D01*
X91179727Y-64728320D01*
X90918574Y-64620147D01*
X90641335Y-64565000D01*
X90358665Y-64565000D01*
X90081426Y-64620147D01*
X89820273Y-64728320D01*
X89585241Y-64885363D01*
X89385363Y-65085241D01*
X89228320Y-65320273D01*
X89120147Y-65581426D01*
X89065000Y-65858665D01*
X80722536Y-65858665D01*
X80872689Y-65758336D01*
X81098336Y-65532689D01*
X81275625Y-65267358D01*
X81397744Y-64972536D01*
X81460000Y-64659556D01*
X81460000Y-64340444D01*
X81397744Y-64027464D01*
X81327826Y-63858665D01*
X84065000Y-63858665D01*
X84065000Y-64141335D01*
X84120147Y-64418574D01*
X84228320Y-64679727D01*
X84385363Y-64914759D01*
X84585241Y-65114637D01*
X84820273Y-65271680D01*
X85081426Y-65379853D01*
X85358665Y-65435000D01*
X85641335Y-65435000D01*
X85918574Y-65379853D01*
X86179727Y-65271680D01*
X86414759Y-65114637D01*
X86614637Y-64914759D01*
X86771680Y-64679727D01*
X86879853Y-64418574D01*
X86880671Y-64414460D01*
X90966649Y-60328483D01*
X91036634Y-60314562D01*
X91277860Y-60214643D01*
X91494957Y-60069583D01*
X91679583Y-59884957D01*
X91824643Y-59667860D01*
X91920000Y-59437648D01*
X92015357Y-59667860D01*
X92160417Y-59884957D01*
X92345043Y-60069583D01*
X92562140Y-60214643D01*
X92803366Y-60314562D01*
X93059450Y-60365500D01*
X93320550Y-60365500D01*
X93576634Y-60314562D01*
X93817860Y-60214643D01*
X94034957Y-60069583D01*
X94219583Y-59884957D01*
X94364643Y-59667860D01*
X94460000Y-59437648D01*
X94555357Y-59667860D01*
X94700417Y-59884957D01*
X94885043Y-60069583D01*
X95102140Y-60214643D01*
X95343366Y-60314562D01*
X95599450Y-60365500D01*
X95860550Y-60365500D01*
X96116634Y-60314562D01*
X96357860Y-60214643D01*
X96574957Y-60069583D01*
X96759583Y-59884957D01*
X96904643Y-59667860D01*
X97004562Y-59426634D01*
X97055500Y-59170550D01*
X97055500Y-58909450D01*
X97004562Y-58653366D01*
X96904643Y-58412140D01*
X96863977Y-58351278D01*
X105950000Y-58351278D01*
X105950000Y-58648722D01*
X106008029Y-58940451D01*
X106121856Y-59215253D01*
X106287107Y-59462569D01*
X106497431Y-59672893D01*
X106744747Y-59838144D01*
X107019549Y-59951971D01*
X107311278Y-60010000D01*
X107608722Y-60010000D01*
X107900451Y-59951971D01*
X108175253Y-59838144D01*
X108422569Y-59672893D01*
X108549222Y-59546240D01*
X109133365Y-59546240D01*
X109214025Y-59797868D01*
X109482329Y-59926267D01*
X109770526Y-59999855D01*
X110067543Y-60015804D01*
X110361963Y-59973501D01*
X110642474Y-59874572D01*
X110785975Y-59797868D01*
X110866635Y-59546240D01*
X110000000Y-58679605D01*
X109133365Y-59546240D01*
X108549222Y-59546240D01*
X108632893Y-59462569D01*
X108742288Y-59298847D01*
X108953760Y-59366635D01*
X109820395Y-58500000D01*
X110179605Y-58500000D01*
X111046240Y-59366635D01*
X111257712Y-59298847D01*
X111367107Y-59462569D01*
X111577431Y-59672893D01*
X111824747Y-59838144D01*
X112099549Y-59951971D01*
X112391278Y-60010000D01*
X112688722Y-60010000D01*
X112980451Y-59951971D01*
X113255253Y-59838144D01*
X113502569Y-59672893D01*
X113712893Y-59462569D01*
X113878144Y-59215253D01*
X113991971Y-58940451D01*
X114050000Y-58648722D01*
X114050000Y-58351278D01*
X113991971Y-58059549D01*
X113878144Y-57784747D01*
X113712893Y-57537431D01*
X113502569Y-57327107D01*
X113255253Y-57161856D01*
X112980451Y-57048029D01*
X112688722Y-56990000D01*
X112391278Y-56990000D01*
X112099549Y-57048029D01*
X111824747Y-57161856D01*
X111577431Y-57327107D01*
X111367107Y-57537431D01*
X111257712Y-57701153D01*
X111046240Y-57633365D01*
X110179605Y-58500000D01*
X109820395Y-58500000D01*
X108953760Y-57633365D01*
X108742288Y-57701153D01*
X108632893Y-57537431D01*
X108549222Y-57453760D01*
X109133365Y-57453760D01*
X110000000Y-58320395D01*
X110866635Y-57453760D01*
X110785975Y-57202132D01*
X110517671Y-57073733D01*
X110229474Y-57000145D01*
X109932457Y-56984196D01*
X109638037Y-57026499D01*
X109357526Y-57125428D01*
X109214025Y-57202132D01*
X109133365Y-57453760D01*
X108549222Y-57453760D01*
X108422569Y-57327107D01*
X108175253Y-57161856D01*
X107900451Y-57048029D01*
X107608722Y-56990000D01*
X107311278Y-56990000D01*
X107019549Y-57048029D01*
X106744747Y-57161856D01*
X106497431Y-57327107D01*
X106287107Y-57537431D01*
X106121856Y-57784747D01*
X106008029Y-58059549D01*
X105950000Y-58351278D01*
X96863977Y-58351278D01*
X96759583Y-58195043D01*
X96574957Y-58010417D01*
X96357860Y-57865357D01*
X96116634Y-57765438D01*
X95860550Y-57714500D01*
X95599450Y-57714500D01*
X95343366Y-57765438D01*
X95102140Y-57865357D01*
X94885043Y-58010417D01*
X94700417Y-58195043D01*
X94555357Y-58412140D01*
X94460000Y-58642352D01*
X94364643Y-58412140D01*
X94219583Y-58195043D01*
X94034957Y-58010417D01*
X93817860Y-57865357D01*
X93576634Y-57765438D01*
X93320550Y-57714500D01*
X93059450Y-57714500D01*
X92803366Y-57765438D01*
X92562140Y-57865357D01*
X92345043Y-58010417D01*
X92160417Y-58195043D01*
X92015357Y-58412140D01*
X91920000Y-58642352D01*
X91824643Y-58412140D01*
X91679583Y-58195043D01*
X91494957Y-58010417D01*
X91277860Y-57865357D01*
X91036634Y-57765438D01*
X90780550Y-57714500D01*
X90579628Y-57714500D01*
X90605814Y-57651282D01*
X90660000Y-57378873D01*
X90660000Y-57101127D01*
X90605814Y-56828718D01*
X90499525Y-56572115D01*
X90364109Y-56369450D01*
X90594500Y-56369450D01*
X90594500Y-56630550D01*
X90645438Y-56886634D01*
X90745357Y-57127860D01*
X90890417Y-57344957D01*
X91075043Y-57529583D01*
X91292140Y-57674643D01*
X91533366Y-57774562D01*
X91789450Y-57825500D01*
X92050550Y-57825500D01*
X92306634Y-57774562D01*
X92547860Y-57674643D01*
X92764957Y-57529583D01*
X92880060Y-57414480D01*
X93725125Y-57414480D01*
X93783433Y-57647279D01*
X94020257Y-57757227D01*
X94273979Y-57818859D01*
X94534849Y-57829808D01*
X94792844Y-57789654D01*
X95038047Y-57699939D01*
X95136567Y-57647279D01*
X95194875Y-57414480D01*
X96265125Y-57414480D01*
X96323433Y-57647279D01*
X96560257Y-57757227D01*
X96813979Y-57818859D01*
X97074849Y-57829808D01*
X97332844Y-57789654D01*
X97578047Y-57699939D01*
X97676567Y-57647279D01*
X97734875Y-57414480D01*
X97000000Y-56679605D01*
X96265125Y-57414480D01*
X95194875Y-57414480D01*
X94460000Y-56679605D01*
X93725125Y-57414480D01*
X92880060Y-57414480D01*
X92949583Y-57344957D01*
X93094643Y-57127860D01*
X93192154Y-56892448D01*
X93260061Y-57078047D01*
X93312721Y-57176567D01*
X93545520Y-57234875D01*
X94280395Y-56500000D01*
X94639605Y-56500000D01*
X95374480Y-57234875D01*
X95607279Y-57176567D01*
X95717227Y-56939743D01*
X95730087Y-56886800D01*
X95800061Y-57078047D01*
X95852721Y-57176567D01*
X96085520Y-57234875D01*
X96820395Y-56500000D01*
X97179605Y-56500000D01*
X97914480Y-57234875D01*
X98147279Y-57176567D01*
X98257227Y-56939743D01*
X98318859Y-56686021D01*
X98329808Y-56425151D01*
X98289654Y-56167156D01*
X98199939Y-55921953D01*
X98147279Y-55823433D01*
X97914480Y-55765125D01*
X97179605Y-56500000D01*
X96820395Y-56500000D01*
X96085520Y-55765125D01*
X95852721Y-55823433D01*
X95742773Y-56060257D01*
X95729913Y-56113200D01*
X95659939Y-55921953D01*
X95607279Y-55823433D01*
X95374480Y-55765125D01*
X94639605Y-56500000D01*
X94280395Y-56500000D01*
X93545520Y-55765125D01*
X93312721Y-55823433D01*
X93202773Y-56060257D01*
X93191606Y-56106229D01*
X93094643Y-55872140D01*
X92949583Y-55655043D01*
X92880060Y-55585520D01*
X93725125Y-55585520D01*
X94460000Y-56320395D01*
X95194875Y-55585520D01*
X96265125Y-55585520D01*
X97000000Y-56320395D01*
X97734875Y-55585520D01*
X97676567Y-55352721D01*
X97439743Y-55242773D01*
X97186021Y-55181141D01*
X96925151Y-55170192D01*
X96667156Y-55210346D01*
X96421953Y-55300061D01*
X96323433Y-55352721D01*
X96265125Y-55585520D01*
X95194875Y-55585520D01*
X95136567Y-55352721D01*
X94899743Y-55242773D01*
X94646021Y-55181141D01*
X94385151Y-55170192D01*
X94127156Y-55210346D01*
X93881953Y-55300061D01*
X93783433Y-55352721D01*
X93725125Y-55585520D01*
X92880060Y-55585520D01*
X92764957Y-55470417D01*
X92547860Y-55325357D01*
X92306634Y-55225438D01*
X92050550Y-55174500D01*
X91789450Y-55174500D01*
X91533366Y-55225438D01*
X91292140Y-55325357D01*
X91075043Y-55470417D01*
X90890417Y-55655043D01*
X90745357Y-55872140D01*
X90645438Y-56113366D01*
X90594500Y-56369450D01*
X90364109Y-56369450D01*
X90345218Y-56341178D01*
X90148822Y-56144782D01*
X89917885Y-55990475D01*
X89661282Y-55884186D01*
X89388873Y-55830000D01*
X89111127Y-55830000D01*
X88838718Y-55884186D01*
X88582115Y-55990475D01*
X88351178Y-56144782D01*
X88154782Y-56341178D01*
X88000475Y-56572115D01*
X87894186Y-56828718D01*
X87840000Y-57101127D01*
X87840000Y-57378873D01*
X87894186Y-57651282D01*
X88000475Y-57907885D01*
X88154782Y-58138822D01*
X88351178Y-58335218D01*
X88582115Y-58489525D01*
X88838718Y-58595814D01*
X89111127Y-58650000D01*
X89376832Y-58650000D01*
X89375438Y-58653366D01*
X89361517Y-58723351D01*
X85519869Y-62565000D01*
X85358665Y-62565000D01*
X85081426Y-62620147D01*
X84820273Y-62728320D01*
X84585241Y-62885363D01*
X84385363Y-63085241D01*
X84228320Y-63320273D01*
X84120147Y-63581426D01*
X84065000Y-63858665D01*
X81327826Y-63858665D01*
X81275625Y-63732642D01*
X81098336Y-63467311D01*
X80872689Y-63241664D01*
X80607358Y-63064375D01*
X80312536Y-62942256D01*
X79999556Y-62880000D01*
X79680444Y-62880000D01*
X79367464Y-62942256D01*
X79072642Y-63064375D01*
X78807311Y-63241664D01*
X78581664Y-63467311D01*
X78404375Y-63732642D01*
X78282256Y-64027464D01*
X78220000Y-64340444D01*
X59620000Y-64340444D01*
X59557744Y-64027464D01*
X59435625Y-63732642D01*
X59258336Y-63467311D01*
X59032689Y-63241664D01*
X58767358Y-63064375D01*
X58472536Y-62942256D01*
X58159556Y-62880000D01*
X57840444Y-62880000D01*
X57527464Y-62942256D01*
X57232642Y-63064375D01*
X56967311Y-63241664D01*
X56741664Y-63467311D01*
X56564375Y-63732642D01*
X56442256Y-64027464D01*
X56380000Y-64340444D01*
X36654050Y-64340444D01*
X36654050Y-60975000D01*
X40386928Y-60975000D01*
X40399188Y-61099482D01*
X40435498Y-61219180D01*
X40494463Y-61329494D01*
X40573815Y-61426185D01*
X40670506Y-61505537D01*
X40780820Y-61564502D01*
X40900518Y-61600812D01*
X41025000Y-61613072D01*
X41714250Y-61610000D01*
X41873000Y-61451250D01*
X41873000Y-60127000D01*
X42127000Y-60127000D01*
X42127000Y-61451250D01*
X42285750Y-61610000D01*
X42975000Y-61613072D01*
X43099482Y-61600812D01*
X43219180Y-61564502D01*
X43329494Y-61505537D01*
X43426185Y-61426185D01*
X43505537Y-61329494D01*
X43564502Y-61219180D01*
X43600812Y-61099482D01*
X43613072Y-60975000D01*
X45386928Y-60975000D01*
X45399188Y-61099482D01*
X45435498Y-61219180D01*
X45494463Y-61329494D01*
X45573815Y-61426185D01*
X45670506Y-61505537D01*
X45780820Y-61564502D01*
X45900518Y-61600812D01*
X46025000Y-61613072D01*
X46714250Y-61610000D01*
X46873000Y-61451250D01*
X46873000Y-60127000D01*
X47127000Y-60127000D01*
X47127000Y-61451250D01*
X47285750Y-61610000D01*
X47975000Y-61613072D01*
X48099482Y-61600812D01*
X48219180Y-61564502D01*
X48329494Y-61505537D01*
X48426185Y-61426185D01*
X48505537Y-61329494D01*
X48564502Y-61219180D01*
X48600812Y-61099482D01*
X48613072Y-60975000D01*
X48610000Y-60285750D01*
X48451250Y-60127000D01*
X47127000Y-60127000D01*
X46873000Y-60127000D01*
X45548750Y-60127000D01*
X45390000Y-60285750D01*
X45386928Y-60975000D01*
X43613072Y-60975000D01*
X43610000Y-60285750D01*
X43451250Y-60127000D01*
X42127000Y-60127000D01*
X41873000Y-60127000D01*
X40548750Y-60127000D01*
X40390000Y-60285750D01*
X40386928Y-60975000D01*
X36654050Y-60975000D01*
X36654050Y-59992702D01*
X84686903Y-59992702D01*
X84758486Y-60236671D01*
X85013996Y-60357571D01*
X85288184Y-60426300D01*
X85570512Y-60440217D01*
X85850130Y-60398787D01*
X86116292Y-60303603D01*
X86241514Y-60236671D01*
X86313097Y-59992702D01*
X85500000Y-59179605D01*
X84686903Y-59992702D01*
X36654050Y-59992702D01*
X36654050Y-59025000D01*
X40386928Y-59025000D01*
X40390000Y-59714250D01*
X40548750Y-59873000D01*
X41873000Y-59873000D01*
X41873000Y-58548750D01*
X42127000Y-58548750D01*
X42127000Y-59873000D01*
X43451250Y-59873000D01*
X43610000Y-59714250D01*
X43613072Y-59025000D01*
X45386928Y-59025000D01*
X45390000Y-59714250D01*
X45548750Y-59873000D01*
X46873000Y-59873000D01*
X46873000Y-58548750D01*
X47127000Y-58548750D01*
X47127000Y-59873000D01*
X48451250Y-59873000D01*
X48610000Y-59714250D01*
X48612869Y-59070512D01*
X84059783Y-59070512D01*
X84101213Y-59350130D01*
X84196397Y-59616292D01*
X84263329Y-59741514D01*
X84507298Y-59813097D01*
X85320395Y-59000000D01*
X85679605Y-59000000D01*
X86492702Y-59813097D01*
X86736671Y-59741514D01*
X86857571Y-59486004D01*
X86926300Y-59211816D01*
X86940217Y-58929488D01*
X86898787Y-58649870D01*
X86803603Y-58383708D01*
X86736671Y-58258486D01*
X86492702Y-58186903D01*
X85679605Y-59000000D01*
X85320395Y-59000000D01*
X84507298Y-58186903D01*
X84263329Y-58258486D01*
X84142429Y-58513996D01*
X84073700Y-58788184D01*
X84059783Y-59070512D01*
X48612869Y-59070512D01*
X48613072Y-59025000D01*
X48600812Y-58900518D01*
X48564502Y-58780820D01*
X48505537Y-58670506D01*
X48426185Y-58573815D01*
X48329494Y-58494463D01*
X48219180Y-58435498D01*
X48099482Y-58399188D01*
X47975000Y-58386928D01*
X47285750Y-58390000D01*
X47127000Y-58548750D01*
X46873000Y-58548750D01*
X46714250Y-58390000D01*
X46025000Y-58386928D01*
X45900518Y-58399188D01*
X45780820Y-58435498D01*
X45670506Y-58494463D01*
X45573815Y-58573815D01*
X45494463Y-58670506D01*
X45435498Y-58780820D01*
X45399188Y-58900518D01*
X45386928Y-59025000D01*
X43613072Y-59025000D01*
X43600812Y-58900518D01*
X43564502Y-58780820D01*
X43505537Y-58670506D01*
X43426185Y-58573815D01*
X43329494Y-58494463D01*
X43219180Y-58435498D01*
X43099482Y-58399188D01*
X42975000Y-58386928D01*
X42285750Y-58390000D01*
X42127000Y-58548750D01*
X41873000Y-58548750D01*
X41714250Y-58390000D01*
X41025000Y-58386928D01*
X40900518Y-58399188D01*
X40780820Y-58435498D01*
X40670506Y-58494463D01*
X40573815Y-58573815D01*
X40494463Y-58670506D01*
X40435498Y-58780820D01*
X40399188Y-58900518D01*
X40386928Y-59025000D01*
X36654050Y-59025000D01*
X36654050Y-58007298D01*
X84686903Y-58007298D01*
X85500000Y-58820395D01*
X86313097Y-58007298D01*
X86241514Y-57763329D01*
X85986004Y-57642429D01*
X85711816Y-57573700D01*
X85429488Y-57559783D01*
X85149870Y-57601213D01*
X84883708Y-57696397D01*
X84758486Y-57763329D01*
X84686903Y-58007298D01*
X36654050Y-58007298D01*
X36654050Y-54841429D01*
X40390000Y-54841429D01*
X40390000Y-55158571D01*
X40451871Y-55469620D01*
X40573237Y-55762621D01*
X40749431Y-56026315D01*
X40973685Y-56250569D01*
X41237379Y-56426763D01*
X41530380Y-56548129D01*
X41841429Y-56610000D01*
X42158571Y-56610000D01*
X42469620Y-56548129D01*
X42762621Y-56426763D01*
X43026315Y-56250569D01*
X43250569Y-56026315D01*
X43426763Y-55762621D01*
X43548129Y-55469620D01*
X43610000Y-55158571D01*
X43610000Y-54841429D01*
X45390000Y-54841429D01*
X45390000Y-55158571D01*
X45451871Y-55469620D01*
X45573237Y-55762621D01*
X45749431Y-56026315D01*
X45973685Y-56250569D01*
X46237379Y-56426763D01*
X46530380Y-56548129D01*
X46841429Y-56610000D01*
X47158571Y-56610000D01*
X47469620Y-56548129D01*
X47762621Y-56426763D01*
X48026315Y-56250569D01*
X48250569Y-56026315D01*
X48426763Y-55762621D01*
X48548129Y-55469620D01*
X48610000Y-55158571D01*
X48610000Y-54873863D01*
X56367622Y-54873863D01*
X56461121Y-55170446D01*
X56610684Y-55443089D01*
X56810563Y-55681315D01*
X57053077Y-55875969D01*
X57328906Y-56019571D01*
X57547020Y-56090563D01*
X57793000Y-55970594D01*
X57793000Y-54627000D01*
X56494430Y-54627000D01*
X56367622Y-54873863D01*
X48610000Y-54873863D01*
X48610000Y-54841429D01*
X48548129Y-54530380D01*
X48426763Y-54237379D01*
X48352434Y-54126137D01*
X56367622Y-54126137D01*
X56494430Y-54373000D01*
X57793000Y-54373000D01*
X57793000Y-53029406D01*
X57547020Y-52909437D01*
X57328906Y-52980429D01*
X57053077Y-53124031D01*
X56810563Y-53318685D01*
X56610684Y-53556911D01*
X56461121Y-53829554D01*
X56367622Y-54126137D01*
X48352434Y-54126137D01*
X48250569Y-53973685D01*
X48026315Y-53749431D01*
X47762621Y-53573237D01*
X47469620Y-53451871D01*
X47158571Y-53390000D01*
X46841429Y-53390000D01*
X46530380Y-53451871D01*
X46237379Y-53573237D01*
X45973685Y-53749431D01*
X45749431Y-53973685D01*
X45573237Y-54237379D01*
X45451871Y-54530380D01*
X45390000Y-54841429D01*
X43610000Y-54841429D01*
X43548129Y-54530380D01*
X43426763Y-54237379D01*
X43250569Y-53973685D01*
X43026315Y-53749431D01*
X42762621Y-53573237D01*
X42469620Y-53451871D01*
X42158571Y-53390000D01*
X41841429Y-53390000D01*
X41530380Y-53451871D01*
X41237379Y-53573237D01*
X40973685Y-53749431D01*
X40749431Y-53973685D01*
X40573237Y-54237379D01*
X40451871Y-54530380D01*
X40390000Y-54841429D01*
X36654050Y-54841429D01*
X36654050Y-49413330D01*
X36707278Y-49413330D01*
X36797147Y-49659123D01*
X36933241Y-49882660D01*
X37110330Y-50075351D01*
X37321608Y-50229792D01*
X37558956Y-50340047D01*
X37666671Y-50372716D01*
X37873000Y-50249374D01*
X37873000Y-49207000D01*
X38127000Y-49207000D01*
X38127000Y-50249374D01*
X38333329Y-50372716D01*
X38441044Y-50340047D01*
X38678392Y-50229792D01*
X38889670Y-50075351D01*
X39066759Y-49882660D01*
X39202853Y-49659123D01*
X39292722Y-49413330D01*
X39170201Y-49207000D01*
X38127000Y-49207000D01*
X37873000Y-49207000D01*
X36829799Y-49207000D01*
X36707278Y-49413330D01*
X36654050Y-49413330D01*
X36654050Y-48746670D01*
X36707278Y-48746670D01*
X36829799Y-48953000D01*
X37873000Y-48953000D01*
X37873000Y-47910626D01*
X38127000Y-47910626D01*
X38127000Y-48953000D01*
X39170201Y-48953000D01*
X39292722Y-48746670D01*
X39252044Y-48635413D01*
X47044192Y-48635413D01*
X47139956Y-48899814D01*
X47429571Y-49040704D01*
X47741108Y-49122384D01*
X48062595Y-49141718D01*
X48381675Y-49097961D01*
X48686088Y-48992795D01*
X48860044Y-48899814D01*
X48955808Y-48635413D01*
X48000000Y-47679605D01*
X47044192Y-48635413D01*
X39252044Y-48635413D01*
X39202853Y-48500877D01*
X39066759Y-48277340D01*
X38889670Y-48084649D01*
X38678392Y-47930208D01*
X38441044Y-47819953D01*
X38333329Y-47787284D01*
X38127000Y-47910626D01*
X37873000Y-47910626D01*
X37666671Y-47787284D01*
X37558956Y-47819953D01*
X37321608Y-47930208D01*
X37110330Y-48084649D01*
X36933241Y-48277340D01*
X36797147Y-48500877D01*
X36707278Y-48746670D01*
X36654050Y-48746670D01*
X36654050Y-47562595D01*
X46358282Y-47562595D01*
X46402039Y-47881675D01*
X46507205Y-48186088D01*
X46600186Y-48360044D01*
X46864587Y-48455808D01*
X47820395Y-47500000D01*
X48179605Y-47500000D01*
X49135413Y-48455808D01*
X49399814Y-48360044D01*
X49540704Y-48070429D01*
X49622384Y-47758892D01*
X49641718Y-47437405D01*
X49597961Y-47118325D01*
X49492795Y-46813912D01*
X49399814Y-46639956D01*
X49135413Y-46544192D01*
X48179605Y-47500000D01*
X47820395Y-47500000D01*
X46864587Y-46544192D01*
X46600186Y-46639956D01*
X46459296Y-46929571D01*
X46377616Y-47241108D01*
X46358282Y-47562595D01*
X36654050Y-47562595D01*
X36654050Y-46364587D01*
X47044192Y-46364587D01*
X48000000Y-47320395D01*
X48795395Y-46525000D01*
X56886928Y-46525000D01*
X56886928Y-48475000D01*
X56899188Y-48599482D01*
X56935498Y-48719180D01*
X56994463Y-48829494D01*
X57073815Y-48926185D01*
X57170506Y-49005537D01*
X57280820Y-49064502D01*
X57400518Y-49100812D01*
X57525000Y-49113072D01*
X59475000Y-49113072D01*
X59585581Y-49102181D01*
X59400686Y-49287076D01*
X59338286Y-49338286D01*
X59133969Y-49587249D01*
X58982148Y-49871286D01*
X58888657Y-50179485D01*
X58868034Y-50388873D01*
X58857089Y-50500000D01*
X58865000Y-50580320D01*
X58865001Y-53186700D01*
X58786923Y-53124031D01*
X58511094Y-52980429D01*
X58292980Y-52909437D01*
X58047000Y-53029406D01*
X58047000Y-54373000D01*
X58067000Y-54373000D01*
X58067000Y-54627000D01*
X58047000Y-54627000D01*
X58047000Y-55970594D01*
X58292980Y-56090563D01*
X58511094Y-56019571D01*
X58786923Y-55875969D01*
X59029437Y-55681315D01*
X59173481Y-55509636D01*
X59298287Y-55661713D01*
X59547248Y-55866030D01*
X59831286Y-56017852D01*
X60139484Y-56111342D01*
X60460000Y-56142911D01*
X60780516Y-56111342D01*
X61088714Y-56017852D01*
X61372752Y-55866030D01*
X61477277Y-55780248D01*
X61516963Y-55854494D01*
X61596315Y-55951185D01*
X61693006Y-56030537D01*
X61803320Y-56089502D01*
X61923018Y-56125812D01*
X62047500Y-56138072D01*
X63952500Y-56138072D01*
X64076982Y-56125812D01*
X64196680Y-56089502D01*
X64306994Y-56030537D01*
X64403685Y-55951185D01*
X64483037Y-55854494D01*
X64542002Y-55744180D01*
X64578312Y-55624482D01*
X64590572Y-55500000D01*
X64590572Y-54858665D01*
X65945000Y-54858665D01*
X65945000Y-55141335D01*
X66000147Y-55418574D01*
X66108320Y-55679727D01*
X66265363Y-55914759D01*
X66465241Y-56114637D01*
X66700273Y-56271680D01*
X66961426Y-56379853D01*
X67238665Y-56435000D01*
X67521335Y-56435000D01*
X67798574Y-56379853D01*
X68059727Y-56271680D01*
X68294759Y-56114637D01*
X68494637Y-55914759D01*
X68651680Y-55679727D01*
X68759853Y-55418574D01*
X68815000Y-55141335D01*
X68815000Y-54858665D01*
X73565000Y-54858665D01*
X73565000Y-55141335D01*
X73620147Y-55418574D01*
X73728320Y-55679727D01*
X73885363Y-55914759D01*
X74085241Y-56114637D01*
X74320273Y-56271680D01*
X74581426Y-56379853D01*
X74858665Y-56435000D01*
X75141335Y-56435000D01*
X75418574Y-56379853D01*
X75679727Y-56271680D01*
X75914759Y-56114637D01*
X76114637Y-55914759D01*
X76271680Y-55679727D01*
X76379853Y-55418574D01*
X76435000Y-55141335D01*
X76435000Y-54858665D01*
X76565000Y-54858665D01*
X76565000Y-55141335D01*
X76620147Y-55418574D01*
X76728320Y-55679727D01*
X76885363Y-55914759D01*
X77085241Y-56114637D01*
X77320273Y-56271680D01*
X77581426Y-56379853D01*
X77858665Y-56435000D01*
X78141335Y-56435000D01*
X78418574Y-56379853D01*
X78679727Y-56271680D01*
X78914759Y-56114637D01*
X79036694Y-55992702D01*
X82186903Y-55992702D01*
X82258486Y-56236671D01*
X82513996Y-56357571D01*
X82788184Y-56426300D01*
X83070512Y-56440217D01*
X83350130Y-56398787D01*
X83616292Y-56303603D01*
X83741514Y-56236671D01*
X83813097Y-55992702D01*
X83000000Y-55179605D01*
X82186903Y-55992702D01*
X79036694Y-55992702D01*
X79114637Y-55914759D01*
X79271680Y-55679727D01*
X79379853Y-55418574D01*
X79435000Y-55141335D01*
X79435000Y-55070512D01*
X81559783Y-55070512D01*
X81601213Y-55350130D01*
X81696397Y-55616292D01*
X81763329Y-55741514D01*
X82007298Y-55813097D01*
X82820395Y-55000000D01*
X83179605Y-55000000D01*
X83992702Y-55813097D01*
X84236671Y-55741514D01*
X84357571Y-55486004D01*
X84426300Y-55211816D01*
X84440217Y-54929488D01*
X84398787Y-54649870D01*
X84303603Y-54383708D01*
X84236671Y-54258486D01*
X83992702Y-54186903D01*
X83179605Y-55000000D01*
X82820395Y-55000000D01*
X82007298Y-54186903D01*
X81763329Y-54258486D01*
X81642429Y-54513996D01*
X81573700Y-54788184D01*
X81559783Y-55070512D01*
X79435000Y-55070512D01*
X79435000Y-54858665D01*
X79379853Y-54581426D01*
X79271680Y-54320273D01*
X79114637Y-54085241D01*
X79036694Y-54007298D01*
X82186903Y-54007298D01*
X83000000Y-54820395D01*
X83760945Y-54059450D01*
X119134500Y-54059450D01*
X119134500Y-54320550D01*
X119185438Y-54576634D01*
X119285357Y-54817860D01*
X119430417Y-55034957D01*
X119615043Y-55219583D01*
X119832140Y-55364643D01*
X120062352Y-55460000D01*
X119832140Y-55555357D01*
X119615043Y-55700417D01*
X119430417Y-55885043D01*
X119285357Y-56102140D01*
X119185438Y-56343366D01*
X119134500Y-56599450D01*
X119134500Y-56860550D01*
X119185438Y-57116634D01*
X119285357Y-57357860D01*
X119430417Y-57574957D01*
X119615043Y-57759583D01*
X119832140Y-57904643D01*
X120073366Y-58004562D01*
X120329450Y-58055500D01*
X120590550Y-58055500D01*
X120846634Y-58004562D01*
X121087860Y-57904643D01*
X121304957Y-57759583D01*
X121489583Y-57574957D01*
X121634643Y-57357860D01*
X121734562Y-57116634D01*
X121785500Y-56860550D01*
X121785500Y-56599450D01*
X121734562Y-56343366D01*
X121634643Y-56102140D01*
X121489583Y-55885043D01*
X121304957Y-55700417D01*
X121087860Y-55555357D01*
X120857648Y-55460000D01*
X121087860Y-55364643D01*
X121304957Y-55219583D01*
X121489583Y-55034957D01*
X121634643Y-54817860D01*
X121734562Y-54576634D01*
X121785500Y-54320550D01*
X121785500Y-54059450D01*
X121734562Y-53803366D01*
X121634643Y-53562140D01*
X121489583Y-53345043D01*
X121304957Y-53160417D01*
X121087860Y-53015357D01*
X120852448Y-52917846D01*
X121038047Y-52849939D01*
X121136567Y-52797279D01*
X121138527Y-52789450D01*
X121674500Y-52789450D01*
X121674500Y-53050550D01*
X121725438Y-53306634D01*
X121825357Y-53547860D01*
X121970417Y-53764957D01*
X122155043Y-53949583D01*
X122372140Y-54094643D01*
X122602352Y-54190000D01*
X122372140Y-54285357D01*
X122155043Y-54430417D01*
X121970417Y-54615043D01*
X121825357Y-54832140D01*
X121725438Y-55073366D01*
X121674500Y-55329450D01*
X121674500Y-55590550D01*
X121725438Y-55846634D01*
X121825357Y-56087860D01*
X121970417Y-56304957D01*
X122155043Y-56489583D01*
X122372140Y-56634643D01*
X122602352Y-56730000D01*
X122372140Y-56825357D01*
X122155043Y-56970417D01*
X121970417Y-57155043D01*
X121825357Y-57372140D01*
X121725438Y-57613366D01*
X121674500Y-57869450D01*
X121674500Y-58130550D01*
X121725438Y-58386634D01*
X121825357Y-58627860D01*
X121970417Y-58844957D01*
X122155043Y-59029583D01*
X122372140Y-59174643D01*
X122613366Y-59274562D01*
X122869450Y-59325500D01*
X123130550Y-59325500D01*
X123386634Y-59274562D01*
X123627860Y-59174643D01*
X123844957Y-59029583D01*
X124029583Y-58844957D01*
X124174643Y-58627860D01*
X124274562Y-58386634D01*
X124325500Y-58130550D01*
X124325500Y-57869450D01*
X124274562Y-57613366D01*
X124174643Y-57372140D01*
X124029583Y-57155043D01*
X123844957Y-56970417D01*
X123627860Y-56825357D01*
X123397648Y-56730000D01*
X123627860Y-56634643D01*
X123844957Y-56489583D01*
X124029583Y-56304957D01*
X124174643Y-56087860D01*
X124274562Y-55846634D01*
X124325500Y-55590550D01*
X124325500Y-55329450D01*
X124274562Y-55073366D01*
X124174643Y-54832140D01*
X124029583Y-54615043D01*
X123844957Y-54430417D01*
X123627860Y-54285357D01*
X123397648Y-54190000D01*
X123627860Y-54094643D01*
X123844957Y-53949583D01*
X124029583Y-53764957D01*
X124174643Y-53547860D01*
X124274562Y-53306634D01*
X124325500Y-53050550D01*
X124325500Y-52789450D01*
X124274562Y-52533366D01*
X124174643Y-52292140D01*
X124029583Y-52075043D01*
X123844957Y-51890417D01*
X123627860Y-51745357D01*
X123386634Y-51645438D01*
X123130550Y-51594500D01*
X122869450Y-51594500D01*
X122613366Y-51645438D01*
X122372140Y-51745357D01*
X122155043Y-51890417D01*
X121970417Y-52075043D01*
X121825357Y-52292140D01*
X121725438Y-52533366D01*
X121674500Y-52789450D01*
X121138527Y-52789450D01*
X121194875Y-52564480D01*
X120460000Y-51829605D01*
X119725125Y-52564480D01*
X119783433Y-52797279D01*
X120020257Y-52907227D01*
X120066229Y-52918394D01*
X119832140Y-53015357D01*
X119615043Y-53160417D01*
X119430417Y-53345043D01*
X119285357Y-53562140D01*
X119185438Y-53803366D01*
X119134500Y-54059450D01*
X83760945Y-54059450D01*
X83813097Y-54007298D01*
X83741514Y-53763329D01*
X83486004Y-53642429D01*
X83211816Y-53573700D01*
X82929488Y-53559783D01*
X82649870Y-53601213D01*
X82383708Y-53696397D01*
X82258486Y-53763329D01*
X82186903Y-54007298D01*
X79036694Y-54007298D01*
X78914759Y-53885363D01*
X78679727Y-53728320D01*
X78418574Y-53620147D01*
X78141335Y-53565000D01*
X77858665Y-53565000D01*
X77581426Y-53620147D01*
X77320273Y-53728320D01*
X77085241Y-53885363D01*
X76885363Y-54085241D01*
X76728320Y-54320273D01*
X76620147Y-54581426D01*
X76565000Y-54858665D01*
X76435000Y-54858665D01*
X76379853Y-54581426D01*
X76271680Y-54320273D01*
X76114637Y-54085241D01*
X75914759Y-53885363D01*
X75679727Y-53728320D01*
X75418574Y-53620147D01*
X75141335Y-53565000D01*
X74858665Y-53565000D01*
X74581426Y-53620147D01*
X74320273Y-53728320D01*
X74085241Y-53885363D01*
X73885363Y-54085241D01*
X73728320Y-54320273D01*
X73620147Y-54581426D01*
X73565000Y-54858665D01*
X68815000Y-54858665D01*
X68759853Y-54581426D01*
X68651680Y-54320273D01*
X68494637Y-54085241D01*
X68294759Y-53885363D01*
X68059727Y-53728320D01*
X67798574Y-53620147D01*
X67521335Y-53565000D01*
X67238665Y-53565000D01*
X66961426Y-53620147D01*
X66700273Y-53728320D01*
X66465241Y-53885363D01*
X66265363Y-54085241D01*
X66108320Y-54320273D01*
X66000147Y-54581426D01*
X65945000Y-54858665D01*
X64590572Y-54858665D01*
X64590572Y-53500000D01*
X64578312Y-53375518D01*
X64542002Y-53255820D01*
X64483037Y-53145506D01*
X64403685Y-53048815D01*
X64306994Y-52969463D01*
X64196680Y-52910498D01*
X64076982Y-52874188D01*
X63952500Y-52861928D01*
X62135000Y-52861928D01*
X62135000Y-51724849D01*
X119130192Y-51724849D01*
X119170346Y-51982844D01*
X119260061Y-52228047D01*
X119312721Y-52326567D01*
X119545520Y-52384875D01*
X120280395Y-51650000D01*
X119545520Y-50915125D01*
X119312721Y-50973433D01*
X119202773Y-51210257D01*
X119141141Y-51463979D01*
X119130192Y-51724849D01*
X62135000Y-51724849D01*
X62135000Y-51177238D01*
X62576718Y-50735520D01*
X119725125Y-50735520D01*
X120460000Y-51470395D01*
X120474143Y-51456253D01*
X120653748Y-51635858D01*
X120639605Y-51650000D01*
X121374480Y-52384875D01*
X121607279Y-52326567D01*
X121717227Y-52089743D01*
X121778859Y-51836021D01*
X121789550Y-51581306D01*
X121848718Y-51605814D01*
X122121127Y-51660000D01*
X122398873Y-51660000D01*
X122671282Y-51605814D01*
X122927885Y-51499525D01*
X123158822Y-51345218D01*
X123355218Y-51148822D01*
X123509525Y-50917885D01*
X123615814Y-50661282D01*
X123670000Y-50388873D01*
X123670000Y-50111127D01*
X123615814Y-49838718D01*
X123509525Y-49582115D01*
X123355218Y-49351178D01*
X123158822Y-49154782D01*
X122927885Y-49000475D01*
X122671282Y-48894186D01*
X122398873Y-48840000D01*
X122121127Y-48840000D01*
X121848718Y-48894186D01*
X121592115Y-49000475D01*
X121361178Y-49154782D01*
X121164782Y-49351178D01*
X121010475Y-49582115D01*
X120904186Y-49838718D01*
X120850000Y-50111127D01*
X120850000Y-50380690D01*
X120646021Y-50331141D01*
X120385151Y-50320192D01*
X120127156Y-50360346D01*
X119881953Y-50450061D01*
X119783433Y-50502721D01*
X119725125Y-50735520D01*
X62576718Y-50735520D01*
X64599325Y-48712915D01*
X64661714Y-48661714D01*
X64866031Y-48412752D01*
X65017852Y-48128715D01*
X65076176Y-47936446D01*
X65111343Y-47820517D01*
X65142911Y-47500000D01*
X65135000Y-47419678D01*
X65135000Y-47341429D01*
X66890000Y-47341429D01*
X66890000Y-47658571D01*
X66951871Y-47969620D01*
X67073237Y-48262621D01*
X67249431Y-48526315D01*
X67473685Y-48750569D01*
X67737379Y-48926763D01*
X68030380Y-49048129D01*
X68341429Y-49110000D01*
X68658571Y-49110000D01*
X68969620Y-49048129D01*
X69262621Y-48926763D01*
X69526315Y-48750569D01*
X69750569Y-48526315D01*
X69926763Y-48262621D01*
X70048129Y-47969620D01*
X70110000Y-47658571D01*
X70110000Y-47341429D01*
X70048129Y-47030380D01*
X69926763Y-46737379D01*
X69750569Y-46473685D01*
X69526315Y-46249431D01*
X69262621Y-46073237D01*
X68969620Y-45951871D01*
X68658571Y-45890000D01*
X68341429Y-45890000D01*
X68030380Y-45951871D01*
X67737379Y-46073237D01*
X67473685Y-46249431D01*
X67249431Y-46473685D01*
X67073237Y-46737379D01*
X66951871Y-47030380D01*
X66890000Y-47341429D01*
X65135000Y-47341429D01*
X65135000Y-43177238D01*
X65970809Y-42341429D01*
X66890000Y-42341429D01*
X66890000Y-42658571D01*
X66951871Y-42969620D01*
X67073237Y-43262621D01*
X67249431Y-43526315D01*
X67473685Y-43750569D01*
X67737379Y-43926763D01*
X68030380Y-44048129D01*
X68341429Y-44110000D01*
X68658571Y-44110000D01*
X68969620Y-44048129D01*
X69262621Y-43926763D01*
X69526315Y-43750569D01*
X69750569Y-43526315D01*
X69926763Y-43262621D01*
X70048129Y-42969620D01*
X70110000Y-42658571D01*
X70110000Y-42341429D01*
X70048129Y-42030380D01*
X69926763Y-41737379D01*
X69750569Y-41473685D01*
X69526315Y-41249431D01*
X69262621Y-41073237D01*
X68969620Y-40951871D01*
X68658571Y-40890000D01*
X68341429Y-40890000D01*
X68030380Y-40951871D01*
X67737379Y-41073237D01*
X67473685Y-41249431D01*
X67249431Y-41473685D01*
X67073237Y-41737379D01*
X66951871Y-42030380D01*
X66890000Y-42341429D01*
X65970809Y-42341429D01*
X69177239Y-39135000D01*
X71865001Y-39135000D01*
X71865000Y-42580321D01*
X71865001Y-42580331D01*
X71865000Y-47580321D01*
X71888657Y-47820515D01*
X71982148Y-48128714D01*
X72133969Y-48412751D01*
X72338286Y-48661714D01*
X72587248Y-48866031D01*
X72871285Y-49017852D01*
X73179484Y-49111343D01*
X73500000Y-49142911D01*
X73820515Y-49111343D01*
X74128714Y-49017852D01*
X74412751Y-48866031D01*
X74661714Y-48661714D01*
X74866031Y-48412752D01*
X75017852Y-48128715D01*
X75111343Y-47820516D01*
X75135000Y-47580322D01*
X75135000Y-47341429D01*
X76890000Y-47341429D01*
X76890000Y-47658571D01*
X76951871Y-47969620D01*
X77073237Y-48262621D01*
X77249431Y-48526315D01*
X77473685Y-48750569D01*
X77737379Y-48926763D01*
X78030380Y-49048129D01*
X78341429Y-49110000D01*
X78658571Y-49110000D01*
X78969620Y-49048129D01*
X79262621Y-48926763D01*
X79526315Y-48750569D01*
X79750569Y-48526315D01*
X79926763Y-48262621D01*
X80048129Y-47969620D01*
X80110000Y-47658571D01*
X80110000Y-47341429D01*
X80048129Y-47030380D01*
X79926763Y-46737379D01*
X79750569Y-46473685D01*
X79526315Y-46249431D01*
X79262621Y-46073237D01*
X78969620Y-45951871D01*
X78658571Y-45890000D01*
X78341429Y-45890000D01*
X78030380Y-45951871D01*
X77737379Y-46073237D01*
X77473685Y-46249431D01*
X77249431Y-46473685D01*
X77073237Y-46737379D01*
X76951871Y-47030380D01*
X76890000Y-47341429D01*
X75135000Y-47341429D01*
X75135000Y-42341429D01*
X76890000Y-42341429D01*
X76890000Y-42658571D01*
X76951871Y-42969620D01*
X77073237Y-43262621D01*
X77249431Y-43526315D01*
X77473685Y-43750569D01*
X77737379Y-43926763D01*
X78030380Y-44048129D01*
X78341429Y-44110000D01*
X78658571Y-44110000D01*
X78969620Y-44048129D01*
X79262621Y-43926763D01*
X79526315Y-43750569D01*
X79750569Y-43526315D01*
X79926763Y-43262621D01*
X80048129Y-42969620D01*
X80110000Y-42658571D01*
X80110000Y-42341429D01*
X80048129Y-42030380D01*
X79926763Y-41737379D01*
X79750569Y-41473685D01*
X79526315Y-41249431D01*
X79262621Y-41073237D01*
X78969620Y-40951871D01*
X78658571Y-40890000D01*
X78341429Y-40890000D01*
X78030380Y-40951871D01*
X77737379Y-41073237D01*
X77473685Y-41249431D01*
X77249431Y-41473685D01*
X77073237Y-41737379D01*
X76951871Y-42030380D01*
X76890000Y-42341429D01*
X75135000Y-42341429D01*
X75135000Y-39135000D01*
X81865001Y-39135000D01*
X81865000Y-42580321D01*
X81865001Y-42580331D01*
X81865000Y-47580321D01*
X81888657Y-47820515D01*
X81982148Y-48128714D01*
X82133969Y-48412751D01*
X82338286Y-48661714D01*
X82587248Y-48866031D01*
X82871285Y-49017852D01*
X83179484Y-49111343D01*
X83500000Y-49142911D01*
X83820515Y-49111343D01*
X84128714Y-49017852D01*
X84412751Y-48866031D01*
X84661714Y-48661714D01*
X84866031Y-48412752D01*
X85017852Y-48128715D01*
X85111343Y-47820516D01*
X85135000Y-47580322D01*
X85135000Y-47341429D01*
X86890000Y-47341429D01*
X86890000Y-47658571D01*
X86951871Y-47969620D01*
X87073237Y-48262621D01*
X87249431Y-48526315D01*
X87473685Y-48750569D01*
X87737379Y-48926763D01*
X88030380Y-49048129D01*
X88341429Y-49110000D01*
X88658571Y-49110000D01*
X88969620Y-49048129D01*
X89262621Y-48926763D01*
X89526315Y-48750569D01*
X89750569Y-48526315D01*
X89926763Y-48262621D01*
X90048129Y-47969620D01*
X90110000Y-47658571D01*
X90110000Y-47341429D01*
X90048129Y-47030380D01*
X89926763Y-46737379D01*
X89750569Y-46473685D01*
X89526315Y-46249431D01*
X89262621Y-46073237D01*
X88969620Y-45951871D01*
X88658571Y-45890000D01*
X88341429Y-45890000D01*
X88030380Y-45951871D01*
X87737379Y-46073237D01*
X87473685Y-46249431D01*
X87249431Y-46473685D01*
X87073237Y-46737379D01*
X86951871Y-47030380D01*
X86890000Y-47341429D01*
X85135000Y-47341429D01*
X85135000Y-42341429D01*
X86890000Y-42341429D01*
X86890000Y-42658571D01*
X86951871Y-42969620D01*
X87073237Y-43262621D01*
X87249431Y-43526315D01*
X87473685Y-43750569D01*
X87737379Y-43926763D01*
X88030380Y-44048129D01*
X88341429Y-44110000D01*
X88658571Y-44110000D01*
X88969620Y-44048129D01*
X89262621Y-43926763D01*
X89526315Y-43750569D01*
X89750569Y-43526315D01*
X89926763Y-43262621D01*
X90048129Y-42969620D01*
X90110000Y-42658571D01*
X90110000Y-42341429D01*
X90048129Y-42030380D01*
X89926763Y-41737379D01*
X89750569Y-41473685D01*
X89526315Y-41249431D01*
X89262621Y-41073237D01*
X88969620Y-40951871D01*
X88658571Y-40890000D01*
X88341429Y-40890000D01*
X88030380Y-40951871D01*
X87737379Y-41073237D01*
X87473685Y-41249431D01*
X87249431Y-41473685D01*
X87073237Y-41737379D01*
X86951871Y-42030380D01*
X86890000Y-42341429D01*
X85135000Y-42341429D01*
X85135000Y-39135000D01*
X87822762Y-39135000D01*
X91865000Y-43177239D01*
X91865001Y-47580322D01*
X91888658Y-47820516D01*
X91982149Y-48128715D01*
X92133970Y-48412752D01*
X92338287Y-48661714D01*
X92587249Y-48866031D01*
X92871286Y-49017852D01*
X93179485Y-49111343D01*
X93500000Y-49142911D01*
X93820516Y-49111343D01*
X94128715Y-49017852D01*
X94412752Y-48866031D01*
X94661714Y-48661714D01*
X94866031Y-48412752D01*
X95017852Y-48128715D01*
X95111343Y-47820516D01*
X95135000Y-47580322D01*
X95135000Y-42580321D01*
X95142911Y-42500000D01*
X95138972Y-42460000D01*
X102357319Y-42460000D01*
X102387970Y-42771204D01*
X102478745Y-43070449D01*
X102626155Y-43346235D01*
X102824537Y-43587963D01*
X102997609Y-43730000D01*
X102824537Y-43872037D01*
X102626155Y-44113765D01*
X102478745Y-44389551D01*
X102387970Y-44688796D01*
X102357319Y-45000000D01*
X102387970Y-45311204D01*
X102478745Y-45610449D01*
X102626155Y-45886235D01*
X102729446Y-46012095D01*
X102645506Y-46056963D01*
X102548815Y-46136315D01*
X102469463Y-46233006D01*
X102410498Y-46343320D01*
X102374188Y-46463018D01*
X102361928Y-46587500D01*
X102361928Y-48492500D01*
X102374188Y-48616982D01*
X102410498Y-48736680D01*
X102469463Y-48846994D01*
X102548815Y-48943685D01*
X102645506Y-49023037D01*
X102755820Y-49082002D01*
X102875518Y-49118312D01*
X103000000Y-49130572D01*
X105000000Y-49130572D01*
X105124482Y-49118312D01*
X105244180Y-49082002D01*
X105354494Y-49023037D01*
X105451185Y-48943685D01*
X105530537Y-48846994D01*
X105589502Y-48736680D01*
X105608212Y-48675000D01*
X107235848Y-48675000D01*
X107367641Y-48763061D01*
X107610595Y-48863696D01*
X107868514Y-48915000D01*
X108131486Y-48915000D01*
X108389405Y-48863696D01*
X108632359Y-48763061D01*
X108851013Y-48616962D01*
X109036962Y-48431013D01*
X109183061Y-48212359D01*
X109283696Y-47969405D01*
X109320438Y-47784693D01*
X112467060Y-44638072D01*
X113500000Y-44638072D01*
X113624482Y-44625812D01*
X113744180Y-44589502D01*
X113854494Y-44530537D01*
X113951185Y-44451185D01*
X114030537Y-44354494D01*
X114089502Y-44244180D01*
X114122496Y-44135413D01*
X116544192Y-44135413D01*
X116639956Y-44399814D01*
X116929571Y-44540704D01*
X117241108Y-44622384D01*
X117562595Y-44641718D01*
X117881675Y-44597961D01*
X118186088Y-44492795D01*
X118360044Y-44399814D01*
X118455808Y-44135413D01*
X117500000Y-43179605D01*
X116544192Y-44135413D01*
X114122496Y-44135413D01*
X114125812Y-44124482D01*
X114138072Y-44000000D01*
X114138072Y-43062595D01*
X115858282Y-43062595D01*
X115902039Y-43381675D01*
X116007205Y-43686088D01*
X116100186Y-43860044D01*
X116364587Y-43955808D01*
X117320395Y-43000000D01*
X117679605Y-43000000D01*
X118635413Y-43955808D01*
X118899814Y-43860044D01*
X119040704Y-43570429D01*
X119122384Y-43258892D01*
X119141718Y-42937405D01*
X119097961Y-42618325D01*
X118992795Y-42313912D01*
X118899814Y-42139956D01*
X118635413Y-42044192D01*
X117679605Y-43000000D01*
X117320395Y-43000000D01*
X116364587Y-42044192D01*
X116100186Y-42139956D01*
X115959296Y-42429571D01*
X115877616Y-42741108D01*
X115858282Y-43062595D01*
X114138072Y-43062595D01*
X114138072Y-42000000D01*
X114125812Y-41875518D01*
X114122497Y-41864587D01*
X116544192Y-41864587D01*
X117500000Y-42820395D01*
X118455808Y-41864587D01*
X118360044Y-41600186D01*
X118070429Y-41459296D01*
X117758892Y-41377616D01*
X117437405Y-41358282D01*
X117118325Y-41402039D01*
X116813912Y-41507205D01*
X116639956Y-41600186D01*
X116544192Y-41864587D01*
X114122497Y-41864587D01*
X114089502Y-41755820D01*
X114030537Y-41645506D01*
X113951185Y-41548815D01*
X113854494Y-41469463D01*
X113744180Y-41410498D01*
X113624482Y-41374188D01*
X113500000Y-41361928D01*
X111500000Y-41361928D01*
X111375518Y-41374188D01*
X111255820Y-41410498D01*
X111145506Y-41469463D01*
X111048815Y-41548815D01*
X110969463Y-41645506D01*
X110910498Y-41755820D01*
X110874188Y-41875518D01*
X110861928Y-42000000D01*
X110861928Y-43032940D01*
X107590058Y-46304811D01*
X107367641Y-46396939D01*
X107355577Y-46405000D01*
X105608212Y-46405000D01*
X105589502Y-46343320D01*
X105530537Y-46233006D01*
X105451185Y-46136315D01*
X105354494Y-46056963D01*
X105270554Y-46012095D01*
X105373845Y-45886235D01*
X105521255Y-45610449D01*
X105612030Y-45311204D01*
X105642681Y-45000000D01*
X105612030Y-44688796D01*
X105521255Y-44389551D01*
X105373845Y-44113765D01*
X105175463Y-43872037D01*
X105002391Y-43730000D01*
X105175463Y-43587963D01*
X105373845Y-43346235D01*
X105521255Y-43070449D01*
X105612030Y-42771204D01*
X105642681Y-42460000D01*
X105633671Y-42368514D01*
X106665000Y-42368514D01*
X106665000Y-42631486D01*
X106716304Y-42889405D01*
X106816939Y-43132359D01*
X106963038Y-43351013D01*
X107148987Y-43536962D01*
X107367641Y-43683061D01*
X107610595Y-43783696D01*
X107868514Y-43835000D01*
X108131486Y-43835000D01*
X108389405Y-43783696D01*
X108632359Y-43683061D01*
X108851013Y-43536962D01*
X109036962Y-43351013D01*
X109183061Y-43132359D01*
X109283696Y-42889405D01*
X109335000Y-42631486D01*
X109335000Y-42368514D01*
X109283696Y-42110595D01*
X109183061Y-41867641D01*
X109036962Y-41648987D01*
X108851013Y-41463038D01*
X108632359Y-41316939D01*
X108389405Y-41216304D01*
X108131486Y-41165000D01*
X107868514Y-41165000D01*
X107610595Y-41216304D01*
X107367641Y-41316939D01*
X107148987Y-41463038D01*
X106963038Y-41648987D01*
X106816939Y-41867641D01*
X106716304Y-42110595D01*
X106665000Y-42368514D01*
X105633671Y-42368514D01*
X105612030Y-42148796D01*
X105521255Y-41849551D01*
X105373845Y-41573765D01*
X105175463Y-41332037D01*
X104933735Y-41133655D01*
X104657949Y-40986245D01*
X104358704Y-40895470D01*
X104125486Y-40872500D01*
X103874514Y-40872500D01*
X103641296Y-40895470D01*
X103342051Y-40986245D01*
X103066265Y-41133655D01*
X102824537Y-41332037D01*
X102626155Y-41573765D01*
X102478745Y-41849551D01*
X102387970Y-42148796D01*
X102357319Y-42460000D01*
X95138972Y-42460000D01*
X95111343Y-42179483D01*
X95017852Y-41871285D01*
X95006235Y-41849551D01*
X94866031Y-41587248D01*
X94661714Y-41338286D01*
X94599320Y-41287081D01*
X91033016Y-37720777D01*
X119165000Y-37720777D01*
X119165000Y-38279223D01*
X119273948Y-38826939D01*
X119487656Y-39342876D01*
X119797912Y-39807207D01*
X120192793Y-40202088D01*
X120657124Y-40512344D01*
X121173061Y-40726052D01*
X121720777Y-40835000D01*
X122279223Y-40835000D01*
X122826939Y-40726052D01*
X123342876Y-40512344D01*
X123807207Y-40202088D01*
X124202088Y-39807207D01*
X124512344Y-39342876D01*
X124726052Y-38826939D01*
X124835000Y-38279223D01*
X124835000Y-37720777D01*
X124726052Y-37173061D01*
X124512344Y-36657124D01*
X124202088Y-36192793D01*
X123807207Y-35797912D01*
X123342876Y-35487656D01*
X122826939Y-35273948D01*
X122279223Y-35165000D01*
X121720777Y-35165000D01*
X121173061Y-35273948D01*
X120657124Y-35487656D01*
X120192793Y-35797912D01*
X119797912Y-36192793D01*
X119487656Y-36657124D01*
X119273948Y-37173061D01*
X119165000Y-37720777D01*
X91033016Y-37720777D01*
X89712925Y-36400687D01*
X89661714Y-36338286D01*
X89412752Y-36133969D01*
X89128715Y-35982148D01*
X88820516Y-35888657D01*
X88580322Y-35865000D01*
X88580319Y-35865000D01*
X88500000Y-35857089D01*
X88419681Y-35865000D01*
X83080319Y-35865000D01*
X83000000Y-35857089D01*
X82919681Y-35865000D01*
X74080322Y-35865000D01*
X74000000Y-35857089D01*
X73919678Y-35865000D01*
X68580322Y-35865000D01*
X68500000Y-35857089D01*
X68179483Y-35888657D01*
X67893283Y-35975475D01*
X67871285Y-35982148D01*
X67587248Y-36133969D01*
X67338286Y-36338286D01*
X67287080Y-36400681D01*
X62400682Y-41287080D01*
X62338287Y-41338286D01*
X62165511Y-41548815D01*
X62133970Y-41587248D01*
X61982148Y-41871286D01*
X61888658Y-42179484D01*
X61857089Y-42500000D01*
X61865001Y-42580329D01*
X61865000Y-46822760D01*
X60102181Y-48585580D01*
X60113072Y-48475000D01*
X60113072Y-46525000D01*
X60100812Y-46400518D01*
X60064502Y-46280820D01*
X60005537Y-46170506D01*
X59926185Y-46073815D01*
X59829494Y-45994463D01*
X59719180Y-45935498D01*
X59599482Y-45899188D01*
X59475000Y-45886928D01*
X57525000Y-45886928D01*
X57400518Y-45899188D01*
X57280820Y-45935498D01*
X57170506Y-45994463D01*
X57073815Y-46073815D01*
X56994463Y-46170506D01*
X56935498Y-46280820D01*
X56899188Y-46400518D01*
X56886928Y-46525000D01*
X48795395Y-46525000D01*
X48955808Y-46364587D01*
X48860044Y-46100186D01*
X48570429Y-45959296D01*
X48258892Y-45877616D01*
X47937405Y-45858282D01*
X47618325Y-45902039D01*
X47313912Y-46007205D01*
X47139956Y-46100186D01*
X47044192Y-46364587D01*
X36654050Y-46364587D01*
X36654050Y-43868514D01*
X36665000Y-43868514D01*
X36665000Y-44131486D01*
X36716304Y-44389405D01*
X36816939Y-44632359D01*
X36963038Y-44851013D01*
X37148987Y-45036962D01*
X37367641Y-45183061D01*
X37610595Y-45283696D01*
X37868514Y-45335000D01*
X38131486Y-45335000D01*
X38389405Y-45283696D01*
X38632359Y-45183061D01*
X38851013Y-45036962D01*
X39036962Y-44851013D01*
X39183061Y-44632359D01*
X39283696Y-44389405D01*
X39335000Y-44131486D01*
X39335000Y-43868514D01*
X39283696Y-43610595D01*
X39183061Y-43367641D01*
X39036962Y-43148987D01*
X38851013Y-42963038D01*
X38632359Y-42816939D01*
X38389405Y-42716304D01*
X38131486Y-42665000D01*
X37868514Y-42665000D01*
X37610595Y-42716304D01*
X37367641Y-42816939D01*
X37148987Y-42963038D01*
X36963038Y-43148987D01*
X36816939Y-43367641D01*
X36716304Y-43610595D01*
X36665000Y-43868514D01*
X36654050Y-43868514D01*
X36654050Y-41500000D01*
X46361928Y-41500000D01*
X46361928Y-43500000D01*
X46374188Y-43624482D01*
X46410498Y-43744180D01*
X46469463Y-43854494D01*
X46548815Y-43951185D01*
X46645506Y-44030537D01*
X46755820Y-44089502D01*
X46875518Y-44125812D01*
X47000000Y-44138072D01*
X49000000Y-44138072D01*
X49124482Y-44125812D01*
X49244180Y-44089502D01*
X49354494Y-44030537D01*
X49451185Y-43951185D01*
X49530537Y-43854494D01*
X49589502Y-43744180D01*
X49625812Y-43624482D01*
X49638072Y-43500000D01*
X49638072Y-41525000D01*
X56886928Y-41525000D01*
X56886928Y-43475000D01*
X56899188Y-43599482D01*
X56935498Y-43719180D01*
X56994463Y-43829494D01*
X57073815Y-43926185D01*
X57170506Y-44005537D01*
X57280820Y-44064502D01*
X57400518Y-44100812D01*
X57525000Y-44113072D01*
X59475000Y-44113072D01*
X59599482Y-44100812D01*
X59719180Y-44064502D01*
X59829494Y-44005537D01*
X59926185Y-43926185D01*
X60005537Y-43829494D01*
X60064502Y-43719180D01*
X60100812Y-43599482D01*
X60113072Y-43475000D01*
X60113072Y-41525000D01*
X60100812Y-41400518D01*
X60064502Y-41280820D01*
X60005537Y-41170506D01*
X59926185Y-41073815D01*
X59829494Y-40994463D01*
X59719180Y-40935498D01*
X59599482Y-40899188D01*
X59475000Y-40886928D01*
X57525000Y-40886928D01*
X57400518Y-40899188D01*
X57280820Y-40935498D01*
X57170506Y-40994463D01*
X57073815Y-41073815D01*
X56994463Y-41170506D01*
X56935498Y-41280820D01*
X56899188Y-41400518D01*
X56886928Y-41525000D01*
X49638072Y-41525000D01*
X49638072Y-41500000D01*
X49625812Y-41375518D01*
X49589502Y-41255820D01*
X49530537Y-41145506D01*
X49451185Y-41048815D01*
X49354494Y-40969463D01*
X49244180Y-40910498D01*
X49124482Y-40874188D01*
X49000000Y-40861928D01*
X47000000Y-40861928D01*
X46875518Y-40874188D01*
X46755820Y-40910498D01*
X46645506Y-40969463D01*
X46548815Y-41048815D01*
X46469463Y-41145506D01*
X46410498Y-41255820D01*
X46374188Y-41375518D01*
X46361928Y-41500000D01*
X36654050Y-41500000D01*
X36654050Y-38031993D01*
X36684564Y-37720777D01*
X37165000Y-37720777D01*
X37165000Y-38279223D01*
X37273948Y-38826939D01*
X37487656Y-39342876D01*
X37797912Y-39807207D01*
X38192793Y-40202088D01*
X38657124Y-40512344D01*
X39173061Y-40726052D01*
X39720777Y-40835000D01*
X40279223Y-40835000D01*
X40826939Y-40726052D01*
X41342876Y-40512344D01*
X41807207Y-40202088D01*
X42202088Y-39807207D01*
X42512344Y-39342876D01*
X42726052Y-38826939D01*
X42835000Y-38279223D01*
X42835000Y-37720777D01*
X42726052Y-37173061D01*
X42512344Y-36657124D01*
X42202088Y-36192793D01*
X41807207Y-35797912D01*
X41342876Y-35487656D01*
X40826939Y-35273948D01*
X40279223Y-35165000D01*
X39720777Y-35165000D01*
X39173061Y-35273948D01*
X38657124Y-35487656D01*
X38192793Y-35797912D01*
X37797912Y-36192793D01*
X37487656Y-36657124D01*
X37273948Y-37173061D01*
X37165000Y-37720777D01*
X36684564Y-37720777D01*
X36720850Y-37350709D01*
X36909416Y-36726152D01*
X37215699Y-36150117D01*
X37628038Y-35644539D01*
X38130721Y-35228682D01*
X38704606Y-34918384D01*
X39327834Y-34725463D01*
X40007276Y-34654050D01*
X121968007Y-34654050D01*
X122649291Y-34720850D01*
G37*
X122649291Y-34720850D02*
X123273848Y-34909416D01*
X123849883Y-35215699D01*
X124355461Y-35628038D01*
X124771318Y-36130721D01*
X125081616Y-36704606D01*
X125274537Y-37327834D01*
X125345950Y-38007276D01*
X125345951Y-89968006D01*
X125279150Y-90649290D01*
X125090585Y-91273847D01*
X124784300Y-91849885D01*
X124371960Y-92355464D01*
X123869279Y-92771318D01*
X123295394Y-93081616D01*
X122672165Y-93274538D01*
X121992725Y-93345950D01*
X40031984Y-93345950D01*
X39350710Y-93279150D01*
X38726153Y-93090585D01*
X38150115Y-92784300D01*
X37644536Y-92371960D01*
X37228682Y-91869279D01*
X36918384Y-91295394D01*
X36725462Y-90672165D01*
X36654050Y-89992725D01*
X36654050Y-89720777D01*
X37165000Y-89720777D01*
X37165000Y-90279223D01*
X37273948Y-90826939D01*
X37487656Y-91342876D01*
X37797912Y-91807207D01*
X38192793Y-92202088D01*
X38657124Y-92512344D01*
X39173061Y-92726052D01*
X39720777Y-92835000D01*
X40279223Y-92835000D01*
X40826939Y-92726052D01*
X41342876Y-92512344D01*
X41807207Y-92202088D01*
X42202088Y-91807207D01*
X42512344Y-91342876D01*
X42726052Y-90826939D01*
X42835000Y-90279223D01*
X42835000Y-89720777D01*
X42726052Y-89173061D01*
X42512344Y-88657124D01*
X42202088Y-88192793D01*
X41807207Y-87797912D01*
X41342876Y-87487656D01*
X40826939Y-87273948D01*
X40279223Y-87165000D01*
X39720777Y-87165000D01*
X39173061Y-87273948D01*
X38657124Y-87487656D01*
X38192793Y-87797912D01*
X37797912Y-88192793D01*
X37487656Y-88657124D01*
X37273948Y-89173061D01*
X37165000Y-89720777D01*
X36654050Y-89720777D01*
X36654050Y-85500000D01*
X46861928Y-85500000D01*
X46861928Y-87500000D01*
X46874188Y-87624482D01*
X46910498Y-87744180D01*
X46969463Y-87854494D01*
X47048815Y-87951185D01*
X47145506Y-88030537D01*
X47255820Y-88089502D01*
X47375518Y-88125812D01*
X47500000Y-88138072D01*
X49500000Y-88138072D01*
X49624482Y-88125812D01*
X49744180Y-88089502D01*
X49854494Y-88030537D01*
X49951185Y-87951185D01*
X50030537Y-87854494D01*
X50089502Y-87744180D01*
X50125812Y-87624482D01*
X50138072Y-87500000D01*
X50138072Y-85500000D01*
X50125812Y-85375518D01*
X50089502Y-85255820D01*
X50030537Y-85145506D01*
X49951185Y-85048815D01*
X49922167Y-85025000D01*
X56886928Y-85025000D01*
X56886928Y-86975000D01*
X56899188Y-87099482D01*
X56935498Y-87219180D01*
X56994463Y-87329494D01*
X57073815Y-87426185D01*
X57170506Y-87505537D01*
X57280820Y-87564502D01*
X57400518Y-87600812D01*
X57525000Y-87613072D01*
X59475000Y-87613072D01*
X59599482Y-87600812D01*
X59719180Y-87564502D01*
X59829494Y-87505537D01*
X59926185Y-87426185D01*
X60005537Y-87329494D01*
X60064502Y-87219180D01*
X60100812Y-87099482D01*
X60113072Y-86975000D01*
X60113072Y-85025000D01*
X60100812Y-84900518D01*
X60064502Y-84780820D01*
X60005537Y-84670506D01*
X59926185Y-84573815D01*
X59829494Y-84494463D01*
X59719180Y-84435498D01*
X59599482Y-84399188D01*
X59475000Y-84386928D01*
X57525000Y-84386928D01*
X57400518Y-84399188D01*
X57280820Y-84435498D01*
X57170506Y-84494463D01*
X57073815Y-84573815D01*
X56994463Y-84670506D01*
X56935498Y-84780820D01*
X56899188Y-84900518D01*
X56886928Y-85025000D01*
X49922167Y-85025000D01*
X49854494Y-84969463D01*
X49744180Y-84910498D01*
X49624482Y-84874188D01*
X49500000Y-84861928D01*
X47500000Y-84861928D01*
X47375518Y-84874188D01*
X47255820Y-84910498D01*
X47145506Y-84969463D01*
X47048815Y-85048815D01*
X46969463Y-85145506D01*
X46910498Y-85255820D01*
X46874188Y-85375518D01*
X46861928Y-85500000D01*
X36654050Y-85500000D01*
X36654050Y-81700000D01*
X37561928Y-81700000D01*
X37561928Y-83300000D01*
X37574188Y-83424482D01*
X37610498Y-83544180D01*
X37669463Y-83654494D01*
X37748815Y-83751185D01*
X37845506Y-83830537D01*
X37955820Y-83889502D01*
X38075518Y-83925812D01*
X38200000Y-83938072D01*
X39800000Y-83938072D01*
X39924482Y-83925812D01*
X40044180Y-83889502D01*
X40154494Y-83830537D01*
X40251185Y-83751185D01*
X40330537Y-83654494D01*
X40389502Y-83544180D01*
X40425812Y-83424482D01*
X40438072Y-83300000D01*
X40438072Y-82635413D01*
X47544192Y-82635413D01*
X47639956Y-82899814D01*
X47929571Y-83040704D01*
X48241108Y-83122384D01*
X48562595Y-83141718D01*
X48881675Y-83097961D01*
X49186088Y-82992795D01*
X49360044Y-82899814D01*
X49455808Y-82635413D01*
X48500000Y-81679605D01*
X47544192Y-82635413D01*
X40438072Y-82635413D01*
X40438072Y-81700000D01*
X40425812Y-81575518D01*
X40421892Y-81562595D01*
X46858282Y-81562595D01*
X46902039Y-81881675D01*
X47007205Y-82186088D01*
X47100186Y-82360044D01*
X47364587Y-82455808D01*
X48320395Y-81500000D01*
X48679605Y-81500000D01*
X49635413Y-82455808D01*
X49899814Y-82360044D01*
X50040704Y-82070429D01*
X50122384Y-81758892D01*
X50141718Y-81437405D01*
X50097961Y-81118325D01*
X49992795Y-80813912D01*
X49899814Y-80639956D01*
X49635413Y-80544192D01*
X48679605Y-81500000D01*
X48320395Y-81500000D01*
X47364587Y-80544192D01*
X47100186Y-80639956D01*
X46959296Y-80929571D01*
X46877616Y-81241108D01*
X46858282Y-81562595D01*
X40421892Y-81562595D01*
X40389502Y-81455820D01*
X40330537Y-81345506D01*
X40251185Y-81248815D01*
X40154494Y-81169463D01*
X40044180Y-81110498D01*
X39924482Y-81074188D01*
X39800000Y-81061928D01*
X38200000Y-81061928D01*
X38075518Y-81074188D01*
X37955820Y-81110498D01*
X37845506Y-81169463D01*
X37748815Y-81248815D01*
X37669463Y-81345506D01*
X37610498Y-81455820D01*
X37574188Y-81575518D01*
X37561928Y-81700000D01*
X36654050Y-81700000D01*
X36654050Y-80364587D01*
X47544192Y-80364587D01*
X48500000Y-81320395D01*
X49455808Y-80364587D01*
X49360044Y-80100186D01*
X49205491Y-80025000D01*
X56886928Y-80025000D01*
X56886928Y-81975000D01*
X56899188Y-82099482D01*
X56935498Y-82219180D01*
X56994463Y-82329494D01*
X57073815Y-82426185D01*
X57170506Y-82505537D01*
X57280820Y-82564502D01*
X57400518Y-82600812D01*
X57525000Y-82613072D01*
X59475000Y-82613072D01*
X59599482Y-82600812D01*
X59719180Y-82564502D01*
X59829494Y-82505537D01*
X59926185Y-82426185D01*
X60005537Y-82329494D01*
X60064502Y-82219180D01*
X60100812Y-82099482D01*
X60113072Y-81975000D01*
X60113072Y-80025000D01*
X60100812Y-79900518D01*
X60064502Y-79780820D01*
X60005537Y-79670506D01*
X59926185Y-79573815D01*
X59829494Y-79494463D01*
X59719180Y-79435498D01*
X59599482Y-79399188D01*
X59475000Y-79386928D01*
X57525000Y-79386928D01*
X57400518Y-79399188D01*
X57280820Y-79435498D01*
X57170506Y-79494463D01*
X57073815Y-79573815D01*
X56994463Y-79670506D01*
X56935498Y-79780820D01*
X56899188Y-79900518D01*
X56886928Y-80025000D01*
X49205491Y-80025000D01*
X49070429Y-79959296D01*
X48758892Y-79877616D01*
X48437405Y-79858282D01*
X48118325Y-79902039D01*
X47813912Y-80007205D01*
X47639956Y-80100186D01*
X47544192Y-80364587D01*
X36654050Y-80364587D01*
X36654050Y-75229040D01*
X37608091Y-75229040D01*
X37702930Y-75493881D01*
X37847615Y-75735131D01*
X38036586Y-75943519D01*
X38262580Y-76111037D01*
X38516913Y-76231246D01*
X38650961Y-76271904D01*
X38873000Y-76149915D01*
X38873000Y-75007000D01*
X39127000Y-75007000D01*
X39127000Y-76149915D01*
X39349039Y-76271904D01*
X39483087Y-76231246D01*
X39693006Y-76132029D01*
X45647576Y-76132029D01*
X45911740Y-76539755D01*
X46439661Y-76820317D01*
X47012173Y-76992496D01*
X47607275Y-77049676D01*
X48202098Y-76989658D01*
X48773782Y-76814750D01*
X49288260Y-76539755D01*
X49552424Y-76132029D01*
X47600000Y-74179605D01*
X45647576Y-76132029D01*
X39693006Y-76132029D01*
X39737420Y-76111037D01*
X39963414Y-75943519D01*
X40152385Y-75735131D01*
X40297070Y-75493881D01*
X40391909Y-75229040D01*
X40270624Y-75007000D01*
X39127000Y-75007000D01*
X38873000Y-75007000D01*
X37729376Y-75007000D01*
X37608091Y-75229040D01*
X36654050Y-75229040D01*
X36654050Y-74530960D01*
X37608091Y-74530960D01*
X37729376Y-74753000D01*
X38873000Y-74753000D01*
X38873000Y-73610085D01*
X39127000Y-73610085D01*
X39127000Y-74753000D01*
X40270624Y-74753000D01*
X40391909Y-74530960D01*
X40297070Y-74266119D01*
X40152385Y-74024869D01*
X39963414Y-73816481D01*
X39737420Y-73648963D01*
X39483087Y-73528754D01*
X39349039Y-73488096D01*
X39127000Y-73610085D01*
X38873000Y-73610085D01*
X38650961Y-73488096D01*
X38516913Y-73528754D01*
X38262580Y-73648963D01*
X38036586Y-73816481D01*
X37847615Y-74024869D01*
X37702930Y-74266119D01*
X37608091Y-74530960D01*
X36654050Y-74530960D01*
X36654050Y-71332029D01*
X42847576Y-71332029D01*
X43111740Y-71739755D01*
X43639661Y-72020317D01*
X44212173Y-72192496D01*
X44807275Y-72249676D01*
X45220372Y-72207994D01*
X45060245Y-72311740D01*
X44779683Y-72839661D01*
X44607504Y-73412173D01*
X44550324Y-74007275D01*
X44610342Y-74602098D01*
X44785250Y-75173782D01*
X45060245Y-75688260D01*
X45467971Y-75952424D01*
X47420395Y-74000000D01*
X47406253Y-73985858D01*
X47585858Y-73806253D01*
X47600000Y-73820395D01*
X47614143Y-73806253D01*
X47793748Y-73985858D01*
X47779605Y-74000000D01*
X49732029Y-75952424D01*
X50139755Y-75688260D01*
X50420317Y-75160339D01*
X50592496Y-74587827D01*
X50649676Y-73992725D01*
X50589658Y-73397902D01*
X50414750Y-72826218D01*
X50172961Y-72373863D01*
X56447622Y-72373863D01*
X56541121Y-72670446D01*
X56690684Y-72943089D01*
X56890563Y-73181315D01*
X57133077Y-73375969D01*
X57408906Y-73519571D01*
X57627020Y-73590563D01*
X57873000Y-73470594D01*
X57873000Y-72127000D01*
X56574430Y-72127000D01*
X56447622Y-72373863D01*
X50172961Y-72373863D01*
X50139755Y-72311740D01*
X49897365Y-72154697D01*
X50301079Y-72235000D01*
X50898921Y-72235000D01*
X51485277Y-72118367D01*
X52037612Y-71889582D01*
X52431884Y-71626137D01*
X56447622Y-71626137D01*
X56574430Y-71873000D01*
X57873000Y-71873000D01*
X57873000Y-70529406D01*
X58127000Y-70529406D01*
X58127000Y-71873000D01*
X58147000Y-71873000D01*
X58147000Y-72127000D01*
X58127000Y-72127000D01*
X58127000Y-73470594D01*
X58372980Y-73590563D01*
X58591094Y-73519571D01*
X58866923Y-73375969D01*
X58905001Y-73345406D01*
X58905000Y-75959680D01*
X58897089Y-76040000D01*
X58905000Y-76120319D01*
X58905000Y-76120321D01*
X58928657Y-76360515D01*
X59022148Y-76668714D01*
X59173969Y-76952751D01*
X59378286Y-77201714D01*
X59440687Y-77252925D01*
X61865001Y-79677239D01*
X61865000Y-80919678D01*
X61865000Y-80919679D01*
X61865001Y-85919671D01*
X61857089Y-86000000D01*
X61888658Y-86320516D01*
X61982148Y-86628714D01*
X61982149Y-86628715D01*
X62133970Y-86912752D01*
X62338287Y-87161714D01*
X62400682Y-87212920D01*
X67287080Y-92099319D01*
X67338286Y-92161714D01*
X67587248Y-92366031D01*
X67859362Y-92511479D01*
X67871285Y-92517852D01*
X68179483Y-92611343D01*
X68500000Y-92642911D01*
X68580322Y-92635000D01*
X73419678Y-92635000D01*
X73500000Y-92642911D01*
X73580322Y-92635000D01*
X83919678Y-92635000D01*
X84000000Y-92642911D01*
X84080322Y-92635000D01*
X88419681Y-92635000D01*
X88500000Y-92642911D01*
X88580319Y-92635000D01*
X88580322Y-92635000D01*
X88820516Y-92611343D01*
X89128715Y-92517852D01*
X89412752Y-92366031D01*
X89661714Y-92161714D01*
X89712925Y-92099313D01*
X90203830Y-91608408D01*
X100857000Y-91608408D01*
X100857000Y-91883592D01*
X100910686Y-92153490D01*
X101015995Y-92407727D01*
X101168880Y-92636535D01*
X101363465Y-92831120D01*
X101592273Y-92984005D01*
X101846510Y-93089314D01*
X102116408Y-93143000D01*
X102391592Y-93143000D01*
X102661490Y-93089314D01*
X102915727Y-92984005D01*
X103144535Y-92831120D01*
X103339120Y-92636535D01*
X103492005Y-92407727D01*
X103597314Y-92153490D01*
X103651000Y-91883592D01*
X103651000Y-91608408D01*
X103597314Y-91338510D01*
X103492005Y-91084273D01*
X103339120Y-90855465D01*
X103144535Y-90660880D01*
X102915727Y-90507995D01*
X102844057Y-90478308D01*
X102857023Y-90473636D01*
X102972980Y-90411656D01*
X103039960Y-90171565D01*
X102254000Y-89385605D01*
X101468040Y-90171565D01*
X101535020Y-90411656D01*
X101670760Y-90475485D01*
X101592273Y-90507995D01*
X101363465Y-90660880D01*
X101168880Y-90855465D01*
X101015995Y-91084273D01*
X100910686Y-91338510D01*
X100857000Y-91608408D01*
X90203830Y-91608408D01*
X92534221Y-89278017D01*
X100852090Y-89278017D01*
X100893078Y-89550133D01*
X100986364Y-89809023D01*
X101048344Y-89924980D01*
X101288435Y-89991960D01*
X102074395Y-89206000D01*
X102433605Y-89206000D01*
X103219565Y-89991960D01*
X103459656Y-89924980D01*
X103576756Y-89675952D01*
X103643023Y-89408865D01*
X103655910Y-89133983D01*
X103614922Y-88861867D01*
X103521636Y-88602977D01*
X103459656Y-88487020D01*
X103219565Y-88420040D01*
X102433605Y-89206000D01*
X102074395Y-89206000D01*
X101288435Y-88420040D01*
X101048344Y-88487020D01*
X100931244Y-88736048D01*
X100864977Y-89003135D01*
X100852090Y-89278017D01*
X92534221Y-89278017D01*
X94599319Y-87212920D01*
X94661714Y-87161714D01*
X94866031Y-86912752D01*
X95017852Y-86628715D01*
X95111343Y-86320516D01*
X95135000Y-86080322D01*
X95142911Y-86000000D01*
X95135000Y-85919678D01*
X95135000Y-80919678D01*
X95111343Y-80679484D01*
X95017852Y-80371285D01*
X94866031Y-80087248D01*
X94661714Y-79838286D01*
X94412751Y-79633969D01*
X94128714Y-79482148D01*
X93820515Y-79388657D01*
X93500000Y-79357089D01*
X93179484Y-79388657D01*
X92871285Y-79482148D01*
X92587248Y-79633969D01*
X92338286Y-79838286D01*
X92133969Y-80087249D01*
X91982148Y-80371286D01*
X91888657Y-80679485D01*
X91865000Y-80919679D01*
X91865001Y-85322760D01*
X87822762Y-89365000D01*
X85135000Y-89365000D01*
X85135000Y-85841429D01*
X86890000Y-85841429D01*
X86890000Y-86158571D01*
X86951871Y-86469620D01*
X87073237Y-86762621D01*
X87249431Y-87026315D01*
X87473685Y-87250569D01*
X87737379Y-87426763D01*
X88030380Y-87548129D01*
X88341429Y-87610000D01*
X88658571Y-87610000D01*
X88969620Y-87548129D01*
X89262621Y-87426763D01*
X89526315Y-87250569D01*
X89750569Y-87026315D01*
X89926763Y-86762621D01*
X90048129Y-86469620D01*
X90110000Y-86158571D01*
X90110000Y-85841429D01*
X90048129Y-85530380D01*
X89926763Y-85237379D01*
X89750569Y-84973685D01*
X89526315Y-84749431D01*
X89262621Y-84573237D01*
X88969620Y-84451871D01*
X88658571Y-84390000D01*
X88341429Y-84390000D01*
X88030380Y-84451871D01*
X87737379Y-84573237D01*
X87473685Y-84749431D01*
X87249431Y-84973685D01*
X87073237Y-85237379D01*
X86951871Y-85530380D01*
X86890000Y-85841429D01*
X85135000Y-85841429D01*
X85135000Y-80919678D01*
X85127294Y-80841429D01*
X86890000Y-80841429D01*
X86890000Y-81158571D01*
X86951871Y-81469620D01*
X87073237Y-81762621D01*
X87249431Y-82026315D01*
X87473685Y-82250569D01*
X87737379Y-82426763D01*
X88030380Y-82548129D01*
X88341429Y-82610000D01*
X88658571Y-82610000D01*
X88969620Y-82548129D01*
X89262621Y-82426763D01*
X89526315Y-82250569D01*
X89750569Y-82026315D01*
X89926763Y-81762621D01*
X90048129Y-81469620D01*
X90110000Y-81158571D01*
X90110000Y-80841429D01*
X90048129Y-80530380D01*
X89926763Y-80237379D01*
X89750569Y-79973685D01*
X89526315Y-79749431D01*
X89262621Y-79573237D01*
X88969620Y-79451871D01*
X88658571Y-79390000D01*
X88341429Y-79390000D01*
X88030380Y-79451871D01*
X87737379Y-79573237D01*
X87473685Y-79749431D01*
X87249431Y-79973685D01*
X87073237Y-80237379D01*
X86951871Y-80530380D01*
X86890000Y-80841429D01*
X85127294Y-80841429D01*
X85111343Y-80679484D01*
X85017852Y-80371285D01*
X84866031Y-80087248D01*
X84661714Y-79838286D01*
X84412751Y-79633969D01*
X84128714Y-79482148D01*
X83820515Y-79388657D01*
X83500000Y-79357089D01*
X83179484Y-79388657D01*
X82871285Y-79482148D01*
X82587248Y-79633969D01*
X82338286Y-79838286D01*
X82133969Y-80087249D01*
X81982148Y-80371286D01*
X81888657Y-80679485D01*
X81865000Y-80919679D01*
X81865001Y-85919669D01*
X81865000Y-85919679D01*
X81865001Y-89365000D01*
X75135000Y-89365000D01*
X75135000Y-85841429D01*
X76890000Y-85841429D01*
X76890000Y-86158571D01*
X76951871Y-86469620D01*
X77073237Y-86762621D01*
X77249431Y-87026315D01*
X77473685Y-87250569D01*
X77737379Y-87426763D01*
X78030380Y-87548129D01*
X78341429Y-87610000D01*
X78658571Y-87610000D01*
X78969620Y-87548129D01*
X79262621Y-87426763D01*
X79526315Y-87250569D01*
X79750569Y-87026315D01*
X79926763Y-86762621D01*
X80048129Y-86469620D01*
X80110000Y-86158571D01*
X80110000Y-85841429D01*
X80048129Y-85530380D01*
X79926763Y-85237379D01*
X79750569Y-84973685D01*
X79526315Y-84749431D01*
X79262621Y-84573237D01*
X78969620Y-84451871D01*
X78658571Y-84390000D01*
X78341429Y-84390000D01*
X78030380Y-84451871D01*
X77737379Y-84573237D01*
X77473685Y-84749431D01*
X77249431Y-84973685D01*
X77073237Y-85237379D01*
X76951871Y-85530380D01*
X76890000Y-85841429D01*
X75135000Y-85841429D01*
X75135000Y-80919678D01*
X75127294Y-80841429D01*
X76890000Y-80841429D01*
X76890000Y-81158571D01*
X76951871Y-81469620D01*
X77073237Y-81762621D01*
X77249431Y-82026315D01*
X77473685Y-82250569D01*
X77737379Y-82426763D01*
X78030380Y-82548129D01*
X78341429Y-82610000D01*
X78658571Y-82610000D01*
X78969620Y-82548129D01*
X79262621Y-82426763D01*
X79526315Y-82250569D01*
X79750569Y-82026315D01*
X79926763Y-81762621D01*
X80048129Y-81469620D01*
X80110000Y-81158571D01*
X80110000Y-80841429D01*
X80048129Y-80530380D01*
X79926763Y-80237379D01*
X79750569Y-79973685D01*
X79526315Y-79749431D01*
X79262621Y-79573237D01*
X78969620Y-79451871D01*
X78658571Y-79390000D01*
X78341429Y-79390000D01*
X78030380Y-79451871D01*
X77737379Y-79573237D01*
X77473685Y-79749431D01*
X77249431Y-79973685D01*
X77073237Y-80237379D01*
X76951871Y-80530380D01*
X76890000Y-80841429D01*
X75127294Y-80841429D01*
X75111343Y-80679484D01*
X75017852Y-80371285D01*
X74866031Y-80087248D01*
X74661714Y-79838286D01*
X74412751Y-79633969D01*
X74128714Y-79482148D01*
X73820515Y-79388657D01*
X73500000Y-79357089D01*
X73179484Y-79388657D01*
X72871285Y-79482148D01*
X72587248Y-79633969D01*
X72338286Y-79838286D01*
X72133969Y-80087249D01*
X71982148Y-80371286D01*
X71888657Y-80679485D01*
X71865000Y-80919679D01*
X71865001Y-85919669D01*
X71865000Y-85919679D01*
X71865001Y-89365000D01*
X69177239Y-89365000D01*
X65653668Y-85841429D01*
X66890000Y-85841429D01*
X66890000Y-86158571D01*
X66951871Y-86469620D01*
X67073237Y-86762621D01*
X67249431Y-87026315D01*
X67473685Y-87250569D01*
X67737379Y-87426763D01*
X68030380Y-87548129D01*
X68341429Y-87610000D01*
X68658571Y-87610000D01*
X68969620Y-87548129D01*
X69262621Y-87426763D01*
X69526315Y-87250569D01*
X69750569Y-87026315D01*
X69926763Y-86762621D01*
X70048129Y-86469620D01*
X70110000Y-86158571D01*
X70110000Y-85841429D01*
X70048129Y-85530380D01*
X69926763Y-85237379D01*
X69750569Y-84973685D01*
X69526315Y-84749431D01*
X69262621Y-84573237D01*
X68969620Y-84451871D01*
X68658571Y-84390000D01*
X68341429Y-84390000D01*
X68030380Y-84451871D01*
X67737379Y-84573237D01*
X67473685Y-84749431D01*
X67249431Y-84973685D01*
X67073237Y-85237379D01*
X66951871Y-85530380D01*
X66890000Y-85841429D01*
X65653668Y-85841429D01*
X65135000Y-85322762D01*
X65135000Y-80841429D01*
X66890000Y-80841429D01*
X66890000Y-81158571D01*
X66951871Y-81469620D01*
X67073237Y-81762621D01*
X67249431Y-82026315D01*
X67473685Y-82250569D01*
X67737379Y-82426763D01*
X68030380Y-82548129D01*
X68341429Y-82610000D01*
X68658571Y-82610000D01*
X68969620Y-82548129D01*
X69262621Y-82426763D01*
X69526315Y-82250569D01*
X69750569Y-82026315D01*
X69926763Y-81762621D01*
X70048129Y-81469620D01*
X70110000Y-81158571D01*
X70110000Y-80841429D01*
X70048129Y-80530380D01*
X69926763Y-80237379D01*
X69750569Y-79973685D01*
X69526315Y-79749431D01*
X69262621Y-79573237D01*
X68969620Y-79451871D01*
X68658571Y-79390000D01*
X68341429Y-79390000D01*
X68030380Y-79451871D01*
X67737379Y-79573237D01*
X67473685Y-79749431D01*
X67249431Y-79973685D01*
X67073237Y-80237379D01*
X66951871Y-80530380D01*
X66890000Y-80841429D01*
X65135000Y-80841429D01*
X65135000Y-79080319D01*
X65142911Y-78999999D01*
X65133890Y-78908408D01*
X65111343Y-78679484D01*
X65017852Y-78371285D01*
X64866031Y-78087248D01*
X64661714Y-77838286D01*
X64599319Y-77787080D01*
X62175000Y-75362762D01*
X62175000Y-73638072D01*
X64032500Y-73638072D01*
X64156982Y-73625812D01*
X64276680Y-73589502D01*
X64386994Y-73530537D01*
X64483685Y-73451185D01*
X64559613Y-73358665D01*
X65945000Y-73358665D01*
X65945000Y-73641335D01*
X66000147Y-73918574D01*
X66108320Y-74179727D01*
X66265363Y-74414759D01*
X66465241Y-74614637D01*
X66700273Y-74771680D01*
X66961426Y-74879853D01*
X67238665Y-74935000D01*
X67521335Y-74935000D01*
X67798574Y-74879853D01*
X68059727Y-74771680D01*
X68294759Y-74614637D01*
X68494637Y-74414759D01*
X68651680Y-74179727D01*
X68759853Y-73918574D01*
X68815000Y-73641335D01*
X68815000Y-73358665D01*
X73565000Y-73358665D01*
X73565000Y-73641335D01*
X73620147Y-73918574D01*
X73728320Y-74179727D01*
X73885363Y-74414759D01*
X74085241Y-74614637D01*
X74320273Y-74771680D01*
X74581426Y-74879853D01*
X74858665Y-74935000D01*
X75141335Y-74935000D01*
X75418574Y-74879853D01*
X75679727Y-74771680D01*
X75914759Y-74614637D01*
X76114637Y-74414759D01*
X76271680Y-74179727D01*
X76379853Y-73918574D01*
X76435000Y-73641335D01*
X76435000Y-73358665D01*
X76565000Y-73358665D01*
X76565000Y-73641335D01*
X76620147Y-73918574D01*
X76728320Y-74179727D01*
X76885363Y-74414759D01*
X77085241Y-74614637D01*
X77320273Y-74771680D01*
X77581426Y-74879853D01*
X77858665Y-74935000D01*
X78141335Y-74935000D01*
X78418574Y-74879853D01*
X78679727Y-74771680D01*
X78914759Y-74614637D01*
X79036694Y-74492702D01*
X82186903Y-74492702D01*
X82258486Y-74736671D01*
X82513996Y-74857571D01*
X82788184Y-74926300D01*
X83070512Y-74940217D01*
X83350130Y-74898787D01*
X83616292Y-74803603D01*
X83741514Y-74736671D01*
X83813097Y-74492702D01*
X83000000Y-73679605D01*
X82186903Y-74492702D01*
X79036694Y-74492702D01*
X79114637Y-74414759D01*
X79271680Y-74179727D01*
X79379853Y-73918574D01*
X79435000Y-73641335D01*
X79435000Y-73570512D01*
X81559783Y-73570512D01*
X81601213Y-73850130D01*
X81696397Y-74116292D01*
X81763329Y-74241514D01*
X82007298Y-74313097D01*
X82820395Y-73500000D01*
X83179605Y-73500000D01*
X83992702Y-74313097D01*
X84236671Y-74241514D01*
X84357571Y-73986004D01*
X84426300Y-73711816D01*
X84440217Y-73429488D01*
X84398787Y-73149870D01*
X84303603Y-72883708D01*
X84236671Y-72758486D01*
X83992702Y-72686903D01*
X83179605Y-73500000D01*
X82820395Y-73500000D01*
X82007298Y-72686903D01*
X81763329Y-72758486D01*
X81642429Y-73013996D01*
X81573700Y-73288184D01*
X81559783Y-73570512D01*
X79435000Y-73570512D01*
X79435000Y-73358665D01*
X79379853Y-73081426D01*
X79271680Y-72820273D01*
X79114637Y-72585241D01*
X79036694Y-72507298D01*
X82186903Y-72507298D01*
X83000000Y-73320395D01*
X83813097Y-72507298D01*
X83741514Y-72263329D01*
X83486004Y-72142429D01*
X83211816Y-72073700D01*
X82929488Y-72059783D01*
X82649870Y-72101213D01*
X82383708Y-72196397D01*
X82258486Y-72263329D01*
X82186903Y-72507298D01*
X79036694Y-72507298D01*
X78914759Y-72385363D01*
X78679727Y-72228320D01*
X78418574Y-72120147D01*
X78141335Y-72065000D01*
X77858665Y-72065000D01*
X77581426Y-72120147D01*
X77320273Y-72228320D01*
X77085241Y-72385363D01*
X76885363Y-72585241D01*
X76728320Y-72820273D01*
X76620147Y-73081426D01*
X76565000Y-73358665D01*
X76435000Y-73358665D01*
X76379853Y-73081426D01*
X76271680Y-72820273D01*
X76114637Y-72585241D01*
X75914759Y-72385363D01*
X75679727Y-72228320D01*
X75418574Y-72120147D01*
X75141335Y-72065000D01*
X74858665Y-72065000D01*
X74581426Y-72120147D01*
X74320273Y-72228320D01*
X74085241Y-72385363D01*
X73885363Y-72585241D01*
X73728320Y-72820273D01*
X73620147Y-73081426D01*
X73565000Y-73358665D01*
X68815000Y-73358665D01*
X68759853Y-73081426D01*
X68651680Y-72820273D01*
X68494637Y-72585241D01*
X68294759Y-72385363D01*
X68059727Y-72228320D01*
X67798574Y-72120147D01*
X67521335Y-72065000D01*
X67238665Y-72065000D01*
X66961426Y-72120147D01*
X66700273Y-72228320D01*
X66465241Y-72385363D01*
X66265363Y-72585241D01*
X66108320Y-72820273D01*
X66000147Y-73081426D01*
X65945000Y-73358665D01*
X64559613Y-73358665D01*
X64563037Y-73354494D01*
X64622002Y-73244180D01*
X64658312Y-73124482D01*
X64670572Y-73000000D01*
X64670572Y-71000000D01*
X64658312Y-70875518D01*
X64622002Y-70755820D01*
X64563037Y-70645506D01*
X64483685Y-70548815D01*
X64415311Y-70492702D01*
X84686903Y-70492702D01*
X84758486Y-70736671D01*
X85013996Y-70857571D01*
X85288184Y-70926300D01*
X85570512Y-70940217D01*
X85850130Y-70898787D01*
X86116292Y-70803603D01*
X86241514Y-70736671D01*
X86313097Y-70492702D01*
X85500000Y-69679605D01*
X84686903Y-70492702D01*
X64415311Y-70492702D01*
X64386994Y-70469463D01*
X64276680Y-70410498D01*
X64156982Y-70374188D01*
X64032500Y-70361928D01*
X62127500Y-70361928D01*
X62003018Y-70374188D01*
X61883320Y-70410498D01*
X61773006Y-70469463D01*
X61676315Y-70548815D01*
X61596963Y-70645506D01*
X61557278Y-70719751D01*
X61452752Y-70633969D01*
X61168715Y-70482148D01*
X60860516Y-70388657D01*
X60540000Y-70357089D01*
X60219485Y-70388657D01*
X59911286Y-70482148D01*
X59627249Y-70633969D01*
X59378287Y-70838286D01*
X59253481Y-70990364D01*
X59109437Y-70818685D01*
X58866923Y-70624031D01*
X58591094Y-70480429D01*
X58372980Y-70409437D01*
X58127000Y-70529406D01*
X57873000Y-70529406D01*
X57627020Y-70409437D01*
X57408906Y-70480429D01*
X57133077Y-70624031D01*
X56890563Y-70818685D01*
X56690684Y-71056911D01*
X56541121Y-71329554D01*
X56447622Y-71626137D01*
X52431884Y-71626137D01*
X52534700Y-71557438D01*
X52957438Y-71134700D01*
X53289582Y-70637612D01*
X53518367Y-70085277D01*
X53620759Y-69570512D01*
X84059783Y-69570512D01*
X84101213Y-69850130D01*
X84196397Y-70116292D01*
X84263329Y-70241514D01*
X84507298Y-70313097D01*
X85320395Y-69500000D01*
X85306253Y-69485858D01*
X85485858Y-69306253D01*
X85500000Y-69320395D01*
X85514143Y-69306253D01*
X85693748Y-69485858D01*
X85679605Y-69500000D01*
X86492702Y-70313097D01*
X86736671Y-70241514D01*
X86857571Y-69986004D01*
X86926300Y-69711816D01*
X86940217Y-69429488D01*
X86898787Y-69149870D01*
X86803603Y-68883708D01*
X86738384Y-68761691D01*
X86751185Y-68751185D01*
X86830537Y-68654494D01*
X86889502Y-68544180D01*
X86925812Y-68424482D01*
X86938072Y-68300000D01*
X86938072Y-66700000D01*
X86925812Y-66575518D01*
X86889502Y-66455820D01*
X86830537Y-66345506D01*
X86751185Y-66248815D01*
X86654494Y-66169463D01*
X86544180Y-66110498D01*
X86424482Y-66074188D01*
X86300000Y-66061928D01*
X84700000Y-66061928D01*
X84575518Y-66074188D01*
X84455820Y-66110498D01*
X84345506Y-66169463D01*
X84248815Y-66248815D01*
X84169463Y-66345506D01*
X84110498Y-66455820D01*
X84074188Y-66575518D01*
X84061928Y-66700000D01*
X84061928Y-68300000D01*
X84074188Y-68424482D01*
X84110498Y-68544180D01*
X84169463Y-68654494D01*
X84248815Y-68751185D01*
X84261758Y-68761807D01*
X84142429Y-69013996D01*
X84073700Y-69288184D01*
X84059783Y-69570512D01*
X53620759Y-69570512D01*
X53635000Y-69498921D01*
X53635000Y-68901079D01*
X53518367Y-68314723D01*
X53289582Y-67762388D01*
X52957438Y-67265300D01*
X52534700Y-66842562D01*
X52037612Y-66510418D01*
X51485277Y-66281633D01*
X50898921Y-66165000D01*
X50301079Y-66165000D01*
X49714723Y-66281633D01*
X49162388Y-66510418D01*
X48665300Y-66842562D01*
X48242562Y-67265300D01*
X47910418Y-67762388D01*
X47693933Y-68285027D01*
X47614750Y-68026218D01*
X47339755Y-67511740D01*
X46932029Y-67247576D01*
X44979605Y-69200000D01*
X44993748Y-69214143D01*
X44814143Y-69393748D01*
X44800000Y-69379605D01*
X42847576Y-71332029D01*
X36654050Y-71332029D01*
X36654050Y-69207275D01*
X41750324Y-69207275D01*
X41810342Y-69802098D01*
X41985250Y-70373782D01*
X42260245Y-70888260D01*
X42667971Y-71152424D01*
X44620395Y-69200000D01*
X42667971Y-67247576D01*
X42260245Y-67511740D01*
X41979683Y-68039661D01*
X41807504Y-68612173D01*
X41750324Y-69207275D01*
X36654050Y-69207275D01*
X36654050Y-67067971D01*
X42847576Y-67067971D01*
X44800000Y-69020395D01*
X46752424Y-67067971D01*
X46488260Y-66660245D01*
X45960339Y-66379683D01*
X45387827Y-66207504D01*
X44792725Y-66150324D01*
X44197902Y-66210342D01*
X43626218Y-66385250D01*
X43111740Y-66660245D01*
X42847576Y-67067971D01*
X36654050Y-67067971D01*
X36654050Y-64340444D01*
X56380000Y-64340444D01*
X56380000Y-64659556D01*
X56442256Y-64972536D01*
X56564375Y-65267358D01*
X56741664Y-65532689D01*
X56967311Y-65758336D01*
X57232642Y-65935625D01*
X57527464Y-66057744D01*
X57840444Y-66120000D01*
X58159556Y-66120000D01*
X58472536Y-66057744D01*
X58767358Y-65935625D01*
X59032689Y-65758336D01*
X59258336Y-65532689D01*
X59435625Y-65267358D01*
X59557744Y-64972536D01*
X59620000Y-64659556D01*
X59620000Y-64340444D01*
X78220000Y-64340444D01*
X78220000Y-64659556D01*
X78282256Y-64972536D01*
X78404375Y-65267358D01*
X78581664Y-65532689D01*
X78807311Y-65758336D01*
X79072642Y-65935625D01*
X79367464Y-66057744D01*
X79680444Y-66120000D01*
X79999556Y-66120000D01*
X80312536Y-66057744D01*
X80607358Y-65935625D01*
X80722536Y-65858665D01*
X89065000Y-65858665D01*
X89065000Y-66141335D01*
X89120147Y-66418574D01*
X89228320Y-66679727D01*
X89385363Y-66914759D01*
X89585241Y-67114637D01*
X89817759Y-67270000D01*
X89585241Y-67425363D01*
X89385363Y-67625241D01*
X89228320Y-67860273D01*
X89120147Y-68121426D01*
X89065000Y-68398665D01*
X89065000Y-68681335D01*
X89120147Y-68958574D01*
X89228320Y-69219727D01*
X89385363Y-69454759D01*
X89585241Y-69654637D01*
X89817759Y-69810000D01*
X89585241Y-69965363D01*
X89385363Y-70165241D01*
X89228320Y-70400273D01*
X89120147Y-70661426D01*
X89065000Y-70938665D01*
X89065000Y-71221335D01*
X89120147Y-71498574D01*
X89228320Y-71759727D01*
X89385363Y-71994759D01*
X89585241Y-72194637D01*
X89817759Y-72350000D01*
X89585241Y-72505363D01*
X89385363Y-72705241D01*
X89228320Y-72940273D01*
X89120147Y-73201426D01*
X89065000Y-73478665D01*
X89065000Y-73761335D01*
X89120147Y-74038574D01*
X89228320Y-74299727D01*
X89385363Y-74534759D01*
X89585241Y-74734637D01*
X89820273Y-74891680D01*
X90081426Y-74999853D01*
X90358665Y-75055000D01*
X90641335Y-75055000D01*
X90918574Y-74999853D01*
X91179727Y-74891680D01*
X91414759Y-74734637D01*
X91614637Y-74534759D01*
X91771680Y-74299727D01*
X91879853Y-74038574D01*
X91935000Y-73761335D01*
X91935000Y-73478665D01*
X91879853Y-73201426D01*
X91771680Y-72940273D01*
X91691317Y-72820000D01*
X96681928Y-72820000D01*
X96681928Y-74420000D01*
X96694188Y-74544482D01*
X96730498Y-74664180D01*
X96789463Y-74774494D01*
X96868815Y-74871185D01*
X96965506Y-74950537D01*
X97075820Y-75009502D01*
X97195518Y-75045812D01*
X97320000Y-75058072D01*
X98920000Y-75058072D01*
X99044482Y-75045812D01*
X99164180Y-75009502D01*
X99274494Y-74950537D01*
X99371185Y-74871185D01*
X99450537Y-74774494D01*
X99509502Y-74664180D01*
X99545812Y-74544482D01*
X99558072Y-74420000D01*
X99558072Y-72820000D01*
X99545812Y-72695518D01*
X99509502Y-72575820D01*
X99450537Y-72465506D01*
X99371185Y-72368815D01*
X99274494Y-72289463D01*
X99164180Y-72230498D01*
X99044482Y-72194188D01*
X99036039Y-72193357D01*
X99234637Y-71994759D01*
X99391680Y-71759727D01*
X99499853Y-71498574D01*
X99555000Y-71221335D01*
X99555000Y-70938665D01*
X99499853Y-70661426D01*
X99391680Y-70400273D01*
X99234637Y-70165241D01*
X99034759Y-69965363D01*
X98799727Y-69808320D01*
X98789135Y-69803933D01*
X98975131Y-69692385D01*
X99183519Y-69503414D01*
X99351037Y-69277420D01*
X99471246Y-69023087D01*
X99511904Y-68889039D01*
X99434641Y-68748408D01*
X100857000Y-68748408D01*
X100857000Y-69023592D01*
X100910686Y-69293490D01*
X101015995Y-69547727D01*
X101168880Y-69776535D01*
X101363465Y-69971120D01*
X101592273Y-70124005D01*
X101669515Y-70156000D01*
X101592273Y-70187995D01*
X101363465Y-70340880D01*
X101168880Y-70535465D01*
X101015995Y-70764273D01*
X100910686Y-71018510D01*
X100857000Y-71288408D01*
X100857000Y-71563592D01*
X100910686Y-71833490D01*
X101015995Y-72087727D01*
X101168880Y-72316535D01*
X101363465Y-72511120D01*
X101592273Y-72664005D01*
X101669515Y-72696000D01*
X101592273Y-72727995D01*
X101363465Y-72880880D01*
X101168880Y-73075465D01*
X101015995Y-73304273D01*
X100910686Y-73558510D01*
X100857000Y-73828408D01*
X100857000Y-74103592D01*
X100910686Y-74373490D01*
X101015995Y-74627727D01*
X101168880Y-74856535D01*
X101363465Y-75051120D01*
X101592273Y-75204005D01*
X101669515Y-75236000D01*
X101592273Y-75267995D01*
X101363465Y-75420880D01*
X101168880Y-75615465D01*
X101015995Y-75844273D01*
X100910686Y-76098510D01*
X100857000Y-76368408D01*
X100857000Y-76643592D01*
X100910686Y-76913490D01*
X101015995Y-77167727D01*
X101168880Y-77396535D01*
X101363465Y-77591120D01*
X101592273Y-77744005D01*
X101669515Y-77776000D01*
X101592273Y-77807995D01*
X101363465Y-77960880D01*
X101168880Y-78155465D01*
X101015995Y-78384273D01*
X100910686Y-78638510D01*
X100857000Y-78908408D01*
X100857000Y-79183592D01*
X100910686Y-79453490D01*
X101015995Y-79707727D01*
X101168880Y-79936535D01*
X101363465Y-80131120D01*
X101592273Y-80284005D01*
X101669515Y-80316000D01*
X101592273Y-80347995D01*
X101363465Y-80500880D01*
X101168880Y-80695465D01*
X101015995Y-80924273D01*
X100910686Y-81178510D01*
X100857000Y-81448408D01*
X100857000Y-81723592D01*
X100910686Y-81993490D01*
X101015995Y-82247727D01*
X101168880Y-82476535D01*
X101363465Y-82671120D01*
X101592273Y-82824005D01*
X101669515Y-82856000D01*
X101592273Y-82887995D01*
X101363465Y-83040880D01*
X101168880Y-83235465D01*
X101015995Y-83464273D01*
X100910686Y-83718510D01*
X100857000Y-83988408D01*
X100857000Y-84263592D01*
X100910686Y-84533490D01*
X101015995Y-84787727D01*
X101168880Y-85016535D01*
X101363465Y-85211120D01*
X101592273Y-85364005D01*
X101669515Y-85396000D01*
X101592273Y-85427995D01*
X101363465Y-85580880D01*
X101168880Y-85775465D01*
X101015995Y-86004273D01*
X100910686Y-86258510D01*
X100857000Y-86528408D01*
X100857000Y-86803592D01*
X100910686Y-87073490D01*
X101015995Y-87327727D01*
X101168880Y-87556535D01*
X101363465Y-87751120D01*
X101592273Y-87904005D01*
X101663943Y-87933692D01*
X101650977Y-87938364D01*
X101535020Y-88000344D01*
X101468040Y-88240435D01*
X102254000Y-89026395D01*
X103039960Y-88240435D01*
X102972980Y-88000344D01*
X102837240Y-87936515D01*
X102915727Y-87904005D01*
X103144535Y-87751120D01*
X103339120Y-87556535D01*
X103492005Y-87327727D01*
X103597314Y-87073490D01*
X103651000Y-86803592D01*
X103651000Y-86528408D01*
X103597314Y-86258510D01*
X103492005Y-86004273D01*
X103339120Y-85775465D01*
X103144535Y-85580880D01*
X102915727Y-85427995D01*
X102838485Y-85396000D01*
X102915727Y-85364005D01*
X103144535Y-85211120D01*
X103339120Y-85016535D01*
X103492005Y-84787727D01*
X103597314Y-84533490D01*
X103651000Y-84263592D01*
X103651000Y-83988408D01*
X103597314Y-83718510D01*
X103492005Y-83464273D01*
X103339120Y-83235465D01*
X103144535Y-83040880D01*
X102915727Y-82887995D01*
X102838485Y-82856000D01*
X102915727Y-82824005D01*
X103144535Y-82671120D01*
X103339120Y-82476535D01*
X103492005Y-82247727D01*
X103597314Y-81993490D01*
X103651000Y-81723592D01*
X103651000Y-81448408D01*
X103597314Y-81178510D01*
X103492005Y-80924273D01*
X103339120Y-80695465D01*
X103144535Y-80500880D01*
X102915727Y-80347995D01*
X102838485Y-80316000D01*
X102915727Y-80284005D01*
X103144535Y-80131120D01*
X103339120Y-79936535D01*
X103492005Y-79707727D01*
X103597314Y-79453490D01*
X103651000Y-79183592D01*
X103651000Y-78908408D01*
X103597314Y-78638510D01*
X103492005Y-78384273D01*
X103339120Y-78155465D01*
X103144535Y-77960880D01*
X102915727Y-77807995D01*
X102838485Y-77776000D01*
X102915727Y-77744005D01*
X103144535Y-77591120D01*
X103339120Y-77396535D01*
X103492005Y-77167727D01*
X103597314Y-76913490D01*
X103651000Y-76643592D01*
X103651000Y-76368408D01*
X103597314Y-76098510D01*
X103492005Y-75844273D01*
X103339120Y-75615465D01*
X103144535Y-75420880D01*
X102915727Y-75267995D01*
X102838485Y-75236000D01*
X102915727Y-75204005D01*
X103144535Y-75051120D01*
X103339120Y-74856535D01*
X103492005Y-74627727D01*
X103597314Y-74373490D01*
X103651000Y-74103592D01*
X103651000Y-73828408D01*
X103597314Y-73558510D01*
X103492005Y-73304273D01*
X103339120Y-73075465D01*
X103144535Y-72880880D01*
X102915727Y-72727995D01*
X102838485Y-72696000D01*
X102915727Y-72664005D01*
X103144535Y-72511120D01*
X103339120Y-72316535D01*
X103492005Y-72087727D01*
X103597314Y-71833490D01*
X103651000Y-71563592D01*
X103651000Y-71288408D01*
X103597314Y-71018510D01*
X103492005Y-70764273D01*
X103339120Y-70535465D01*
X103144535Y-70340880D01*
X102915727Y-70187995D01*
X102838485Y-70156000D01*
X102915727Y-70124005D01*
X103144535Y-69971120D01*
X103339120Y-69776535D01*
X103492005Y-69547727D01*
X103597314Y-69293490D01*
X103651000Y-69023592D01*
X103651000Y-68748408D01*
X116097000Y-68748408D01*
X116097000Y-69023592D01*
X116150686Y-69293490D01*
X116255995Y-69547727D01*
X116408880Y-69776535D01*
X116603465Y-69971120D01*
X116832273Y-70124005D01*
X116909515Y-70156000D01*
X116832273Y-70187995D01*
X116603465Y-70340880D01*
X116408880Y-70535465D01*
X116255995Y-70764273D01*
X116150686Y-71018510D01*
X116097000Y-71288408D01*
X116097000Y-71563592D01*
X116150686Y-71833490D01*
X116255995Y-72087727D01*
X116408880Y-72316535D01*
X116603465Y-72511120D01*
X116832273Y-72664005D01*
X116909515Y-72696000D01*
X116832273Y-72727995D01*
X116603465Y-72880880D01*
X116408880Y-73075465D01*
X116255995Y-73304273D01*
X116150686Y-73558510D01*
X116097000Y-73828408D01*
X116097000Y-74103592D01*
X116150686Y-74373490D01*
X116255995Y-74627727D01*
X116408880Y-74856535D01*
X116603465Y-75051120D01*
X116832273Y-75204005D01*
X116909515Y-75236000D01*
X116832273Y-75267995D01*
X116603465Y-75420880D01*
X116408880Y-75615465D01*
X116255995Y-75844273D01*
X116150686Y-76098510D01*
X116097000Y-76368408D01*
X116097000Y-76643592D01*
X116150686Y-76913490D01*
X116255995Y-77167727D01*
X116408880Y-77396535D01*
X116603465Y-77591120D01*
X116832273Y-77744005D01*
X116909515Y-77776000D01*
X116832273Y-77807995D01*
X116603465Y-77960880D01*
X116408880Y-78155465D01*
X116255995Y-78384273D01*
X116150686Y-78638510D01*
X116097000Y-78908408D01*
X116097000Y-79183592D01*
X116150686Y-79453490D01*
X116255995Y-79707727D01*
X116408880Y-79936535D01*
X116603465Y-80131120D01*
X116832273Y-80284005D01*
X116909515Y-80316000D01*
X116832273Y-80347995D01*
X116603465Y-80500880D01*
X116408880Y-80695465D01*
X116255995Y-80924273D01*
X116150686Y-81178510D01*
X116097000Y-81448408D01*
X116097000Y-81723592D01*
X116150686Y-81993490D01*
X116255995Y-82247727D01*
X116408880Y-82476535D01*
X116603465Y-82671120D01*
X116832273Y-82824005D01*
X116909515Y-82856000D01*
X116832273Y-82887995D01*
X116603465Y-83040880D01*
X116408880Y-83235465D01*
X116255995Y-83464273D01*
X116150686Y-83718510D01*
X116097000Y-83988408D01*
X116097000Y-84263592D01*
X116150686Y-84533490D01*
X116255995Y-84787727D01*
X116408880Y-85016535D01*
X116603465Y-85211120D01*
X116832273Y-85364005D01*
X116909515Y-85396000D01*
X116832273Y-85427995D01*
X116603465Y-85580880D01*
X116408880Y-85775465D01*
X116255995Y-86004273D01*
X116150686Y-86258510D01*
X116097000Y-86528408D01*
X116097000Y-86803592D01*
X116150686Y-87073490D01*
X116255995Y-87327727D01*
X116408880Y-87556535D01*
X116603465Y-87751120D01*
X116832273Y-87904005D01*
X116909515Y-87936000D01*
X116832273Y-87967995D01*
X116603465Y-88120880D01*
X116408880Y-88315465D01*
X116255995Y-88544273D01*
X116150686Y-88798510D01*
X116097000Y-89068408D01*
X116097000Y-89343592D01*
X116150686Y-89613490D01*
X116255995Y-89867727D01*
X116408880Y-90096535D01*
X116603465Y-90291120D01*
X116832273Y-90444005D01*
X116909515Y-90476000D01*
X116832273Y-90507995D01*
X116603465Y-90660880D01*
X116408880Y-90855465D01*
X116255995Y-91084273D01*
X116150686Y-91338510D01*
X116097000Y-91608408D01*
X116097000Y-91883592D01*
X116150686Y-92153490D01*
X116255995Y-92407727D01*
X116408880Y-92636535D01*
X116603465Y-92831120D01*
X116832273Y-92984005D01*
X117086510Y-93089314D01*
X117356408Y-93143000D01*
X117631592Y-93143000D01*
X117901490Y-93089314D01*
X118155727Y-92984005D01*
X118384535Y-92831120D01*
X118579120Y-92636535D01*
X118732005Y-92407727D01*
X118837314Y-92153490D01*
X118891000Y-91883592D01*
X118891000Y-91608408D01*
X118837314Y-91338510D01*
X118732005Y-91084273D01*
X118579120Y-90855465D01*
X118384535Y-90660880D01*
X118155727Y-90507995D01*
X118078485Y-90476000D01*
X118155727Y-90444005D01*
X118384535Y-90291120D01*
X118579120Y-90096535D01*
X118732005Y-89867727D01*
X118792874Y-89720777D01*
X119165000Y-89720777D01*
X119165000Y-90279223D01*
X119273948Y-90826939D01*
X119487656Y-91342876D01*
X119797912Y-91807207D01*
X120192793Y-92202088D01*
X120657124Y-92512344D01*
X121173061Y-92726052D01*
X121720777Y-92835000D01*
X122279223Y-92835000D01*
X122826939Y-92726052D01*
X123342876Y-92512344D01*
X123807207Y-92202088D01*
X124202088Y-91807207D01*
X124512344Y-91342876D01*
X124726052Y-90826939D01*
X124835000Y-90279223D01*
X124835000Y-89720777D01*
X124726052Y-89173061D01*
X124512344Y-88657124D01*
X124202088Y-88192793D01*
X123807207Y-87797912D01*
X123342876Y-87487656D01*
X122826939Y-87273948D01*
X122279223Y-87165000D01*
X121720777Y-87165000D01*
X121173061Y-87273948D01*
X120657124Y-87487656D01*
X120192793Y-87797912D01*
X119797912Y-88192793D01*
X119487656Y-88657124D01*
X119273948Y-89173061D01*
X119165000Y-89720777D01*
X118792874Y-89720777D01*
X118837314Y-89613490D01*
X118891000Y-89343592D01*
X118891000Y-89068408D01*
X118837314Y-88798510D01*
X118732005Y-88544273D01*
X118579120Y-88315465D01*
X118384535Y-88120880D01*
X118155727Y-87967995D01*
X118078485Y-87936000D01*
X118155727Y-87904005D01*
X118384535Y-87751120D01*
X118579120Y-87556535D01*
X118732005Y-87327727D01*
X118837314Y-87073490D01*
X118891000Y-86803592D01*
X118891000Y-86528408D01*
X118837314Y-86258510D01*
X118732005Y-86004273D01*
X118579120Y-85775465D01*
X118384535Y-85580880D01*
X118155727Y-85427995D01*
X118078485Y-85396000D01*
X118155727Y-85364005D01*
X118384535Y-85211120D01*
X118579120Y-85016535D01*
X118732005Y-84787727D01*
X118837314Y-84533490D01*
X118891000Y-84263592D01*
X118891000Y-83988408D01*
X118837314Y-83718510D01*
X118732005Y-83464273D01*
X118579120Y-83235465D01*
X118384535Y-83040880D01*
X118155727Y-82887995D01*
X118078485Y-82856000D01*
X118155727Y-82824005D01*
X118384535Y-82671120D01*
X118579120Y-82476535D01*
X118732005Y-82247727D01*
X118837314Y-81993490D01*
X118891000Y-81723592D01*
X118891000Y-81448408D01*
X118837314Y-81178510D01*
X118732005Y-80924273D01*
X118579120Y-80695465D01*
X118384535Y-80500880D01*
X118155727Y-80347995D01*
X118078485Y-80316000D01*
X118155727Y-80284005D01*
X118384535Y-80131120D01*
X118579120Y-79936535D01*
X118732005Y-79707727D01*
X118837314Y-79453490D01*
X118891000Y-79183592D01*
X118891000Y-78908408D01*
X118837314Y-78638510D01*
X118732005Y-78384273D01*
X118579120Y-78155465D01*
X118384535Y-77960880D01*
X118155727Y-77807995D01*
X118078485Y-77776000D01*
X118155727Y-77744005D01*
X118384535Y-77591120D01*
X118579120Y-77396535D01*
X118732005Y-77167727D01*
X118837314Y-76913490D01*
X118891000Y-76643592D01*
X118891000Y-76368408D01*
X118837314Y-76098510D01*
X118732005Y-75844273D01*
X118579120Y-75615465D01*
X118384535Y-75420880D01*
X118155727Y-75267995D01*
X118078485Y-75236000D01*
X118155727Y-75204005D01*
X118384535Y-75051120D01*
X118579120Y-74856535D01*
X118732005Y-74627727D01*
X118837314Y-74373490D01*
X118891000Y-74103592D01*
X118891000Y-73828408D01*
X118837314Y-73558510D01*
X118732005Y-73304273D01*
X118579120Y-73075465D01*
X118384535Y-72880880D01*
X118155727Y-72727995D01*
X118078485Y-72696000D01*
X118155727Y-72664005D01*
X118384535Y-72511120D01*
X118579120Y-72316535D01*
X118732005Y-72087727D01*
X118837314Y-71833490D01*
X118891000Y-71563592D01*
X118891000Y-71288408D01*
X118837314Y-71018510D01*
X118732005Y-70764273D01*
X118579120Y-70535465D01*
X118384535Y-70340880D01*
X118155727Y-70187995D01*
X118078485Y-70156000D01*
X118155727Y-70124005D01*
X118384535Y-69971120D01*
X118579120Y-69776535D01*
X118732005Y-69547727D01*
X118837314Y-69293490D01*
X118891000Y-69023592D01*
X118891000Y-68748408D01*
X118837314Y-68478510D01*
X118732005Y-68224273D01*
X118579120Y-67995465D01*
X118384535Y-67800880D01*
X118155727Y-67647995D01*
X117901490Y-67542686D01*
X117631592Y-67489000D01*
X117356408Y-67489000D01*
X117086510Y-67542686D01*
X116832273Y-67647995D01*
X116603465Y-67800880D01*
X116408880Y-67995465D01*
X116255995Y-68224273D01*
X116150686Y-68478510D01*
X116097000Y-68748408D01*
X103651000Y-68748408D01*
X103597314Y-68478510D01*
X103492005Y-68224273D01*
X103339120Y-67995465D01*
X103144535Y-67800880D01*
X102915727Y-67647995D01*
X102661490Y-67542686D01*
X102391592Y-67489000D01*
X102116408Y-67489000D01*
X101846510Y-67542686D01*
X101592273Y-67647995D01*
X101363465Y-67800880D01*
X101168880Y-67995465D01*
X101015995Y-68224273D01*
X100910686Y-68478510D01*
X100857000Y-68748408D01*
X99434641Y-68748408D01*
X99389915Y-68667000D01*
X98247000Y-68667000D01*
X98247000Y-68687000D01*
X97993000Y-68687000D01*
X97993000Y-68667000D01*
X96850085Y-68667000D01*
X96728096Y-68889039D01*
X96768754Y-69023087D01*
X96888963Y-69277420D01*
X97056481Y-69503414D01*
X97264869Y-69692385D01*
X97450865Y-69803933D01*
X97440273Y-69808320D01*
X97205241Y-69965363D01*
X97005363Y-70165241D01*
X96848320Y-70400273D01*
X96740147Y-70661426D01*
X96685000Y-70938665D01*
X96685000Y-71221335D01*
X96740147Y-71498574D01*
X96848320Y-71759727D01*
X97005363Y-71994759D01*
X97203961Y-72193357D01*
X97195518Y-72194188D01*
X97075820Y-72230498D01*
X96965506Y-72289463D01*
X96868815Y-72368815D01*
X96789463Y-72465506D01*
X96730498Y-72575820D01*
X96694188Y-72695518D01*
X96681928Y-72820000D01*
X91691317Y-72820000D01*
X91614637Y-72705241D01*
X91414759Y-72505363D01*
X91182241Y-72350000D01*
X91414759Y-72194637D01*
X91614637Y-71994759D01*
X91771680Y-71759727D01*
X91879853Y-71498574D01*
X91935000Y-71221335D01*
X91935000Y-70938665D01*
X91879853Y-70661426D01*
X91771680Y-70400273D01*
X91614637Y-70165241D01*
X91414759Y-69965363D01*
X91182241Y-69810000D01*
X91414759Y-69654637D01*
X91614637Y-69454759D01*
X91771680Y-69219727D01*
X91879853Y-68958574D01*
X91935000Y-68681335D01*
X91935000Y-68398665D01*
X91879853Y-68121426D01*
X91771680Y-67860273D01*
X91614637Y-67625241D01*
X91414759Y-67425363D01*
X91182241Y-67270000D01*
X91414759Y-67114637D01*
X91614637Y-66914759D01*
X91771680Y-66679727D01*
X91879853Y-66418574D01*
X91935000Y-66141335D01*
X91935000Y-65858665D01*
X96685000Y-65858665D01*
X96685000Y-66141335D01*
X96740147Y-66418574D01*
X96848320Y-66679727D01*
X97005363Y-66914759D01*
X97205241Y-67114637D01*
X97440273Y-67271680D01*
X97450865Y-67276067D01*
X97264869Y-67387615D01*
X97056481Y-67576586D01*
X96888963Y-67802580D01*
X96768754Y-68056913D01*
X96728096Y-68190961D01*
X96850085Y-68413000D01*
X97993000Y-68413000D01*
X97993000Y-68393000D01*
X98247000Y-68393000D01*
X98247000Y-68413000D01*
X99389915Y-68413000D01*
X99511904Y-68190961D01*
X99471246Y-68056913D01*
X99351037Y-67802580D01*
X99183519Y-67576586D01*
X98975131Y-67387615D01*
X98789135Y-67276067D01*
X98799727Y-67271680D01*
X99034759Y-67114637D01*
X99234637Y-66914759D01*
X99391680Y-66679727D01*
X99499853Y-66418574D01*
X99555000Y-66141335D01*
X99555000Y-65858665D01*
X99499853Y-65581426D01*
X99391680Y-65320273D01*
X99234637Y-65085241D01*
X99034759Y-64885363D01*
X98799727Y-64728320D01*
X98538574Y-64620147D01*
X98261335Y-64565000D01*
X97978665Y-64565000D01*
X97701426Y-64620147D01*
X97440273Y-64728320D01*
X97205241Y-64885363D01*
X97005363Y-65085241D01*
X96848320Y-65320273D01*
X96740147Y-65581426D01*
X96685000Y-65858665D01*
X91935000Y-65858665D01*
X91879853Y-65581426D01*
X91771680Y-65320273D01*
X91614637Y-65085241D01*
X91414759Y-64885363D01*
X91179727Y-64728320D01*
X90918574Y-64620147D01*
X90641335Y-64565000D01*
X90358665Y-64565000D01*
X90081426Y-64620147D01*
X89820273Y-64728320D01*
X89585241Y-64885363D01*
X89385363Y-65085241D01*
X89228320Y-65320273D01*
X89120147Y-65581426D01*
X89065000Y-65858665D01*
X80722536Y-65858665D01*
X80872689Y-65758336D01*
X81098336Y-65532689D01*
X81275625Y-65267358D01*
X81397744Y-64972536D01*
X81460000Y-64659556D01*
X81460000Y-64340444D01*
X81397744Y-64027464D01*
X81327826Y-63858665D01*
X84065000Y-63858665D01*
X84065000Y-64141335D01*
X84120147Y-64418574D01*
X84228320Y-64679727D01*
X84385363Y-64914759D01*
X84585241Y-65114637D01*
X84820273Y-65271680D01*
X85081426Y-65379853D01*
X85358665Y-65435000D01*
X85641335Y-65435000D01*
X85918574Y-65379853D01*
X86179727Y-65271680D01*
X86414759Y-65114637D01*
X86614637Y-64914759D01*
X86771680Y-64679727D01*
X86879853Y-64418574D01*
X86880671Y-64414460D01*
X90966649Y-60328483D01*
X91036634Y-60314562D01*
X91277860Y-60214643D01*
X91494957Y-60069583D01*
X91679583Y-59884957D01*
X91824643Y-59667860D01*
X91920000Y-59437648D01*
X92015357Y-59667860D01*
X92160417Y-59884957D01*
X92345043Y-60069583D01*
X92562140Y-60214643D01*
X92803366Y-60314562D01*
X93059450Y-60365500D01*
X93320550Y-60365500D01*
X93576634Y-60314562D01*
X93817860Y-60214643D01*
X94034957Y-60069583D01*
X94219583Y-59884957D01*
X94364643Y-59667860D01*
X94460000Y-59437648D01*
X94555357Y-59667860D01*
X94700417Y-59884957D01*
X94885043Y-60069583D01*
X95102140Y-60214643D01*
X95343366Y-60314562D01*
X95599450Y-60365500D01*
X95860550Y-60365500D01*
X96116634Y-60314562D01*
X96357860Y-60214643D01*
X96574957Y-60069583D01*
X96759583Y-59884957D01*
X96904643Y-59667860D01*
X97004562Y-59426634D01*
X97055500Y-59170550D01*
X97055500Y-58909450D01*
X97004562Y-58653366D01*
X96904643Y-58412140D01*
X96863977Y-58351278D01*
X105950000Y-58351278D01*
X105950000Y-58648722D01*
X106008029Y-58940451D01*
X106121856Y-59215253D01*
X106287107Y-59462569D01*
X106497431Y-59672893D01*
X106744747Y-59838144D01*
X107019549Y-59951971D01*
X107311278Y-60010000D01*
X107608722Y-60010000D01*
X107900451Y-59951971D01*
X108175253Y-59838144D01*
X108422569Y-59672893D01*
X108549222Y-59546240D01*
X109133365Y-59546240D01*
X109214025Y-59797868D01*
X109482329Y-59926267D01*
X109770526Y-59999855D01*
X110067543Y-60015804D01*
X110361963Y-59973501D01*
X110642474Y-59874572D01*
X110785975Y-59797868D01*
X110866635Y-59546240D01*
X110000000Y-58679605D01*
X109133365Y-59546240D01*
X108549222Y-59546240D01*
X108632893Y-59462569D01*
X108742288Y-59298847D01*
X108953760Y-59366635D01*
X109820395Y-58500000D01*
X110179605Y-58500000D01*
X111046240Y-59366635D01*
X111257712Y-59298847D01*
X111367107Y-59462569D01*
X111577431Y-59672893D01*
X111824747Y-59838144D01*
X112099549Y-59951971D01*
X112391278Y-60010000D01*
X112688722Y-60010000D01*
X112980451Y-59951971D01*
X113255253Y-59838144D01*
X113502569Y-59672893D01*
X113712893Y-59462569D01*
X113878144Y-59215253D01*
X113991971Y-58940451D01*
X114050000Y-58648722D01*
X114050000Y-58351278D01*
X113991971Y-58059549D01*
X113878144Y-57784747D01*
X113712893Y-57537431D01*
X113502569Y-57327107D01*
X113255253Y-57161856D01*
X112980451Y-57048029D01*
X112688722Y-56990000D01*
X112391278Y-56990000D01*
X112099549Y-57048029D01*
X111824747Y-57161856D01*
X111577431Y-57327107D01*
X111367107Y-57537431D01*
X111257712Y-57701153D01*
X111046240Y-57633365D01*
X110179605Y-58500000D01*
X109820395Y-58500000D01*
X108953760Y-57633365D01*
X108742288Y-57701153D01*
X108632893Y-57537431D01*
X108549222Y-57453760D01*
X109133365Y-57453760D01*
X110000000Y-58320395D01*
X110866635Y-57453760D01*
X110785975Y-57202132D01*
X110517671Y-57073733D01*
X110229474Y-57000145D01*
X109932457Y-56984196D01*
X109638037Y-57026499D01*
X109357526Y-57125428D01*
X109214025Y-57202132D01*
X109133365Y-57453760D01*
X108549222Y-57453760D01*
X108422569Y-57327107D01*
X108175253Y-57161856D01*
X107900451Y-57048029D01*
X107608722Y-56990000D01*
X107311278Y-56990000D01*
X107019549Y-57048029D01*
X106744747Y-57161856D01*
X106497431Y-57327107D01*
X106287107Y-57537431D01*
X106121856Y-57784747D01*
X106008029Y-58059549D01*
X105950000Y-58351278D01*
X96863977Y-58351278D01*
X96759583Y-58195043D01*
X96574957Y-58010417D01*
X96357860Y-57865357D01*
X96116634Y-57765438D01*
X95860550Y-57714500D01*
X95599450Y-57714500D01*
X95343366Y-57765438D01*
X95102140Y-57865357D01*
X94885043Y-58010417D01*
X94700417Y-58195043D01*
X94555357Y-58412140D01*
X94460000Y-58642352D01*
X94364643Y-58412140D01*
X94219583Y-58195043D01*
X94034957Y-58010417D01*
X93817860Y-57865357D01*
X93576634Y-57765438D01*
X93320550Y-57714500D01*
X93059450Y-57714500D01*
X92803366Y-57765438D01*
X92562140Y-57865357D01*
X92345043Y-58010417D01*
X92160417Y-58195043D01*
X92015357Y-58412140D01*
X91920000Y-58642352D01*
X91824643Y-58412140D01*
X91679583Y-58195043D01*
X91494957Y-58010417D01*
X91277860Y-57865357D01*
X91036634Y-57765438D01*
X90780550Y-57714500D01*
X90579628Y-57714500D01*
X90605814Y-57651282D01*
X90660000Y-57378873D01*
X90660000Y-57101127D01*
X90605814Y-56828718D01*
X90499525Y-56572115D01*
X90364109Y-56369450D01*
X90594500Y-56369450D01*
X90594500Y-56630550D01*
X90645438Y-56886634D01*
X90745357Y-57127860D01*
X90890417Y-57344957D01*
X91075043Y-57529583D01*
X91292140Y-57674643D01*
X91533366Y-57774562D01*
X91789450Y-57825500D01*
X92050550Y-57825500D01*
X92306634Y-57774562D01*
X92547860Y-57674643D01*
X92764957Y-57529583D01*
X92880060Y-57414480D01*
X93725125Y-57414480D01*
X93783433Y-57647279D01*
X94020257Y-57757227D01*
X94273979Y-57818859D01*
X94534849Y-57829808D01*
X94792844Y-57789654D01*
X95038047Y-57699939D01*
X95136567Y-57647279D01*
X95194875Y-57414480D01*
X96265125Y-57414480D01*
X96323433Y-57647279D01*
X96560257Y-57757227D01*
X96813979Y-57818859D01*
X97074849Y-57829808D01*
X97332844Y-57789654D01*
X97578047Y-57699939D01*
X97676567Y-57647279D01*
X97734875Y-57414480D01*
X97000000Y-56679605D01*
X96265125Y-57414480D01*
X95194875Y-57414480D01*
X94460000Y-56679605D01*
X93725125Y-57414480D01*
X92880060Y-57414480D01*
X92949583Y-57344957D01*
X93094643Y-57127860D01*
X93192154Y-56892448D01*
X93260061Y-57078047D01*
X93312721Y-57176567D01*
X93545520Y-57234875D01*
X94280395Y-56500000D01*
X94639605Y-56500000D01*
X95374480Y-57234875D01*
X95607279Y-57176567D01*
X95717227Y-56939743D01*
X95730087Y-56886800D01*
X95800061Y-57078047D01*
X95852721Y-57176567D01*
X96085520Y-57234875D01*
X96820395Y-56500000D01*
X97179605Y-56500000D01*
X97914480Y-57234875D01*
X98147279Y-57176567D01*
X98257227Y-56939743D01*
X98318859Y-56686021D01*
X98329808Y-56425151D01*
X98289654Y-56167156D01*
X98199939Y-55921953D01*
X98147279Y-55823433D01*
X97914480Y-55765125D01*
X97179605Y-56500000D01*
X96820395Y-56500000D01*
X96085520Y-55765125D01*
X95852721Y-55823433D01*
X95742773Y-56060257D01*
X95729913Y-56113200D01*
X95659939Y-55921953D01*
X95607279Y-55823433D01*
X95374480Y-55765125D01*
X94639605Y-56500000D01*
X94280395Y-56500000D01*
X93545520Y-55765125D01*
X93312721Y-55823433D01*
X93202773Y-56060257D01*
X93191606Y-56106229D01*
X93094643Y-55872140D01*
X92949583Y-55655043D01*
X92880060Y-55585520D01*
X93725125Y-55585520D01*
X94460000Y-56320395D01*
X95194875Y-55585520D01*
X96265125Y-55585520D01*
X97000000Y-56320395D01*
X97734875Y-55585520D01*
X97676567Y-55352721D01*
X97439743Y-55242773D01*
X97186021Y-55181141D01*
X96925151Y-55170192D01*
X96667156Y-55210346D01*
X96421953Y-55300061D01*
X96323433Y-55352721D01*
X96265125Y-55585520D01*
X95194875Y-55585520D01*
X95136567Y-55352721D01*
X94899743Y-55242773D01*
X94646021Y-55181141D01*
X94385151Y-55170192D01*
X94127156Y-55210346D01*
X93881953Y-55300061D01*
X93783433Y-55352721D01*
X93725125Y-55585520D01*
X92880060Y-55585520D01*
X92764957Y-55470417D01*
X92547860Y-55325357D01*
X92306634Y-55225438D01*
X92050550Y-55174500D01*
X91789450Y-55174500D01*
X91533366Y-55225438D01*
X91292140Y-55325357D01*
X91075043Y-55470417D01*
X90890417Y-55655043D01*
X90745357Y-55872140D01*
X90645438Y-56113366D01*
X90594500Y-56369450D01*
X90364109Y-56369450D01*
X90345218Y-56341178D01*
X90148822Y-56144782D01*
X89917885Y-55990475D01*
X89661282Y-55884186D01*
X89388873Y-55830000D01*
X89111127Y-55830000D01*
X88838718Y-55884186D01*
X88582115Y-55990475D01*
X88351178Y-56144782D01*
X88154782Y-56341178D01*
X88000475Y-56572115D01*
X87894186Y-56828718D01*
X87840000Y-57101127D01*
X87840000Y-57378873D01*
X87894186Y-57651282D01*
X88000475Y-57907885D01*
X88154782Y-58138822D01*
X88351178Y-58335218D01*
X88582115Y-58489525D01*
X88838718Y-58595814D01*
X89111127Y-58650000D01*
X89376832Y-58650000D01*
X89375438Y-58653366D01*
X89361517Y-58723351D01*
X85519869Y-62565000D01*
X85358665Y-62565000D01*
X85081426Y-62620147D01*
X84820273Y-62728320D01*
X84585241Y-62885363D01*
X84385363Y-63085241D01*
X84228320Y-63320273D01*
X84120147Y-63581426D01*
X84065000Y-63858665D01*
X81327826Y-63858665D01*
X81275625Y-63732642D01*
X81098336Y-63467311D01*
X80872689Y-63241664D01*
X80607358Y-63064375D01*
X80312536Y-62942256D01*
X79999556Y-62880000D01*
X79680444Y-62880000D01*
X79367464Y-62942256D01*
X79072642Y-63064375D01*
X78807311Y-63241664D01*
X78581664Y-63467311D01*
X78404375Y-63732642D01*
X78282256Y-64027464D01*
X78220000Y-64340444D01*
X59620000Y-64340444D01*
X59557744Y-64027464D01*
X59435625Y-63732642D01*
X59258336Y-63467311D01*
X59032689Y-63241664D01*
X58767358Y-63064375D01*
X58472536Y-62942256D01*
X58159556Y-62880000D01*
X57840444Y-62880000D01*
X57527464Y-62942256D01*
X57232642Y-63064375D01*
X56967311Y-63241664D01*
X56741664Y-63467311D01*
X56564375Y-63732642D01*
X56442256Y-64027464D01*
X56380000Y-64340444D01*
X36654050Y-64340444D01*
X36654050Y-60975000D01*
X40386928Y-60975000D01*
X40399188Y-61099482D01*
X40435498Y-61219180D01*
X40494463Y-61329494D01*
X40573815Y-61426185D01*
X40670506Y-61505537D01*
X40780820Y-61564502D01*
X40900518Y-61600812D01*
X41025000Y-61613072D01*
X41714250Y-61610000D01*
X41873000Y-61451250D01*
X41873000Y-60127000D01*
X42127000Y-60127000D01*
X42127000Y-61451250D01*
X42285750Y-61610000D01*
X42975000Y-61613072D01*
X43099482Y-61600812D01*
X43219180Y-61564502D01*
X43329494Y-61505537D01*
X43426185Y-61426185D01*
X43505537Y-61329494D01*
X43564502Y-61219180D01*
X43600812Y-61099482D01*
X43613072Y-60975000D01*
X45386928Y-60975000D01*
X45399188Y-61099482D01*
X45435498Y-61219180D01*
X45494463Y-61329494D01*
X45573815Y-61426185D01*
X45670506Y-61505537D01*
X45780820Y-61564502D01*
X45900518Y-61600812D01*
X46025000Y-61613072D01*
X46714250Y-61610000D01*
X46873000Y-61451250D01*
X46873000Y-60127000D01*
X47127000Y-60127000D01*
X47127000Y-61451250D01*
X47285750Y-61610000D01*
X47975000Y-61613072D01*
X48099482Y-61600812D01*
X48219180Y-61564502D01*
X48329494Y-61505537D01*
X48426185Y-61426185D01*
X48505537Y-61329494D01*
X48564502Y-61219180D01*
X48600812Y-61099482D01*
X48613072Y-60975000D01*
X48610000Y-60285750D01*
X48451250Y-60127000D01*
X47127000Y-60127000D01*
X46873000Y-60127000D01*
X45548750Y-60127000D01*
X45390000Y-60285750D01*
X45386928Y-60975000D01*
X43613072Y-60975000D01*
X43610000Y-60285750D01*
X43451250Y-60127000D01*
X42127000Y-60127000D01*
X41873000Y-60127000D01*
X40548750Y-60127000D01*
X40390000Y-60285750D01*
X40386928Y-60975000D01*
X36654050Y-60975000D01*
X36654050Y-59992702D01*
X84686903Y-59992702D01*
X84758486Y-60236671D01*
X85013996Y-60357571D01*
X85288184Y-60426300D01*
X85570512Y-60440217D01*
X85850130Y-60398787D01*
X86116292Y-60303603D01*
X86241514Y-60236671D01*
X86313097Y-59992702D01*
X85500000Y-59179605D01*
X84686903Y-59992702D01*
X36654050Y-59992702D01*
X36654050Y-59025000D01*
X40386928Y-59025000D01*
X40390000Y-59714250D01*
X40548750Y-59873000D01*
X41873000Y-59873000D01*
X41873000Y-58548750D01*
X42127000Y-58548750D01*
X42127000Y-59873000D01*
X43451250Y-59873000D01*
X43610000Y-59714250D01*
X43613072Y-59025000D01*
X45386928Y-59025000D01*
X45390000Y-59714250D01*
X45548750Y-59873000D01*
X46873000Y-59873000D01*
X46873000Y-58548750D01*
X47127000Y-58548750D01*
X47127000Y-59873000D01*
X48451250Y-59873000D01*
X48610000Y-59714250D01*
X48612869Y-59070512D01*
X84059783Y-59070512D01*
X84101213Y-59350130D01*
X84196397Y-59616292D01*
X84263329Y-59741514D01*
X84507298Y-59813097D01*
X85320395Y-59000000D01*
X85679605Y-59000000D01*
X86492702Y-59813097D01*
X86736671Y-59741514D01*
X86857571Y-59486004D01*
X86926300Y-59211816D01*
X86940217Y-58929488D01*
X86898787Y-58649870D01*
X86803603Y-58383708D01*
X86736671Y-58258486D01*
X86492702Y-58186903D01*
X85679605Y-59000000D01*
X85320395Y-59000000D01*
X84507298Y-58186903D01*
X84263329Y-58258486D01*
X84142429Y-58513996D01*
X84073700Y-58788184D01*
X84059783Y-59070512D01*
X48612869Y-59070512D01*
X48613072Y-59025000D01*
X48600812Y-58900518D01*
X48564502Y-58780820D01*
X48505537Y-58670506D01*
X48426185Y-58573815D01*
X48329494Y-58494463D01*
X48219180Y-58435498D01*
X48099482Y-58399188D01*
X47975000Y-58386928D01*
X47285750Y-58390000D01*
X47127000Y-58548750D01*
X46873000Y-58548750D01*
X46714250Y-58390000D01*
X46025000Y-58386928D01*
X45900518Y-58399188D01*
X45780820Y-58435498D01*
X45670506Y-58494463D01*
X45573815Y-58573815D01*
X45494463Y-58670506D01*
X45435498Y-58780820D01*
X45399188Y-58900518D01*
X45386928Y-59025000D01*
X43613072Y-59025000D01*
X43600812Y-58900518D01*
X43564502Y-58780820D01*
X43505537Y-58670506D01*
X43426185Y-58573815D01*
X43329494Y-58494463D01*
X43219180Y-58435498D01*
X43099482Y-58399188D01*
X42975000Y-58386928D01*
X42285750Y-58390000D01*
X42127000Y-58548750D01*
X41873000Y-58548750D01*
X41714250Y-58390000D01*
X41025000Y-58386928D01*
X40900518Y-58399188D01*
X40780820Y-58435498D01*
X40670506Y-58494463D01*
X40573815Y-58573815D01*
X40494463Y-58670506D01*
X40435498Y-58780820D01*
X40399188Y-58900518D01*
X40386928Y-59025000D01*
X36654050Y-59025000D01*
X36654050Y-58007298D01*
X84686903Y-58007298D01*
X85500000Y-58820395D01*
X86313097Y-58007298D01*
X86241514Y-57763329D01*
X85986004Y-57642429D01*
X85711816Y-57573700D01*
X85429488Y-57559783D01*
X85149870Y-57601213D01*
X84883708Y-57696397D01*
X84758486Y-57763329D01*
X84686903Y-58007298D01*
X36654050Y-58007298D01*
X36654050Y-54841429D01*
X40390000Y-54841429D01*
X40390000Y-55158571D01*
X40451871Y-55469620D01*
X40573237Y-55762621D01*
X40749431Y-56026315D01*
X40973685Y-56250569D01*
X41237379Y-56426763D01*
X41530380Y-56548129D01*
X41841429Y-56610000D01*
X42158571Y-56610000D01*
X42469620Y-56548129D01*
X42762621Y-56426763D01*
X43026315Y-56250569D01*
X43250569Y-56026315D01*
X43426763Y-55762621D01*
X43548129Y-55469620D01*
X43610000Y-55158571D01*
X43610000Y-54841429D01*
X45390000Y-54841429D01*
X45390000Y-55158571D01*
X45451871Y-55469620D01*
X45573237Y-55762621D01*
X45749431Y-56026315D01*
X45973685Y-56250569D01*
X46237379Y-56426763D01*
X46530380Y-56548129D01*
X46841429Y-56610000D01*
X47158571Y-56610000D01*
X47469620Y-56548129D01*
X47762621Y-56426763D01*
X48026315Y-56250569D01*
X48250569Y-56026315D01*
X48426763Y-55762621D01*
X48548129Y-55469620D01*
X48610000Y-55158571D01*
X48610000Y-54873863D01*
X56367622Y-54873863D01*
X56461121Y-55170446D01*
X56610684Y-55443089D01*
X56810563Y-55681315D01*
X57053077Y-55875969D01*
X57328906Y-56019571D01*
X57547020Y-56090563D01*
X57793000Y-55970594D01*
X57793000Y-54627000D01*
X56494430Y-54627000D01*
X56367622Y-54873863D01*
X48610000Y-54873863D01*
X48610000Y-54841429D01*
X48548129Y-54530380D01*
X48426763Y-54237379D01*
X48352434Y-54126137D01*
X56367622Y-54126137D01*
X56494430Y-54373000D01*
X57793000Y-54373000D01*
X57793000Y-53029406D01*
X57547020Y-52909437D01*
X57328906Y-52980429D01*
X57053077Y-53124031D01*
X56810563Y-53318685D01*
X56610684Y-53556911D01*
X56461121Y-53829554D01*
X56367622Y-54126137D01*
X48352434Y-54126137D01*
X48250569Y-53973685D01*
X48026315Y-53749431D01*
X47762621Y-53573237D01*
X47469620Y-53451871D01*
X47158571Y-53390000D01*
X46841429Y-53390000D01*
X46530380Y-53451871D01*
X46237379Y-53573237D01*
X45973685Y-53749431D01*
X45749431Y-53973685D01*
X45573237Y-54237379D01*
X45451871Y-54530380D01*
X45390000Y-54841429D01*
X43610000Y-54841429D01*
X43548129Y-54530380D01*
X43426763Y-54237379D01*
X43250569Y-53973685D01*
X43026315Y-53749431D01*
X42762621Y-53573237D01*
X42469620Y-53451871D01*
X42158571Y-53390000D01*
X41841429Y-53390000D01*
X41530380Y-53451871D01*
X41237379Y-53573237D01*
X40973685Y-53749431D01*
X40749431Y-53973685D01*
X40573237Y-54237379D01*
X40451871Y-54530380D01*
X40390000Y-54841429D01*
X36654050Y-54841429D01*
X36654050Y-49413330D01*
X36707278Y-49413330D01*
X36797147Y-49659123D01*
X36933241Y-49882660D01*
X37110330Y-50075351D01*
X37321608Y-50229792D01*
X37558956Y-50340047D01*
X37666671Y-50372716D01*
X37873000Y-50249374D01*
X37873000Y-49207000D01*
X38127000Y-49207000D01*
X38127000Y-50249374D01*
X38333329Y-50372716D01*
X38441044Y-50340047D01*
X38678392Y-50229792D01*
X38889670Y-50075351D01*
X39066759Y-49882660D01*
X39202853Y-49659123D01*
X39292722Y-49413330D01*
X39170201Y-49207000D01*
X38127000Y-49207000D01*
X37873000Y-49207000D01*
X36829799Y-49207000D01*
X36707278Y-49413330D01*
X36654050Y-49413330D01*
X36654050Y-48746670D01*
X36707278Y-48746670D01*
X36829799Y-48953000D01*
X37873000Y-48953000D01*
X37873000Y-47910626D01*
X38127000Y-47910626D01*
X38127000Y-48953000D01*
X39170201Y-48953000D01*
X39292722Y-48746670D01*
X39252044Y-48635413D01*
X47044192Y-48635413D01*
X47139956Y-48899814D01*
X47429571Y-49040704D01*
X47741108Y-49122384D01*
X48062595Y-49141718D01*
X48381675Y-49097961D01*
X48686088Y-48992795D01*
X48860044Y-48899814D01*
X48955808Y-48635413D01*
X48000000Y-47679605D01*
X47044192Y-48635413D01*
X39252044Y-48635413D01*
X39202853Y-48500877D01*
X39066759Y-48277340D01*
X38889670Y-48084649D01*
X38678392Y-47930208D01*
X38441044Y-47819953D01*
X38333329Y-47787284D01*
X38127000Y-47910626D01*
X37873000Y-47910626D01*
X37666671Y-47787284D01*
X37558956Y-47819953D01*
X37321608Y-47930208D01*
X37110330Y-48084649D01*
X36933241Y-48277340D01*
X36797147Y-48500877D01*
X36707278Y-48746670D01*
X36654050Y-48746670D01*
X36654050Y-47562595D01*
X46358282Y-47562595D01*
X46402039Y-47881675D01*
X46507205Y-48186088D01*
X46600186Y-48360044D01*
X46864587Y-48455808D01*
X47820395Y-47500000D01*
X48179605Y-47500000D01*
X49135413Y-48455808D01*
X49399814Y-48360044D01*
X49540704Y-48070429D01*
X49622384Y-47758892D01*
X49641718Y-47437405D01*
X49597961Y-47118325D01*
X49492795Y-46813912D01*
X49399814Y-46639956D01*
X49135413Y-46544192D01*
X48179605Y-47500000D01*
X47820395Y-47500000D01*
X46864587Y-46544192D01*
X46600186Y-46639956D01*
X46459296Y-46929571D01*
X46377616Y-47241108D01*
X46358282Y-47562595D01*
X36654050Y-47562595D01*
X36654050Y-46364587D01*
X47044192Y-46364587D01*
X48000000Y-47320395D01*
X48795395Y-46525000D01*
X56886928Y-46525000D01*
X56886928Y-48475000D01*
X56899188Y-48599482D01*
X56935498Y-48719180D01*
X56994463Y-48829494D01*
X57073815Y-48926185D01*
X57170506Y-49005537D01*
X57280820Y-49064502D01*
X57400518Y-49100812D01*
X57525000Y-49113072D01*
X59475000Y-49113072D01*
X59585581Y-49102181D01*
X59400686Y-49287076D01*
X59338286Y-49338286D01*
X59133969Y-49587249D01*
X58982148Y-49871286D01*
X58888657Y-50179485D01*
X58868034Y-50388873D01*
X58857089Y-50500000D01*
X58865000Y-50580320D01*
X58865001Y-53186700D01*
X58786923Y-53124031D01*
X58511094Y-52980429D01*
X58292980Y-52909437D01*
X58047000Y-53029406D01*
X58047000Y-54373000D01*
X58067000Y-54373000D01*
X58067000Y-54627000D01*
X58047000Y-54627000D01*
X58047000Y-55970594D01*
X58292980Y-56090563D01*
X58511094Y-56019571D01*
X58786923Y-55875969D01*
X59029437Y-55681315D01*
X59173481Y-55509636D01*
X59298287Y-55661713D01*
X59547248Y-55866030D01*
X59831286Y-56017852D01*
X60139484Y-56111342D01*
X60460000Y-56142911D01*
X60780516Y-56111342D01*
X61088714Y-56017852D01*
X61372752Y-55866030D01*
X61477277Y-55780248D01*
X61516963Y-55854494D01*
X61596315Y-55951185D01*
X61693006Y-56030537D01*
X61803320Y-56089502D01*
X61923018Y-56125812D01*
X62047500Y-56138072D01*
X63952500Y-56138072D01*
X64076982Y-56125812D01*
X64196680Y-56089502D01*
X64306994Y-56030537D01*
X64403685Y-55951185D01*
X64483037Y-55854494D01*
X64542002Y-55744180D01*
X64578312Y-55624482D01*
X64590572Y-55500000D01*
X64590572Y-54858665D01*
X65945000Y-54858665D01*
X65945000Y-55141335D01*
X66000147Y-55418574D01*
X66108320Y-55679727D01*
X66265363Y-55914759D01*
X66465241Y-56114637D01*
X66700273Y-56271680D01*
X66961426Y-56379853D01*
X67238665Y-56435000D01*
X67521335Y-56435000D01*
X67798574Y-56379853D01*
X68059727Y-56271680D01*
X68294759Y-56114637D01*
X68494637Y-55914759D01*
X68651680Y-55679727D01*
X68759853Y-55418574D01*
X68815000Y-55141335D01*
X68815000Y-54858665D01*
X73565000Y-54858665D01*
X73565000Y-55141335D01*
X73620147Y-55418574D01*
X73728320Y-55679727D01*
X73885363Y-55914759D01*
X74085241Y-56114637D01*
X74320273Y-56271680D01*
X74581426Y-56379853D01*
X74858665Y-56435000D01*
X75141335Y-56435000D01*
X75418574Y-56379853D01*
X75679727Y-56271680D01*
X75914759Y-56114637D01*
X76114637Y-55914759D01*
X76271680Y-55679727D01*
X76379853Y-55418574D01*
X76435000Y-55141335D01*
X76435000Y-54858665D01*
X76565000Y-54858665D01*
X76565000Y-55141335D01*
X76620147Y-55418574D01*
X76728320Y-55679727D01*
X76885363Y-55914759D01*
X77085241Y-56114637D01*
X77320273Y-56271680D01*
X77581426Y-56379853D01*
X77858665Y-56435000D01*
X78141335Y-56435000D01*
X78418574Y-56379853D01*
X78679727Y-56271680D01*
X78914759Y-56114637D01*
X79036694Y-55992702D01*
X82186903Y-55992702D01*
X82258486Y-56236671D01*
X82513996Y-56357571D01*
X82788184Y-56426300D01*
X83070512Y-56440217D01*
X83350130Y-56398787D01*
X83616292Y-56303603D01*
X83741514Y-56236671D01*
X83813097Y-55992702D01*
X83000000Y-55179605D01*
X82186903Y-55992702D01*
X79036694Y-55992702D01*
X79114637Y-55914759D01*
X79271680Y-55679727D01*
X79379853Y-55418574D01*
X79435000Y-55141335D01*
X79435000Y-55070512D01*
X81559783Y-55070512D01*
X81601213Y-55350130D01*
X81696397Y-55616292D01*
X81763329Y-55741514D01*
X82007298Y-55813097D01*
X82820395Y-55000000D01*
X83179605Y-55000000D01*
X83992702Y-55813097D01*
X84236671Y-55741514D01*
X84357571Y-55486004D01*
X84426300Y-55211816D01*
X84440217Y-54929488D01*
X84398787Y-54649870D01*
X84303603Y-54383708D01*
X84236671Y-54258486D01*
X83992702Y-54186903D01*
X83179605Y-55000000D01*
X82820395Y-55000000D01*
X82007298Y-54186903D01*
X81763329Y-54258486D01*
X81642429Y-54513996D01*
X81573700Y-54788184D01*
X81559783Y-55070512D01*
X79435000Y-55070512D01*
X79435000Y-54858665D01*
X79379853Y-54581426D01*
X79271680Y-54320273D01*
X79114637Y-54085241D01*
X79036694Y-54007298D01*
X82186903Y-54007298D01*
X83000000Y-54820395D01*
X83760945Y-54059450D01*
X119134500Y-54059450D01*
X119134500Y-54320550D01*
X119185438Y-54576634D01*
X119285357Y-54817860D01*
X119430417Y-55034957D01*
X119615043Y-55219583D01*
X119832140Y-55364643D01*
X120062352Y-55460000D01*
X119832140Y-55555357D01*
X119615043Y-55700417D01*
X119430417Y-55885043D01*
X119285357Y-56102140D01*
X119185438Y-56343366D01*
X119134500Y-56599450D01*
X119134500Y-56860550D01*
X119185438Y-57116634D01*
X119285357Y-57357860D01*
X119430417Y-57574957D01*
X119615043Y-57759583D01*
X119832140Y-57904643D01*
X120073366Y-58004562D01*
X120329450Y-58055500D01*
X120590550Y-58055500D01*
X120846634Y-58004562D01*
X121087860Y-57904643D01*
X121304957Y-57759583D01*
X121489583Y-57574957D01*
X121634643Y-57357860D01*
X121734562Y-57116634D01*
X121785500Y-56860550D01*
X121785500Y-56599450D01*
X121734562Y-56343366D01*
X121634643Y-56102140D01*
X121489583Y-55885043D01*
X121304957Y-55700417D01*
X121087860Y-55555357D01*
X120857648Y-55460000D01*
X121087860Y-55364643D01*
X121304957Y-55219583D01*
X121489583Y-55034957D01*
X121634643Y-54817860D01*
X121734562Y-54576634D01*
X121785500Y-54320550D01*
X121785500Y-54059450D01*
X121734562Y-53803366D01*
X121634643Y-53562140D01*
X121489583Y-53345043D01*
X121304957Y-53160417D01*
X121087860Y-53015357D01*
X120852448Y-52917846D01*
X121038047Y-52849939D01*
X121136567Y-52797279D01*
X121138527Y-52789450D01*
X121674500Y-52789450D01*
X121674500Y-53050550D01*
X121725438Y-53306634D01*
X121825357Y-53547860D01*
X121970417Y-53764957D01*
X122155043Y-53949583D01*
X122372140Y-54094643D01*
X122602352Y-54190000D01*
X122372140Y-54285357D01*
X122155043Y-54430417D01*
X121970417Y-54615043D01*
X121825357Y-54832140D01*
X121725438Y-55073366D01*
X121674500Y-55329450D01*
X121674500Y-55590550D01*
X121725438Y-55846634D01*
X121825357Y-56087860D01*
X121970417Y-56304957D01*
X122155043Y-56489583D01*
X122372140Y-56634643D01*
X122602352Y-56730000D01*
X122372140Y-56825357D01*
X122155043Y-56970417D01*
X121970417Y-57155043D01*
X121825357Y-57372140D01*
X121725438Y-57613366D01*
X121674500Y-57869450D01*
X121674500Y-58130550D01*
X121725438Y-58386634D01*
X121825357Y-58627860D01*
X121970417Y-58844957D01*
X122155043Y-59029583D01*
X122372140Y-59174643D01*
X122613366Y-59274562D01*
X122869450Y-59325500D01*
X123130550Y-59325500D01*
X123386634Y-59274562D01*
X123627860Y-59174643D01*
X123844957Y-59029583D01*
X124029583Y-58844957D01*
X124174643Y-58627860D01*
X124274562Y-58386634D01*
X124325500Y-58130550D01*
X124325500Y-57869450D01*
X124274562Y-57613366D01*
X124174643Y-57372140D01*
X124029583Y-57155043D01*
X123844957Y-56970417D01*
X123627860Y-56825357D01*
X123397648Y-56730000D01*
X123627860Y-56634643D01*
X123844957Y-56489583D01*
X124029583Y-56304957D01*
X124174643Y-56087860D01*
X124274562Y-55846634D01*
X124325500Y-55590550D01*
X124325500Y-55329450D01*
X124274562Y-55073366D01*
X124174643Y-54832140D01*
X124029583Y-54615043D01*
X123844957Y-54430417D01*
X123627860Y-54285357D01*
X123397648Y-54190000D01*
X123627860Y-54094643D01*
X123844957Y-53949583D01*
X124029583Y-53764957D01*
X124174643Y-53547860D01*
X124274562Y-53306634D01*
X124325500Y-53050550D01*
X124325500Y-52789450D01*
X124274562Y-52533366D01*
X124174643Y-52292140D01*
X124029583Y-52075043D01*
X123844957Y-51890417D01*
X123627860Y-51745357D01*
X123386634Y-51645438D01*
X123130550Y-51594500D01*
X122869450Y-51594500D01*
X122613366Y-51645438D01*
X122372140Y-51745357D01*
X122155043Y-51890417D01*
X121970417Y-52075043D01*
X121825357Y-52292140D01*
X121725438Y-52533366D01*
X121674500Y-52789450D01*
X121138527Y-52789450D01*
X121194875Y-52564480D01*
X120460000Y-51829605D01*
X119725125Y-52564480D01*
X119783433Y-52797279D01*
X120020257Y-52907227D01*
X120066229Y-52918394D01*
X119832140Y-53015357D01*
X119615043Y-53160417D01*
X119430417Y-53345043D01*
X119285357Y-53562140D01*
X119185438Y-53803366D01*
X119134500Y-54059450D01*
X83760945Y-54059450D01*
X83813097Y-54007298D01*
X83741514Y-53763329D01*
X83486004Y-53642429D01*
X83211816Y-53573700D01*
X82929488Y-53559783D01*
X82649870Y-53601213D01*
X82383708Y-53696397D01*
X82258486Y-53763329D01*
X82186903Y-54007298D01*
X79036694Y-54007298D01*
X78914759Y-53885363D01*
X78679727Y-53728320D01*
X78418574Y-53620147D01*
X78141335Y-53565000D01*
X77858665Y-53565000D01*
X77581426Y-53620147D01*
X77320273Y-53728320D01*
X77085241Y-53885363D01*
X76885363Y-54085241D01*
X76728320Y-54320273D01*
X76620147Y-54581426D01*
X76565000Y-54858665D01*
X76435000Y-54858665D01*
X76379853Y-54581426D01*
X76271680Y-54320273D01*
X76114637Y-54085241D01*
X75914759Y-53885363D01*
X75679727Y-53728320D01*
X75418574Y-53620147D01*
X75141335Y-53565000D01*
X74858665Y-53565000D01*
X74581426Y-53620147D01*
X74320273Y-53728320D01*
X74085241Y-53885363D01*
X73885363Y-54085241D01*
X73728320Y-54320273D01*
X73620147Y-54581426D01*
X73565000Y-54858665D01*
X68815000Y-54858665D01*
X68759853Y-54581426D01*
X68651680Y-54320273D01*
X68494637Y-54085241D01*
X68294759Y-53885363D01*
X68059727Y-53728320D01*
X67798574Y-53620147D01*
X67521335Y-53565000D01*
X67238665Y-53565000D01*
X66961426Y-53620147D01*
X66700273Y-53728320D01*
X66465241Y-53885363D01*
X66265363Y-54085241D01*
X66108320Y-54320273D01*
X66000147Y-54581426D01*
X65945000Y-54858665D01*
X64590572Y-54858665D01*
X64590572Y-53500000D01*
X64578312Y-53375518D01*
X64542002Y-53255820D01*
X64483037Y-53145506D01*
X64403685Y-53048815D01*
X64306994Y-52969463D01*
X64196680Y-52910498D01*
X64076982Y-52874188D01*
X63952500Y-52861928D01*
X62135000Y-52861928D01*
X62135000Y-51724849D01*
X119130192Y-51724849D01*
X119170346Y-51982844D01*
X119260061Y-52228047D01*
X119312721Y-52326567D01*
X119545520Y-52384875D01*
X120280395Y-51650000D01*
X119545520Y-50915125D01*
X119312721Y-50973433D01*
X119202773Y-51210257D01*
X119141141Y-51463979D01*
X119130192Y-51724849D01*
X62135000Y-51724849D01*
X62135000Y-51177238D01*
X62576718Y-50735520D01*
X119725125Y-50735520D01*
X120460000Y-51470395D01*
X120474143Y-51456253D01*
X120653748Y-51635858D01*
X120639605Y-51650000D01*
X121374480Y-52384875D01*
X121607279Y-52326567D01*
X121717227Y-52089743D01*
X121778859Y-51836021D01*
X121789550Y-51581306D01*
X121848718Y-51605814D01*
X122121127Y-51660000D01*
X122398873Y-51660000D01*
X122671282Y-51605814D01*
X122927885Y-51499525D01*
X123158822Y-51345218D01*
X123355218Y-51148822D01*
X123509525Y-50917885D01*
X123615814Y-50661282D01*
X123670000Y-50388873D01*
X123670000Y-50111127D01*
X123615814Y-49838718D01*
X123509525Y-49582115D01*
X123355218Y-49351178D01*
X123158822Y-49154782D01*
X122927885Y-49000475D01*
X122671282Y-48894186D01*
X122398873Y-48840000D01*
X122121127Y-48840000D01*
X121848718Y-48894186D01*
X121592115Y-49000475D01*
X121361178Y-49154782D01*
X121164782Y-49351178D01*
X121010475Y-49582115D01*
X120904186Y-49838718D01*
X120850000Y-50111127D01*
X120850000Y-50380690D01*
X120646021Y-50331141D01*
X120385151Y-50320192D01*
X120127156Y-50360346D01*
X119881953Y-50450061D01*
X119783433Y-50502721D01*
X119725125Y-50735520D01*
X62576718Y-50735520D01*
X64599325Y-48712915D01*
X64661714Y-48661714D01*
X64866031Y-48412752D01*
X65017852Y-48128715D01*
X65076176Y-47936446D01*
X65111343Y-47820517D01*
X65142911Y-47500000D01*
X65135000Y-47419678D01*
X65135000Y-47341429D01*
X66890000Y-47341429D01*
X66890000Y-47658571D01*
X66951871Y-47969620D01*
X67073237Y-48262621D01*
X67249431Y-48526315D01*
X67473685Y-48750569D01*
X67737379Y-48926763D01*
X68030380Y-49048129D01*
X68341429Y-49110000D01*
X68658571Y-49110000D01*
X68969620Y-49048129D01*
X69262621Y-48926763D01*
X69526315Y-48750569D01*
X69750569Y-48526315D01*
X69926763Y-48262621D01*
X70048129Y-47969620D01*
X70110000Y-47658571D01*
X70110000Y-47341429D01*
X70048129Y-47030380D01*
X69926763Y-46737379D01*
X69750569Y-46473685D01*
X69526315Y-46249431D01*
X69262621Y-46073237D01*
X68969620Y-45951871D01*
X68658571Y-45890000D01*
X68341429Y-45890000D01*
X68030380Y-45951871D01*
X67737379Y-46073237D01*
X67473685Y-46249431D01*
X67249431Y-46473685D01*
X67073237Y-46737379D01*
X66951871Y-47030380D01*
X66890000Y-47341429D01*
X65135000Y-47341429D01*
X65135000Y-43177238D01*
X65970809Y-42341429D01*
X66890000Y-42341429D01*
X66890000Y-42658571D01*
X66951871Y-42969620D01*
X67073237Y-43262621D01*
X67249431Y-43526315D01*
X67473685Y-43750569D01*
X67737379Y-43926763D01*
X68030380Y-44048129D01*
X68341429Y-44110000D01*
X68658571Y-44110000D01*
X68969620Y-44048129D01*
X69262621Y-43926763D01*
X69526315Y-43750569D01*
X69750569Y-43526315D01*
X69926763Y-43262621D01*
X70048129Y-42969620D01*
X70110000Y-42658571D01*
X70110000Y-42341429D01*
X70048129Y-42030380D01*
X69926763Y-41737379D01*
X69750569Y-41473685D01*
X69526315Y-41249431D01*
X69262621Y-41073237D01*
X68969620Y-40951871D01*
X68658571Y-40890000D01*
X68341429Y-40890000D01*
X68030380Y-40951871D01*
X67737379Y-41073237D01*
X67473685Y-41249431D01*
X67249431Y-41473685D01*
X67073237Y-41737379D01*
X66951871Y-42030380D01*
X66890000Y-42341429D01*
X65970809Y-42341429D01*
X69177239Y-39135000D01*
X71865001Y-39135000D01*
X71865000Y-42580321D01*
X71865001Y-42580331D01*
X71865000Y-47580321D01*
X71888657Y-47820515D01*
X71982148Y-48128714D01*
X72133969Y-48412751D01*
X72338286Y-48661714D01*
X72587248Y-48866031D01*
X72871285Y-49017852D01*
X73179484Y-49111343D01*
X73500000Y-49142911D01*
X73820515Y-49111343D01*
X74128714Y-49017852D01*
X74412751Y-48866031D01*
X74661714Y-48661714D01*
X74866031Y-48412752D01*
X75017852Y-48128715D01*
X75111343Y-47820516D01*
X75135000Y-47580322D01*
X75135000Y-47341429D01*
X76890000Y-47341429D01*
X76890000Y-47658571D01*
X76951871Y-47969620D01*
X77073237Y-48262621D01*
X77249431Y-48526315D01*
X77473685Y-48750569D01*
X77737379Y-48926763D01*
X78030380Y-49048129D01*
X78341429Y-49110000D01*
X78658571Y-49110000D01*
X78969620Y-49048129D01*
X79262621Y-48926763D01*
X79526315Y-48750569D01*
X79750569Y-48526315D01*
X79926763Y-48262621D01*
X80048129Y-47969620D01*
X80110000Y-47658571D01*
X80110000Y-47341429D01*
X80048129Y-47030380D01*
X79926763Y-46737379D01*
X79750569Y-46473685D01*
X79526315Y-46249431D01*
X79262621Y-46073237D01*
X78969620Y-45951871D01*
X78658571Y-45890000D01*
X78341429Y-45890000D01*
X78030380Y-45951871D01*
X77737379Y-46073237D01*
X77473685Y-46249431D01*
X77249431Y-46473685D01*
X77073237Y-46737379D01*
X76951871Y-47030380D01*
X76890000Y-47341429D01*
X75135000Y-47341429D01*
X75135000Y-42341429D01*
X76890000Y-42341429D01*
X76890000Y-42658571D01*
X76951871Y-42969620D01*
X77073237Y-43262621D01*
X77249431Y-43526315D01*
X77473685Y-43750569D01*
X77737379Y-43926763D01*
X78030380Y-44048129D01*
X78341429Y-44110000D01*
X78658571Y-44110000D01*
X78969620Y-44048129D01*
X79262621Y-43926763D01*
X79526315Y-43750569D01*
X79750569Y-43526315D01*
X79926763Y-43262621D01*
X80048129Y-42969620D01*
X80110000Y-42658571D01*
X80110000Y-42341429D01*
X80048129Y-42030380D01*
X79926763Y-41737379D01*
X79750569Y-41473685D01*
X79526315Y-41249431D01*
X79262621Y-41073237D01*
X78969620Y-40951871D01*
X78658571Y-40890000D01*
X78341429Y-40890000D01*
X78030380Y-40951871D01*
X77737379Y-41073237D01*
X77473685Y-41249431D01*
X77249431Y-41473685D01*
X77073237Y-41737379D01*
X76951871Y-42030380D01*
X76890000Y-42341429D01*
X75135000Y-42341429D01*
X75135000Y-39135000D01*
X81865001Y-39135000D01*
X81865000Y-42580321D01*
X81865001Y-42580331D01*
X81865000Y-47580321D01*
X81888657Y-47820515D01*
X81982148Y-48128714D01*
X82133969Y-48412751D01*
X82338286Y-48661714D01*
X82587248Y-48866031D01*
X82871285Y-49017852D01*
X83179484Y-49111343D01*
X83500000Y-49142911D01*
X83820515Y-49111343D01*
X84128714Y-49017852D01*
X84412751Y-48866031D01*
X84661714Y-48661714D01*
X84866031Y-48412752D01*
X85017852Y-48128715D01*
X85111343Y-47820516D01*
X85135000Y-47580322D01*
X85135000Y-47341429D01*
X86890000Y-47341429D01*
X86890000Y-47658571D01*
X86951871Y-47969620D01*
X87073237Y-48262621D01*
X87249431Y-48526315D01*
X87473685Y-48750569D01*
X87737379Y-48926763D01*
X88030380Y-49048129D01*
X88341429Y-49110000D01*
X88658571Y-49110000D01*
X88969620Y-49048129D01*
X89262621Y-48926763D01*
X89526315Y-48750569D01*
X89750569Y-48526315D01*
X89926763Y-48262621D01*
X90048129Y-47969620D01*
X90110000Y-47658571D01*
X90110000Y-47341429D01*
X90048129Y-47030380D01*
X89926763Y-46737379D01*
X89750569Y-46473685D01*
X89526315Y-46249431D01*
X89262621Y-46073237D01*
X88969620Y-45951871D01*
X88658571Y-45890000D01*
X88341429Y-45890000D01*
X88030380Y-45951871D01*
X87737379Y-46073237D01*
X87473685Y-46249431D01*
X87249431Y-46473685D01*
X87073237Y-46737379D01*
X86951871Y-47030380D01*
X86890000Y-47341429D01*
X85135000Y-47341429D01*
X85135000Y-42341429D01*
X86890000Y-42341429D01*
X86890000Y-42658571D01*
X86951871Y-42969620D01*
X87073237Y-43262621D01*
X87249431Y-43526315D01*
X87473685Y-43750569D01*
X87737379Y-43926763D01*
X88030380Y-44048129D01*
X88341429Y-44110000D01*
X88658571Y-44110000D01*
X88969620Y-44048129D01*
X89262621Y-43926763D01*
X89526315Y-43750569D01*
X89750569Y-43526315D01*
X89926763Y-43262621D01*
X90048129Y-42969620D01*
X90110000Y-42658571D01*
X90110000Y-42341429D01*
X90048129Y-42030380D01*
X89926763Y-41737379D01*
X89750569Y-41473685D01*
X89526315Y-41249431D01*
X89262621Y-41073237D01*
X88969620Y-40951871D01*
X88658571Y-40890000D01*
X88341429Y-40890000D01*
X88030380Y-40951871D01*
X87737379Y-41073237D01*
X87473685Y-41249431D01*
X87249431Y-41473685D01*
X87073237Y-41737379D01*
X86951871Y-42030380D01*
X86890000Y-42341429D01*
X85135000Y-42341429D01*
X85135000Y-39135000D01*
X87822762Y-39135000D01*
X91865000Y-43177239D01*
X91865001Y-47580322D01*
X91888658Y-47820516D01*
X91982149Y-48128715D01*
X92133970Y-48412752D01*
X92338287Y-48661714D01*
X92587249Y-48866031D01*
X92871286Y-49017852D01*
X93179485Y-49111343D01*
X93500000Y-49142911D01*
X93820516Y-49111343D01*
X94128715Y-49017852D01*
X94412752Y-48866031D01*
X94661714Y-48661714D01*
X94866031Y-48412752D01*
X95017852Y-48128715D01*
X95111343Y-47820516D01*
X95135000Y-47580322D01*
X95135000Y-42580321D01*
X95142911Y-42500000D01*
X95138972Y-42460000D01*
X102357319Y-42460000D01*
X102387970Y-42771204D01*
X102478745Y-43070449D01*
X102626155Y-43346235D01*
X102824537Y-43587963D01*
X102997609Y-43730000D01*
X102824537Y-43872037D01*
X102626155Y-44113765D01*
X102478745Y-44389551D01*
X102387970Y-44688796D01*
X102357319Y-45000000D01*
X102387970Y-45311204D01*
X102478745Y-45610449D01*
X102626155Y-45886235D01*
X102729446Y-46012095D01*
X102645506Y-46056963D01*
X102548815Y-46136315D01*
X102469463Y-46233006D01*
X102410498Y-46343320D01*
X102374188Y-46463018D01*
X102361928Y-46587500D01*
X102361928Y-48492500D01*
X102374188Y-48616982D01*
X102410498Y-48736680D01*
X102469463Y-48846994D01*
X102548815Y-48943685D01*
X102645506Y-49023037D01*
X102755820Y-49082002D01*
X102875518Y-49118312D01*
X103000000Y-49130572D01*
X105000000Y-49130572D01*
X105124482Y-49118312D01*
X105244180Y-49082002D01*
X105354494Y-49023037D01*
X105451185Y-48943685D01*
X105530537Y-48846994D01*
X105589502Y-48736680D01*
X105608212Y-48675000D01*
X107235848Y-48675000D01*
X107367641Y-48763061D01*
X107610595Y-48863696D01*
X107868514Y-48915000D01*
X108131486Y-48915000D01*
X108389405Y-48863696D01*
X108632359Y-48763061D01*
X108851013Y-48616962D01*
X109036962Y-48431013D01*
X109183061Y-48212359D01*
X109283696Y-47969405D01*
X109320438Y-47784693D01*
X112467060Y-44638072D01*
X113500000Y-44638072D01*
X113624482Y-44625812D01*
X113744180Y-44589502D01*
X113854494Y-44530537D01*
X113951185Y-44451185D01*
X114030537Y-44354494D01*
X114089502Y-44244180D01*
X114122496Y-44135413D01*
X116544192Y-44135413D01*
X116639956Y-44399814D01*
X116929571Y-44540704D01*
X117241108Y-44622384D01*
X117562595Y-44641718D01*
X117881675Y-44597961D01*
X118186088Y-44492795D01*
X118360044Y-44399814D01*
X118455808Y-44135413D01*
X117500000Y-43179605D01*
X116544192Y-44135413D01*
X114122496Y-44135413D01*
X114125812Y-44124482D01*
X114138072Y-44000000D01*
X114138072Y-43062595D01*
X115858282Y-43062595D01*
X115902039Y-43381675D01*
X116007205Y-43686088D01*
X116100186Y-43860044D01*
X116364587Y-43955808D01*
X117320395Y-43000000D01*
X117679605Y-43000000D01*
X118635413Y-43955808D01*
X118899814Y-43860044D01*
X119040704Y-43570429D01*
X119122384Y-43258892D01*
X119141718Y-42937405D01*
X119097961Y-42618325D01*
X118992795Y-42313912D01*
X118899814Y-42139956D01*
X118635413Y-42044192D01*
X117679605Y-43000000D01*
X117320395Y-43000000D01*
X116364587Y-42044192D01*
X116100186Y-42139956D01*
X115959296Y-42429571D01*
X115877616Y-42741108D01*
X115858282Y-43062595D01*
X114138072Y-43062595D01*
X114138072Y-42000000D01*
X114125812Y-41875518D01*
X114122497Y-41864587D01*
X116544192Y-41864587D01*
X117500000Y-42820395D01*
X118455808Y-41864587D01*
X118360044Y-41600186D01*
X118070429Y-41459296D01*
X117758892Y-41377616D01*
X117437405Y-41358282D01*
X117118325Y-41402039D01*
X116813912Y-41507205D01*
X116639956Y-41600186D01*
X116544192Y-41864587D01*
X114122497Y-41864587D01*
X114089502Y-41755820D01*
X114030537Y-41645506D01*
X113951185Y-41548815D01*
X113854494Y-41469463D01*
X113744180Y-41410498D01*
X113624482Y-41374188D01*
X113500000Y-41361928D01*
X111500000Y-41361928D01*
X111375518Y-41374188D01*
X111255820Y-41410498D01*
X111145506Y-41469463D01*
X111048815Y-41548815D01*
X110969463Y-41645506D01*
X110910498Y-41755820D01*
X110874188Y-41875518D01*
X110861928Y-42000000D01*
X110861928Y-43032940D01*
X107590058Y-46304811D01*
X107367641Y-46396939D01*
X107355577Y-46405000D01*
X105608212Y-46405000D01*
X105589502Y-46343320D01*
X105530537Y-46233006D01*
X105451185Y-46136315D01*
X105354494Y-46056963D01*
X105270554Y-46012095D01*
X105373845Y-45886235D01*
X105521255Y-45610449D01*
X105612030Y-45311204D01*
X105642681Y-45000000D01*
X105612030Y-44688796D01*
X105521255Y-44389551D01*
X105373845Y-44113765D01*
X105175463Y-43872037D01*
X105002391Y-43730000D01*
X105175463Y-43587963D01*
X105373845Y-43346235D01*
X105521255Y-43070449D01*
X105612030Y-42771204D01*
X105642681Y-42460000D01*
X105633671Y-42368514D01*
X106665000Y-42368514D01*
X106665000Y-42631486D01*
X106716304Y-42889405D01*
X106816939Y-43132359D01*
X106963038Y-43351013D01*
X107148987Y-43536962D01*
X107367641Y-43683061D01*
X107610595Y-43783696D01*
X107868514Y-43835000D01*
X108131486Y-43835000D01*
X108389405Y-43783696D01*
X108632359Y-43683061D01*
X108851013Y-43536962D01*
X109036962Y-43351013D01*
X109183061Y-43132359D01*
X109283696Y-42889405D01*
X109335000Y-42631486D01*
X109335000Y-42368514D01*
X109283696Y-42110595D01*
X109183061Y-41867641D01*
X109036962Y-41648987D01*
X108851013Y-41463038D01*
X108632359Y-41316939D01*
X108389405Y-41216304D01*
X108131486Y-41165000D01*
X107868514Y-41165000D01*
X107610595Y-41216304D01*
X107367641Y-41316939D01*
X107148987Y-41463038D01*
X106963038Y-41648987D01*
X106816939Y-41867641D01*
X106716304Y-42110595D01*
X106665000Y-42368514D01*
X105633671Y-42368514D01*
X105612030Y-42148796D01*
X105521255Y-41849551D01*
X105373845Y-41573765D01*
X105175463Y-41332037D01*
X104933735Y-41133655D01*
X104657949Y-40986245D01*
X104358704Y-40895470D01*
X104125486Y-40872500D01*
X103874514Y-40872500D01*
X103641296Y-40895470D01*
X103342051Y-40986245D01*
X103066265Y-41133655D01*
X102824537Y-41332037D01*
X102626155Y-41573765D01*
X102478745Y-41849551D01*
X102387970Y-42148796D01*
X102357319Y-42460000D01*
X95138972Y-42460000D01*
X95111343Y-42179483D01*
X95017852Y-41871285D01*
X95006235Y-41849551D01*
X94866031Y-41587248D01*
X94661714Y-41338286D01*
X94599320Y-41287081D01*
X91033016Y-37720777D01*
X119165000Y-37720777D01*
X119165000Y-38279223D01*
X119273948Y-38826939D01*
X119487656Y-39342876D01*
X119797912Y-39807207D01*
X120192793Y-40202088D01*
X120657124Y-40512344D01*
X121173061Y-40726052D01*
X121720777Y-40835000D01*
X122279223Y-40835000D01*
X122826939Y-40726052D01*
X123342876Y-40512344D01*
X123807207Y-40202088D01*
X124202088Y-39807207D01*
X124512344Y-39342876D01*
X124726052Y-38826939D01*
X124835000Y-38279223D01*
X124835000Y-37720777D01*
X124726052Y-37173061D01*
X124512344Y-36657124D01*
X124202088Y-36192793D01*
X123807207Y-35797912D01*
X123342876Y-35487656D01*
X122826939Y-35273948D01*
X122279223Y-35165000D01*
X121720777Y-35165000D01*
X121173061Y-35273948D01*
X120657124Y-35487656D01*
X120192793Y-35797912D01*
X119797912Y-36192793D01*
X119487656Y-36657124D01*
X119273948Y-37173061D01*
X119165000Y-37720777D01*
X91033016Y-37720777D01*
X89712925Y-36400687D01*
X89661714Y-36338286D01*
X89412752Y-36133969D01*
X89128715Y-35982148D01*
X88820516Y-35888657D01*
X88580322Y-35865000D01*
X88580319Y-35865000D01*
X88500000Y-35857089D01*
X88419681Y-35865000D01*
X83080319Y-35865000D01*
X83000000Y-35857089D01*
X82919681Y-35865000D01*
X74080322Y-35865000D01*
X74000000Y-35857089D01*
X73919678Y-35865000D01*
X68580322Y-35865000D01*
X68500000Y-35857089D01*
X68179483Y-35888657D01*
X67893283Y-35975475D01*
X67871285Y-35982148D01*
X67587248Y-36133969D01*
X67338286Y-36338286D01*
X67287080Y-36400681D01*
X62400682Y-41287080D01*
X62338287Y-41338286D01*
X62165511Y-41548815D01*
X62133970Y-41587248D01*
X61982148Y-41871286D01*
X61888658Y-42179484D01*
X61857089Y-42500000D01*
X61865001Y-42580329D01*
X61865000Y-46822760D01*
X60102181Y-48585580D01*
X60113072Y-48475000D01*
X60113072Y-46525000D01*
X60100812Y-46400518D01*
X60064502Y-46280820D01*
X60005537Y-46170506D01*
X59926185Y-46073815D01*
X59829494Y-45994463D01*
X59719180Y-45935498D01*
X59599482Y-45899188D01*
X59475000Y-45886928D01*
X57525000Y-45886928D01*
X57400518Y-45899188D01*
X57280820Y-45935498D01*
X57170506Y-45994463D01*
X57073815Y-46073815D01*
X56994463Y-46170506D01*
X56935498Y-46280820D01*
X56899188Y-46400518D01*
X56886928Y-46525000D01*
X48795395Y-46525000D01*
X48955808Y-46364587D01*
X48860044Y-46100186D01*
X48570429Y-45959296D01*
X48258892Y-45877616D01*
X47937405Y-45858282D01*
X47618325Y-45902039D01*
X47313912Y-46007205D01*
X47139956Y-46100186D01*
X47044192Y-46364587D01*
X36654050Y-46364587D01*
X36654050Y-43868514D01*
X36665000Y-43868514D01*
X36665000Y-44131486D01*
X36716304Y-44389405D01*
X36816939Y-44632359D01*
X36963038Y-44851013D01*
X37148987Y-45036962D01*
X37367641Y-45183061D01*
X37610595Y-45283696D01*
X37868514Y-45335000D01*
X38131486Y-45335000D01*
X38389405Y-45283696D01*
X38632359Y-45183061D01*
X38851013Y-45036962D01*
X39036962Y-44851013D01*
X39183061Y-44632359D01*
X39283696Y-44389405D01*
X39335000Y-44131486D01*
X39335000Y-43868514D01*
X39283696Y-43610595D01*
X39183061Y-43367641D01*
X39036962Y-43148987D01*
X38851013Y-42963038D01*
X38632359Y-42816939D01*
X38389405Y-42716304D01*
X38131486Y-42665000D01*
X37868514Y-42665000D01*
X37610595Y-42716304D01*
X37367641Y-42816939D01*
X37148987Y-42963038D01*
X36963038Y-43148987D01*
X36816939Y-43367641D01*
X36716304Y-43610595D01*
X36665000Y-43868514D01*
X36654050Y-43868514D01*
X36654050Y-41500000D01*
X46361928Y-41500000D01*
X46361928Y-43500000D01*
X46374188Y-43624482D01*
X46410498Y-43744180D01*
X46469463Y-43854494D01*
X46548815Y-43951185D01*
X46645506Y-44030537D01*
X46755820Y-44089502D01*
X46875518Y-44125812D01*
X47000000Y-44138072D01*
X49000000Y-44138072D01*
X49124482Y-44125812D01*
X49244180Y-44089502D01*
X49354494Y-44030537D01*
X49451185Y-43951185D01*
X49530537Y-43854494D01*
X49589502Y-43744180D01*
X49625812Y-43624482D01*
X49638072Y-43500000D01*
X49638072Y-41525000D01*
X56886928Y-41525000D01*
X56886928Y-43475000D01*
X56899188Y-43599482D01*
X56935498Y-43719180D01*
X56994463Y-43829494D01*
X57073815Y-43926185D01*
X57170506Y-44005537D01*
X57280820Y-44064502D01*
X57400518Y-44100812D01*
X57525000Y-44113072D01*
X59475000Y-44113072D01*
X59599482Y-44100812D01*
X59719180Y-44064502D01*
X59829494Y-44005537D01*
X59926185Y-43926185D01*
X60005537Y-43829494D01*
X60064502Y-43719180D01*
X60100812Y-43599482D01*
X60113072Y-43475000D01*
X60113072Y-41525000D01*
X60100812Y-41400518D01*
X60064502Y-41280820D01*
X60005537Y-41170506D01*
X59926185Y-41073815D01*
X59829494Y-40994463D01*
X59719180Y-40935498D01*
X59599482Y-40899188D01*
X59475000Y-40886928D01*
X57525000Y-40886928D01*
X57400518Y-40899188D01*
X57280820Y-40935498D01*
X57170506Y-40994463D01*
X57073815Y-41073815D01*
X56994463Y-41170506D01*
X56935498Y-41280820D01*
X56899188Y-41400518D01*
X56886928Y-41525000D01*
X49638072Y-41525000D01*
X49638072Y-41500000D01*
X49625812Y-41375518D01*
X49589502Y-41255820D01*
X49530537Y-41145506D01*
X49451185Y-41048815D01*
X49354494Y-40969463D01*
X49244180Y-40910498D01*
X49124482Y-40874188D01*
X49000000Y-40861928D01*
X47000000Y-40861928D01*
X46875518Y-40874188D01*
X46755820Y-40910498D01*
X46645506Y-40969463D01*
X46548815Y-41048815D01*
X46469463Y-41145506D01*
X46410498Y-41255820D01*
X46374188Y-41375518D01*
X46361928Y-41500000D01*
X36654050Y-41500000D01*
X36654050Y-38031993D01*
X36684564Y-37720777D01*
X37165000Y-37720777D01*
X37165000Y-38279223D01*
X37273948Y-38826939D01*
X37487656Y-39342876D01*
X37797912Y-39807207D01*
X38192793Y-40202088D01*
X38657124Y-40512344D01*
X39173061Y-40726052D01*
X39720777Y-40835000D01*
X40279223Y-40835000D01*
X40826939Y-40726052D01*
X41342876Y-40512344D01*
X41807207Y-40202088D01*
X42202088Y-39807207D01*
X42512344Y-39342876D01*
X42726052Y-38826939D01*
X42835000Y-38279223D01*
X42835000Y-37720777D01*
X42726052Y-37173061D01*
X42512344Y-36657124D01*
X42202088Y-36192793D01*
X41807207Y-35797912D01*
X41342876Y-35487656D01*
X40826939Y-35273948D01*
X40279223Y-35165000D01*
X39720777Y-35165000D01*
X39173061Y-35273948D01*
X38657124Y-35487656D01*
X38192793Y-35797912D01*
X37797912Y-36192793D01*
X37487656Y-36657124D01*
X37273948Y-37173061D01*
X37165000Y-37720777D01*
X36684564Y-37720777D01*
X36720850Y-37350709D01*
X36909416Y-36726152D01*
X37215699Y-36150117D01*
X37628038Y-35644539D01*
X38130721Y-35228682D01*
X38704606Y-34918384D01*
X39327834Y-34725463D01*
X40007276Y-34654050D01*
X121968007Y-34654050D01*
X122649291Y-34720850D01*
%TD*%
M02*
