%TF.GenerationSoftware,KiCad,Pcbnew,(5.1.6-0-10_14)*%
%TF.CreationDate,2020-08-18T03:36:25-05:00*%
%TF.ProjectId,Remote,52656d6f-7465-42e6-9b69-6361645f7063,rev?*%
%TF.SameCoordinates,Original*%
%TF.FileFunction,Soldermask,Bot*%
%TF.FilePolarity,Negative*%
%FSLAX46Y46*%
G04 Gerber Fmt 4.6, Leading zero omitted, Abs format (unit mm)*
G04 Created by KiCad (PCBNEW (5.1.6-0-10_14)) date 2020-08-18 03:36:25*
%MOMM*%
%LPD*%
G01*
G04 APERTURE LIST*
%ADD10C,0.100000*%
G04 APERTURE END LIST*
D10*
G36*
X148677716Y-146936545D02*
G01*
X149078091Y-147102385D01*
X149078093Y-147102386D01*
X149258254Y-147222766D01*
X149438418Y-147343148D01*
X149744852Y-147649582D01*
X149985615Y-148009909D01*
X150151455Y-148410284D01*
X150236000Y-148835319D01*
X150236000Y-149268681D01*
X150151455Y-149693716D01*
X149985615Y-150094091D01*
X149744852Y-150454418D01*
X149438418Y-150760852D01*
X149258254Y-150881234D01*
X149078093Y-151001614D01*
X149078092Y-151001615D01*
X149078091Y-151001615D01*
X148677716Y-151167455D01*
X148252681Y-151252000D01*
X147819319Y-151252000D01*
X147394284Y-151167455D01*
X146993909Y-151001615D01*
X146993908Y-151001615D01*
X146993907Y-151001614D01*
X146813746Y-150881234D01*
X146633582Y-150760852D01*
X146327148Y-150454418D01*
X146086385Y-150094091D01*
X145920545Y-149693716D01*
X145836000Y-149268681D01*
X145836000Y-148835319D01*
X145920545Y-148410284D01*
X146086385Y-148009909D01*
X146327148Y-147649582D01*
X146633582Y-147343148D01*
X146813746Y-147222766D01*
X146993907Y-147102386D01*
X146993909Y-147102385D01*
X147394284Y-146936545D01*
X147819319Y-146852000D01*
X148252681Y-146852000D01*
X148677716Y-146936545D01*
G37*
G36*
X126677716Y-146936545D02*
G01*
X127078091Y-147102385D01*
X127078093Y-147102386D01*
X127258254Y-147222766D01*
X127438418Y-147343148D01*
X127744852Y-147649582D01*
X127985615Y-148009909D01*
X128151455Y-148410284D01*
X128236000Y-148835319D01*
X128236000Y-149268681D01*
X128151455Y-149693716D01*
X127985615Y-150094091D01*
X127744852Y-150454418D01*
X127438418Y-150760852D01*
X127258254Y-150881234D01*
X127078093Y-151001614D01*
X127078092Y-151001615D01*
X127078091Y-151001615D01*
X126677716Y-151167455D01*
X126252681Y-151252000D01*
X125819319Y-151252000D01*
X125394284Y-151167455D01*
X124993909Y-151001615D01*
X124993908Y-151001615D01*
X124993907Y-151001614D01*
X124813746Y-150881234D01*
X124633582Y-150760852D01*
X124327148Y-150454418D01*
X124086385Y-150094091D01*
X123920545Y-149693716D01*
X123836000Y-149268681D01*
X123836000Y-148835319D01*
X123920545Y-148410284D01*
X124086385Y-148009909D01*
X124327148Y-147649582D01*
X124633582Y-147343148D01*
X124813746Y-147222766D01*
X124993907Y-147102386D01*
X124993909Y-147102385D01*
X125394284Y-146936545D01*
X125819319Y-146852000D01*
X126252681Y-146852000D01*
X126677716Y-146936545D01*
G37*
G36*
X145291228Y-141710626D02*
G01*
X145450468Y-141776585D01*
X145450470Y-141776586D01*
X145522124Y-141824464D01*
X145593780Y-141872343D01*
X145715657Y-141994220D01*
X145811415Y-142137532D01*
X145877374Y-142296772D01*
X145911000Y-142465820D01*
X145911000Y-142638180D01*
X145877374Y-142807228D01*
X145811415Y-142966468D01*
X145715657Y-143109780D01*
X145593780Y-143231657D01*
X145522124Y-143279536D01*
X145450470Y-143327414D01*
X145450469Y-143327415D01*
X145450468Y-143327415D01*
X145291228Y-143393374D01*
X145122180Y-143427000D01*
X144949820Y-143427000D01*
X144780772Y-143393374D01*
X144621532Y-143327415D01*
X144621531Y-143327415D01*
X144621530Y-143327414D01*
X144549876Y-143279536D01*
X144478220Y-143231657D01*
X144356343Y-143109780D01*
X144260585Y-142966468D01*
X144194626Y-142807228D01*
X144161000Y-142638180D01*
X144161000Y-142465820D01*
X144194626Y-142296772D01*
X144260585Y-142137532D01*
X144356343Y-141994220D01*
X144478220Y-141872343D01*
X144549876Y-141824464D01*
X144621530Y-141776586D01*
X144621532Y-141776585D01*
X144780772Y-141710626D01*
X144949820Y-141677000D01*
X145122180Y-141677000D01*
X145291228Y-141710626D01*
G37*
G36*
X139041228Y-141710626D02*
G01*
X139200468Y-141776585D01*
X139200470Y-141776586D01*
X139272124Y-141824464D01*
X139343780Y-141872343D01*
X139465657Y-141994220D01*
X139561415Y-142137532D01*
X139627374Y-142296772D01*
X139661000Y-142465820D01*
X139661000Y-142638180D01*
X139627374Y-142807228D01*
X139561415Y-142966468D01*
X139465657Y-143109780D01*
X139343780Y-143231657D01*
X139272124Y-143279536D01*
X139200470Y-143327414D01*
X139200469Y-143327415D01*
X139200468Y-143327415D01*
X139041228Y-143393374D01*
X138872180Y-143427000D01*
X138699820Y-143427000D01*
X138530772Y-143393374D01*
X138371532Y-143327415D01*
X138371531Y-143327415D01*
X138371530Y-143327414D01*
X138299876Y-143279536D01*
X138228220Y-143231657D01*
X138106343Y-143109780D01*
X138010585Y-142966468D01*
X137944626Y-142807228D01*
X137911000Y-142638180D01*
X137911000Y-142465820D01*
X137944626Y-142296772D01*
X138010585Y-142137532D01*
X138106343Y-141994220D01*
X138228220Y-141872343D01*
X138299876Y-141824464D01*
X138371530Y-141776586D01*
X138371532Y-141776585D01*
X138530772Y-141710626D01*
X138699820Y-141677000D01*
X138872180Y-141677000D01*
X139041228Y-141710626D01*
G37*
G36*
X145291228Y-139210626D02*
G01*
X145450468Y-139276585D01*
X145450470Y-139276586D01*
X145497433Y-139307966D01*
X145593780Y-139372343D01*
X145715657Y-139494220D01*
X145811415Y-139637532D01*
X145877374Y-139796772D01*
X145911000Y-139965820D01*
X145911000Y-140138180D01*
X145877374Y-140307228D01*
X145811415Y-140466468D01*
X145715657Y-140609780D01*
X145593780Y-140731657D01*
X145522124Y-140779536D01*
X145450470Y-140827414D01*
X145450469Y-140827415D01*
X145450468Y-140827415D01*
X145291228Y-140893374D01*
X145122180Y-140927000D01*
X144949820Y-140927000D01*
X144780772Y-140893374D01*
X144621532Y-140827415D01*
X144621531Y-140827415D01*
X144621530Y-140827414D01*
X144549876Y-140779536D01*
X144478220Y-140731657D01*
X144356343Y-140609780D01*
X144260585Y-140466468D01*
X144194626Y-140307228D01*
X144161000Y-140138180D01*
X144161000Y-139965820D01*
X144194626Y-139796772D01*
X144260585Y-139637532D01*
X144356343Y-139494220D01*
X144478220Y-139372343D01*
X144574567Y-139307966D01*
X144621530Y-139276586D01*
X144621532Y-139276585D01*
X144780772Y-139210626D01*
X144949820Y-139177000D01*
X145122180Y-139177000D01*
X145291228Y-139210626D01*
G37*
G36*
X128002059Y-139056783D02*
G01*
X128143100Y-139115204D01*
X128270034Y-139200018D01*
X128377982Y-139307966D01*
X128462796Y-139434900D01*
X128521217Y-139575941D01*
X128551000Y-139725669D01*
X128551000Y-139878331D01*
X128521217Y-140028059D01*
X128462796Y-140169100D01*
X128377982Y-140296034D01*
X128270034Y-140403982D01*
X128143100Y-140488796D01*
X128002059Y-140547217D01*
X127852331Y-140577000D01*
X127699669Y-140577000D01*
X127549941Y-140547217D01*
X127408900Y-140488796D01*
X127281966Y-140403982D01*
X127174018Y-140296034D01*
X127089204Y-140169100D01*
X127030783Y-140028059D01*
X127001000Y-139878331D01*
X127001000Y-139725669D01*
X127030783Y-139575941D01*
X127089204Y-139434900D01*
X127174018Y-139307966D01*
X127281966Y-139200018D01*
X127408900Y-139115204D01*
X127549941Y-139056783D01*
X127699669Y-139027000D01*
X127852331Y-139027000D01*
X128002059Y-139056783D01*
G37*
G36*
X129777411Y-137738036D02*
G01*
X129903074Y-137790087D01*
X129903076Y-137790088D01*
X129959621Y-137827871D01*
X130016168Y-137865654D01*
X130112346Y-137961832D01*
X130187913Y-138074926D01*
X130239964Y-138200589D01*
X130266500Y-138333992D01*
X130266500Y-138470008D01*
X130239964Y-138603411D01*
X130187913Y-138729074D01*
X130112346Y-138842168D01*
X130016168Y-138938346D01*
X129959621Y-138976129D01*
X129903076Y-139013912D01*
X129903075Y-139013913D01*
X129903074Y-139013913D01*
X129777411Y-139065964D01*
X129644008Y-139092500D01*
X129507992Y-139092500D01*
X129374589Y-139065964D01*
X129248926Y-139013913D01*
X129248925Y-139013913D01*
X129248924Y-139013912D01*
X129192379Y-138976130D01*
X129135832Y-138938346D01*
X129039654Y-138842168D01*
X128964087Y-138729074D01*
X128912036Y-138603411D01*
X128885500Y-138470008D01*
X128885500Y-138333992D01*
X128912036Y-138200589D01*
X128964087Y-138074926D01*
X129039654Y-137961832D01*
X129135832Y-137865654D01*
X129192379Y-137827871D01*
X129248924Y-137790088D01*
X129248926Y-137790087D01*
X129374589Y-137738036D01*
X129507992Y-137711500D01*
X129644008Y-137711500D01*
X129777411Y-137738036D01*
G37*
G36*
X145291228Y-136710626D02*
G01*
X145450468Y-136776585D01*
X145450470Y-136776586D01*
X145522124Y-136824464D01*
X145593780Y-136872343D01*
X145715657Y-136994220D01*
X145811415Y-137137532D01*
X145877374Y-137296772D01*
X145911000Y-137465820D01*
X145911000Y-137638180D01*
X145877374Y-137807228D01*
X145811415Y-137966468D01*
X145715657Y-138109780D01*
X145593780Y-138231657D01*
X145522124Y-138279536D01*
X145450470Y-138327414D01*
X145450469Y-138327415D01*
X145450468Y-138327415D01*
X145291228Y-138393374D01*
X145122180Y-138427000D01*
X144949820Y-138427000D01*
X144780772Y-138393374D01*
X144621532Y-138327415D01*
X144621531Y-138327415D01*
X144621530Y-138327414D01*
X144549876Y-138279536D01*
X144478220Y-138231657D01*
X144356343Y-138109780D01*
X144260585Y-137966468D01*
X144194626Y-137807228D01*
X144161000Y-137638180D01*
X144161000Y-137465820D01*
X144194626Y-137296772D01*
X144260585Y-137137532D01*
X144356343Y-136994220D01*
X144478220Y-136872343D01*
X144549876Y-136824464D01*
X144621530Y-136776586D01*
X144621532Y-136776585D01*
X144780772Y-136710626D01*
X144949820Y-136677000D01*
X145122180Y-136677000D01*
X145291228Y-136710626D01*
G37*
G36*
X139041228Y-136710626D02*
G01*
X139200468Y-136776585D01*
X139200470Y-136776586D01*
X139272124Y-136824464D01*
X139343780Y-136872343D01*
X139465657Y-136994220D01*
X139561415Y-137137532D01*
X139627374Y-137296772D01*
X139661000Y-137465820D01*
X139661000Y-137638180D01*
X139627374Y-137807228D01*
X139561415Y-137966468D01*
X139465657Y-138109780D01*
X139343780Y-138231657D01*
X139272124Y-138279536D01*
X139200470Y-138327414D01*
X139200469Y-138327415D01*
X139200468Y-138327415D01*
X139041228Y-138393374D01*
X138872180Y-138427000D01*
X138699820Y-138427000D01*
X138530772Y-138393374D01*
X138371532Y-138327415D01*
X138371531Y-138327415D01*
X138371530Y-138327414D01*
X138299876Y-138279536D01*
X138228220Y-138231657D01*
X138106343Y-138109780D01*
X138010585Y-137966468D01*
X137944626Y-137807228D01*
X137911000Y-137638180D01*
X137911000Y-137465820D01*
X137944626Y-137296772D01*
X138010585Y-137137532D01*
X138106343Y-136994220D01*
X138228220Y-136872343D01*
X138299876Y-136824464D01*
X138371530Y-136776586D01*
X138371532Y-136776585D01*
X138530772Y-136710626D01*
X138699820Y-136677000D01*
X138872180Y-136677000D01*
X139041228Y-136710626D01*
G37*
G36*
X127237411Y-136468036D02*
G01*
X127363074Y-136520087D01*
X127363076Y-136520088D01*
X127419621Y-136557871D01*
X127476168Y-136595654D01*
X127572346Y-136691832D01*
X127647913Y-136804926D01*
X127699964Y-136930589D01*
X127726500Y-137063992D01*
X127726500Y-137200008D01*
X127699964Y-137333411D01*
X127647913Y-137459074D01*
X127647912Y-137459076D01*
X127610129Y-137515621D01*
X127572346Y-137572168D01*
X127476168Y-137668346D01*
X127419621Y-137706129D01*
X127363076Y-137743912D01*
X127363075Y-137743913D01*
X127363074Y-137743913D01*
X127237411Y-137795964D01*
X127104008Y-137822500D01*
X126967992Y-137822500D01*
X126834589Y-137795964D01*
X126708926Y-137743913D01*
X126708925Y-137743913D01*
X126708924Y-137743912D01*
X126652379Y-137706129D01*
X126595832Y-137668346D01*
X126499654Y-137572168D01*
X126461871Y-137515621D01*
X126424088Y-137459076D01*
X126424087Y-137459074D01*
X126372036Y-137333411D01*
X126345500Y-137200008D01*
X126345500Y-137063992D01*
X126372036Y-136930589D01*
X126424087Y-136804926D01*
X126499654Y-136691832D01*
X126595832Y-136595654D01*
X126652379Y-136557870D01*
X126708924Y-136520088D01*
X126708926Y-136520087D01*
X126834589Y-136468036D01*
X126967992Y-136441500D01*
X127104008Y-136441500D01*
X127237411Y-136468036D01*
G37*
G36*
X129777411Y-135198036D02*
G01*
X129903074Y-135250087D01*
X129903076Y-135250088D01*
X129959621Y-135287870D01*
X130016168Y-135325654D01*
X130112346Y-135421832D01*
X130187913Y-135534926D01*
X130239964Y-135660589D01*
X130266500Y-135793992D01*
X130266500Y-135930008D01*
X130239964Y-136063411D01*
X130187913Y-136189074D01*
X130112346Y-136302168D01*
X130016168Y-136398346D01*
X129959621Y-136436129D01*
X129903076Y-136473912D01*
X129903075Y-136473913D01*
X129903074Y-136473913D01*
X129777411Y-136525964D01*
X129644008Y-136552500D01*
X129507992Y-136552500D01*
X129374589Y-136525964D01*
X129248926Y-136473913D01*
X129248925Y-136473913D01*
X129248924Y-136473912D01*
X129192379Y-136436129D01*
X129135832Y-136398346D01*
X129039654Y-136302168D01*
X128964087Y-136189074D01*
X128912036Y-136063411D01*
X128885500Y-135930008D01*
X128885500Y-135793992D01*
X128912036Y-135660589D01*
X128964087Y-135534926D01*
X129039654Y-135421832D01*
X129135832Y-135325654D01*
X129192379Y-135287870D01*
X129248924Y-135250088D01*
X129248926Y-135250087D01*
X129374589Y-135198036D01*
X129507992Y-135171500D01*
X129644008Y-135171500D01*
X129777411Y-135198036D01*
G37*
G36*
X127237411Y-133928036D02*
G01*
X127363074Y-133980087D01*
X127363076Y-133980088D01*
X127419621Y-134017871D01*
X127476168Y-134055654D01*
X127572346Y-134151832D01*
X127647913Y-134264926D01*
X127699964Y-134390589D01*
X127726500Y-134523992D01*
X127726500Y-134660008D01*
X127699964Y-134793411D01*
X127647913Y-134919074D01*
X127572346Y-135032168D01*
X127476168Y-135128346D01*
X127419621Y-135166130D01*
X127363076Y-135203912D01*
X127363075Y-135203913D01*
X127363074Y-135203913D01*
X127237411Y-135255964D01*
X127104008Y-135282500D01*
X126967992Y-135282500D01*
X126834589Y-135255964D01*
X126708926Y-135203913D01*
X126708925Y-135203913D01*
X126708924Y-135203912D01*
X126652379Y-135166130D01*
X126595832Y-135128346D01*
X126499654Y-135032168D01*
X126424087Y-134919074D01*
X126372036Y-134793411D01*
X126345500Y-134660008D01*
X126345500Y-134523992D01*
X126372036Y-134390589D01*
X126424087Y-134264926D01*
X126499654Y-134151832D01*
X126595832Y-134055654D01*
X126652379Y-134017871D01*
X126708924Y-133980088D01*
X126708926Y-133980087D01*
X126834589Y-133928036D01*
X126967992Y-133901500D01*
X127104008Y-133901500D01*
X127237411Y-133928036D01*
G37*
G36*
X129777411Y-132658036D02*
G01*
X129903074Y-132710087D01*
X129903076Y-132710088D01*
X129959621Y-132747871D01*
X130016168Y-132785654D01*
X130112346Y-132881832D01*
X130187913Y-132994926D01*
X130239964Y-133120589D01*
X130266500Y-133253992D01*
X130266500Y-133390008D01*
X130239964Y-133523411D01*
X130187913Y-133649074D01*
X130112346Y-133762168D01*
X130016168Y-133858346D01*
X129959621Y-133896130D01*
X129903076Y-133933912D01*
X129903075Y-133933913D01*
X129903074Y-133933913D01*
X129777411Y-133985964D01*
X129644008Y-134012500D01*
X129507992Y-134012500D01*
X129374589Y-133985964D01*
X129248926Y-133933913D01*
X129248925Y-133933913D01*
X129248924Y-133933912D01*
X129192379Y-133896129D01*
X129135832Y-133858346D01*
X129039654Y-133762168D01*
X128964087Y-133649074D01*
X128912036Y-133523411D01*
X128885500Y-133390008D01*
X128885500Y-133253992D01*
X128912036Y-133120589D01*
X128964087Y-132994926D01*
X129039654Y-132881832D01*
X129135832Y-132785654D01*
X129192379Y-132747871D01*
X129248924Y-132710088D01*
X129248926Y-132710087D01*
X129374589Y-132658036D01*
X129507992Y-132631500D01*
X129644008Y-132631500D01*
X129777411Y-132658036D01*
G37*
G36*
X127237411Y-131388036D02*
G01*
X127363074Y-131440087D01*
X127363076Y-131440088D01*
X127419621Y-131477870D01*
X127476168Y-131515654D01*
X127572346Y-131611832D01*
X127647913Y-131724926D01*
X127699964Y-131850589D01*
X127726500Y-131983992D01*
X127726500Y-132120008D01*
X127699964Y-132253411D01*
X127647913Y-132379074D01*
X127572346Y-132492168D01*
X127476168Y-132588346D01*
X127419621Y-132626129D01*
X127363076Y-132663912D01*
X127363075Y-132663913D01*
X127363074Y-132663913D01*
X127237411Y-132715964D01*
X127104008Y-132742500D01*
X126967992Y-132742500D01*
X126834589Y-132715964D01*
X126708926Y-132663913D01*
X126708925Y-132663913D01*
X126708924Y-132663912D01*
X126652379Y-132626129D01*
X126595832Y-132588346D01*
X126499654Y-132492168D01*
X126424087Y-132379074D01*
X126372036Y-132253411D01*
X126345500Y-132120008D01*
X126345500Y-131983992D01*
X126372036Y-131850589D01*
X126424087Y-131724926D01*
X126499654Y-131611832D01*
X126595832Y-131515654D01*
X126652379Y-131477871D01*
X126708924Y-131440088D01*
X126708926Y-131440087D01*
X126834589Y-131388036D01*
X126967992Y-131361500D01*
X127104008Y-131361500D01*
X127237411Y-131388036D01*
G37*
G36*
X145291228Y-129710626D02*
G01*
X145450468Y-129776585D01*
X145450470Y-129776586D01*
X145522124Y-129824464D01*
X145593780Y-129872343D01*
X145715657Y-129994220D01*
X145811415Y-130137532D01*
X145877374Y-130296772D01*
X145911000Y-130465820D01*
X145911000Y-130638180D01*
X145877374Y-130807228D01*
X145811415Y-130966468D01*
X145715657Y-131109780D01*
X145593780Y-131231657D01*
X145522124Y-131279536D01*
X145450470Y-131327414D01*
X145450469Y-131327415D01*
X145450468Y-131327415D01*
X145291228Y-131393374D01*
X145122180Y-131427000D01*
X144949820Y-131427000D01*
X144780772Y-131393374D01*
X144621532Y-131327415D01*
X144621531Y-131327415D01*
X144621530Y-131327414D01*
X144549876Y-131279536D01*
X144478220Y-131231657D01*
X144356343Y-131109780D01*
X144260585Y-130966468D01*
X144194626Y-130807228D01*
X144161000Y-130638180D01*
X144161000Y-130465820D01*
X144194626Y-130296772D01*
X144260585Y-130137532D01*
X144356343Y-129994220D01*
X144478220Y-129872343D01*
X144549876Y-129824464D01*
X144621530Y-129776586D01*
X144621532Y-129776585D01*
X144780772Y-129710626D01*
X144949820Y-129677000D01*
X145122180Y-129677000D01*
X145291228Y-129710626D01*
G37*
G36*
X139041228Y-129710626D02*
G01*
X139200468Y-129776585D01*
X139200470Y-129776586D01*
X139272124Y-129824464D01*
X139343780Y-129872343D01*
X139465657Y-129994220D01*
X139561415Y-130137532D01*
X139627374Y-130296772D01*
X139661000Y-130465820D01*
X139661000Y-130638180D01*
X139627374Y-130807228D01*
X139561415Y-130966468D01*
X139465657Y-131109780D01*
X139343780Y-131231657D01*
X139272124Y-131279536D01*
X139200470Y-131327414D01*
X139200469Y-131327415D01*
X139200468Y-131327415D01*
X139041228Y-131393374D01*
X138872180Y-131427000D01*
X138699820Y-131427000D01*
X138530772Y-131393374D01*
X138371532Y-131327415D01*
X138371531Y-131327415D01*
X138371530Y-131327414D01*
X138299876Y-131279536D01*
X138228220Y-131231657D01*
X138106343Y-131109780D01*
X138010585Y-130966468D01*
X137944626Y-130807228D01*
X137911000Y-130638180D01*
X137911000Y-130465820D01*
X137944626Y-130296772D01*
X138010585Y-130137532D01*
X138106343Y-129994220D01*
X138228220Y-129872343D01*
X138299876Y-129824464D01*
X138371530Y-129776586D01*
X138371532Y-129776585D01*
X138530772Y-129710626D01*
X138699820Y-129677000D01*
X138872180Y-129677000D01*
X139041228Y-129710626D01*
G37*
G36*
X134740182Y-127958901D02*
G01*
X134867574Y-128011668D01*
X134982224Y-128088274D01*
X135079726Y-128185776D01*
X135156332Y-128300426D01*
X135209099Y-128427818D01*
X135236000Y-128563056D01*
X135236000Y-128700944D01*
X135209099Y-128836182D01*
X135156332Y-128963574D01*
X135079726Y-129078224D01*
X134982224Y-129175726D01*
X134867574Y-129252332D01*
X134740182Y-129305099D01*
X134604944Y-129332000D01*
X134467056Y-129332000D01*
X134331818Y-129305099D01*
X134204426Y-129252332D01*
X134089776Y-129175726D01*
X133992274Y-129078224D01*
X133915668Y-128963574D01*
X133862901Y-128836182D01*
X133836000Y-128700944D01*
X133836000Y-128563056D01*
X133862901Y-128427818D01*
X133915668Y-128300426D01*
X133992274Y-128185776D01*
X134089776Y-128088274D01*
X134204426Y-128011668D01*
X134331818Y-127958901D01*
X134467056Y-127932000D01*
X134604944Y-127932000D01*
X134740182Y-127958901D01*
G37*
G36*
X145291228Y-127210626D02*
G01*
X145450468Y-127276585D01*
X145450470Y-127276586D01*
X145522124Y-127324464D01*
X145593780Y-127372343D01*
X145715657Y-127494220D01*
X145811415Y-127637532D01*
X145877374Y-127796772D01*
X145911000Y-127965820D01*
X145911000Y-128138180D01*
X145877374Y-128307228D01*
X145811415Y-128466468D01*
X145715657Y-128609780D01*
X145593780Y-128731657D01*
X145522124Y-128779536D01*
X145450470Y-128827414D01*
X145450469Y-128827415D01*
X145450468Y-128827415D01*
X145291228Y-128893374D01*
X145122180Y-128927000D01*
X144949820Y-128927000D01*
X144780772Y-128893374D01*
X144621532Y-128827415D01*
X144621531Y-128827415D01*
X144621530Y-128827414D01*
X144549876Y-128779536D01*
X144478220Y-128731657D01*
X144356343Y-128609780D01*
X144260585Y-128466468D01*
X144194626Y-128307228D01*
X144161000Y-128138180D01*
X144161000Y-127965820D01*
X144194626Y-127796772D01*
X144260585Y-127637532D01*
X144356343Y-127494220D01*
X144478220Y-127372343D01*
X144549876Y-127324464D01*
X144621530Y-127276586D01*
X144621532Y-127276585D01*
X144780772Y-127210626D01*
X144949820Y-127177000D01*
X145122180Y-127177000D01*
X145291228Y-127210626D01*
G37*
G36*
X145291228Y-124710626D02*
G01*
X145450468Y-124776585D01*
X145450470Y-124776586D01*
X145522124Y-124824464D01*
X145593780Y-124872343D01*
X145715657Y-124994220D01*
X145811415Y-125137532D01*
X145877374Y-125296772D01*
X145911000Y-125465820D01*
X145911000Y-125638180D01*
X145877374Y-125807228D01*
X145811415Y-125966468D01*
X145715657Y-126109780D01*
X145593780Y-126231657D01*
X145522124Y-126279536D01*
X145450470Y-126327414D01*
X145450469Y-126327415D01*
X145450468Y-126327415D01*
X145291228Y-126393374D01*
X145122180Y-126427000D01*
X144949820Y-126427000D01*
X144780772Y-126393374D01*
X144621532Y-126327415D01*
X144621531Y-126327415D01*
X144621530Y-126327414D01*
X144549876Y-126279536D01*
X144478220Y-126231657D01*
X144356343Y-126109780D01*
X144260585Y-125966468D01*
X144194626Y-125807228D01*
X144161000Y-125638180D01*
X144161000Y-125465820D01*
X144194626Y-125296772D01*
X144260585Y-125137532D01*
X144356343Y-124994220D01*
X144478220Y-124872343D01*
X144549876Y-124824464D01*
X144621530Y-124776586D01*
X144621532Y-124776585D01*
X144780772Y-124710626D01*
X144949820Y-124677000D01*
X145122180Y-124677000D01*
X145291228Y-124710626D01*
G37*
G36*
X139041228Y-124710626D02*
G01*
X139200468Y-124776585D01*
X139200470Y-124776586D01*
X139272124Y-124824464D01*
X139343780Y-124872343D01*
X139465657Y-124994220D01*
X139561415Y-125137532D01*
X139627374Y-125296772D01*
X139661000Y-125465820D01*
X139661000Y-125638180D01*
X139627374Y-125807228D01*
X139561415Y-125966468D01*
X139465657Y-126109780D01*
X139343780Y-126231657D01*
X139272124Y-126279536D01*
X139200470Y-126327414D01*
X139200469Y-126327415D01*
X139200468Y-126327415D01*
X139041228Y-126393374D01*
X138872180Y-126427000D01*
X138699820Y-126427000D01*
X138530772Y-126393374D01*
X138371532Y-126327415D01*
X138371531Y-126327415D01*
X138371530Y-126327414D01*
X138299876Y-126279536D01*
X138228220Y-126231657D01*
X138106343Y-126109780D01*
X138010585Y-125966468D01*
X137944626Y-125807228D01*
X137911000Y-125638180D01*
X137911000Y-125465820D01*
X137944626Y-125296772D01*
X138010585Y-125137532D01*
X138106343Y-124994220D01*
X138228220Y-124872343D01*
X138299876Y-124824464D01*
X138371530Y-124776586D01*
X138371532Y-124776585D01*
X138530772Y-124710626D01*
X138699820Y-124677000D01*
X138872180Y-124677000D01*
X139041228Y-124710626D01*
G37*
G36*
X129791228Y-122750626D02*
G01*
X129950468Y-122816585D01*
X129950470Y-122816586D01*
X130003470Y-122852000D01*
X130093780Y-122912343D01*
X130215657Y-123034220D01*
X130311415Y-123177532D01*
X130377374Y-123336772D01*
X130411000Y-123505820D01*
X130411000Y-123678180D01*
X130377374Y-123847228D01*
X130311415Y-124006468D01*
X130215657Y-124149780D01*
X130093780Y-124271657D01*
X130022124Y-124319536D01*
X129950470Y-124367414D01*
X129950469Y-124367415D01*
X129950468Y-124367415D01*
X129791228Y-124433374D01*
X129622180Y-124467000D01*
X129449820Y-124467000D01*
X129280772Y-124433374D01*
X129121532Y-124367415D01*
X129121531Y-124367415D01*
X129121530Y-124367414D01*
X129049876Y-124319536D01*
X128978220Y-124271657D01*
X128856343Y-124149780D01*
X128760585Y-124006468D01*
X128694626Y-123847228D01*
X128661000Y-123678180D01*
X128661000Y-123505820D01*
X128694626Y-123336772D01*
X128760585Y-123177532D01*
X128856343Y-123034220D01*
X128978220Y-122912343D01*
X129068530Y-122852000D01*
X129121530Y-122816586D01*
X129121532Y-122816585D01*
X129280772Y-122750626D01*
X129449820Y-122717000D01*
X129622180Y-122717000D01*
X129791228Y-122750626D01*
G37*
G36*
X134740182Y-122878901D02*
G01*
X134867574Y-122931668D01*
X134982224Y-123008274D01*
X135079726Y-123105776D01*
X135156332Y-123220426D01*
X135209099Y-123347818D01*
X135236000Y-123483056D01*
X135236000Y-123620944D01*
X135209099Y-123756182D01*
X135156332Y-123883574D01*
X135079726Y-123998224D01*
X134982224Y-124095726D01*
X134867574Y-124172332D01*
X134740182Y-124225099D01*
X134604944Y-124252000D01*
X134467056Y-124252000D01*
X134331818Y-124225099D01*
X134204426Y-124172332D01*
X134089776Y-124095726D01*
X133992274Y-123998224D01*
X133915668Y-123883574D01*
X133862901Y-123756182D01*
X133836000Y-123620944D01*
X133836000Y-123483056D01*
X133862901Y-123347818D01*
X133915668Y-123220426D01*
X133992274Y-123105776D01*
X134089776Y-123008274D01*
X134204426Y-122931668D01*
X134331818Y-122878901D01*
X134467056Y-122852000D01*
X134604944Y-122852000D01*
X134740182Y-122878901D01*
G37*
G36*
X140160182Y-121378901D02*
G01*
X140287574Y-121431668D01*
X140402224Y-121508274D01*
X140499726Y-121605776D01*
X140576332Y-121720426D01*
X140629099Y-121847818D01*
X140656000Y-121983056D01*
X140656000Y-122120944D01*
X140629099Y-122256182D01*
X140576332Y-122383574D01*
X140499726Y-122498224D01*
X140402224Y-122595726D01*
X140287574Y-122672332D01*
X140160182Y-122725099D01*
X140024944Y-122752000D01*
X139887056Y-122752000D01*
X139751818Y-122725099D01*
X139624426Y-122672332D01*
X139509776Y-122595726D01*
X139412274Y-122498224D01*
X139335668Y-122383574D01*
X139282901Y-122256182D01*
X139256000Y-122120944D01*
X139256000Y-121983056D01*
X139282901Y-121847818D01*
X139335668Y-121720426D01*
X139412274Y-121605776D01*
X139509776Y-121508274D01*
X139624426Y-121431668D01*
X139751818Y-121378901D01*
X139887056Y-121352000D01*
X140024944Y-121352000D01*
X140160182Y-121378901D01*
G37*
G36*
X145240182Y-121378901D02*
G01*
X145367574Y-121431668D01*
X145482224Y-121508274D01*
X145579726Y-121605776D01*
X145656332Y-121720426D01*
X145709099Y-121847818D01*
X145736000Y-121983056D01*
X145736000Y-122120944D01*
X145709099Y-122256182D01*
X145656332Y-122383574D01*
X145579726Y-122498224D01*
X145482224Y-122595726D01*
X145367574Y-122672332D01*
X145240182Y-122725099D01*
X145104944Y-122752000D01*
X144967056Y-122752000D01*
X144831818Y-122725099D01*
X144704426Y-122672332D01*
X144589776Y-122595726D01*
X144492274Y-122498224D01*
X144415668Y-122383574D01*
X144362901Y-122256182D01*
X144336000Y-122120944D01*
X144336000Y-121983056D01*
X144362901Y-121847818D01*
X144415668Y-121720426D01*
X144492274Y-121605776D01*
X144589776Y-121508274D01*
X144704426Y-121431668D01*
X144831818Y-121378901D01*
X144967056Y-121352000D01*
X145104944Y-121352000D01*
X145240182Y-121378901D01*
G37*
G36*
X129791228Y-120210626D02*
G01*
X129950468Y-120276585D01*
X129950470Y-120276586D01*
X130022124Y-120324464D01*
X130093780Y-120372343D01*
X130215657Y-120494220D01*
X130311415Y-120637532D01*
X130377374Y-120796772D01*
X130411000Y-120965820D01*
X130411000Y-121138180D01*
X130377374Y-121307228D01*
X130311415Y-121466468D01*
X130215657Y-121609780D01*
X130093780Y-121731657D01*
X130022124Y-121779536D01*
X129950470Y-121827414D01*
X129950469Y-121827415D01*
X129950468Y-121827415D01*
X129791228Y-121893374D01*
X129622180Y-121927000D01*
X129449820Y-121927000D01*
X129280772Y-121893374D01*
X129121532Y-121827415D01*
X129121531Y-121827415D01*
X129121530Y-121827414D01*
X129049876Y-121779536D01*
X128978220Y-121731657D01*
X128856343Y-121609780D01*
X128760585Y-121466468D01*
X128694626Y-121307228D01*
X128661000Y-121138180D01*
X128661000Y-120965820D01*
X128694626Y-120796772D01*
X128760585Y-120637532D01*
X128856343Y-120494220D01*
X128978220Y-120372343D01*
X129049876Y-120324464D01*
X129121530Y-120276586D01*
X129121532Y-120276585D01*
X129280772Y-120210626D01*
X129449820Y-120177000D01*
X129622180Y-120177000D01*
X129791228Y-120210626D01*
G37*
G36*
X129791228Y-117670626D02*
G01*
X129950468Y-117736585D01*
X129950470Y-117736586D01*
X130022124Y-117784464D01*
X130093780Y-117832343D01*
X130215657Y-117954220D01*
X130311415Y-118097532D01*
X130377374Y-118256772D01*
X130411000Y-118425820D01*
X130411000Y-118598180D01*
X130377374Y-118767228D01*
X130311415Y-118926468D01*
X130215657Y-119069780D01*
X130093780Y-119191657D01*
X130022124Y-119239536D01*
X129950470Y-119287414D01*
X129950469Y-119287415D01*
X129950468Y-119287415D01*
X129791228Y-119353374D01*
X129622180Y-119387000D01*
X129449820Y-119387000D01*
X129280772Y-119353374D01*
X129121532Y-119287415D01*
X129121531Y-119287415D01*
X129121530Y-119287414D01*
X129049876Y-119239536D01*
X128978220Y-119191657D01*
X128856343Y-119069780D01*
X128760585Y-118926468D01*
X128694626Y-118767228D01*
X128661000Y-118598180D01*
X128661000Y-118425820D01*
X128694626Y-118256772D01*
X128760585Y-118097532D01*
X128856343Y-117954220D01*
X128978220Y-117832343D01*
X129049876Y-117784464D01*
X129121530Y-117736586D01*
X129121532Y-117736585D01*
X129280772Y-117670626D01*
X129449820Y-117637000D01*
X129622180Y-117637000D01*
X129791228Y-117670626D01*
G37*
G36*
X140714236Y-115371298D02*
G01*
X140886665Y-115405596D01*
X141211515Y-115540153D01*
X141503871Y-115735500D01*
X141752500Y-115984129D01*
X141947847Y-116276485D01*
X142082404Y-116601335D01*
X142151000Y-116946193D01*
X142151000Y-117297807D01*
X142082404Y-117642665D01*
X141947847Y-117967515D01*
X141752500Y-118259871D01*
X141503871Y-118508500D01*
X141211515Y-118703847D01*
X140886665Y-118838404D01*
X140714236Y-118872702D01*
X140541809Y-118907000D01*
X140190191Y-118907000D01*
X140017764Y-118872702D01*
X139845335Y-118838404D01*
X139520485Y-118703847D01*
X139228129Y-118508500D01*
X138979500Y-118259871D01*
X138784153Y-117967515D01*
X138649596Y-117642665D01*
X138581000Y-117297807D01*
X138581000Y-116946193D01*
X138649596Y-116601335D01*
X138784153Y-116276485D01*
X138979500Y-115984129D01*
X139228129Y-115735500D01*
X139520485Y-115540153D01*
X139845335Y-115405596D01*
X140017764Y-115371298D01*
X140190191Y-115337000D01*
X140541809Y-115337000D01*
X140714236Y-115371298D01*
G37*
G36*
X135034236Y-115371298D02*
G01*
X135206665Y-115405596D01*
X135531515Y-115540153D01*
X135823871Y-115735500D01*
X136072500Y-115984129D01*
X136267847Y-116276485D01*
X136402404Y-116601335D01*
X136471000Y-116946193D01*
X136471000Y-117297807D01*
X136402404Y-117642665D01*
X136267847Y-117967515D01*
X136072500Y-118259871D01*
X135823871Y-118508500D01*
X135531515Y-118703847D01*
X135206665Y-118838404D01*
X135034236Y-118872702D01*
X134861809Y-118907000D01*
X134510191Y-118907000D01*
X134337764Y-118872702D01*
X134165335Y-118838404D01*
X133840485Y-118703847D01*
X133548129Y-118508500D01*
X133299500Y-118259871D01*
X133104153Y-117967515D01*
X132969596Y-117642665D01*
X132901000Y-117297807D01*
X132901000Y-116946193D01*
X132969596Y-116601335D01*
X133104153Y-116276485D01*
X133299500Y-115984129D01*
X133548129Y-115735500D01*
X133840485Y-115540153D01*
X134165335Y-115405596D01*
X134337764Y-115371298D01*
X134510191Y-115337000D01*
X134861809Y-115337000D01*
X135034236Y-115371298D01*
G37*
G36*
X138406000Y-114802000D02*
G01*
X136906000Y-114802000D01*
X136906000Y-113302000D01*
X138406000Y-113302000D01*
X138406000Y-114802000D01*
G37*
G36*
X135786000Y-114802000D02*
G01*
X134286000Y-114802000D01*
X134286000Y-113302000D01*
X135786000Y-113302000D01*
X135786000Y-114802000D01*
G37*
G36*
X135254767Y-110830822D02*
G01*
X135345761Y-110868513D01*
X135391259Y-110887359D01*
X135472965Y-110941954D01*
X135514097Y-110969437D01*
X135618563Y-111073903D01*
X135618564Y-111073905D01*
X135700641Y-111196741D01*
X135700641Y-111196742D01*
X135757178Y-111333233D01*
X135786000Y-111478131D01*
X135786000Y-111625869D01*
X135757178Y-111770767D01*
X135719487Y-111861761D01*
X135700641Y-111907259D01*
X135646046Y-111988965D01*
X135618563Y-112030097D01*
X135514097Y-112134563D01*
X135472965Y-112162046D01*
X135391259Y-112216641D01*
X135345761Y-112235487D01*
X135254767Y-112273178D01*
X135109869Y-112302000D01*
X134962131Y-112302000D01*
X134817233Y-112273178D01*
X134726239Y-112235487D01*
X134680741Y-112216641D01*
X134599035Y-112162046D01*
X134557903Y-112134563D01*
X134453437Y-112030097D01*
X134425954Y-111988965D01*
X134371359Y-111907259D01*
X134352513Y-111861761D01*
X134314822Y-111770767D01*
X134286000Y-111625869D01*
X134286000Y-111478131D01*
X134314822Y-111333233D01*
X134371359Y-111196742D01*
X134371359Y-111196741D01*
X134453436Y-111073905D01*
X134453437Y-111073903D01*
X134557903Y-110969437D01*
X134599035Y-110941954D01*
X134680741Y-110887359D01*
X134726239Y-110868513D01*
X134817233Y-110830822D01*
X134962131Y-110802000D01*
X135109869Y-110802000D01*
X135254767Y-110830822D01*
G37*
G36*
X137874767Y-110830822D02*
G01*
X137965761Y-110868513D01*
X138011259Y-110887359D01*
X138092965Y-110941954D01*
X138134097Y-110969437D01*
X138238563Y-111073903D01*
X138238564Y-111073905D01*
X138320641Y-111196741D01*
X138320641Y-111196742D01*
X138377178Y-111333233D01*
X138406000Y-111478131D01*
X138406000Y-111625869D01*
X138377178Y-111770767D01*
X138339487Y-111861761D01*
X138320641Y-111907259D01*
X138266046Y-111988965D01*
X138238563Y-112030097D01*
X138134097Y-112134563D01*
X138092965Y-112162046D01*
X138011259Y-112216641D01*
X137965761Y-112235487D01*
X137874767Y-112273178D01*
X137729869Y-112302000D01*
X137582131Y-112302000D01*
X137437233Y-112273178D01*
X137346239Y-112235487D01*
X137300741Y-112216641D01*
X137219035Y-112162046D01*
X137177903Y-112134563D01*
X137073437Y-112030097D01*
X137045954Y-111988965D01*
X136991359Y-111907259D01*
X136972513Y-111861761D01*
X136934822Y-111770767D01*
X136906000Y-111625869D01*
X136906000Y-111478131D01*
X136934822Y-111333233D01*
X136991359Y-111196742D01*
X136991359Y-111196741D01*
X137073436Y-111073905D01*
X137073437Y-111073903D01*
X137177903Y-110969437D01*
X137219035Y-110941954D01*
X137300741Y-110887359D01*
X137346239Y-110868513D01*
X137437233Y-110830822D01*
X137582131Y-110802000D01*
X137729869Y-110802000D01*
X137874767Y-110830822D01*
G37*
G36*
X129791228Y-109750626D02*
G01*
X129950468Y-109816585D01*
X129950470Y-109816586D01*
X130022124Y-109864464D01*
X130093780Y-109912343D01*
X130215657Y-110034220D01*
X130311415Y-110177532D01*
X130377374Y-110336772D01*
X130411000Y-110505820D01*
X130411000Y-110678180D01*
X130377374Y-110847228D01*
X130311415Y-111006468D01*
X130215657Y-111149780D01*
X130093780Y-111271657D01*
X130022124Y-111319536D01*
X129950470Y-111367414D01*
X129950469Y-111367415D01*
X129950468Y-111367415D01*
X129791228Y-111433374D01*
X129622180Y-111467000D01*
X129449820Y-111467000D01*
X129280772Y-111433374D01*
X129121532Y-111367415D01*
X129121531Y-111367415D01*
X129121530Y-111367414D01*
X129049876Y-111319536D01*
X128978220Y-111271657D01*
X128856343Y-111149780D01*
X128760585Y-111006468D01*
X128694626Y-110847228D01*
X128661000Y-110678180D01*
X128661000Y-110505820D01*
X128694626Y-110336772D01*
X128760585Y-110177532D01*
X128856343Y-110034220D01*
X128978220Y-109912343D01*
X129049876Y-109864464D01*
X129121530Y-109816586D01*
X129121532Y-109816585D01*
X129280772Y-109750626D01*
X129449820Y-109717000D01*
X129622180Y-109717000D01*
X129791228Y-109750626D01*
G37*
G36*
X135254767Y-108830822D02*
G01*
X135345761Y-108868513D01*
X135391259Y-108887359D01*
X135472965Y-108941954D01*
X135514097Y-108969437D01*
X135618563Y-109073903D01*
X135618564Y-109073905D01*
X135700641Y-109196741D01*
X135700641Y-109196742D01*
X135757178Y-109333233D01*
X135786000Y-109478131D01*
X135786000Y-109625869D01*
X135757178Y-109770767D01*
X135738199Y-109816585D01*
X135700641Y-109907259D01*
X135646046Y-109988965D01*
X135618563Y-110030097D01*
X135514097Y-110134563D01*
X135472965Y-110162046D01*
X135391259Y-110216641D01*
X135345761Y-110235487D01*
X135254767Y-110273178D01*
X135109869Y-110302000D01*
X134962131Y-110302000D01*
X134817233Y-110273178D01*
X134726239Y-110235487D01*
X134680741Y-110216641D01*
X134599035Y-110162046D01*
X134557903Y-110134563D01*
X134453437Y-110030097D01*
X134425954Y-109988965D01*
X134371359Y-109907259D01*
X134333801Y-109816585D01*
X134314822Y-109770767D01*
X134286000Y-109625869D01*
X134286000Y-109478131D01*
X134314822Y-109333233D01*
X134371359Y-109196742D01*
X134371359Y-109196741D01*
X134453436Y-109073905D01*
X134453437Y-109073903D01*
X134557903Y-108969437D01*
X134599035Y-108941954D01*
X134680741Y-108887359D01*
X134726239Y-108868513D01*
X134817233Y-108830822D01*
X134962131Y-108802000D01*
X135109869Y-108802000D01*
X135254767Y-108830822D01*
G37*
G36*
X137874767Y-108830822D02*
G01*
X137965761Y-108868513D01*
X138011259Y-108887359D01*
X138092965Y-108941954D01*
X138134097Y-108969437D01*
X138238563Y-109073903D01*
X138238564Y-109073905D01*
X138320641Y-109196741D01*
X138320641Y-109196742D01*
X138377178Y-109333233D01*
X138406000Y-109478131D01*
X138406000Y-109625869D01*
X138377178Y-109770767D01*
X138358199Y-109816585D01*
X138320641Y-109907259D01*
X138266046Y-109988965D01*
X138238563Y-110030097D01*
X138134097Y-110134563D01*
X138092965Y-110162046D01*
X138011259Y-110216641D01*
X137965761Y-110235487D01*
X137874767Y-110273178D01*
X137729869Y-110302000D01*
X137582131Y-110302000D01*
X137437233Y-110273178D01*
X137346239Y-110235487D01*
X137300741Y-110216641D01*
X137219035Y-110162046D01*
X137177903Y-110134563D01*
X137073437Y-110030097D01*
X137045954Y-109988965D01*
X136991359Y-109907259D01*
X136953801Y-109816585D01*
X136934822Y-109770767D01*
X136906000Y-109625869D01*
X136906000Y-109478131D01*
X136934822Y-109333233D01*
X136991359Y-109196742D01*
X136991359Y-109196741D01*
X137073436Y-109073905D01*
X137073437Y-109073903D01*
X137177903Y-108969437D01*
X137219035Y-108941954D01*
X137300741Y-108887359D01*
X137346239Y-108868513D01*
X137437233Y-108830822D01*
X137582131Y-108802000D01*
X137729869Y-108802000D01*
X137874767Y-108830822D01*
G37*
G36*
X129791228Y-107210626D02*
G01*
X129950468Y-107276585D01*
X129950470Y-107276586D01*
X130022124Y-107324464D01*
X130093780Y-107372343D01*
X130215657Y-107494220D01*
X130215658Y-107494222D01*
X130309432Y-107634563D01*
X130311415Y-107637532D01*
X130377374Y-107796772D01*
X130411000Y-107965820D01*
X130411000Y-108138180D01*
X130377374Y-108307228D01*
X130311415Y-108466468D01*
X130215657Y-108609780D01*
X130093780Y-108731657D01*
X130022124Y-108779536D01*
X129950470Y-108827414D01*
X129950469Y-108827415D01*
X129950468Y-108827415D01*
X129791228Y-108893374D01*
X129622180Y-108927000D01*
X129449820Y-108927000D01*
X129280772Y-108893374D01*
X129121532Y-108827415D01*
X129121531Y-108827415D01*
X129121530Y-108827414D01*
X129049876Y-108779536D01*
X128978220Y-108731657D01*
X128856343Y-108609780D01*
X128760585Y-108466468D01*
X128694626Y-108307228D01*
X128661000Y-108138180D01*
X128661000Y-107965820D01*
X128694626Y-107796772D01*
X128760585Y-107637532D01*
X128762569Y-107634563D01*
X128856342Y-107494222D01*
X128856343Y-107494220D01*
X128978220Y-107372343D01*
X129049876Y-107324464D01*
X129121530Y-107276586D01*
X129121532Y-107276585D01*
X129280772Y-107210626D01*
X129449820Y-107177000D01*
X129622180Y-107177000D01*
X129791228Y-107210626D01*
G37*
G36*
X135254767Y-106330822D02*
G01*
X135345761Y-106368513D01*
X135391259Y-106387359D01*
X135472965Y-106441954D01*
X135514097Y-106469437D01*
X135618563Y-106573903D01*
X135618564Y-106573905D01*
X135700641Y-106696741D01*
X135700641Y-106696742D01*
X135757178Y-106833233D01*
X135786000Y-106978131D01*
X135786000Y-107125869D01*
X135757178Y-107270767D01*
X135719487Y-107361761D01*
X135700641Y-107407259D01*
X135646046Y-107488965D01*
X135618563Y-107530097D01*
X135514097Y-107634563D01*
X135472965Y-107662046D01*
X135391259Y-107716641D01*
X135345761Y-107735487D01*
X135254767Y-107773178D01*
X135109869Y-107802000D01*
X134962131Y-107802000D01*
X134817233Y-107773178D01*
X134726239Y-107735487D01*
X134680741Y-107716641D01*
X134599035Y-107662046D01*
X134557903Y-107634563D01*
X134453437Y-107530097D01*
X134425954Y-107488965D01*
X134371359Y-107407259D01*
X134352513Y-107361761D01*
X134314822Y-107270767D01*
X134286000Y-107125869D01*
X134286000Y-106978131D01*
X134314822Y-106833233D01*
X134371359Y-106696742D01*
X134371359Y-106696741D01*
X134453436Y-106573905D01*
X134453437Y-106573903D01*
X134557903Y-106469437D01*
X134599035Y-106441954D01*
X134680741Y-106387359D01*
X134726239Y-106368513D01*
X134817233Y-106330822D01*
X134962131Y-106302000D01*
X135109869Y-106302000D01*
X135254767Y-106330822D01*
G37*
G36*
X137884767Y-106330822D02*
G01*
X137975761Y-106368513D01*
X138021259Y-106387359D01*
X138102965Y-106441954D01*
X138144097Y-106469437D01*
X138248563Y-106573903D01*
X138248564Y-106573905D01*
X138330641Y-106696741D01*
X138330641Y-106696742D01*
X138387178Y-106833233D01*
X138416000Y-106978131D01*
X138416000Y-107125869D01*
X138387178Y-107270767D01*
X138349487Y-107361761D01*
X138330641Y-107407259D01*
X138276046Y-107488965D01*
X138248563Y-107530097D01*
X138144097Y-107634563D01*
X138102965Y-107662046D01*
X138021259Y-107716641D01*
X137975761Y-107735487D01*
X137884767Y-107773178D01*
X137739869Y-107802000D01*
X137592131Y-107802000D01*
X137447233Y-107773178D01*
X137356239Y-107735487D01*
X137310741Y-107716641D01*
X137229035Y-107662046D01*
X137187903Y-107634563D01*
X137083437Y-107530097D01*
X137055954Y-107488965D01*
X137001359Y-107407259D01*
X136982513Y-107361761D01*
X136944822Y-107270767D01*
X136916000Y-107125869D01*
X136916000Y-106978131D01*
X136944822Y-106833233D01*
X137001359Y-106696742D01*
X137001359Y-106696741D01*
X137083436Y-106573905D01*
X137083437Y-106573903D01*
X137187903Y-106469437D01*
X137229035Y-106441954D01*
X137310741Y-106387359D01*
X137356239Y-106368513D01*
X137447233Y-106330822D01*
X137592131Y-106302000D01*
X137739869Y-106302000D01*
X137884767Y-106330822D01*
G37*
G36*
X129791228Y-104670626D02*
G01*
X129950468Y-104736585D01*
X129950470Y-104736586D01*
X130022124Y-104784464D01*
X130093780Y-104832343D01*
X130215657Y-104954220D01*
X130311415Y-105097532D01*
X130377374Y-105256772D01*
X130411000Y-105425820D01*
X130411000Y-105598180D01*
X130377374Y-105767228D01*
X130311415Y-105926468D01*
X130215657Y-106069780D01*
X130093780Y-106191657D01*
X130022124Y-106239536D01*
X129950470Y-106287414D01*
X129950469Y-106287415D01*
X129950468Y-106287415D01*
X129791228Y-106353374D01*
X129622180Y-106387000D01*
X129449820Y-106387000D01*
X129280772Y-106353374D01*
X129121532Y-106287415D01*
X129121531Y-106287415D01*
X129121530Y-106287414D01*
X129049876Y-106239536D01*
X128978220Y-106191657D01*
X128856343Y-106069780D01*
X128760585Y-105926468D01*
X128694626Y-105767228D01*
X128661000Y-105598180D01*
X128661000Y-105425820D01*
X128694626Y-105256772D01*
X128760585Y-105097532D01*
X128856343Y-104954220D01*
X128978220Y-104832343D01*
X129049876Y-104784464D01*
X129121530Y-104736586D01*
X129121532Y-104736585D01*
X129280772Y-104670626D01*
X129449820Y-104637000D01*
X129622180Y-104637000D01*
X129791228Y-104670626D01*
G37*
G36*
X140714236Y-102231298D02*
G01*
X140886665Y-102265596D01*
X141211515Y-102400153D01*
X141503871Y-102595500D01*
X141752500Y-102844129D01*
X141947847Y-103136485D01*
X142082404Y-103461335D01*
X142151000Y-103806193D01*
X142151000Y-104157807D01*
X142082404Y-104502665D01*
X141947847Y-104827515D01*
X141752500Y-105119871D01*
X141503871Y-105368500D01*
X141211515Y-105563847D01*
X140886665Y-105698404D01*
X140714236Y-105732702D01*
X140541809Y-105767000D01*
X140190191Y-105767000D01*
X140017764Y-105732702D01*
X139845335Y-105698404D01*
X139520485Y-105563847D01*
X139228129Y-105368500D01*
X138979500Y-105119871D01*
X138784153Y-104827515D01*
X138649596Y-104502665D01*
X138581000Y-104157807D01*
X138581000Y-103806193D01*
X138649596Y-103461335D01*
X138784153Y-103136485D01*
X138979500Y-102844129D01*
X139228129Y-102595500D01*
X139520485Y-102400153D01*
X139845335Y-102265596D01*
X140017764Y-102231298D01*
X140190191Y-102197000D01*
X140541809Y-102197000D01*
X140714236Y-102231298D01*
G37*
G36*
X135034236Y-102231298D02*
G01*
X135206665Y-102265596D01*
X135531515Y-102400153D01*
X135823871Y-102595500D01*
X136072500Y-102844129D01*
X136267847Y-103136485D01*
X136402404Y-103461335D01*
X136471000Y-103806193D01*
X136471000Y-104157807D01*
X136402404Y-104502665D01*
X136267847Y-104827515D01*
X136072500Y-105119871D01*
X135823871Y-105368500D01*
X135531515Y-105563847D01*
X135206665Y-105698404D01*
X135034236Y-105732702D01*
X134861809Y-105767000D01*
X134510191Y-105767000D01*
X134337764Y-105732702D01*
X134165335Y-105698404D01*
X133840485Y-105563847D01*
X133548129Y-105368500D01*
X133299500Y-105119871D01*
X133104153Y-104827515D01*
X132969596Y-104502665D01*
X132901000Y-104157807D01*
X132901000Y-103806193D01*
X132969596Y-103461335D01*
X133104153Y-103136485D01*
X133299500Y-102844129D01*
X133548129Y-102595500D01*
X133840485Y-102400153D01*
X134165335Y-102265596D01*
X134337764Y-102231298D01*
X134510191Y-102197000D01*
X134861809Y-102197000D01*
X135034236Y-102231298D01*
G37*
G36*
X148677716Y-94936545D02*
G01*
X149078091Y-95102385D01*
X149078093Y-95102386D01*
X149258255Y-95222767D01*
X149438418Y-95343148D01*
X149744852Y-95649582D01*
X149985615Y-96009909D01*
X150151455Y-96410284D01*
X150236000Y-96835319D01*
X150236000Y-97268681D01*
X150151455Y-97693716D01*
X149985615Y-98094091D01*
X149744852Y-98454418D01*
X149438418Y-98760852D01*
X149258254Y-98881234D01*
X149078093Y-99001614D01*
X149078092Y-99001615D01*
X149078091Y-99001615D01*
X148677716Y-99167455D01*
X148252681Y-99252000D01*
X147819319Y-99252000D01*
X147394284Y-99167455D01*
X146993909Y-99001615D01*
X146993908Y-99001615D01*
X146993907Y-99001614D01*
X146813746Y-98881234D01*
X146633582Y-98760852D01*
X146327148Y-98454418D01*
X146086385Y-98094091D01*
X145920545Y-97693716D01*
X145836000Y-97268681D01*
X145836000Y-96835319D01*
X145920545Y-96410284D01*
X146086385Y-96009909D01*
X146327148Y-95649582D01*
X146633582Y-95343148D01*
X146813745Y-95222767D01*
X146993907Y-95102386D01*
X146993909Y-95102385D01*
X147394284Y-94936545D01*
X147819319Y-94852000D01*
X148252681Y-94852000D01*
X148677716Y-94936545D01*
G37*
G36*
X126677716Y-94936545D02*
G01*
X127078091Y-95102385D01*
X127078093Y-95102386D01*
X127258255Y-95222767D01*
X127438418Y-95343148D01*
X127744852Y-95649582D01*
X127985615Y-96009909D01*
X128151455Y-96410284D01*
X128236000Y-96835319D01*
X128236000Y-97268681D01*
X128151455Y-97693716D01*
X127985615Y-98094091D01*
X127744852Y-98454418D01*
X127438418Y-98760852D01*
X127258254Y-98881234D01*
X127078093Y-99001614D01*
X127078092Y-99001615D01*
X127078091Y-99001615D01*
X126677716Y-99167455D01*
X126252681Y-99252000D01*
X125819319Y-99252000D01*
X125394284Y-99167455D01*
X124993909Y-99001615D01*
X124993908Y-99001615D01*
X124993907Y-99001614D01*
X124813746Y-98881234D01*
X124633582Y-98760852D01*
X124327148Y-98454418D01*
X124086385Y-98094091D01*
X123920545Y-97693716D01*
X123836000Y-97268681D01*
X123836000Y-96835319D01*
X123920545Y-96410284D01*
X124086385Y-96009909D01*
X124327148Y-95649582D01*
X124633582Y-95343148D01*
X124813745Y-95222767D01*
X124993907Y-95102386D01*
X124993909Y-95102385D01*
X125394284Y-94936545D01*
X125819319Y-94852000D01*
X126252681Y-94852000D01*
X126677716Y-94936545D01*
G37*
M02*
