M48
; DRILL file {KiCad (5.1.6-0-10_14)} date Tuesday, August 18, 2020 at 03:36:19 AM
; FORMAT={-:-/ absolute / metric / decimal}
; #@! TF.CreationDate,2020-08-18T03:36:19-05:00
; #@! TF.GenerationSoftware,Kicad,Pcbnew,(5.1.6-0-10_14)
; #@! TF.FileFunction,Plated,1,2,PTH
FMAT,2
METRIC
T1C0.300
T2C0.700
T3C0.850
T4C1.000
T5C2.200
T6C2.380
%
G90
G05
T1
X131.536Y-131.052
X135.036Y-135.552
X135.036Y-135.552
X135.036Y-140.052
T2
X139.956Y-122.052
X145.036Y-122.052
X134.536Y-123.552
X134.536Y-128.632
T3
X127.036Y-132.052
X127.036Y-134.592
X127.036Y-137.132
X129.576Y-133.322
X129.576Y-135.862
X129.576Y-138.402
T4
X138.786Y-125.552
X138.786Y-130.552
X145.036Y-125.552
X145.036Y-128.052
X145.036Y-130.552
X135.036Y-107.052
X135.036Y-109.552
X135.036Y-111.552
X135.036Y-114.052
X137.656Y-109.552
X137.656Y-111.552
X137.656Y-114.052
X137.666Y-107.052
X138.786Y-137.552
X138.786Y-142.552
X145.036Y-137.552
X145.036Y-140.052
X145.036Y-142.552
X129.536Y-105.512
X129.536Y-108.052
X129.536Y-110.592
X129.536Y-118.512
X129.536Y-121.052
X129.536Y-123.592
T5
X126.036Y-149.052
X126.036Y-97.052
X148.036Y-149.052
X148.036Y-97.052
T6
X134.686Y-103.982
X134.686Y-117.122
X140.366Y-103.982
X140.366Y-117.122
T0
M30
