%TF.GenerationSoftware,KiCad,Pcbnew,(5.1.6-0-10_14)*%
%TF.CreationDate,2020-08-18T03:36:25-05:00*%
%TF.ProjectId,Remote,52656d6f-7465-42e6-9b69-6361645f7063,rev?*%
%TF.SameCoordinates,Original*%
%TF.FileFunction,Copper,L1,Top*%
%TF.FilePolarity,Positive*%
%FSLAX46Y46*%
G04 Gerber Fmt 4.6, Leading zero omitted, Abs format (unit mm)*
G04 Created by KiCad (PCBNEW (5.1.6-0-10_14)) date 2020-08-18 03:36:25*
%MOMM*%
%LPD*%
G01*
G04 APERTURE LIST*
%TA.AperFunction,ComponentPad*%
%ADD10C,1.750000*%
%TD*%
%TA.AperFunction,ComponentPad*%
%ADD11C,4.400000*%
%TD*%
%TA.AperFunction,ComponentPad*%
%ADD12R,1.500000X1.500000*%
%TD*%
%TA.AperFunction,ComponentPad*%
%ADD13C,1.500000*%
%TD*%
%TA.AperFunction,ComponentPad*%
%ADD14C,3.570000*%
%TD*%
%TA.AperFunction,ComponentPad*%
%ADD15C,1.381000*%
%TD*%
%TA.AperFunction,ComponentPad*%
%ADD16O,1.400000X1.400000*%
%TD*%
%TA.AperFunction,ComponentPad*%
%ADD17C,1.400000*%
%TD*%
%TA.AperFunction,ViaPad*%
%ADD18C,0.600000*%
%TD*%
%TA.AperFunction,Conductor*%
%ADD19C,1.000000*%
%TD*%
%TA.AperFunction,Conductor*%
%ADD20C,0.600000*%
%TD*%
G04 APERTURE END LIST*
D10*
%TO.P,U4,3*%
%TO.N,5VB*%
X129536000Y-110592000D03*
%TO.P,U4,1*%
%TO.N,12ish-Rmt*%
X129536000Y-105512000D03*
%TO.P,U4,2*%
%TO.N,Com-Rmt*%
X129536000Y-108052000D03*
%TD*%
D11*
%TO.P,H4,1*%
%TO.N,N/C*%
X126036000Y-97052000D03*
%TD*%
%TO.P,H3,1*%
%TO.N,N/C*%
X148036000Y-97052000D03*
%TD*%
%TO.P,H2,1*%
%TO.N,N/C*%
X126036000Y-149052000D03*
%TD*%
%TO.P,H1,1*%
%TO.N,N/C*%
X148036000Y-149052000D03*
%TD*%
D10*
%TO.P,U3,3*%
%TO.N,5VA*%
X129536000Y-123592000D03*
%TO.P,U3,1*%
%TO.N,12ish-Rmt*%
X129536000Y-118512000D03*
%TO.P,U3,2*%
%TO.N,Com-Rmt*%
X129536000Y-121052000D03*
%TD*%
%TO.P,RP2,4*%
%TO.N,Com-Rmt*%
X138786000Y-130552000D03*
%TO.P,RP2,5*%
%TO.N,Auto_Man-Rmt*%
X138786000Y-125552000D03*
%TO.P,RP2,1*%
%TO.N,Com-Rmt*%
X145036000Y-130552000D03*
%TO.P,RP2,3*%
%TO.N,Net-(R5-Pad2)*%
X145036000Y-125552000D03*
%TO.P,RP2,2*%
%TO.N,Color-Rmt*%
X145036000Y-128052000D03*
%TD*%
%TO.P,RP1,4*%
%TO.N,Com-Rmt*%
X138786000Y-142552000D03*
%TO.P,RP1,5*%
%TO.N,On_Off-Rmt*%
X138786000Y-137552000D03*
%TO.P,RP1,1*%
%TO.N,Com-Rmt*%
X145036000Y-142552000D03*
%TO.P,RP1,3*%
%TO.N,Net-(R4-Pad2)*%
X145036000Y-137552000D03*
%TO.P,RP1,2*%
%TO.N,Brightness-Rmt*%
X145036000Y-140052000D03*
%TD*%
D12*
%TO.P,J8,A1*%
%TO.N,5VB*%
X135036000Y-114052000D03*
D13*
%TO.P,J8,A2*%
%TO.N,Net-(J8-PadA2)*%
X135036000Y-111552000D03*
%TO.P,J8,A3*%
X135036000Y-109552000D03*
%TO.P,J8,A4*%
%TO.N,Com-Rmt*%
X135036000Y-107052000D03*
D12*
%TO.P,J8,B1*%
%TO.N,5VA*%
X137656000Y-114052000D03*
D13*
%TO.P,J8,B2*%
%TO.N,Net-(J8-PadB2)*%
X137656000Y-111552000D03*
%TO.P,J8,B3*%
X137656000Y-109552000D03*
%TO.P,J8,B4*%
%TO.N,Com-Rmt*%
X137666000Y-107052000D03*
D14*
%TO.P,J8,MH1*%
%TO.N,Net-(J8-PadMH1)*%
X140366000Y-117122000D03*
%TO.P,J8,MH2*%
%TO.N,Net-(J8-PadMH2)*%
X140366000Y-103982000D03*
%TO.P,J8,MH3*%
%TO.N,Net-(J8-PadMH3)*%
X134686000Y-103982000D03*
%TO.P,J8,MH4*%
%TO.N,Net-(J8-PadMH4)*%
X134686000Y-117122000D03*
%TD*%
D15*
%TO.P,J5,1*%
%TO.N,Brightness-Rmt*%
X127036000Y-132052000D03*
%TO.P,J5,2*%
%TO.N,Auto_Man-Rmt*%
X129576000Y-133322000D03*
%TO.P,J5,3*%
%TO.N,Color-Rmt*%
X127036000Y-134592000D03*
%TO.P,J5,4*%
%TO.N,On_Off-Rmt*%
X129576000Y-135862000D03*
%TO.P,J5,5*%
%TO.N,12ish-Rmt*%
X127036000Y-137132000D03*
%TO.P,J5,6*%
%TO.N,Com-Rmt*%
X129576000Y-138402000D03*
%TD*%
D16*
%TO.P,R5,2*%
%TO.N,Net-(R5-Pad2)*%
X145036000Y-122052000D03*
D17*
%TO.P,R5,1*%
%TO.N,5VA*%
X139956000Y-122052000D03*
%TD*%
D16*
%TO.P,R4,2*%
%TO.N,Net-(R4-Pad2)*%
X134536000Y-128632000D03*
D17*
%TO.P,R4,1*%
%TO.N,5VA*%
X134536000Y-123552000D03*
%TD*%
D18*
%TO.N,Brightness-Rmt*%
X135036000Y-140052000D03*
X135036000Y-135552000D03*
X135036000Y-135552000D03*
X131536000Y-131052000D03*
%TD*%
D19*
%TO.N,Com-Rmt*%
X129536000Y-138442000D02*
X129576000Y-138402000D01*
%TO.N,Brightness-Rmt*%
X145036000Y-140052000D02*
X135036000Y-140052000D01*
X135036000Y-140052000D02*
X135036000Y-140052000D01*
X135036000Y-135552000D02*
X135036000Y-134552000D01*
X135036000Y-134552000D02*
X131536000Y-131052000D01*
X131536000Y-131052000D02*
X131536000Y-131052000D01*
%TO.N,Color-Rmt*%
X149036000Y-130052000D02*
X147036000Y-128052000D01*
X149036000Y-142552000D02*
X149036000Y-130052000D01*
X127036000Y-134592000D02*
X125036000Y-136592000D01*
X145036000Y-146552000D02*
X149036000Y-142552000D01*
X125036000Y-141052000D02*
X130536000Y-146552000D01*
X147036000Y-128052000D02*
X145036000Y-128052000D01*
X130536000Y-146552000D02*
X145036000Y-146552000D01*
X125036000Y-136592000D02*
X125036000Y-141052000D01*
%TO.N,On_Off-Rmt*%
X129576000Y-135862000D02*
X130846000Y-135862000D01*
X132536000Y-137552000D02*
X138786000Y-137552000D01*
X130846000Y-135862000D02*
X132536000Y-137552000D01*
%TO.N,Auto_Man-Rmt*%
X138786000Y-125552000D02*
X137536000Y-125552000D01*
X137536000Y-125552000D02*
X137036000Y-126052000D01*
X137036000Y-126052000D02*
X131036000Y-126052000D01*
X129576000Y-127512000D02*
X129576000Y-133322000D01*
X131036000Y-126052000D02*
X129576000Y-127512000D01*
%TO.N,Net-(R4-Pad2)*%
X134536000Y-128632000D02*
X134536000Y-131052000D01*
X134536000Y-131052000D02*
X137536000Y-134052000D01*
X141536000Y-134052000D02*
X145036000Y-137552000D01*
X137536000Y-134052000D02*
X141536000Y-134052000D01*
%TO.N,5VA*%
X134496000Y-123592000D02*
X134536000Y-123552000D01*
X129536000Y-123592000D02*
X134496000Y-123592000D01*
X134536000Y-123552000D02*
X135536000Y-123552000D01*
X135536000Y-123552000D02*
X137036000Y-122052000D01*
X137656000Y-121672000D02*
X138036000Y-122052000D01*
X137656000Y-114052000D02*
X137656000Y-121672000D01*
X138036000Y-122052000D02*
X140036000Y-122052000D01*
X137036000Y-122052000D02*
X138036000Y-122052000D01*
%TO.N,Net-(R5-Pad2)*%
X145036000Y-122052000D02*
X145036000Y-125552000D01*
%TO.N,5VB*%
X129536000Y-110592000D02*
X132996000Y-114052000D01*
X132996000Y-114052000D02*
X135036000Y-114052000D01*
D20*
%TO.N,Net-(J8-PadA2)*%
X135036000Y-109552000D02*
X135036000Y-111552000D01*
%TO.N,Net-(J8-PadB2)*%
X137656000Y-109552000D02*
X137656000Y-111552000D01*
%TD*%
M02*
